<svg width="25" height="25" viewBox="0 0 25 25" fill="none" xmlns="http://www.w3.org/2000/svg">
<path d="M14.5563 12.5L23.7438 3.32708C24.0184 3.05247 24.1727 2.68002 24.1727 2.29166C24.1727 1.90331 24.0184 1.53086 23.7438 1.25625C23.4692 0.981636 23.0968 0.827362 22.7084 0.827362C22.32 0.827362 21.9476 0.981636 21.673 1.25625L12.5001 10.4437L3.32716 1.25625C3.05255 0.981636 2.6801 0.827362 2.29174 0.827362C1.90338 0.827362 1.53093 0.981636 1.25632 1.25625C0.981714 1.53086 0.82744 1.90331 0.82744 2.29166C0.82744 2.68002 0.981714 3.05247 1.25632 3.32708L10.4438 12.5L1.25632 21.6729C1.11964 21.8085 1.01115 21.9698 0.937107 22.1475C0.86307 22.3252 0.824951 22.5158 0.824951 22.7083C0.824951 22.9008 0.86307 23.0915 0.937107 23.2692C1.01115 23.4469 1.11964 23.6082 1.25632 23.7437C1.39189 23.8804 1.55319 23.9889 1.7309 24.063C1.90861 24.137 2.09922 24.1751 2.29174 24.1751C2.48426 24.1751 2.67487 24.137 2.85258 24.063C3.03029 23.9889 3.19159 23.8804 3.32716 23.7437L12.5001 14.5562L21.673 23.7437C21.8086 23.8804 21.9699 23.9889 22.1476 24.063C22.3253 24.137 22.5159 24.1751 22.7084 24.1751C22.9009 24.1751 23.0915 24.137 23.2692 24.063C23.447 23.9889 23.6082 23.8804 23.7438 23.7437C23.8805 23.6082 23.989 23.4469 24.063 23.2692C24.1371 23.0915 24.1752 22.9008 24.1752 22.7083C24.1752 22.5158 24.1371 22.3252 24.063 22.1475C23.989 21.9698 23.8805 21.8085 23.7438 21.6729L14.5563 12.5Z" fill="black"/>
</svg>
