<svg width="14" height="14" viewBox="0 0 14 14" fill="none" xmlns="http://www.w3.org/2000/svg">
<path d="M10.6262 2.43277H9.50764V1.87349C9.50764 1.72516 9.44872 1.5829 9.34384 1.47802C9.23895 1.37313 9.0967 1.31421 8.94837 1.31421C8.80004 1.31421 8.65778 1.37313 8.5529 1.47802C8.44801 1.5829 8.38909 1.72516 8.38909 1.87349V2.43277H5.03342V1.87349C5.03342 1.72516 4.97449 1.5829 4.86961 1.47802C4.76472 1.37313 4.62247 1.31421 4.47414 1.31421C4.32581 1.31421 4.18355 1.37313 4.07867 1.47802C3.97378 1.5829 3.91486 1.72516 3.91486 1.87349V2.43277H2.7963C2.35131 2.43277 1.92455 2.60954 1.6099 2.92419C1.29524 3.23885 1.11847 3.66561 1.11847 4.1106V10.8219C1.11847 11.2669 1.29524 11.6937 1.6099 12.0083C1.92455 12.323 2.35131 12.4998 2.7963 12.4998H10.6262C11.0712 12.4998 11.498 12.323 11.8126 12.0083C12.1273 11.6937 12.304 11.2669 12.304 10.8219V4.1106C12.304 3.66561 12.1273 3.23885 11.8126 2.92419C11.498 2.60954 11.0712 2.43277 10.6262 2.43277ZM11.1855 10.8219C11.1855 10.9703 11.1266 11.1125 11.0217 11.2174C10.9168 11.3223 10.7745 11.3812 10.6262 11.3812H2.7963C2.64797 11.3812 2.50572 11.3223 2.40083 11.2174C2.29595 11.1125 2.23703 10.9703 2.23703 10.8219V6.90699H11.1855V10.8219ZM11.1855 5.78844H2.23703V4.1106C2.23703 3.96227 2.29595 3.82002 2.40083 3.71513C2.50572 3.61025 2.64797 3.55132 2.7963 3.55132H3.91486V4.1106C3.91486 4.25893 3.97378 4.40118 4.07867 4.50607C4.18355 4.61095 4.32581 4.66988 4.47414 4.66988C4.62247 4.66988 4.76472 4.61095 4.86961 4.50607C4.97449 4.40118 5.03342 4.25893 5.03342 4.1106V3.55132H8.38909V4.1106C8.38909 4.25893 8.44801 4.40118 8.5529 4.50607C8.65778 4.61095 8.80004 4.66988 8.94837 4.66988C9.0967 4.66988 9.23895 4.61095 9.34384 4.50607C9.44872 4.40118 9.50764 4.25893 9.50764 4.1106V3.55132H10.6262C10.7745 3.55132 10.9168 3.61025 11.0217 3.71513C11.1266 3.82002 11.1855 3.96227 11.1855 4.1106V5.78844Z" fill="black"/>
</svg>
