<svg width="13" height="14" viewBox="0 0 13 14" fill="none" xmlns="http://www.w3.org/2000/svg">
<path d="M10.7323 1.82824H9.4697V1.19693C9.4697 1.02949 9.40318 0.868914 9.28479 0.75052C9.1664 0.632126 9.00582 0.565613 8.83838 0.565613C8.67095 0.565613 8.51037 0.632126 8.39198 0.75052C8.27358 0.868914 8.20707 1.02949 8.20707 1.19693V1.82824H4.41919V1.19693C4.41919 1.02949 4.35268 0.868914 4.23428 0.75052C4.11589 0.632126 3.95531 0.565613 3.78788 0.565613C3.62044 0.565613 3.45987 0.632126 3.34147 0.75052C3.22308 0.868914 3.15657 1.02949 3.15657 1.19693V1.82824H1.89394C1.39164 1.82824 0.909905 2.02778 0.554722 2.38296C0.19954 2.73814 0 3.21987 0 3.72218V11.2979C0 11.8002 0.19954 12.282 0.554722 12.6372C0.909905 12.9923 1.39164 13.1919 1.89394 13.1919H10.7323C11.2346 13.1919 11.7164 12.9923 12.0715 12.6372C12.4267 12.282 12.6263 11.8002 12.6263 11.2979V3.72218C12.6263 3.21987 12.4267 2.73814 12.0715 2.38296C11.7164 2.02778 11.2346 1.82824 10.7323 1.82824ZM11.3636 11.2979C11.3636 11.4654 11.2971 11.6259 11.1787 11.7443C11.0603 11.8627 10.8998 11.9292 10.7323 11.9292H1.89394C1.7265 11.9292 1.56593 11.8627 1.44753 11.7443C1.32914 11.6259 1.26263 11.4654 1.26263 11.2979V6.87874H11.3636V11.2979ZM11.3636 5.61612H1.26263V3.72218C1.26263 3.55474 1.32914 3.39417 1.44753 3.27577C1.56593 3.15738 1.7265 3.09087 1.89394 3.09087H3.15657V3.72218C3.15657 3.88961 3.22308 4.05019 3.34147 4.16858C3.45987 4.28698 3.62044 4.35349 3.78788 4.35349C3.95531 4.35349 4.11589 4.28698 4.23428 4.16858C4.35268 4.05019 4.41919 3.88961 4.41919 3.72218V3.09087H8.20707V3.72218C8.20707 3.88961 8.27358 4.05019 8.39198 4.16858C8.51037 4.28698 8.67095 4.35349 8.83838 4.35349C9.00582 4.35349 9.1664 4.28698 9.28479 4.16858C9.40318 4.05019 9.4697 3.88961 9.4697 3.72218V3.09087H10.7323C10.8998 3.09087 11.0603 3.15738 11.1787 3.27577C11.2971 3.39417 11.3636 3.55474 11.3636 3.72218V5.61612Z" fill="#C9C9C9"/>
</svg>
