<svg width="27" height="26" viewBox="0 0 27 26" fill="none" xmlns="http://www.w3.org/2000/svg">
<path d="M22.9555 2.16101H3.72249C3.40727 2.16101 3.10495 2.28623 2.88206 2.50913C2.65916 2.73203 2.53394 3.03434 2.53394 3.34957V22.5826C2.53394 22.7387 2.56468 22.8933 2.62441 23.0375C2.68414 23.1817 2.77169 23.3127 2.88206 23.4231C2.99242 23.5334 3.12345 23.621 3.26765 23.6807C3.41186 23.7404 3.56641 23.7712 3.72249 23.7712H14.0738V15.3972H11.2644V12.1557H14.0738V9.72457C14.0156 9.1538 14.083 8.57721 14.2712 8.03524C14.4594 7.49326 14.764 6.99904 15.1634 6.58722C15.5629 6.1754 16.0476 5.85596 16.5836 5.65131C17.1196 5.44666 17.6939 5.36175 18.2661 5.40254C19.1071 5.39736 19.9477 5.44065 20.7837 5.5322V8.44957H19.0657C17.7043 8.44957 17.445 9.09788 17.445 10.0379V12.1233H20.6865L20.2651 15.3648H17.445V23.7712H22.9555C23.1116 23.7712 23.2662 23.7404 23.4104 23.6807C23.5546 23.621 23.6856 23.5334 23.796 23.4231C23.9064 23.3127 23.9939 23.1817 24.0536 23.0375C24.1134 22.8933 24.1441 22.7387 24.1441 22.5826V3.34957C24.1441 3.19349 24.1134 3.03893 24.0536 2.89473C23.9939 2.75053 23.9064 2.6195 23.796 2.50913C23.6856 2.39876 23.5546 2.31122 23.4104 2.25148C23.2662 2.19175 23.1116 2.16101 22.9555 2.16101Z" fill="#2B2B2B"/>
</svg>
