<svg width="27" height="26" viewBox="0 0 27 26" fill="none" xmlns="http://www.w3.org/2000/svg">
<path d="M23.1166 2.16113H3.88354C3.56831 2.16113 3.266 2.28636 3.0431 2.50925C2.8202 2.73215 2.69498 3.03447 2.69498 3.34969V22.5827C2.69498 22.7388 2.72572 22.8934 2.78545 23.0376C2.84518 23.1818 2.93273 23.3128 3.0431 23.4232C3.15347 23.5336 3.28449 23.6211 3.42869 23.6808C3.5729 23.7406 3.72745 23.7713 3.88354 23.7713H14.2348V15.3974H11.4255V12.1558H14.2348V9.72469C14.1766 9.15392 14.244 8.57733 14.4322 8.03536C14.6205 7.49339 14.925 6.99916 15.3245 6.58734C15.7239 6.17552 16.2087 5.85608 16.7446 5.65143C17.2806 5.44678 17.8549 5.36187 18.4272 5.40266C19.2682 5.39748 20.1088 5.44077 20.9448 5.53232V8.44969H19.2268C17.8653 8.44969 17.606 9.098 17.606 10.038V12.1234H20.8475L20.4261 15.3649H17.606V23.7713H23.1166C23.2727 23.7713 23.4272 23.7406 23.5714 23.6808C23.7156 23.6211 23.8467 23.5336 23.957 23.4232C24.0674 23.3128 24.1549 23.1818 24.2147 23.0376C24.2744 22.8934 24.3051 22.7388 24.3051 22.5827V3.34969C24.3051 3.19361 24.2744 3.03905 24.2147 2.89485C24.1549 2.75065 24.0674 2.61962 23.957 2.50925C23.8467 2.39889 23.7156 2.31134 23.5714 2.25161C23.4272 2.19188 23.2727 2.16113 23.1166 2.16113Z" fill="white"/>
</svg>
