<svg width="26" height="26" viewBox="0 0 26 26" fill="none" xmlns="http://www.w3.org/2000/svg">
<path d="M18.736 5.89969C18.4796 5.89969 18.2289 5.97574 18.0157 6.11821C17.8024 6.26068 17.6362 6.46319 17.5381 6.70011C17.44 6.93704 17.4143 7.19774 17.4643 7.44926C17.5143 7.70078 17.6378 7.93181 17.8192 8.11314C18.0005 8.29448 18.2315 8.41797 18.4831 8.468C18.7346 8.51803 18.9953 8.49235 19.2322 8.39421C19.4691 8.29608 19.6716 8.12989 19.8141 7.91666C19.9566 7.70343 20.0326 7.45275 20.0326 7.1963C20.0326 6.85242 19.896 6.52262 19.6529 6.27946C19.4097 6.0363 19.0799 5.89969 18.736 5.89969ZM23.7064 8.51452C23.6853 7.61802 23.5174 6.73104 23.2093 5.88889C22.9346 5.16833 22.507 4.51586 21.9559 3.97639C21.4209 3.42255 20.7669 2.99764 20.0434 2.7338C19.2035 2.41631 18.3155 2.24456 17.4178 2.22596C16.2725 2.16113 15.9051 2.16113 12.9661 2.16113C10.0271 2.16113 9.65974 2.16113 8.5144 2.22596C7.61666 2.24456 6.72869 2.41631 5.88876 2.7338C5.16664 3.00031 4.51321 3.42485 3.97627 3.97639C3.42242 4.51143 2.99751 5.16542 2.73368 5.88889C2.41618 6.72881 2.24444 7.61679 2.22584 8.51452C2.16101 9.65986 2.16101 10.0272 2.16101 12.9662C2.16101 15.9052 2.16101 16.2726 2.22584 17.4179C2.24444 18.3157 2.41618 19.2036 2.73368 20.0435C2.99751 20.767 3.42242 21.421 3.97627 21.956C4.51321 22.5076 5.16664 22.9321 5.88876 23.1986C6.72869 23.5161 7.61666 23.6879 8.5144 23.7065C9.65974 23.7713 10.0271 23.7713 12.9661 23.7713C15.9051 23.7713 16.2725 23.7713 17.4178 23.7065C18.3155 23.6879 19.2035 23.5161 20.0434 23.1986C20.7669 22.9348 21.4209 22.5099 21.9559 21.956C22.5094 21.4186 22.9374 20.7655 23.2093 20.0435C23.5174 19.2014 23.6853 18.3144 23.7064 17.4179C23.7064 16.2726 23.7712 15.9052 23.7712 12.9662C23.7712 10.0272 23.7712 9.65986 23.7064 8.51452ZM21.7614 17.2883C21.7536 17.9741 21.6293 18.6537 21.3941 19.298C21.2215 19.7682 20.9444 20.1931 20.5837 20.5406C20.2332 20.8977 19.8092 21.1742 19.3411 21.351C18.6968 21.5862 18.0172 21.7105 17.3314 21.7183C16.2508 21.7724 15.8511 21.7832 13.0093 21.7832C10.1676 21.7832 9.76779 21.7832 8.68728 21.7183C7.97511 21.7317 7.26598 21.622 6.5911 21.3942C6.14353 21.2084 5.73896 20.9326 5.40254 20.5838C5.0439 20.2367 4.77027 19.8114 4.60296 19.3412C4.33916 18.6877 4.19285 17.9927 4.17076 17.2883C4.17076 16.2077 4.10593 15.808 4.10593 12.9662C4.10593 10.1245 4.10593 9.72469 4.17076 8.64418C4.1756 7.94299 4.30361 7.24811 4.54893 6.59122C4.73915 6.13515 5.03113 5.7286 5.40254 5.40266C5.73081 5.03115 6.13651 4.73609 6.5911 4.53825C7.24972 4.30059 7.94389 4.17637 8.64406 4.17088C9.72457 4.17088 10.1244 4.10605 12.9661 4.10605C15.8078 4.10605 16.2076 4.10605 17.2881 4.17088C17.974 4.17875 18.6536 4.30297 19.2979 4.53825C19.7889 4.72048 20.2296 5.01675 20.5837 5.40266C20.9378 5.73457 21.2144 6.14036 21.3941 6.59122C21.6342 7.24918 21.7585 7.94378 21.7614 8.64418C21.8155 9.72469 21.8263 10.1245 21.8263 12.9662C21.8263 15.808 21.8155 16.2077 21.7614 17.2883ZM12.9661 7.42321C11.8703 7.42534 10.7996 7.75225 9.88951 8.36262C8.97939 8.97299 8.27061 9.83944 7.85273 10.8525C7.43485 11.8655 7.32662 12.9797 7.54172 14.0542C7.75682 15.1287 8.28559 16.1154 9.06122 16.8895C9.83685 17.6636 10.8245 18.1905 11.8995 18.4035C12.9744 18.6165 14.0884 18.5061 15.1006 18.0862C16.1128 17.6664 16.9779 16.9559 17.5865 16.0446C18.1951 15.1333 18.5199 14.0621 18.5199 12.9662C18.5213 12.237 18.3786 11.5147 18.0999 10.8408C17.8211 10.167 17.4119 9.55485 16.8958 9.0397C16.3796 8.52456 15.7667 8.11655 15.0923 7.83913C14.4179 7.56171 13.6953 7.42036 12.9661 7.42321ZM12.9661 16.5643C12.2545 16.5643 11.5588 16.3533 10.9671 15.9579C10.3754 15.5626 9.91422 15.0006 9.64189 14.3431C9.36956 13.6857 9.29831 12.9622 9.43714 12.2643C9.57597 11.5663 9.91866 10.9252 10.4219 10.422C10.9251 9.91878 11.5662 9.57609 12.2641 9.43726C12.9621 9.29843 13.6856 9.36968 14.343 9.64201C15.0005 9.91434 15.5624 10.3755 15.9578 10.9672C16.3532 11.5589 16.5642 12.2546 16.5642 12.9662C16.5642 13.4387 16.4711 13.9066 16.2903 14.3431C16.1095 14.7797 15.8444 15.1763 15.5103 15.5105C15.1762 15.8446 14.7796 16.1096 14.343 16.2904C13.9065 16.4712 13.4386 16.5643 12.9661 16.5643Z" fill="white"/>
</svg>
