<svg width="22" height="22" viewBox="0 0 22 22" fill="none" xmlns="http://www.w3.org/2000/svg">
<path d="M16.575 3.89969C16.3186 3.89969 16.0679 3.97574 15.8546 4.11821C15.6414 4.26068 15.4752 4.46319 15.3771 4.70011C15.279 4.93704 15.2533 5.19774 15.3033 5.44926C15.3533 5.70078 15.4768 5.93181 15.6582 6.11314C15.8395 6.29448 16.0705 6.41797 16.322 6.468C16.5736 6.51803 16.8343 6.49235 17.0712 6.39421C17.3081 6.29608 17.5106 6.12989 17.6531 5.91666C17.7956 5.70343 17.8716 5.45275 17.8716 5.1963C17.8716 4.85242 17.735 4.52262 17.4918 4.27946C17.2487 4.0363 16.9189 3.89969 16.575 3.89969ZM21.5453 6.51452C21.5243 5.61802 21.3564 4.73104 21.0483 3.88889C20.7736 3.16833 20.346 2.51586 19.7949 1.97639C19.2599 1.42255 18.6059 0.997637 17.8824 0.733802C17.0425 0.416307 16.1545 0.244559 15.2568 0.225963C14.1114 0.161133 13.7441 0.161133 10.8051 0.161133C7.8661 0.161133 7.49873 0.161133 6.35339 0.225963C5.45565 0.244559 4.56768 0.416307 3.72775 0.733802C3.00562 1.00031 2.3522 1.42485 1.81525 1.97639C1.26141 2.51143 0.836504 3.16542 0.572669 3.88889C0.255174 4.72881 0.0834261 5.61679 0.0648304 6.51452C-6.03781e-08 7.65986 0 8.02723 0 10.9662C0 13.9052 -6.03781e-08 14.2726 0.0648304 15.4179C0.0834261 16.3157 0.255174 17.2036 0.572669 18.0435C0.836504 18.767 1.26141 19.421 1.81525 19.956C2.3522 20.5076 3.00562 20.9321 3.72775 21.1986C4.56768 21.5161 5.45565 21.6879 6.35339 21.7065C7.49873 21.7713 7.8661 21.7713 10.8051 21.7713C13.7441 21.7713 14.1114 21.7713 15.2568 21.7065C16.1545 21.6879 17.0425 21.5161 17.8824 21.1986C18.6059 20.9348 19.2599 20.5099 19.7949 19.956C20.3484 19.4186 20.7764 18.7655 21.0483 18.0435C21.3564 17.2014 21.5243 16.3144 21.5453 15.4179C21.5453 14.2726 21.6102 13.9052 21.6102 10.9662C21.6102 8.02723 21.6102 7.65986 21.5453 6.51452ZM19.6004 15.2883C19.5926 15.9741 19.4683 16.6537 19.233 17.298C19.0605 17.7682 18.7834 18.1931 18.4227 18.5406C18.0722 18.8977 17.6482 19.1742 17.1801 19.351C16.5358 19.5862 15.8562 19.7105 15.1703 19.7183C14.0898 19.7724 13.69 19.7832 10.8483 19.7832C8.00657 19.7832 7.60678 19.7832 6.52627 19.7183C5.8141 19.7317 5.10496 19.622 4.43008 19.3942C3.98252 19.2084 3.57795 18.9326 3.24153 18.5838C2.88289 18.2367 2.60926 17.8114 2.44195 17.3412C2.17815 16.6877 2.03184 15.9927 2.00975 15.2883C2.00975 14.2077 1.94492 13.808 1.94492 10.9662C1.94492 8.12448 1.94492 7.72469 2.00975 6.64418C2.01459 5.94299 2.14259 5.24811 2.38792 4.59122C2.57814 4.13515 2.87012 3.7286 3.24153 3.40266C3.5698 3.03115 3.9755 2.73609 4.43008 2.53825C5.08871 2.30059 5.78288 2.17637 6.48305 2.17088C7.56356 2.17088 7.96335 2.10605 10.8051 2.10605C13.6468 2.10605 14.0466 2.10605 15.1271 2.17088C15.813 2.17875 16.4926 2.30297 17.1369 2.53825C17.6279 2.72048 18.0686 3.01675 18.4227 3.40266C18.7768 3.73457 19.0534 4.14036 19.233 4.59122C19.4732 5.24918 19.5975 5.94378 19.6004 6.64418C19.6544 7.72469 19.6653 8.12448 19.6653 10.9662C19.6653 13.808 19.6544 14.2077 19.6004 15.2883ZM10.8051 5.42321C9.70924 5.42534 8.63862 5.75225 7.7285 6.36262C6.81838 6.97299 6.1096 7.83944 5.69172 8.85248C5.27384 9.86552 5.16561 10.9797 5.38071 12.0542C5.59581 13.1287 6.12458 14.1154 6.90021 14.8895C7.67584 15.6636 8.66353 16.1905 9.73847 16.4035C10.8134 16.6165 11.9274 16.5061 12.9396 16.0862C13.9518 15.6664 14.8169 14.9559 15.4255 14.0446C16.0341 13.1333 16.3589 12.0621 16.3589 10.9662C16.3603 10.237 16.2176 9.51467 15.9388 8.84081C15.6601 8.16695 15.2509 7.55485 14.7348 7.0397C14.2186 6.52456 13.6057 6.11655 12.9313 5.83913C12.2569 5.56171 11.5343 5.42036 10.8051 5.42321ZM10.8051 14.5643C10.0934 14.5643 9.39779 14.3533 8.80609 13.9579C8.21439 13.5626 7.75321 13.0006 7.48088 12.3431C7.20855 11.6857 7.13729 10.9622 7.27613 10.2643C7.41496 9.5663 7.75765 8.92518 8.26085 8.42198C8.76405 7.91878 9.40517 7.57609 10.1031 7.43726C10.8011 7.29843 11.5245 7.36968 12.182 7.64201C12.8395 7.91434 13.4014 8.37552 13.7968 8.96722C14.1922 9.55893 14.4032 10.2546 14.4032 10.9662C14.4032 11.4387 14.3101 11.9066 14.1293 12.3431C13.9485 12.7797 13.6834 13.1763 13.3493 13.5105C13.0152 13.8446 12.6186 14.1096 12.182 14.2904C11.7455 14.4712 11.2776 14.5643 10.8051 14.5643Z" fill="#2B2B2B"/>
</svg>
