<svg width="14" height="14" viewBox="0 0 14 14" fill="none" xmlns="http://www.w3.org/2000/svg">
<g clip-path="url(#clip0_257_15)">
<path d="M6.406 13.2305C6.47647 13.3085 6.54442 13.3588 6.60985 13.3941L6.61321 13.3958C6.65332 13.4195 6.69842 13.4336 6.74492 13.4369C6.78687 13.4369 6.83133 13.4192 6.87663 13.3958L6.87999 13.3941C6.94542 13.3588 7.01337 13.3085 7.08384 13.2305C7.08384 13.2305 10.9831 8.98976 11.3749 5.3153C11.3984 5.12571 11.4143 4.9336 11.4143 4.73813C11.4143 2.14084 9.30865 0.0351562 6.71136 0.0351562C4.11408 0.0351562 2.00839 2.14084 2.00839 4.73813C2.00839 4.93695 2.02433 5.13074 2.04866 5.32285C2.4505 8.99563 6.406 13.2305 6.406 13.2305ZM6.71136 1.71299C8.37913 1.71299 9.7365 3.07036 9.7365 4.73813C9.7365 6.4059 8.37913 7.76326 6.71136 7.76326C5.0436 7.76326 3.68623 6.4059 3.68623 4.73813C3.68623 3.07036 5.0436 1.71299 6.71136 1.71299Z" fill="#2A2A2A"/>
</g>
<defs>
<clipPath id="clip0_257_15">
<rect width="13.4227" height="13.4227" fill="white" transform="translate(0 0.0351562)"/>
</clipPath>
</defs>
</svg>
