<svg width="11" height="16" viewBox="0 0 11 16" fill="none" xmlns="http://www.w3.org/2000/svg">
<path d="M4.96853 14.9252C5.04808 15.0133 5.12478 15.0701 5.19865 15.1098L5.20243 15.1117C5.2477 15.1386 5.29861 15.1545 5.35111 15.1581C5.39846 15.1581 5.44864 15.1383 5.49978 15.1117L5.50357 15.1098C5.57743 15.0701 5.65414 15.0133 5.73368 14.9252C5.73368 14.9252 10.1352 10.1383 10.5774 5.99053C10.6039 5.77652 10.6219 5.55966 10.6219 5.33902C10.6219 2.4072 8.24505 0.030304 5.31323 0.030304C2.38141 0.030304 0.0045166 2.4072 0.0045166 5.33902C0.0045166 5.56345 0.0225089 5.7822 0.049971 5.99905C0.503569 10.1449 4.96853 14.9252 4.96853 14.9252ZM5.31323 1.92424C7.1958 1.92424 8.728 3.45644 8.728 5.33902C8.728 7.22159 7.1958 8.75379 5.31323 8.75379C3.43065 8.75379 1.89846 7.22159 1.89846 5.33902C1.89846 3.45644 3.43065 1.92424 5.31323 1.92424Z" fill="#C9C9C9"/>
</svg>
