<svg width="133" height="84" viewBox="0 0 133 84" fill="none" xmlns="http://www.w3.org/2000/svg">
<g filter="url(#filter0_d_651_494)">
<path d="M55.6667 27.0549H75.6667" stroke="white" stroke-width="1.66667"/>
<path d="M55.6667 44.5549H75.6667" stroke="white" stroke-width="1.66667"/>
<path d="M55.6667 62.0549H75.6667" stroke="white" stroke-width="1.66667"/>
</g>
<g filter="url(#filter1_d_651_494)">
<path d="M105.667 27.6013C72.3334 21.6622 72.3334 66.1945 105.667 61.7412" stroke="white" stroke-width="1.66667"/>
</g>
<g filter="url(#filter2_d_651_494)">
<path d="M24 26L24 62.6667" stroke="white" stroke-width="1.66667"/>
</g>
<g filter="url(#filter3_d_651_494)">
<path d="M24 44.3333L50.6667 44.3333" stroke="white" stroke-width="1.66667"/>
</g>
<g filter="url(#filter4_d_651_494)">
<path d="M50.6666 26L50.6666 62.6667" stroke="white" stroke-width="1.66667"/>
</g>
<line x1="65.9972" y1="2.28284" x2="47.4258" y2="20.8543" stroke="white" stroke-width="0.8"/>
<line x1="84.0029" y1="20.8543" x2="65.4315" y2="2.28284" stroke="white" stroke-width="0.8"/>
<line x1="57.8543" y1="2.28284" x2="39.2828" y2="20.8543" stroke="white" stroke-width="0.8"/>
<line x1="75.86" y1="20.8543" x2="57.2886" y2="2.28284" stroke="white" stroke-width="0.8"/>
<line x1="74.1399" y1="2.28284" x2="55.5685" y2="20.8543" stroke="white" stroke-width="0.8"/>
<line x1="92.1456" y1="20.8543" x2="73.5742" y2="2.28284" stroke="white" stroke-width="0.8"/>
<path d="M0.0489042 78.5461C0.0489042 78.3978 0.0512327 78.2508 0.0558908 78.1054C0.0621005 77.9599 0.0652059 77.8042 0.0652059 77.6384C0.0652059 77.5918 0.0652059 77.5395 0.0652059 77.4813C0.0652059 77.4202 0.0644301 77.3315 0.0628774 77.2151C0.0628774 77.0958 0.0621005 76.9372 0.0605489 76.7394C0.0589962 76.5387 0.0566666 76.2739 0.0535623 75.9451C0.0520096 75.6164 0.0496811 75.212 0.0465757 74.7319C0.0434703 74.249 0.039589 73.6671 0.034932 72.9863C0.034932 72.9048 0.0287212 72.8234 0.0163007 72.7419C0.00543391 72.6575 0 72.5688 0 72.4757C0 72.4 0.00465704 72.3331 0.0139722 72.2749C0.02484 72.2167 0.0434702 72.1673 0.069864 72.1266C0.0978094 72.0858 0.134294 72.0553 0.179317 72.0349C0.224341 72.0116 0.281785 72 0.351649 72C0.387357 72 0.418407 72.0145 0.4448 72.0436C0.471194 72.0698 0.492928 72.1062 0.510007 72.1527C0.528637 72.1964 0.541834 72.2458 0.549596 72.3011C0.558911 72.3564 0.563569 72.4117 0.563569 72.467C0.563569 72.5979 0.561241 72.7317 0.556583 72.8685C0.551926 73.0023 0.549596 73.155 0.549596 73.3267V74.2911C0.711063 74.2999 0.866312 74.3086 1.01536 74.3173C1.1644 74.3261 1.31966 74.3304 1.48112 74.3304C1.5929 74.3304 1.70468 74.3231 1.81647 74.3086C1.92824 74.2911 2.04546 74.2795 2.16811 74.2737C2.16811 74.2184 2.16811 74.1573 2.16811 74.0904C2.16967 74.0206 2.17044 73.9362 2.17044 73.8373C2.17044 73.7384 2.17044 73.6205 2.17044 73.4838C2.17044 73.3471 2.17044 73.1812 2.17044 72.9863C2.17044 72.9019 2.16579 72.8175 2.15647 72.7332C2.14716 72.6488 2.14249 72.563 2.14249 72.4757C2.14249 72.4 2.14716 72.3331 2.15647 72.2749C2.16734 72.2167 2.18597 72.1673 2.21236 72.1266C2.24031 72.0858 2.27679 72.0553 2.32181 72.0349C2.36839 72.0116 2.42661 72 2.49648 72C2.53373 72 2.56556 72.016 2.59196 72.048C2.61835 72.08 2.6393 72.1207 2.65483 72.1702C2.6719 72.2167 2.68355 72.2677 2.68976 72.3229C2.69752 72.3753 2.70141 72.4233 2.70141 72.467C2.70141 72.6881 2.69752 72.9106 2.68976 73.1347C2.68355 73.3558 2.6789 73.59 2.67579 73.8373C2.67579 74.038 2.67579 74.2388 2.67579 74.4395C2.67579 74.6403 2.67579 74.8468 2.67579 75.0592C2.67734 75.2716 2.67812 75.4927 2.67812 75.7226C2.67812 75.9524 2.67812 76.1939 2.67812 76.447C2.67812 76.7409 2.67967 76.9896 2.68278 77.1933C2.68743 77.394 2.69209 77.5642 2.69675 77.7039C2.70296 77.8406 2.70917 77.9512 2.71538 78.0355C2.72159 78.1199 2.72703 78.1912 2.73168 78.2494C2.73634 78.2988 2.74022 78.3468 2.74333 78.3934C2.74643 78.4399 2.74798 78.4894 2.74798 78.5418C2.74798 78.6087 2.74333 78.6698 2.73401 78.7251C2.72624 78.7803 2.7115 78.8283 2.68976 78.8691C2.66958 78.9069 2.64163 78.9374 2.60593 78.9607C2.57022 78.984 2.5252 78.9956 2.47086 78.9956C2.40875 78.9956 2.35752 78.9854 2.31716 78.9651C2.27679 78.9476 2.24419 78.9185 2.21934 78.8778C2.19606 78.84 2.17898 78.7934 2.16811 78.7381C2.15879 78.6829 2.15414 78.6174 2.15414 78.5418C2.15414 78.3905 2.15958 78.2406 2.17044 78.0923C2.18286 77.9439 2.18907 77.7912 2.18907 77.634C2.18907 77.2529 2.18519 76.8674 2.17743 76.4776C2.17121 76.0877 2.16734 75.6687 2.16579 75.2207C2.05555 75.2178 1.92903 75.2178 1.78619 75.2207C1.64336 75.2207 1.49742 75.2236 1.34838 75.2294C1.20089 75.2323 1.05728 75.2382 0.917546 75.2469C0.779371 75.2527 0.658271 75.2571 0.554254 75.26C0.55736 75.7284 0.561241 76.1226 0.565898 76.4426C0.570556 76.7598 0.575213 77.0245 0.579871 77.2369C0.584528 77.4464 0.589186 77.6151 0.593843 77.7431C0.600053 77.8682 0.60549 77.9715 0.610143 78.053C0.614806 78.1315 0.617912 78.2072 0.619459 78.2799C0.622565 78.3527 0.624122 78.4414 0.624122 78.5461C0.624122 78.613 0.620233 78.6742 0.612475 78.7294C0.604716 78.7818 0.589962 78.8283 0.568226 78.8691C0.548043 78.9098 0.520098 78.9404 0.48439 78.9607C0.450234 78.984 0.405211 78.9956 0.349319 78.9956C0.287219 78.9956 0.236761 78.9854 0.197947 78.9651C0.159134 78.9476 0.128083 78.92 0.104796 78.8822C0.0830604 78.8443 0.0683113 78.7978 0.0605489 78.7425C0.0527854 78.6872 0.0489042 78.6218 0.0489042 78.5461ZM4.12523 78.533C4.12523 78.4399 4.13223 78.3468 4.1462 78.2537C4.16016 78.1577 4.18578 78.0617 4.22305 77.9657C4.24944 77.8813 4.28514 77.7533 4.33017 77.5817C4.37675 77.41 4.42875 77.2078 4.4862 76.9751C4.54364 76.7423 4.60497 76.4892 4.67017 76.2157C4.73693 75.9393 4.80447 75.6585 4.87278 75.3734C4.94109 75.0854 5.00863 74.7988 5.07539 74.5137C5.1437 74.2257 5.20812 73.9566 5.26867 73.7063C5.32922 73.4532 5.38434 73.2248 5.43402 73.0212C5.4837 72.8175 5.52562 72.6532 5.55978 72.5281C5.56443 72.464 5.57375 72.4015 5.58772 72.3404C5.60169 72.2764 5.62033 72.2197 5.64361 72.1702C5.6669 72.1178 5.69484 72.0771 5.72745 72.048C5.76006 72.016 5.79809 72 5.84156 72C5.89745 72 5.94247 72.0145 5.97663 72.0436C6.01234 72.0727 6.04106 72.1135 6.0628 72.1658C6.08608 72.2153 6.10472 72.2735 6.11868 72.3404C6.13266 72.4073 6.14663 72.4786 6.1606 72.5542C6.17302 72.6212 6.18467 72.6852 6.19554 72.7463C6.20641 72.8044 6.2165 72.8495 6.22582 72.8815C6.32983 73.2714 6.43075 73.6642 6.52855 74.0598C6.62792 74.4555 6.72573 74.8585 6.82199 75.2687C6.91979 75.676 7.01838 76.0891 7.11774 76.5081C7.21711 76.9271 7.32035 77.3533 7.42748 77.7868L7.47173 77.909C7.48414 77.941 7.49889 77.9803 7.51596 78.0268C7.53305 78.0704 7.54858 78.1184 7.56255 78.1708C7.57807 78.2232 7.59049 78.2785 7.59981 78.3366C7.61067 78.3948 7.61611 78.453 7.61611 78.5112C7.61611 78.6858 7.58971 78.8094 7.53693 78.8822C7.48414 78.9578 7.41971 78.9956 7.34364 78.9956C7.30172 78.9956 7.2629 78.9825 7.22719 78.9564C7.19305 78.9331 7.16277 78.9011 7.13638 78.8604C7.10998 78.8167 7.08902 78.7672 7.07349 78.712C7.05797 78.6538 7.04788 78.5927 7.04322 78.5287C6.99975 78.3512 6.95939 78.1854 6.92212 78.0312C6.88486 77.8741 6.84838 77.7228 6.81267 77.5773C6.77851 77.4318 6.74514 77.2907 6.71254 77.154C6.67993 77.0143 6.64732 76.8747 6.61472 76.735C6.58988 76.735 6.55496 76.735 6.50992 76.735C6.4649 76.7321 6.41445 76.7278 6.35855 76.722C6.27006 76.722 6.18002 76.7205 6.08842 76.7176C5.99837 76.7147 5.90599 76.7132 5.81129 76.7132C5.71658 76.7103 5.61877 76.7103 5.51786 76.7132C5.41694 76.7132 5.31138 76.7176 5.20114 76.7263C5.18407 76.7292 5.16776 76.7321 5.15224 76.735C5.13671 76.735 5.12041 76.735 5.10334 76.735C5.05986 76.9329 5.01872 77.122 4.9799 77.3024C4.94109 77.4798 4.90616 77.6442 4.8751 77.7955C4.84406 77.9468 4.81611 78.0821 4.79127 78.2014C4.76798 78.3177 4.75013 78.4123 4.73771 78.485V78.4807C4.7284 78.5447 4.71752 78.6072 4.7051 78.6683C4.69424 78.7294 4.67794 78.7847 4.6562 78.8342C4.63446 78.8807 4.60419 78.9185 4.56538 78.9476C4.52812 78.9796 4.47844 78.9956 4.41633 78.9956C4.3325 78.9956 4.26263 78.9564 4.20674 78.8778C4.15241 78.7992 4.12523 78.6843 4.12523 78.533ZM5.31526 75.7837C5.34786 75.7837 5.38977 75.7837 5.44101 75.7837C5.49379 75.7837 5.56133 75.7851 5.64361 75.788C5.72745 75.788 5.82991 75.7895 5.95101 75.7924C6.07211 75.7924 6.21883 75.7938 6.39115 75.7967C6.31974 75.5058 6.23901 75.1785 6.14896 74.8148C6.05892 74.4483 5.95257 74.022 5.82991 73.5362C5.79421 73.6845 5.75617 73.8475 5.71581 74.0249C5.67544 74.2024 5.63275 74.3872 5.58772 74.5792C5.54425 74.7712 5.49923 74.969 5.45266 75.1727C5.40763 75.3764 5.36183 75.58 5.31526 75.7837ZM9.00733 78.3847C9.00733 78.3207 9.00889 78.2581 9.01199 78.197C9.0151 78.1359 9.0182 78.0792 9.02131 78.0268C9.02131 77.6224 9.02131 77.25 9.02131 76.9096C9.02131 76.5692 9.02131 76.2521 9.02131 75.9582C9.02131 75.6615 9.02131 75.3836 9.02131 75.1247C9.02131 74.8658 9.02131 74.6155 9.02131 74.3741C9.02131 74.1297 9.02131 73.8911 9.02131 73.6583C9.02286 73.4227 9.02363 73.1827 9.02363 72.9383C9.01587 72.8975 9.0081 72.8408 9.00035 72.7681C8.99413 72.6953 8.99103 72.627 8.99103 72.563C8.99103 72.5019 8.99569 72.4408 9.00501 72.3797C9.01587 72.3186 9.0314 72.2648 9.05158 72.2182C9.07332 72.1687 9.09971 72.1295 9.13076 72.1004C9.16181 72.0713 9.19752 72.0567 9.23788 72.0567C9.3031 72.0567 9.36907 72.064 9.43583 72.0786C9.50259 72.0931 9.57789 72.1004 9.66172 72.1004C9.73159 72.1004 9.80145 72.0946 9.87132 72.0829C9.94119 72.0684 10.0157 72.0596 10.0949 72.0567C10.3294 72.0567 10.5412 72.1004 10.7306 72.1877C10.9216 72.2749 11.0839 72.4102 11.2173 72.5935C11.3524 72.7768 11.4564 73.011 11.5294 73.2961C11.6024 73.5783 11.6389 73.9158 11.6389 74.3086C11.6389 74.681 11.6109 75.0127 11.5551 75.3036C11.5007 75.5916 11.43 75.8433 11.3431 76.0586C11.2577 76.2739 11.1615 76.4543 11.0543 76.5997C10.9487 76.7423 10.8455 76.8514 10.7446 76.9271C10.7586 77.0842 10.7803 77.2325 10.8098 77.3722C10.8409 77.5089 10.8796 77.6297 10.9263 77.7344C10.9744 77.8392 11.0302 77.9221 11.0939 77.9832C11.1576 78.0443 11.229 78.0748 11.3081 78.0748C11.3672 78.0748 11.4207 78.0574 11.4689 78.0224C11.5185 77.9875 11.5612 77.9192 11.597 77.8173C11.6187 77.7591 11.6451 77.7082 11.6761 77.6646C11.7072 77.618 11.7468 77.5948 11.7949 77.5948C11.8788 77.5948 11.944 77.6384 11.9905 77.7257C12.0371 77.813 12.0604 77.9235 12.0604 78.0574C12.0604 78.1825 12.0409 78.3018 12.0021 78.4152C11.9649 78.5287 11.9113 78.629 11.8415 78.7163C11.7732 78.8007 11.6901 78.8676 11.5923 78.9171C11.4945 78.9695 11.3858 78.9956 11.2663 78.9956C11.1561 78.9956 11.0559 78.9651 10.9658 78.904C10.8773 78.8458 10.7974 78.7672 10.726 78.6683C10.6561 78.5665 10.594 78.4516 10.5396 78.3236C10.4854 78.1926 10.4387 78.0574 10.3999 77.9177C10.3612 77.7751 10.3294 77.634 10.3045 77.4944C10.2797 77.3547 10.2603 77.2238 10.2463 77.1016C10.2276 77.1016 10.2028 77.1016 10.1718 77.1016C10.1407 77.1016 10.1089 77.1016 10.0763 77.1016C10.0437 77.1016 10.011 77.1016 9.97844 77.1016C9.9474 77.0987 9.92178 77.0973 9.90159 77.0973C9.85657 77.0944 9.80068 77.0929 9.73392 77.0929C9.66872 77.09 9.60894 77.0885 9.5546 77.0885V77.7257C9.55771 77.8624 9.56702 77.9963 9.58255 78.1272C9.59808 78.2552 9.60584 78.3876 9.60584 78.5243C9.60584 78.6087 9.59652 78.68 9.57789 78.7381C9.56081 78.7963 9.5383 78.8443 9.51035 78.8822C9.4824 78.9229 9.45213 78.952 9.41953 78.9695C9.38693 78.9869 9.35588 78.9956 9.32638 78.9956C9.2798 78.9956 9.23711 78.9796 9.1983 78.9476C9.15948 78.9185 9.1261 78.8778 9.09816 78.8254C9.07021 78.7702 9.0477 78.7062 9.03063 78.6334C9.0151 78.5578 9.00733 78.4748 9.00733 78.3847ZM9.55227 76.1502C9.59264 76.1532 9.63999 76.1561 9.69433 76.159C9.74867 76.1619 9.80068 76.1648 9.85036 76.1677C9.90004 76.1706 9.94429 76.1735 9.9831 76.1764C10.0219 76.1764 10.0468 76.1764 10.0576 76.1764C10.2673 76.1764 10.4387 76.1226 10.5723 76.015C10.7073 75.9073 10.813 75.7647 10.889 75.5873C10.9651 75.4098 11.0171 75.2061 11.045 74.9763C11.0746 74.7465 11.0893 74.5108 11.0893 74.2693C11.0893 74.0569 11.0715 73.878 11.0358 73.7325C11 73.5842 10.9527 73.462 10.8936 73.366C10.8347 73.27 10.7679 73.1943 10.6934 73.139C10.6189 73.0838 10.5428 73.043 10.4651 73.0168C10.3891 72.9906 10.3138 72.9747 10.2393 72.9688C10.1662 72.963 10.1019 72.9601 10.046 72.9601C9.9668 72.9601 9.88606 72.963 9.80379 72.9688C9.72306 72.9717 9.63533 72.9747 9.54063 72.9776C9.53753 73.0881 9.53519 73.1885 9.53364 73.2787C9.53364 73.3689 9.53286 73.4576 9.53132 73.5449C9.53132 73.6293 9.53132 73.7165 9.53132 73.8067C9.53132 73.894 9.53132 73.9929 9.53132 74.1035C9.53132 74.3013 9.53132 74.4861 9.53132 74.6577C9.53286 74.8265 9.53442 74.9923 9.53597 75.1552C9.53753 75.3152 9.53907 75.4767 9.54063 75.6396C9.54374 75.8026 9.54762 75.9728 9.55227 76.1502ZM10.6445 76.9882C10.6445 76.9882 10.6421 76.9896 10.6421 76.9925L10.6445 76.9882ZM13.4981 78.5898C13.4981 78.4676 13.5028 78.3643 13.5121 78.2799C13.5215 78.1956 13.5269 78.1563 13.5285 78.1621C13.5315 77.845 13.5339 77.5235 13.5354 77.1976C13.5385 76.8718 13.5401 76.527 13.5401 76.1633C13.5401 75.9335 13.5401 75.6847 13.5401 75.4171C13.5401 75.1465 13.5385 74.8745 13.5354 74.601C13.5339 74.3246 13.5308 74.054 13.5261 73.7893C13.5215 73.5216 13.5153 73.2743 13.5075 73.0474C13.5013 72.9805 13.4967 72.9208 13.4936 72.8685C13.4904 72.8132 13.4889 72.755 13.4889 72.6939C13.4889 72.5513 13.5051 72.4393 13.5378 72.3579C13.5704 72.2735 13.6232 72.2153 13.6961 72.1833C13.7272 72.1338 13.7613 72.1004 13.7986 72.0829C13.8374 72.0626 13.8747 72.0524 13.9104 72.0524C13.9476 72.0524 13.981 72.0727 14.0105 72.1135C14.0415 72.1542 14.0688 72.2022 14.0921 72.2575C14.1153 72.3128 14.1347 72.3709 14.1503 72.432C14.1657 72.4902 14.1767 72.5382 14.1828 72.5761C14.231 72.7099 14.2885 72.8626 14.3551 73.0343C14.4235 73.2059 14.4973 73.3907 14.5764 73.5885C14.6572 73.7835 14.7425 73.9886 14.8326 74.2039C14.9226 74.4163 15.0134 74.6316 15.1051 74.8498C15.1983 75.0679 15.2906 75.2861 15.3822 75.5044C15.4738 75.7197 15.5607 75.9277 15.643 76.1284C15.7253 76.3292 15.8022 76.5197 15.8736 76.7001C15.9449 76.8776 16.0063 77.0376 16.0575 77.1802C16.0575 76.5576 16.056 76.0222 16.0529 75.5742C16.0513 75.1232 16.049 74.7407 16.0459 74.4264C16.0428 74.1093 16.0389 73.8489 16.0343 73.6453C16.0296 73.4416 16.0257 73.2729 16.0226 73.139C16.0196 73.0052 16.0164 72.8961 16.0133 72.8117C16.0117 72.7244 16.011 72.6415 16.011 72.563C16.011 72.4466 16.0172 72.352 16.0296 72.2793C16.0436 72.2037 16.0622 72.1455 16.0855 72.1047C16.1103 72.064 16.1406 72.0364 16.1763 72.0218C16.212 72.0073 16.2531 72 16.2998 72C16.3603 72 16.4077 72.0233 16.4418 72.0698C16.4759 72.1164 16.5016 72.176 16.5186 72.2488C16.5373 72.3186 16.5481 72.3986 16.5513 72.4888C16.5559 72.5761 16.5583 72.6619 16.5583 72.7463V77.7519C16.5583 77.8566 16.5614 77.9628 16.5675 78.0704C16.5738 78.1752 16.5768 78.2872 16.5768 78.4065C16.5768 78.5199 16.5722 78.6145 16.5629 78.6901C16.5536 78.7629 16.538 78.8225 16.5163 78.8691C16.4962 78.9156 16.4689 78.9476 16.4348 78.9651C16.4022 78.9854 16.3626 78.9956 16.316 78.9956C16.2291 78.9956 16.1592 78.9549 16.1065 78.8734C16.0552 78.792 16.0187 78.6931 15.997 78.5767C15.8495 78.1985 15.6997 77.826 15.5475 77.4595C15.397 77.09 15.2448 76.722 15.0911 76.3554C14.9374 75.9859 14.7829 75.6149 14.6276 75.2425C14.4724 74.8672 14.3179 74.4861 14.1643 74.0991L14.0245 73.6889C14.0261 74.134 14.0276 74.5312 14.0291 74.8803C14.0307 75.2265 14.0323 75.5364 14.0338 75.8099C14.0354 76.0804 14.037 76.3205 14.0385 76.5299C14.04 76.7365 14.0408 76.9227 14.0408 77.0885C14.0424 77.2515 14.0431 77.4013 14.0431 77.538C14.0447 77.6719 14.0455 77.8028 14.0455 77.9308C14.047 78.0064 14.0494 78.0879 14.0524 78.1752C14.0571 78.2596 14.0594 78.3425 14.0594 78.4239C14.0594 78.4996 14.0555 78.5723 14.0478 78.6421C14.0415 78.712 14.0284 78.7731 14.0082 78.8254C13.988 78.8778 13.9593 78.9185 13.9221 78.9476C13.8864 78.9796 13.839 78.9956 13.78 78.9956C13.7008 78.9956 13.634 78.9593 13.5797 78.8865C13.5254 78.8138 13.4981 78.7149 13.4981 78.5898ZM18.336 78.3759C18.336 78.3265 18.3392 78.2741 18.3453 78.2188C18.3532 78.1636 18.3609 78.1126 18.3686 78.0661L18.3896 77.9264L18.336 72.707C18.336 72.5644 18.3446 72.4539 18.3616 72.3753C18.3803 72.2968 18.4036 72.2386 18.4315 72.2007C18.4595 72.1629 18.4913 72.1411 18.527 72.1353C18.5643 72.1295 18.6015 72.1266 18.6388 72.1266H19.8661C19.894 72.1207 19.925 72.1135 19.9592 72.1047C19.9949 72.0931 20.0198 72.0873 20.0338 72.0873C20.0927 72.0873 20.1401 72.0975 20.1758 72.1178C20.213 72.1382 20.2417 72.1687 20.262 72.2095C20.2837 72.2473 20.2977 72.2953 20.3038 72.3535C20.3117 72.4117 20.3155 72.48 20.3155 72.5586C20.3155 72.6692 20.3078 72.7579 20.2923 72.8248C20.2783 72.8917 20.258 72.9441 20.2317 72.9819C20.2069 73.0168 20.1774 73.0401 20.1432 73.0517C20.109 73.0634 20.0726 73.0692 20.0338 73.0692C20.0166 73.0692 19.9941 73.0692 19.9662 73.0692C19.9383 73.0663 19.9087 73.0619 19.8777 73.0561C19.7271 73.0561 19.6053 73.0561 19.5121 73.0561C19.4204 73.0561 19.3468 73.0576 19.2908 73.0605C19.2366 73.0605 19.1946 73.0605 19.1651 73.0605C19.1371 73.0605 19.1123 73.0605 19.0906 73.0605H18.874V74.4439C18.8833 74.4439 18.8942 74.4454 18.9066 74.4483C18.9206 74.4483 18.9415 74.4483 18.9695 74.4483C18.9974 74.4483 19.0355 74.4483 19.0836 74.4483C19.1332 74.4483 19.1992 74.4483 19.2815 74.4483C19.3638 74.4483 19.4655 74.4483 19.5866 74.4483C19.7077 74.4483 19.8545 74.4483 20.0268 74.4483C20.0439 74.4483 20.0632 74.4468 20.085 74.4439C20.1067 74.441 20.1284 74.4366 20.1502 74.4308C20.1781 74.425 20.2107 74.4192 20.248 74.4133C20.2853 74.4075 20.3256 74.4046 20.3691 74.4046C20.411 74.4046 20.4483 74.4206 20.4808 74.4526C20.5135 74.4846 20.5406 74.5254 20.5623 74.5748C20.5857 74.6214 20.6027 74.6723 20.6136 74.7275C20.626 74.7828 20.6323 74.8352 20.6323 74.8847C20.6323 75.0418 20.6043 75.1567 20.5485 75.2294C20.4941 75.3022 20.4234 75.3385 20.3365 75.3385L18.874 75.3429V77.957C19.0277 77.957 19.1822 77.9613 19.3375 77.9701C19.4927 77.9788 19.6549 77.9832 19.8241 77.9832C19.8707 77.9832 19.9134 77.9788 19.9523 77.9701C19.9911 77.9613 20.0283 77.9512 20.064 77.9395C20.0966 77.9308 20.1292 77.9235 20.1618 77.9177C20.1959 77.909 20.2332 77.9046 20.2736 77.9046C20.3202 77.9046 20.3629 77.9119 20.4017 77.9264C20.442 77.9381 20.477 77.9613 20.5065 77.9963C20.5359 78.0283 20.5593 78.0734 20.5763 78.1315C20.5934 78.1868 20.602 78.2581 20.602 78.3454C20.602 78.4734 20.5903 78.5723 20.567 78.6421C20.5438 78.712 20.5119 78.7643 20.4715 78.7992C20.4327 78.8313 20.3877 78.8516 20.3365 78.8604C20.2868 78.8662 20.2348 78.8691 20.1805 78.8691H18.6131C18.5728 78.8691 18.5356 78.8604 18.5014 78.8429C18.4688 78.8254 18.4401 78.7978 18.4153 78.76C18.3904 78.7192 18.371 78.6683 18.357 78.6072C18.343 78.5432 18.336 78.4661 18.336 78.3759ZM22.1469 77.3024C22.1547 77.0667 22.1802 76.8878 22.2238 76.7656C22.2687 76.6405 22.3471 76.5779 22.459 76.5779C22.5288 76.5779 22.5886 76.6158 22.6383 76.6914C22.688 76.7641 22.7128 76.866 22.7128 76.9969C22.7128 77.0725 22.7089 77.1482 22.7011 77.2238C22.6934 77.2995 22.6911 77.378 22.6941 77.4595C22.7004 77.5584 22.7236 77.6486 22.764 77.73C22.8044 77.8115 22.8557 77.8828 22.9177 77.9439C22.9798 78.0021 23.0505 78.0486 23.1296 78.0835C23.2088 78.1155 23.2896 78.1315 23.3718 78.1315C23.4557 78.1315 23.5388 78.1184 23.621 78.0923C23.7048 78.0632 23.7802 78.0108 23.847 77.9352C23.9152 77.8595 23.9703 77.7562 24.0123 77.6253C24.0542 77.4944 24.0751 77.3242 24.0751 77.1147C24.0751 76.978 24.0572 76.85 24.0216 76.7307C23.9859 76.6085 23.94 76.4979 23.8842 76.399C23.8283 76.2972 23.7662 76.2055 23.6978 76.1241C23.6311 76.0426 23.5667 75.9713 23.5046 75.9102C23.4161 75.8258 23.3253 75.7444 23.2321 75.6658C23.1406 75.5844 23.0505 75.5 22.962 75.4127C22.8751 75.3225 22.792 75.2251 22.7128 75.1203C22.6351 75.0127 22.5669 74.8876 22.5078 74.745C22.4489 74.6025 22.4023 74.4381 22.3681 74.2519C22.334 74.0628 22.3169 73.8445 22.3169 73.5972C22.3169 73.3209 22.348 73.0823 22.41 72.8815C22.4737 72.6808 22.5568 72.515 22.6593 72.384C22.7617 72.2531 22.8789 72.1571 23.0108 72.096C23.1444 72.032 23.281 72 23.4208 72C23.5449 72 23.6653 72.0204 23.7817 72.0611C23.8981 72.1018 24.0021 72.1687 24.0938 72.2618C24.1854 72.352 24.2615 72.4742 24.322 72.6284C24.3825 72.7797 24.4191 72.9659 24.4315 73.187C24.4345 73.2685 24.4291 73.3412 24.4152 73.4052C24.4012 73.4663 24.3818 73.5187 24.357 73.5623C24.3321 73.6031 24.3033 73.6351 24.2708 73.6583C24.2397 73.6787 24.2078 73.6889 24.1753 73.6889C24.1256 73.6889 24.0836 73.6744 24.0495 73.6453C24.0154 73.6162 23.9874 73.5798 23.9657 73.5362C23.9439 73.4925 23.9276 73.4431 23.9168 73.3878C23.9059 73.3325 23.8989 73.2787 23.8958 73.2263C23.8725 73.1565 23.8423 73.0997 23.805 73.0561C23.7678 73.0095 23.7258 72.9732 23.6793 72.947C23.6342 72.9179 23.5869 72.899 23.5372 72.8903C23.4875 72.8786 23.4393 72.8728 23.3928 72.8728C23.3276 72.8728 23.2623 72.8859 23.1972 72.9121C23.1336 72.9383 23.0753 72.9805 23.0225 73.0386C22.9697 73.0968 22.927 73.171 22.8945 73.2612C22.8618 73.3514 22.8455 73.462 22.8455 73.5929C22.8455 73.7471 22.8649 73.8838 22.9038 74.0031C22.9426 74.1224 22.9914 74.2286 23.0505 74.3217C23.1095 74.4148 23.1747 74.4992 23.2461 74.5748C23.319 74.6505 23.3897 74.7203 23.458 74.7843C23.5403 74.8628 23.6257 74.9472 23.7142 75.0374C23.8027 75.1247 23.8888 75.2207 23.9727 75.3254C24.0581 75.4273 24.1387 75.5393 24.2148 75.6615C24.2909 75.7837 24.3577 75.9204 24.4152 76.0717C24.4726 76.2201 24.5176 76.383 24.5502 76.5605C24.5844 76.7379 24.6015 76.9343 24.6015 77.1496C24.6015 77.3795 24.5844 77.5846 24.5502 77.765C24.516 77.9453 24.4695 78.1039 24.4105 78.2406C24.3515 78.3774 24.2823 78.4938 24.2032 78.5898C24.124 78.6858 24.0387 78.7643 23.947 78.8254C23.8554 78.8865 23.7599 78.9302 23.6606 78.9564C23.5628 78.9854 23.465 79 23.3672 79C23.2849 79 23.1964 78.9869 23.1017 78.9607C23.0085 78.9345 22.9162 78.8938 22.8246 78.8385C22.7329 78.7803 22.6453 78.7076 22.5614 78.6203C22.4791 78.5301 22.4062 78.4225 22.3425 78.2974C22.2804 78.1694 22.2315 78.0239 22.1958 77.861C22.1601 77.6951 22.1438 77.5089 22.1469 77.3024ZM26.1348 77.3024C26.1425 77.0667 26.1681 76.8878 26.2116 76.7656C26.2566 76.6405 26.335 76.5779 26.4468 76.5779C26.5166 76.5779 26.5764 76.6158 26.6261 76.6914C26.6758 76.7641 26.7006 76.866 26.7006 76.9969C26.7006 77.0725 26.6967 77.1482 26.689 77.2238C26.6812 77.2995 26.6789 77.378 26.682 77.4595C26.6882 77.5584 26.7114 77.6486 26.7518 77.73C26.7922 77.8115 26.8435 77.8828 26.9055 77.9439C26.9676 78.0021 27.0383 78.0486 27.1175 78.0835C27.1967 78.1155 27.2774 78.1315 27.3597 78.1315C27.4435 78.1315 27.5266 78.1184 27.6088 78.0923C27.6927 78.0632 27.768 78.0108 27.8348 77.9352C27.9031 77.8595 27.9582 77.7562 28.0001 77.6253C28.042 77.4944 28.063 77.3242 28.063 77.1147C28.063 76.978 28.0451 76.85 28.0095 76.7307C27.9737 76.6085 27.9279 76.4979 27.872 76.399C27.8161 76.2972 27.754 76.2055 27.6857 76.1241C27.6189 76.0426 27.5546 75.9713 27.4925 75.9102C27.404 75.8258 27.3131 75.7444 27.22 75.6658C27.1284 75.5844 27.0383 75.5 26.9498 75.4127C26.8629 75.3225 26.7798 75.2251 26.7006 75.1203C26.6229 75.0127 26.5547 74.8876 26.4957 74.745C26.4367 74.6025 26.3901 74.4381 26.356 74.2519C26.3218 74.0628 26.3048 73.8445 26.3048 73.5972C26.3048 73.3209 26.3357 73.0823 26.3978 72.8815C26.4615 72.6808 26.5446 72.515 26.6471 72.384C26.7495 72.2531 26.8667 72.1571 26.9987 72.096C27.1322 72.032 27.2688 72 27.4086 72C27.5327 72 27.6531 72.0204 27.7695 72.0611C27.886 72.1018 27.99 72.1687 28.0816 72.2618C28.1732 72.352 28.2493 72.4742 28.3098 72.6284C28.3703 72.7797 28.4069 72.9659 28.4193 73.187C28.4224 73.2685 28.417 73.3412 28.403 73.4052C28.389 73.4663 28.3696 73.5187 28.3448 73.5623C28.3199 73.6031 28.2912 73.6351 28.2586 73.6583C28.2276 73.6787 28.1957 73.6889 28.1631 73.6889C28.1134 73.6889 28.0715 73.6744 28.0373 73.6453C28.0032 73.6162 27.9752 73.5798 27.9535 73.5362C27.9318 73.4925 27.9155 73.4431 27.9046 73.3878C27.8937 73.3325 27.8867 73.2787 27.8837 73.2263C27.8603 73.1565 27.8301 73.0997 27.7928 73.0561C27.7555 73.0095 27.7137 72.9732 27.6671 72.947C27.6221 72.9179 27.5747 72.899 27.525 72.8903C27.4753 72.8786 27.4272 72.8728 27.3806 72.8728C27.3155 72.8728 27.2502 72.8859 27.185 72.9121C27.1214 72.9383 27.0631 72.9805 27.0103 73.0386C26.9575 73.0968 26.9148 73.171 26.8823 73.2612C26.8497 73.3514 26.8333 73.462 26.8333 73.5929C26.8333 73.7471 26.8527 73.8838 26.8916 74.0031C26.9304 74.1224 26.9793 74.2286 27.0383 74.3217C27.0973 74.4148 27.1625 74.4992 27.234 74.5748C27.3069 74.6505 27.3776 74.7203 27.4458 74.7843C27.5281 74.8628 27.6135 74.9472 27.702 75.0374C27.7905 75.1247 27.8767 75.2207 27.9605 75.3254C28.0459 75.4273 28.1266 75.5393 28.2027 75.6615C28.2788 75.7837 28.3455 75.9204 28.403 76.0717C28.4604 76.2201 28.5055 76.383 28.538 76.5605C28.5722 76.7379 28.5893 76.9343 28.5893 77.1496C28.5893 77.3795 28.5722 77.5846 28.538 77.765C28.5039 77.9453 28.4574 78.1039 28.3983 78.2406C28.3393 78.3774 28.2702 78.4938 28.191 78.5898C28.1118 78.6858 28.0265 78.7643 27.9348 78.8254C27.8433 78.8865 27.7478 78.9302 27.6485 78.9564C27.5506 78.9854 27.4528 79 27.355 79C27.2728 79 27.1843 78.9869 27.0895 78.9607C26.9963 78.9345 26.904 78.8938 26.8125 78.8385C26.7208 78.7803 26.6331 78.7076 26.5493 78.6203C26.4669 78.5301 26.394 78.4225 26.3303 78.2974C26.2682 78.1694 26.2194 78.0239 26.1836 77.861C26.1479 77.6951 26.1316 77.5089 26.1348 77.3024ZM30.3997 78.5199C30.3997 78.3716 30.4052 78.2261 30.416 78.0835C30.4284 77.9381 30.4346 77.7839 30.4346 77.6209C30.4346 76.8791 30.4307 76.1328 30.423 75.3822C30.4167 74.6316 30.4137 73.8606 30.4137 73.0692C30.4137 72.9877 30.409 72.9063 30.3997 72.8248C30.3903 72.7404 30.3857 72.6502 30.3857 72.5542C30.3857 72.4786 30.3912 72.4073 30.402 72.3404C30.4129 72.2735 30.4316 72.2153 30.458 72.1658C30.4843 72.1135 30.5208 72.0727 30.5673 72.0436C30.614 72.0145 30.6722 72 30.742 72C30.8118 72 30.867 72.0495 30.9073 72.1484C30.9477 72.2473 30.968 72.3797 30.968 72.5455C30.968 72.595 30.9656 72.6444 30.961 72.6939C30.9563 72.7404 30.9516 72.7899 30.947 72.8423C30.9439 73.0925 30.9416 73.3616 30.94 73.6496C30.9384 73.9377 30.9377 74.2679 30.9377 74.6403C30.9377 74.9719 30.9384 75.3109 30.94 75.6571C30.9416 76.0033 30.9439 76.3364 30.947 76.6565C30.9501 76.9765 30.954 77.2762 30.9586 77.5555C30.9648 77.8319 30.9718 78.0704 30.9795 78.2712V78.2668C30.9827 78.3105 30.985 78.3527 30.9865 78.3934C30.9897 78.4312 30.9912 78.4705 30.9912 78.5112C30.9912 78.581 30.9865 78.6465 30.9772 78.7076C30.9694 78.7658 30.9555 78.8167 30.9353 78.8604C30.9152 78.904 30.8872 78.9374 30.8515 78.9607C30.8158 78.984 30.7716 78.9956 30.7188 78.9956C30.6567 78.9956 30.6046 78.9854 30.5627 78.9651C30.5223 78.9447 30.4898 78.9142 30.4648 78.8734C30.4416 78.8327 30.4246 78.7833 30.4137 78.7251C30.4043 78.664 30.3997 78.5956 30.3997 78.5199ZM32.9203 78.5898C32.9203 78.4676 32.925 78.3643 32.9343 78.2799C32.9437 78.1956 32.9491 78.1563 32.9506 78.1621C32.9537 77.845 32.9561 77.5235 32.9576 77.1976C32.9607 76.8718 32.9623 76.527 32.9623 76.1633C32.9623 75.9335 32.9623 75.6847 32.9623 75.4171C32.9623 75.1465 32.9607 74.8745 32.9576 74.601C32.9561 74.3246 32.953 74.054 32.9483 73.7893C32.9437 73.5216 32.9375 73.2743 32.9297 73.0474C32.9235 72.9805 32.9189 72.9208 32.9157 72.8685C32.9126 72.8132 32.9111 72.755 32.9111 72.6939C32.9111 72.5513 32.9273 72.4393 32.96 72.3579C32.9926 72.2735 33.0454 72.2153 33.1183 72.1833C33.1494 72.1338 33.1835 72.1004 33.2208 72.0829C33.2596 72.0626 33.2969 72.0524 33.3326 72.0524C33.3698 72.0524 33.4032 72.0727 33.4327 72.1135C33.4637 72.1542 33.491 72.2022 33.5142 72.2575C33.5375 72.3128 33.5569 72.3709 33.5725 72.432C33.5879 72.4902 33.5989 72.5382 33.605 72.5761C33.6532 72.7099 33.7106 72.8626 33.7773 73.0343C33.8457 73.2059 33.9195 73.3907 33.9986 73.5885C34.0794 73.7835 34.1647 73.9886 34.2548 74.2039C34.3448 74.4163 34.4356 74.6316 34.5273 74.8498C34.6204 75.0679 34.7128 75.2861 34.8044 75.5044C34.896 75.7197 34.9829 75.9277 35.0652 76.1284C35.1475 76.3292 35.2244 76.5197 35.2958 76.7001C35.3671 76.8776 35.4285 77.0376 35.4797 77.1802C35.4797 76.5576 35.4782 76.0222 35.475 75.5742C35.4735 75.1232 35.4712 74.7407 35.4681 74.4264C35.465 74.1093 35.4611 73.8489 35.4565 73.6453C35.4518 73.4416 35.4479 73.2729 35.4448 73.139C35.4417 73.0052 35.4386 72.8961 35.4355 72.8117C35.4339 72.7244 35.4332 72.6415 35.4332 72.563C35.4332 72.4466 35.4394 72.352 35.4518 72.2793C35.4658 72.2037 35.4844 72.1455 35.5077 72.1047C35.5325 72.064 35.5628 72.0364 35.5985 72.0218C35.6342 72.0073 35.6753 72 35.722 72C35.7825 72 35.8299 72.0233 35.864 72.0698C35.8981 72.1164 35.9238 72.176 35.9408 72.2488C35.9595 72.3186 35.9703 72.3986 35.9735 72.4888C35.9781 72.5761 35.9805 72.6619 35.9805 72.7463V77.7519C35.9805 77.8566 35.9835 77.9628 35.9897 78.0704C35.9959 78.1752 35.999 78.2872 35.999 78.4065C35.999 78.5199 35.9944 78.6145 35.985 78.6901C35.9758 78.7629 35.9602 78.8225 35.9385 78.8691C35.9184 78.9156 35.8911 78.9476 35.857 78.9651C35.8244 78.9854 35.7848 78.9956 35.7382 78.9956C35.6513 78.9956 35.5814 78.9549 35.5287 78.8734C35.4774 78.792 35.4409 78.6931 35.4192 78.5767C35.2717 78.1985 35.1219 77.826 34.9697 77.4595C34.8191 77.09 34.667 76.722 34.5133 76.3554C34.3596 75.9859 34.2051 75.6149 34.0498 75.2425C33.8946 74.8672 33.7401 74.4861 33.5865 74.0991L33.4467 73.6889C33.4483 74.134 33.4498 74.5312 33.4513 74.8803C33.4529 75.2265 33.4545 75.5364 33.456 75.8099C33.4576 76.0804 33.4591 76.3205 33.4607 76.5299C33.4622 76.7365 33.463 76.9227 33.463 77.0885C33.4646 77.2515 33.4653 77.4013 33.4653 77.538C33.4669 77.6719 33.4677 77.8028 33.4677 77.9308C33.4692 78.0064 33.4716 78.0879 33.4746 78.1752C33.4793 78.2596 33.4816 78.3425 33.4816 78.4239C33.4816 78.4996 33.4777 78.5723 33.47 78.6421C33.4637 78.712 33.4506 78.7731 33.4303 78.8254C33.4102 78.8778 33.3815 78.9185 33.3442 78.9476C33.3086 78.9796 33.2612 78.9956 33.2022 78.9956C33.123 78.9956 33.0562 78.9593 33.0018 78.8865C32.9476 78.8138 32.9203 78.7149 32.9203 78.5898ZM37.6418 75.5698C37.6418 74.9734 37.6876 74.4526 37.7792 74.0075C37.8707 73.5623 37.9973 73.1914 38.1588 72.8946C38.3202 72.5979 38.5112 72.3753 38.7317 72.2269C38.9521 72.0786 39.192 72.0044 39.4513 72.0044C39.518 72.0044 39.5933 72.0073 39.6772 72.0131C39.761 72.016 39.8464 72.0262 39.9333 72.0436C40.0218 72.0611 40.1088 72.0858 40.1942 72.1178C40.2796 72.1498 40.3588 72.192 40.4317 72.2444C40.4891 72.2851 40.5373 72.3433 40.576 72.419C40.6149 72.4946 40.6343 72.6037 40.6343 72.7463C40.6343 72.9121 40.6118 73.0459 40.5667 73.1477C40.5233 73.2467 40.4721 73.2961 40.413 73.2961C40.4006 73.2961 40.3843 73.2932 40.3642 73.2874C40.3439 73.2816 40.3269 73.2714 40.3129 73.2569C40.2524 73.1958 40.1786 73.1463 40.0917 73.1085C40.0063 73.0707 39.9178 73.0401 39.8262 73.0168C39.7346 72.9936 39.6454 72.9776 39.5584 72.9688C39.4715 72.9601 39.3969 72.9557 39.3348 72.9557C39.2494 72.9557 39.1618 72.9761 39.0717 73.0168C38.9816 73.0547 38.8931 73.1157 38.8062 73.2001C38.7208 73.2845 38.6392 73.3921 38.5617 73.5231C38.4856 73.654 38.4188 73.8096 38.3614 73.99C38.3039 74.1704 38.2581 74.3784 38.224 74.6141C38.1899 74.8468 38.1728 75.1087 38.1728 75.3996C38.1728 75.74 38.1937 76.0411 38.2357 76.303C38.2791 76.5648 38.3381 76.7932 38.4127 76.9882C38.4872 77.1802 38.5749 77.3431 38.6758 77.4769C38.7767 77.6079 38.8854 77.7141 39.0018 77.7955C39.1198 77.877 39.2424 77.9352 39.3698 77.9701C39.4971 78.005 39.6244 78.0224 39.7517 78.0224C39.8075 78.0224 39.8705 78.021 39.9403 78.0181C40.0118 78.0123 40.0824 77.9977 40.1522 77.9744C40.1522 77.6893 40.1515 77.4464 40.1499 77.2456C40.1499 77.0449 40.1491 76.866 40.1475 76.7088C40.1461 76.5517 40.1437 76.4077 40.1405 76.2768C40.1391 76.1459 40.1367 76.0062 40.1337 75.8579C40.1337 75.7531 40.1297 75.6484 40.122 75.5436C40.1142 75.436 40.1103 75.3211 40.1103 75.1989C40.1103 75.1552 40.115 75.1087 40.1243 75.0592C40.1351 75.0069 40.1515 74.9589 40.1732 74.9152C40.1965 74.8687 40.2267 74.8308 40.264 74.8017C40.3013 74.7697 40.3479 74.7537 40.4037 74.7537C40.4954 74.7537 40.566 74.7945 40.6157 74.8759C40.6669 74.9545 40.6925 75.0621 40.6925 75.1989C40.6925 75.2571 40.6918 75.3138 40.6902 75.3691C40.6886 75.4214 40.6879 75.4782 40.6879 75.5393C40.6863 75.6324 40.6839 75.7458 40.6809 75.8797C40.6793 76.0106 40.6778 76.1793 40.6762 76.3859C40.6747 76.5896 40.6731 76.8383 40.6715 77.1322C40.6701 77.4231 40.6692 77.7722 40.6692 78.1795C40.6677 78.3454 40.6561 78.4748 40.6343 78.568C40.6126 78.661 40.583 78.7309 40.5458 78.7774C40.5085 78.8211 40.4651 78.8472 40.4154 78.856C40.3673 78.8647 40.3168 78.8691 40.264 78.8691C40.219 78.8691 40.1716 78.8734 40.122 78.8822C40.0723 78.8909 40.0218 78.9011 39.9705 78.9127C39.9194 78.9243 39.8689 78.9345 39.8192 78.9433C39.7711 78.952 39.7253 78.9564 39.6818 78.9564C39.3512 78.9564 39.0585 78.8647 38.8038 78.6814C38.5508 78.4981 38.3381 78.2523 38.1658 77.9439C37.9935 77.6326 37.863 77.2733 37.7745 76.866C37.686 76.4557 37.6418 76.0237 37.6418 75.5698ZM42.4424 78.4414C42.4424 78.3657 42.4455 78.2712 42.4517 78.1577C42.4594 78.0443 42.4743 77.9352 42.496 77.8304C42.5177 77.7257 42.5488 77.6355 42.5891 77.5598C42.6294 77.4842 42.6831 77.4464 42.7498 77.4464C42.8166 77.4464 42.8678 77.474 42.9035 77.5293C42.9407 77.5846 42.9679 77.65 42.985 77.7257C43.0021 77.7984 43.0121 77.8726 43.0153 77.9483C43.0199 78.0239 43.0222 78.0835 43.0222 78.1272V78.1534C43.0222 78.2843 43.0175 78.4007 43.0083 78.5025C42.999 78.6043 42.9827 78.6901 42.9594 78.76C42.9376 78.8298 42.9082 78.8836 42.8709 78.9214C42.8337 78.9593 42.787 78.9782 42.7312 78.9782C42.6784 78.9782 42.6333 78.9622 42.596 78.9302C42.5604 78.9011 42.5309 78.8618 42.5075 78.8123C42.4843 78.7629 42.4673 78.7061 42.4563 78.6421C42.447 78.5781 42.4424 78.5112 42.4424 78.4414ZM44.7139 78.3759C44.7139 78.3265 44.717 78.2741 44.7232 78.2188C44.7309 78.1636 44.7388 78.1126 44.7465 78.0661L44.7675 77.9264L44.7139 72.707C44.7139 72.5644 44.7224 72.4539 44.7395 72.3753C44.7582 72.2968 44.7815 72.2386 44.8093 72.2007C44.8373 72.1629 44.8691 72.1411 44.9048 72.1353C44.9421 72.1295 44.9793 72.1266 45.0167 72.1266H46.2439C46.2719 72.1207 46.3029 72.1135 46.337 72.1047C46.3728 72.0931 46.3977 72.0873 46.4115 72.0873C46.4706 72.0873 46.518 72.0975 46.5537 72.1178C46.5909 72.1382 46.6196 72.1687 46.6398 72.2095C46.6616 72.2473 46.6756 72.2953 46.6817 72.3535C46.6894 72.4117 46.6934 72.48 46.6934 72.5586C46.6934 72.6692 46.6856 72.7579 46.67 72.8248C46.6562 72.8917 46.6359 72.9441 46.6095 72.9819C46.5847 73.0168 46.5552 73.0401 46.521 73.0517C46.4869 73.0634 46.4504 73.0692 46.4115 73.0692C46.3945 73.0692 46.372 73.0692 46.344 73.0692C46.3162 73.0663 46.2866 73.0619 46.2555 73.0561C46.1049 73.0561 45.983 73.0561 45.89 73.0561C45.7983 73.0561 45.7245 73.0576 45.6687 73.0605C45.6143 73.0605 45.5724 73.0605 45.543 73.0605C45.515 73.0605 45.4902 73.0605 45.4685 73.0605H45.2518V74.4439C45.2612 74.4439 45.272 74.4454 45.2845 74.4483C45.2984 74.4483 45.3194 74.4483 45.3473 74.4483C45.3753 74.4483 45.4133 74.4483 45.4615 74.4483C45.5111 74.4483 45.5771 74.4483 45.6594 74.4483C45.7417 74.4483 45.8433 74.4483 45.9645 74.4483C46.0855 74.4483 46.2323 74.4483 46.4047 74.4483C46.4217 74.4483 46.4411 74.4468 46.4628 74.4439C46.4846 74.441 46.5063 74.4366 46.528 74.4308C46.556 74.425 46.5885 74.4192 46.6258 74.4133C46.663 74.4075 46.7034 74.4046 46.7469 74.4046C46.7889 74.4046 46.8262 74.4206 46.8587 74.4526C46.8913 74.4846 46.9185 74.5254 46.9402 74.5748C46.9635 74.6214 46.9806 74.6723 46.9915 74.7275C47.0039 74.7828 47.01 74.8352 47.01 74.8847C47.01 75.0418 46.9822 75.1567 46.9262 75.2294C46.8719 75.3022 46.8013 75.3385 46.7143 75.3385L45.2518 75.3429V77.957C45.4055 77.957 45.56 77.9613 45.7153 77.9701C45.8705 77.9788 46.0327 77.9832 46.202 77.9832C46.2485 77.9832 46.2913 77.9788 46.33 77.9701C46.3689 77.9613 46.4061 77.9512 46.4419 77.9395C46.4745 77.9308 46.507 77.9235 46.5397 77.9177C46.5738 77.909 46.6111 77.9046 46.6515 77.9046C46.698 77.9046 46.7407 77.9119 46.7795 77.9264C46.8199 77.9381 46.8549 77.9613 46.8843 77.9963C46.9138 78.0283 46.9371 78.0734 46.9542 78.1315C46.9713 78.1868 46.9798 78.2581 46.9798 78.3454C46.9798 78.4734 46.9682 78.5723 46.9449 78.6421C46.9215 78.712 46.8898 78.7643 46.8494 78.7992C46.8106 78.8313 46.7655 78.8516 46.7143 78.8604C46.6646 78.8662 46.6126 78.8691 46.5583 78.8691H44.991C44.9506 78.8691 44.9134 78.8604 44.8792 78.8429C44.8467 78.8254 44.8179 78.7978 44.793 78.76C44.7682 78.7192 44.7488 78.6683 44.7348 78.6072C44.7209 78.5432 44.7139 78.4661 44.7139 78.3759ZM48.6388 78.5898C48.6388 78.4676 48.6435 78.3643 48.6528 78.2799C48.6622 78.1956 48.6676 78.1563 48.6692 78.1621C48.6722 77.845 48.6746 77.5235 48.6762 77.1976C48.6792 76.8718 48.6808 76.527 48.6808 76.1633C48.6808 75.9335 48.6808 75.6847 48.6808 75.4171C48.6808 75.1465 48.6792 74.8745 48.6762 74.601C48.6746 74.3246 48.6715 74.054 48.6668 73.7893C48.6622 73.5216 48.6559 73.2743 48.6482 73.0474C48.6419 72.9805 48.6373 72.9208 48.6342 72.8685C48.6311 72.8132 48.6295 72.755 48.6295 72.6939C48.6295 72.5513 48.6458 72.4393 48.6785 72.3579C48.711 72.2735 48.7638 72.2153 48.8368 72.1833C48.8679 72.1338 48.902 72.1004 48.9393 72.0829C48.9781 72.0626 49.0153 72.0524 49.051 72.0524C49.0883 72.0524 49.1217 72.0727 49.1512 72.1135C49.1822 72.1542 49.2094 72.2022 49.2327 72.2575C49.256 72.3128 49.2754 72.3709 49.2909 72.432C49.3065 72.4902 49.3173 72.5382 49.3235 72.5761C49.3716 72.7099 49.4291 72.8626 49.4959 73.0343C49.5642 73.2059 49.6379 73.3907 49.717 73.5885C49.7978 73.7835 49.8832 73.9886 49.9732 74.2039C50.0633 74.4163 50.1541 74.6316 50.2457 74.8498C50.3389 75.0679 50.4313 75.2861 50.5229 75.5044C50.6144 75.7197 50.7014 75.9277 50.7837 76.1284C50.8659 76.3292 50.9428 76.5197 51.0142 76.7001C51.0856 76.8776 51.147 77.0376 51.1982 77.1802C51.1982 76.5576 51.1966 76.0222 51.1935 75.5742C51.1919 75.1232 51.1896 74.7407 51.1865 74.4264C51.1835 74.1093 51.1795 73.8489 51.1749 73.6453C51.1702 73.4416 51.1664 73.2729 51.1632 73.139C51.1601 73.0052 51.1571 72.8961 51.154 72.8117C51.1524 72.7244 51.1517 72.6415 51.1517 72.563C51.1517 72.4466 51.1578 72.352 51.1702 72.2793C51.1842 72.2037 51.2029 72.1455 51.2262 72.1047C51.251 72.064 51.2813 72.0364 51.317 72.0218C51.3527 72.0073 51.3939 72 51.4404 72C51.5009 72 51.5483 72.0233 51.5825 72.0698C51.6166 72.1164 51.6422 72.176 51.6593 72.2488C51.6779 72.3186 51.6888 72.3986 51.6919 72.4888C51.6965 72.5761 51.6989 72.6619 51.6989 72.7463V77.7519C51.6989 77.8566 51.702 77.9628 51.7082 78.0704C51.7145 78.1752 51.7175 78.2872 51.7175 78.4065C51.7175 78.5199 51.7129 78.6145 51.7035 78.6901C51.6942 78.7629 51.6787 78.8225 51.657 78.8691C51.6368 78.9156 51.6096 78.9476 51.5755 78.9651C51.5429 78.9854 51.5032 78.9956 51.4567 78.9956C51.3698 78.9956 51.2999 78.9549 51.2471 78.8734C51.1959 78.792 51.1594 78.6931 51.1377 78.5767C50.9901 78.1985 50.8404 77.826 50.6882 77.4595C50.5376 77.09 50.3855 76.722 50.2317 76.3554C50.078 75.9859 49.9236 75.6149 49.7683 75.2425C49.6131 74.8672 49.4585 74.4861 49.3049 74.0991L49.1652 73.6889C49.1668 74.134 49.1682 74.5312 49.1698 74.8803C49.1714 75.2265 49.1729 75.5364 49.1745 75.8099C49.176 76.0804 49.1776 76.3205 49.1792 76.5299C49.1806 76.7365 49.1815 76.9227 49.1815 77.0885C49.183 77.2515 49.1838 77.4013 49.1838 77.538C49.1853 77.6719 49.1862 77.8028 49.1862 77.9308C49.1876 78.0064 49.19 78.0879 49.1932 78.1752C49.1978 78.2596 49.2001 78.3425 49.2001 78.4239C49.2001 78.4996 49.1962 78.5723 49.1885 78.6421C49.1822 78.712 49.1691 78.7731 49.1488 78.8254C49.1287 78.8778 49.1 78.9185 49.0627 78.9476C49.027 78.9796 48.9796 78.9956 48.9207 78.9956C48.8415 78.9956 48.7747 78.9593 48.7203 78.8865C48.666 78.8138 48.6388 78.7149 48.6388 78.5898ZM54.0519 73.1085C53.9432 73.1085 53.8307 73.1099 53.7142 73.1128C53.5978 73.1157 53.4704 73.1172 53.3323 73.1172C53.295 73.1172 53.2625 73.1012 53.2345 73.0692C53.2065 73.0372 53.1833 72.9965 53.1647 72.947C53.146 72.8946 53.132 72.8364 53.1227 72.7724C53.1134 72.7084 53.1087 72.6444 53.1087 72.5804C53.1087 72.4088 53.1344 72.2909 53.1856 72.2269C53.2368 72.16 53.3199 72.1266 53.4348 72.1266H55.2932C55.3242 72.1266 55.356 72.1338 55.3887 72.1484C55.4228 72.1629 55.4531 72.1891 55.4795 72.2269C55.5074 72.2648 55.53 72.3142 55.547 72.3753C55.5657 72.4364 55.5749 72.515 55.5749 72.611C55.5749 72.6808 55.5688 72.7477 55.5564 72.8117C55.5438 72.8757 55.5268 72.931 55.5051 72.9776C55.4849 73.0241 55.46 73.0619 55.4305 73.091C55.4026 73.1201 55.3724 73.1347 55.3397 73.1347C55.3149 73.1347 55.2909 73.1303 55.2675 73.1216C55.2442 73.1128 55.2194 73.1085 55.193 73.1085H54.5922L54.5852 78.0312C54.5852 78.101 54.5875 78.1694 54.5922 78.2363C54.5985 78.3032 54.6015 78.3759 54.6015 78.4545C54.6015 78.5185 54.5985 78.5825 54.5922 78.6465C54.5859 78.7105 54.5728 78.7687 54.5526 78.8211C54.5324 78.8734 54.5037 78.9156 54.4664 78.9476C54.4292 78.9825 54.3802 79 54.3197 79C54.2483 79 54.194 78.9767 54.1567 78.9302C54.1195 78.8865 54.0923 78.8298 54.0752 78.76C54.0597 78.6901 54.0511 78.613 54.0496 78.5287C54.0481 78.4443 54.0472 78.3628 54.0472 78.2843L54.0519 73.1085ZM56.9615 78.3759C56.9615 78.3265 56.9646 78.2741 56.9708 78.2188C56.9786 78.1636 56.9863 78.1126 56.9942 78.0661L57.015 77.9264L56.9615 72.707C56.9615 72.5644 56.9701 72.4539 56.9872 72.3753C57.0057 72.2968 57.029 72.2386 57.057 72.2007C57.085 72.1629 57.1168 72.1411 57.1525 72.1353C57.1897 72.1295 57.227 72.1266 57.2642 72.1266H58.4915C58.5195 72.1207 58.5506 72.1135 58.5847 72.1047C58.6204 72.0931 58.6452 72.0873 58.6592 72.0873C58.7182 72.0873 58.7655 72.0975 58.8012 72.1178C58.8385 72.1382 58.8673 72.1687 58.8874 72.2095C58.9091 72.2473 58.9231 72.2953 58.9294 72.3535C58.9371 72.4117 58.941 72.48 58.941 72.5586C58.941 72.6692 58.9332 72.7579 58.9177 72.8248C58.9037 72.8917 58.8836 72.9441 58.8572 72.9819C58.8323 73.0168 58.8028 73.0401 58.7687 73.0517C58.7345 73.0634 58.698 73.0692 58.6592 73.0692C58.6421 73.0692 58.6197 73.0692 58.5917 73.0692C58.5637 73.0663 58.5343 73.0619 58.5032 73.0561C58.3526 73.0561 58.2307 73.0561 58.1375 73.0561C58.046 73.0561 57.9722 73.0576 57.9164 73.0605C57.862 73.0605 57.8201 73.0605 57.7905 73.0605C57.7627 73.0605 57.7378 73.0605 57.716 73.0605H57.4995V74.4439C57.5088 74.4439 57.5196 74.4454 57.532 74.4483C57.546 74.4483 57.567 74.4483 57.595 74.4483C57.6229 74.4483 57.6609 74.4483 57.709 74.4483C57.7588 74.4483 57.8248 74.4483 57.907 74.4483C57.9893 74.4483 58.091 74.4483 58.2121 74.4483C58.3332 74.4483 58.4799 74.4483 58.6522 74.4483C58.6693 74.4483 58.6887 74.4468 58.7104 74.4439C58.7322 74.441 58.754 74.4366 58.7757 74.4308C58.8036 74.425 58.8362 74.4192 58.8735 74.4133C58.9107 74.4075 58.9511 74.4046 58.9945 74.4046C59.0365 74.4046 59.0737 74.4206 59.1064 74.4526C59.1389 74.4846 59.1661 74.5254 59.1879 74.5748C59.2112 74.6214 59.2283 74.6723 59.2391 74.7275C59.2515 74.7828 59.2577 74.8352 59.2577 74.8847C59.2577 75.0418 59.2297 75.1567 59.1739 75.2294C59.1195 75.3022 59.0489 75.3385 58.9619 75.3385L57.4995 75.3429V77.957C57.6532 77.957 57.8076 77.9613 57.9629 77.9701C58.1182 77.9788 58.2804 77.9832 58.4497 77.9832C58.4962 77.9832 58.5389 77.9788 58.5777 77.9701C58.6165 77.9613 58.6538 77.9512 58.6895 77.9395C58.7221 77.9308 58.7547 77.9235 58.7873 77.9177C58.8215 77.909 58.8587 77.9046 58.8991 77.9046C58.9457 77.9046 58.9884 77.9119 59.0272 77.9264C59.0676 77.9381 59.1024 77.9613 59.1319 77.9963C59.1615 78.0283 59.1848 78.0734 59.2019 78.1315C59.2189 78.1868 59.2274 78.2581 59.2274 78.3454C59.2274 78.4734 59.2159 78.5723 59.1925 78.6421C59.1692 78.712 59.1374 78.7643 59.097 78.7992C59.0582 78.8313 59.0132 78.8516 58.9619 78.8604C58.9123 78.8662 58.8603 78.8691 58.8059 78.8691H57.2387C57.1983 78.8691 57.161 78.8604 57.1269 78.8429C57.0942 78.8254 57.0655 78.7978 57.0407 78.76C57.0159 78.7192 56.9965 78.6683 56.9825 78.6072C56.9685 78.5432 56.9615 78.4661 56.9615 78.3759ZM60.8912 78.3847C60.8912 78.3207 60.8927 78.2581 60.8958 78.197C60.8989 78.1359 60.902 78.0792 60.9051 78.0268C60.9051 77.6224 60.9051 77.25 60.9051 76.9096C60.9051 76.5692 60.9051 76.2521 60.9051 75.9582C60.9051 75.6615 60.9051 75.3836 60.9051 75.1247C60.9051 74.8658 60.9051 74.6155 60.9051 74.3741C60.9051 74.1297 60.9051 73.8911 60.9051 73.6583C60.9067 73.4227 60.9074 73.1827 60.9074 72.9383C60.8997 72.8975 60.8919 72.8408 60.8842 72.7681C60.8779 72.6953 60.8749 72.627 60.8749 72.563C60.8749 72.5019 60.8795 72.4408 60.8888 72.3797C60.8997 72.3186 60.9152 72.2648 60.9354 72.2182C60.9571 72.1687 60.9835 72.1295 61.0145 72.1004C61.0456 72.0713 61.0813 72.0567 61.1217 72.0567C61.1869 72.0567 61.2529 72.064 61.3197 72.0786C61.3863 72.0931 61.4617 72.1004 61.5455 72.1004C61.6154 72.1004 61.6852 72.0946 61.7551 72.0829C61.825 72.0684 61.8995 72.0596 61.9787 72.0567C62.2131 72.0567 62.425 72.1004 62.6144 72.1877C62.8054 72.2749 62.9677 72.4102 63.1012 72.5935C63.2362 72.7768 63.3403 73.011 63.4132 73.2961C63.4861 73.5783 63.5227 73.9158 63.5227 74.3086C63.5227 74.681 63.4947 75.0127 63.4389 75.3036C63.3845 75.5916 63.3139 75.8433 63.2269 76.0586C63.1416 76.2739 63.0452 76.4543 62.9382 76.5997C62.8326 76.7423 62.7293 76.8514 62.6284 76.9271C62.6424 77.0842 62.6641 77.2325 62.6936 77.3722C62.7246 77.5089 62.7635 77.6297 62.8101 77.7344C62.8582 77.8392 62.9141 77.9221 62.9777 77.9832C63.0414 78.0443 63.1129 78.0748 63.192 78.0748C63.251 78.0748 63.3046 78.0574 63.3527 78.0224C63.4023 77.9875 63.445 77.9192 63.4807 77.8173C63.5025 77.7591 63.5289 77.7082 63.5599 77.6646C63.591 77.618 63.6306 77.5948 63.6787 77.5948C63.7626 77.5948 63.8277 77.6384 63.8744 77.7257C63.9209 77.813 63.9442 77.9235 63.9442 78.0574C63.9442 78.1825 63.9248 78.3018 63.8859 78.4152C63.8487 78.5287 63.7952 78.629 63.7253 78.7163C63.657 78.8007 63.5739 78.8676 63.4761 78.9171C63.3782 78.9695 63.2696 78.9956 63.1501 78.9956C63.0398 78.9956 62.9397 78.9651 62.8497 78.904C62.7612 78.8458 62.6812 78.7672 62.6097 78.6683C62.5399 78.5665 62.4778 78.4516 62.4235 78.3236C62.3692 78.1926 62.3225 78.0574 62.2837 77.9177C62.2449 77.7751 62.2131 77.634 62.1882 77.4944C62.1634 77.3547 62.144 77.2238 62.1301 77.1016C62.1114 77.1016 62.0866 77.1016 62.0555 77.1016C62.0245 77.1016 61.9927 77.1016 61.96 77.1016C61.9274 77.1016 61.8949 77.1016 61.8622 77.1016C61.8312 77.0987 61.8056 77.0973 61.7854 77.0973C61.7403 77.0944 61.6845 77.0929 61.6177 77.0929C61.5525 77.09 61.4928 77.0885 61.4384 77.0885V77.7257C61.4415 77.8624 61.4508 77.9963 61.4664 78.1272C61.4818 78.2552 61.4897 78.3876 61.4897 78.5243C61.4897 78.6087 61.4804 78.68 61.4617 78.7381C61.4446 78.7963 61.4221 78.8443 61.3942 78.8822C61.3662 78.9229 61.3359 78.952 61.3034 78.9695C61.2707 78.9869 61.2397 78.9956 61.2102 78.9956C61.1636 78.9956 61.121 78.9796 61.0821 78.9476C61.0433 78.9185 61.0099 78.8778 60.982 78.8254C60.954 78.7702 60.9315 78.7062 60.9144 78.6334C60.8989 78.5578 60.8912 78.4748 60.8912 78.3847ZM61.4361 76.1502C61.4764 76.1532 61.5238 76.1561 61.5782 76.159C61.6324 76.1619 61.6845 76.1648 61.7342 76.1677C61.7838 76.1706 61.8281 76.1735 61.8669 76.1764C61.9057 76.1764 61.9306 76.1764 61.9414 76.1764C62.151 76.1764 62.3225 76.1226 62.4561 76.015C62.5912 75.9073 62.6968 75.7647 62.7729 75.5873C62.8488 75.4098 62.9009 75.2061 62.9289 74.9763C62.9583 74.7465 62.9731 74.5108 62.9731 74.2693C62.9731 74.0569 62.9553 73.878 62.9195 73.7325C62.8838 73.5842 62.8364 73.462 62.7774 73.366C62.7185 73.27 62.6517 73.1943 62.5772 73.139C62.5027 73.0838 62.4266 73.043 62.349 73.0168C62.2729 72.9906 62.1976 72.9747 62.1231 72.9688C62.0501 72.963 61.9857 72.9601 61.9297 72.9601C61.8506 72.9601 61.7699 72.963 61.6876 72.9688C61.6069 72.9717 61.5191 72.9747 61.4244 72.9776C61.4213 73.0881 61.419 73.1885 61.4174 73.2787C61.4174 73.3689 61.4167 73.4576 61.4151 73.5449C61.4151 73.6293 61.4151 73.7165 61.4151 73.8067C61.4151 73.894 61.4151 73.9929 61.4151 74.1035C61.4151 74.3013 61.4151 74.4861 61.4151 74.6577C61.4167 74.8265 61.4182 74.9923 61.4197 75.1552C61.4213 75.3152 61.4229 75.4767 61.4244 75.6396C61.4276 75.8026 61.4314 75.9728 61.4361 76.1502ZM62.5282 76.9882C62.5282 76.9882 62.5259 76.9896 62.5259 76.9925L62.5282 76.9882ZM65.9456 73.1085C65.8369 73.1085 65.7244 73.1099 65.6079 73.1128C65.4914 73.1157 65.3641 73.1172 65.226 73.1172C65.1887 73.1172 65.1561 73.1012 65.1282 73.0692C65.1002 73.0372 65.0769 72.9965 65.0582 72.947C65.0397 72.8946 65.0257 72.8364 65.0164 72.7724C65.007 72.7084 65.0024 72.6444 65.0024 72.5804C65.0024 72.4088 65.028 72.2909 65.0792 72.2269C65.1305 72.16 65.2135 72.1266 65.3284 72.1266H67.1868C67.2178 72.1266 67.2497 72.1338 67.2823 72.1484C67.3165 72.1629 67.3467 72.1891 67.3731 72.2269C67.4011 72.2648 67.4235 72.3142 67.4407 72.3753C67.4592 72.4364 67.4686 72.515 67.4686 72.611C67.4686 72.6808 67.4624 72.7477 67.4499 72.8117C67.4375 72.8757 67.4205 72.931 67.3987 72.9776C67.3786 73.0241 67.3537 73.0619 67.3242 73.091C67.2962 73.1201 67.266 73.1347 67.2334 73.1347C67.2086 73.1347 67.1845 73.1303 67.1612 73.1216C67.1379 73.1128 67.1131 73.1085 67.0867 73.1085H66.4859L66.4789 78.0312C66.4789 78.101 66.4812 78.1694 66.4859 78.2363C66.492 78.3032 66.4952 78.3759 66.4952 78.4545C66.4952 78.5185 66.492 78.5825 66.4859 78.6465C66.4796 78.7105 66.4665 78.7687 66.4462 78.8211C66.4261 78.8734 66.3974 78.9156 66.3601 78.9476C66.3229 78.9825 66.2739 79 66.2134 79C66.1419 79 66.0876 78.9767 66.0504 78.9302C66.0131 78.8865 65.9859 78.8298 65.9689 78.76C65.9533 78.6901 65.9448 78.613 65.9432 78.5287C65.9416 78.4443 65.9409 78.3628 65.9409 78.2843L65.9456 73.1085ZM68.4756 78.533C68.4756 78.4399 68.4825 78.3468 68.4965 78.2537C68.5105 78.1577 68.5361 78.0617 68.5734 77.9657C68.5998 77.8813 68.6355 77.7533 68.6805 77.5817C68.7271 77.41 68.7791 77.2078 68.8365 76.9751C68.894 76.7423 68.9554 76.4892 69.0205 76.2157C69.0873 75.9393 69.1548 75.6585 69.2231 75.3734C69.2914 75.0854 69.359 74.7988 69.4257 74.5137C69.4941 74.2257 69.5584 73.9566 69.619 73.7063C69.6796 73.4532 69.7347 73.2248 69.7844 73.0212C69.8341 72.8175 69.876 72.6532 69.9101 72.5281C69.9147 72.464 69.9241 72.4015 69.9381 72.3404C69.952 72.2764 69.9707 72.2197 69.9939 72.1702C70.0172 72.1178 70.0452 72.0771 70.0778 72.048C70.1104 72.016 70.1484 72 70.1919 72C70.2477 72 70.2928 72.0145 70.3269 72.0436C70.3626 72.0727 70.3914 72.1135 70.4131 72.1658C70.4364 72.2153 70.4551 72.2735 70.469 72.3404C70.483 72.4073 70.4969 72.4786 70.5109 72.5542C70.5233 72.6212 70.535 72.6852 70.5459 72.7463C70.5567 72.8044 70.5669 72.8495 70.5761 72.8815C70.6802 73.2714 70.7811 73.6642 70.8789 74.0598C70.9782 74.4555 71.076 74.8585 71.1723 75.2687C71.2701 75.676 71.3688 76.0891 71.4681 76.5081C71.5675 76.9271 71.6707 77.3533 71.7778 77.7868L71.8221 77.909C71.8345 77.941 71.8492 77.9803 71.8663 78.0268C71.8833 78.0704 71.8989 78.1184 71.9129 78.1708C71.9284 78.2232 71.9408 78.2785 71.9501 78.3366C71.961 78.3948 71.9664 78.453 71.9664 78.5112C71.9664 78.6858 71.94 78.8094 71.8873 78.8822C71.8345 78.9578 71.77 78.9956 71.6939 78.9956C71.6521 78.9956 71.6133 78.9825 71.5776 78.9564C71.5433 78.9331 71.5131 78.9011 71.4867 78.8604C71.4603 78.8167 71.4394 78.7672 71.4239 78.712C71.4083 78.6538 71.3982 78.5927 71.3936 78.5287C71.3501 78.3512 71.3097 78.1854 71.2724 78.0312C71.2352 77.8741 71.1988 77.7228 71.163 77.5773C71.1288 77.4318 71.0954 77.2907 71.0629 77.154C71.0302 77.0143 70.9977 76.8747 70.9651 76.735C70.9403 76.735 70.9053 76.735 70.8602 76.735C70.8152 76.7321 70.7648 76.7278 70.7089 76.722C70.6204 76.722 70.5303 76.7205 70.4387 76.7176C70.3487 76.7147 70.2563 76.7132 70.1616 76.7132C70.0669 76.7103 69.9691 76.7103 69.8682 76.7132C69.7673 76.7132 69.6617 76.7176 69.5515 76.7263C69.5344 76.7292 69.5181 76.7321 69.5026 76.735C69.4871 76.735 69.4708 76.735 69.4537 76.735C69.4102 76.9329 69.369 77.122 69.3302 77.3024C69.2914 77.4798 69.2565 77.6442 69.2254 77.7955C69.1944 77.9468 69.1665 78.0821 69.1416 78.2014C69.1184 78.3177 69.1005 78.4123 69.0881 78.485V78.4807C69.0787 78.5447 69.0679 78.6072 69.0554 78.6683C69.0446 78.7294 69.0283 78.7847 69.0065 78.8342C68.9848 78.8807 68.9545 78.9185 68.9157 78.9476C68.8784 78.9796 68.8288 78.9956 68.7667 78.9956C68.6829 78.9956 68.613 78.9564 68.5571 78.8778C68.5027 78.7992 68.4756 78.6843 68.4756 78.533ZM69.6656 75.7837C69.6982 75.7837 69.7401 75.7837 69.7914 75.7837C69.8442 75.7837 69.9117 75.7851 69.9939 75.788C70.0777 75.788 70.1802 75.7895 70.3014 75.7924C70.4224 75.7924 70.5692 75.7938 70.7415 75.7967C70.6701 75.5058 70.5893 75.1785 70.4993 74.8148C70.4093 74.4483 70.3029 74.022 70.1802 73.5362C70.1445 73.6845 70.1065 73.8475 70.0661 74.0249C70.0258 74.2024 69.9831 74.3872 69.9381 74.5792C69.8946 74.7712 69.8496 74.969 69.803 75.1727C69.758 75.3764 69.7122 75.58 69.6656 75.7837ZM73.516 78.5199C73.516 78.3716 73.5215 78.2261 73.5324 78.0835C73.5448 77.9381 73.5509 77.7839 73.5509 77.6209C73.5509 76.8791 73.5471 76.1328 73.5394 75.3822C73.5331 74.6316 73.53 73.8606 73.53 73.0692C73.53 72.9877 73.5254 72.9063 73.516 72.8248C73.5067 72.7404 73.5021 72.6502 73.5021 72.5542C73.5021 72.4786 73.5075 72.4073 73.5184 72.3404C73.5292 72.2735 73.5478 72.2153 73.5742 72.1658C73.6006 72.1135 73.6371 72.0727 73.6837 72.0436C73.7302 72.0145 73.7885 72 73.8584 72C73.9282 72 73.9833 72.0495 74.0237 72.1484C74.0641 72.2473 74.0842 72.3797 74.0842 72.5455C74.0842 72.595 74.0819 72.6444 74.0772 72.6939C74.0726 72.7404 74.0679 72.7899 74.0633 72.8423C74.0602 73.0925 74.0579 73.3616 74.0563 73.6496C74.0548 73.9377 74.054 74.2679 74.054 74.6403C74.054 74.9719 74.0548 75.3109 74.0563 75.6571C74.0579 76.0033 74.0602 76.3364 74.0633 76.6565C74.0664 76.9765 74.0703 77.2762 74.0749 77.5555C74.0812 77.8319 74.0882 78.0704 74.0959 78.2712V78.2668C74.099 78.3105 74.1013 78.3527 74.1029 78.3934C74.106 78.4312 74.1076 78.4705 74.1076 78.5112C74.1076 78.581 74.1029 78.6465 74.0936 78.7076C74.0858 78.7658 74.0718 78.8167 74.0517 78.8604C74.0315 78.904 74.0035 78.9374 73.9679 78.9607C73.9322 78.984 73.8879 78.9956 73.8351 78.9956C73.773 78.9956 73.7209 78.9854 73.6791 78.9651C73.6387 78.9447 73.606 78.9142 73.5812 78.8734C73.5579 78.8327 73.5408 78.7833 73.53 78.7251C73.5207 78.664 73.516 78.5956 73.516 78.5199ZM76.0367 78.5898C76.0367 78.4676 76.0414 78.3643 76.0507 78.2799C76.06 78.1956 76.0654 78.1563 76.067 78.1621C76.0701 77.845 76.0724 77.5235 76.074 77.1976C76.0771 76.8718 76.0787 76.527 76.0787 76.1633C76.0787 75.9335 76.0787 75.6847 76.0787 75.4171C76.0787 75.1465 76.0771 74.8745 76.074 74.601C76.0724 74.3246 76.0694 74.054 76.0647 73.7893C76.06 73.5216 76.0538 73.2743 76.046 73.0474C76.0398 72.9805 76.0351 72.9208 76.0321 72.8685C76.029 72.8132 76.0274 72.755 76.0274 72.6939C76.0274 72.5513 76.0437 72.4393 76.0764 72.3579C76.1089 72.2735 76.1617 72.2153 76.2347 72.1833C76.2658 72.1338 76.2999 72.1004 76.3371 72.0829C76.376 72.0626 76.4132 72.0524 76.4489 72.0524C76.4862 72.0524 76.5196 72.0727 76.5491 72.1135C76.5801 72.1542 76.6072 72.2022 76.6306 72.2575C76.6539 72.3128 76.6733 72.3709 76.6887 72.432C76.7043 72.4902 76.7151 72.5382 76.7214 72.5761C76.7695 72.7099 76.827 72.8626 76.8937 73.0343C76.962 73.2059 77.0357 73.3907 77.1149 73.5885C77.1957 73.7835 77.2811 73.9886 77.3711 74.2039C77.4612 74.4163 77.552 74.6316 77.6436 74.8498C77.7367 75.0679 77.8292 75.2861 77.9207 75.5044C78.0123 75.7197 78.0992 75.9277 78.1816 76.1284C78.2638 76.3292 78.3406 76.5197 78.4121 76.7001C78.4835 76.8776 78.5449 77.0376 78.5961 77.1802C78.5961 76.5576 78.5945 76.0222 78.5914 75.5742C78.5898 75.1232 78.5875 74.7407 78.5844 74.4264C78.5813 74.1093 78.5774 73.8489 78.5728 73.6453C78.5681 73.4416 78.5643 73.2729 78.5611 73.139C78.558 73.0052 78.555 72.8961 78.5518 72.8117C78.5503 72.7244 78.5495 72.6415 78.5495 72.563C78.5495 72.4466 78.5557 72.352 78.5681 72.2793C78.5821 72.2037 78.6007 72.1455 78.6241 72.1047C78.6489 72.064 78.6792 72.0364 78.7149 72.0218C78.7505 72.0073 78.7917 72 78.8383 72C78.8988 72 78.9461 72.0233 78.9803 72.0698C79.0145 72.1164 79.0401 72.176 79.0572 72.2488C79.0758 72.3186 79.0867 72.3986 79.0898 72.4888C79.0944 72.5761 79.0968 72.6619 79.0968 72.7463V77.7519C79.0968 77.8566 79.0998 77.9628 79.1061 78.0704C79.1123 78.1752 79.1154 78.2872 79.1154 78.4065C79.1154 78.5199 79.1107 78.6145 79.1014 78.6901C79.0921 78.7629 79.0766 78.8225 79.0549 78.8691C79.0347 78.9156 79.0075 78.9476 78.9734 78.9651C78.9407 78.9854 78.9011 78.9956 78.8546 78.9956C78.7677 78.9956 78.6977 78.9549 78.6449 78.8734C78.5937 78.792 78.5573 78.6931 78.5356 78.5767C78.388 78.1985 78.2382 77.826 78.0861 77.4595C77.9355 77.09 77.7834 76.722 77.6296 76.3554C77.4759 75.9859 77.3215 75.6149 77.1662 75.2425C77.0109 74.8672 76.8564 74.4861 76.7027 74.0991L76.563 73.6889C76.5645 74.134 76.5661 74.5312 76.5677 74.8803C76.5692 75.2265 76.5708 75.5364 76.5724 75.8099C76.5739 76.0804 76.5754 76.3205 76.577 76.5299C76.5785 76.7365 76.5794 76.9227 76.5794 77.0885C76.5809 77.2515 76.5817 77.4013 76.5817 77.538C76.5832 77.6719 76.584 77.8028 76.584 77.9308C76.5855 78.0064 76.5879 78.0879 76.591 78.1752C76.5956 78.2596 76.5979 78.3425 76.5979 78.4239C76.5979 78.4996 76.5941 78.5723 76.5864 78.6421C76.5801 78.712 76.5669 78.7731 76.5467 78.8254C76.5266 78.8778 76.4979 78.9185 76.4606 78.9476C76.4248 78.9796 76.3775 78.9956 76.3185 78.9956C76.2394 78.9956 76.1726 78.9593 76.1182 78.8865C76.0639 78.8138 76.0367 78.7149 76.0367 78.5898ZM80.5346 78.5243C80.5346 78.4719 80.5385 78.4268 80.5462 78.389C80.5586 78.3279 80.5796 78.2043 80.6091 78.0181C80.6401 77.8319 80.6774 77.602 80.7209 77.3286C80.7659 77.0522 80.8155 76.7409 80.8699 76.3946C80.9258 76.0484 80.9841 75.6833 81.0446 75.2993C81.1067 74.9123 81.1695 74.5166 81.2332 74.1122C81.2984 73.7078 81.3621 73.3092 81.4242 72.9165V72.9208C81.435 72.8394 81.4467 72.7579 81.4591 72.6764C81.4731 72.5921 81.4862 72.515 81.4987 72.4451C81.5127 72.3753 81.5259 72.3157 81.5383 72.2662C81.5522 72.2138 81.5639 72.1789 81.5732 72.1615C81.598 72.112 81.6314 72.0727 81.6734 72.0436C81.7153 72.0145 81.7564 72 81.7968 72C81.8511 72 81.8962 72.0189 81.9319 72.0567C81.9675 72.0916 81.9978 72.1455 82.0227 72.2182C82.0491 72.288 82.0716 72.3753 82.0902 72.48C82.1104 72.5848 82.1314 72.7041 82.1531 72.8379L82.7376 76.3161L82.7702 76.4994C82.8541 76.0164 82.9247 75.5844 82.9821 75.2032C83.0411 74.8221 83.0916 74.4832 83.1335 74.1864C83.177 73.8868 83.2142 73.6234 83.2453 73.3965C83.2779 73.1696 83.3097 72.9659 83.3408 72.7855C83.3564 72.6953 83.3718 72.6037 83.3873 72.5106C83.4029 72.4175 83.4223 72.3331 83.4456 72.2575C83.4704 72.1818 83.5014 72.1207 83.5388 72.0742C83.5775 72.0247 83.6287 72 83.6924 72C83.7468 72 83.7941 72.016 83.8345 72.048C83.8748 72.0771 83.9066 72.1455 83.9299 72.2531C83.9409 72.3026 83.9517 72.3535 83.9626 72.4059C83.9734 72.4582 83.9866 72.5251 84.0021 72.6066C84.0192 72.6852 84.0394 72.7855 84.0627 72.9077C84.086 73.0299 84.1147 73.1856 84.1489 73.3747C84.183 73.5638 84.2234 73.7922 84.2699 74.0598C84.3166 74.3275 84.3717 74.649 84.4353 75.0243C84.5005 75.3967 84.5742 75.8302 84.6566 76.3248C84.7404 76.8165 84.8351 77.3795 84.9406 78.0137C84.9593 78.1068 84.974 78.1868 84.9849 78.2537C84.9973 78.3207 85.0051 78.3832 85.0081 78.4414C85.0113 78.517 85.009 78.5883 85.0013 78.6552C84.995 78.7222 84.9826 78.7818 84.9639 78.8342C84.9453 78.8836 84.9196 78.9229 84.8871 78.952C84.8545 78.9811 84.8141 78.9956 84.766 78.9956C84.7039 78.9956 84.6527 78.9709 84.6123 78.9214C84.5719 78.8749 84.5385 78.8167 84.5121 78.7469C84.4873 78.6771 84.4679 78.6014 84.4539 78.5199C84.4399 78.4385 84.4291 78.3628 84.4213 78.293C84.3918 78.0894 84.3584 77.8639 84.3212 77.6166C84.2839 77.3664 84.2443 77.1045 84.2024 76.8311C84.1605 76.5576 84.117 76.2797 84.072 75.9975C84.027 75.7124 83.982 75.4345 83.9369 75.164C83.8935 74.8905 83.85 74.6316 83.8066 74.3872C83.7646 74.1428 83.7251 73.9216 83.6878 73.7238C83.6287 74.0322 83.5752 74.345 83.5271 74.6621C83.479 74.9763 83.4309 75.2934 83.3827 75.6135C83.3361 75.9306 83.2872 76.2492 83.236 76.5692C83.1864 76.8863 83.1304 77.202 83.0683 77.5162C83.0559 77.5744 83.0465 77.6384 83.0404 77.7082C83.0357 77.778 83.0334 77.8362 83.0334 77.8828C83.0334 77.9642 83.0248 78.0312 83.0078 78.0835C82.9907 78.1359 82.9681 78.1781 82.9402 78.2101C82.9139 78.2392 82.8835 78.261 82.8494 78.2756C82.8153 78.2872 82.7811 78.293 82.7469 78.293C82.6895 78.293 82.643 78.2785 82.6072 78.2494C82.573 78.2174 82.5451 78.1752 82.5234 78.1228C82.5032 78.0704 82.4877 78.0122 82.4768 77.9483C82.4674 77.8813 82.4597 77.813 82.4534 77.7431C82.4504 77.7024 82.4466 77.6631 82.4419 77.6253C82.4387 77.5846 82.4341 77.5438 82.4279 77.5031C82.4015 77.3286 82.3719 77.1365 82.3394 76.9271C82.3084 76.7147 82.275 76.495 82.2392 76.2681C82.2035 76.0382 82.1662 75.8069 82.1274 75.5742C82.0902 75.3385 82.0522 75.1101 82.0134 74.889C81.9761 74.665 81.9388 74.4526 81.9016 74.2519C81.8659 74.0511 81.8325 73.8707 81.8014 73.7107C81.7626 73.9086 81.7223 74.1413 81.6804 74.409C81.64 74.6737 81.598 74.956 81.5546 75.2556C81.5127 75.5524 81.47 75.8579 81.4265 76.1721C81.3846 76.4863 81.3426 76.7932 81.3007 77.0929C81.2604 77.3897 81.2208 77.6704 81.1819 77.9352C81.1431 78.1999 81.1067 78.4298 81.0726 78.6247C81.0368 78.7381 81.0011 78.8283 80.9654 78.8952C80.9313 78.9622 80.88 78.9956 80.8117 78.9956C80.7713 78.9956 80.734 78.9825 80.6999 78.9564C80.6673 78.9331 80.6385 78.8996 80.6137 78.856C80.5889 78.8123 80.5695 78.7629 80.5555 78.7076C80.5416 78.6494 80.5346 78.5883 80.5346 78.5243ZM86.4321 78.3759C86.4321 78.3265 86.4351 78.2741 86.4413 78.2188C86.4491 78.1636 86.4569 78.1126 86.4646 78.0661L86.4856 77.9264L86.4321 72.707C86.4321 72.5644 86.4406 72.4539 86.4576 72.3753C86.4763 72.2968 86.4996 72.2386 86.5275 72.2007C86.5554 72.1629 86.5872 72.1411 86.6229 72.1353C86.6603 72.1295 86.6975 72.1266 86.7348 72.1266H87.9621C87.99 72.1207 88.021 72.1135 88.0551 72.1047C88.0909 72.0931 88.1158 72.0873 88.1298 72.0873C88.1887 72.0873 88.2361 72.0975 88.2718 72.1178C88.309 72.1382 88.3377 72.1687 88.3579 72.2095C88.3797 72.2473 88.3937 72.2953 88.3998 72.3535C88.4077 72.4117 88.4115 72.48 88.4115 72.5586C88.4115 72.6692 88.4037 72.7579 88.3883 72.8248C88.3743 72.8917 88.354 72.9441 88.3276 72.9819C88.3028 73.0168 88.2734 73.0401 88.2391 73.0517C88.205 73.0634 88.1685 73.0692 88.1298 73.0692C88.1126 73.0692 88.0901 73.0692 88.0621 73.0692C88.0343 73.0663 88.0047 73.0619 87.9736 73.0561C87.8231 73.0561 87.7013 73.0561 87.6081 73.0561C87.5164 73.0561 87.4428 73.0576 87.3868 73.0605C87.3325 73.0605 87.2906 73.0605 87.2611 73.0605C87.2331 73.0605 87.2083 73.0605 87.1866 73.0605H86.9699V74.4439C86.9793 74.4439 86.9902 74.4454 87.0026 74.4483C87.0166 74.4483 87.0375 74.4483 87.0654 74.4483C87.0934 74.4483 87.1315 74.4483 87.1796 74.4483C87.2292 74.4483 87.2952 74.4483 87.3775 74.4483C87.4598 74.4483 87.5615 74.4483 87.6826 74.4483C87.8036 74.4483 87.9504 74.4483 88.1228 74.4483C88.1398 74.4483 88.1592 74.4468 88.1809 74.4439C88.2027 74.441 88.2244 74.4366 88.2461 74.4308C88.2741 74.425 88.3067 74.4192 88.344 74.4133C88.3813 74.4075 88.4215 74.4046 88.4651 74.4046C88.507 74.4046 88.5443 74.4206 88.5768 74.4526C88.6095 74.4846 88.6366 74.5254 88.6583 74.5748C88.6816 74.6214 88.6987 74.6723 88.7096 74.7275C88.722 74.7828 88.7283 74.8352 88.7283 74.8847C88.7283 75.0418 88.7003 75.1567 88.6444 75.2294C88.5901 75.3022 88.5194 75.3385 88.4325 75.3385L86.9699 75.3429V77.957C87.1236 77.957 87.2782 77.9613 87.4334 77.9701C87.5887 77.9788 87.7509 77.9832 87.9201 77.9832C87.9668 77.9832 88.0094 77.9788 88.0483 77.9701C88.087 77.9613 88.1242 77.9512 88.16 77.9395C88.1926 77.9308 88.2251 77.9235 88.2578 77.9177C88.2919 77.909 88.3292 77.9046 88.3696 77.9046C88.4161 77.9046 88.4588 77.9119 88.4976 77.9264C88.538 77.9381 88.573 77.9613 88.6025 77.9963C88.6319 78.0283 88.6552 78.0734 88.6723 78.1315C88.6894 78.1868 88.6979 78.2581 88.6979 78.3454C88.6979 78.4734 88.6863 78.5723 88.663 78.6421C88.6398 78.712 88.6079 78.7643 88.5675 78.7992C88.5287 78.8313 88.4836 78.8516 88.4325 78.8604C88.3827 78.8662 88.3308 78.8691 88.2764 78.8691H86.7091C86.6687 78.8691 86.6315 78.8604 86.5974 78.8429C86.5648 78.8254 86.536 78.7978 86.5112 78.76C86.4863 78.7192 86.4669 78.6683 86.4529 78.6072C86.439 78.5432 86.4321 78.4661 86.4321 78.3759ZM90.3569 78.5898C90.3569 78.4676 90.3616 78.3643 90.3709 78.2799C90.3803 78.1956 90.3857 78.1563 90.3873 78.1621C90.3903 77.845 90.3927 77.5235 90.3943 77.1976C90.3973 76.8718 90.3989 76.527 90.3989 76.1633C90.3989 75.9335 90.3989 75.6847 90.3989 75.4171C90.3989 75.1465 90.3973 74.8745 90.3943 74.601C90.3927 74.3246 90.3896 74.054 90.3849 73.7893C90.3803 73.5216 90.374 73.2743 90.3663 73.0474C90.3601 72.9805 90.3555 72.9208 90.3523 72.8685C90.3492 72.8132 90.3476 72.755 90.3476 72.6939C90.3476 72.5513 90.3639 72.4393 90.3966 72.3579C90.4291 72.2735 90.4819 72.2153 90.5549 72.1833C90.586 72.1338 90.6201 72.1004 90.6574 72.0829C90.6962 72.0626 90.7334 72.0524 90.7691 72.0524C90.8064 72.0524 90.8398 72.0727 90.8693 72.1135C90.9003 72.1542 90.9276 72.2022 90.9508 72.2575C90.9741 72.3128 90.9935 72.3709 91.0091 72.432C91.0246 72.4902 91.0355 72.5382 91.0416 72.5761C91.0897 72.7099 91.1472 72.8626 91.214 73.0343C91.2823 73.2059 91.356 73.3907 91.4353 73.5885C91.5159 73.7835 91.6013 73.9886 91.6914 74.2039C91.7814 74.4163 91.8722 74.6316 91.9638 74.8498C92.057 75.0679 92.1494 75.2861 92.241 75.5044C92.3325 75.7197 92.4196 75.9277 92.5018 76.1284C92.584 76.3292 92.661 76.5197 92.7323 76.7001C92.8038 76.8776 92.8651 77.0376 92.9163 77.1802C92.9163 76.5576 92.9148 76.0222 92.9116 75.5742C92.9102 75.1232 92.9078 74.7407 92.9047 74.4264C92.9016 74.1093 92.8977 73.8489 92.893 73.6453C92.8884 73.4416 92.8845 73.2729 92.8814 73.139C92.8783 73.0052 92.8752 72.8961 92.8721 72.8117C92.8705 72.7244 92.8698 72.6415 92.8698 72.563C92.8698 72.4466 92.8759 72.352 92.8884 72.2793C92.9023 72.2037 92.921 72.1455 92.9443 72.1047C92.9691 72.064 92.9994 72.0364 93.0351 72.0218C93.0708 72.0073 93.112 72 93.1585 72C93.2191 72 93.2664 72.0233 93.3006 72.0698C93.3347 72.1164 93.3604 72.176 93.3775 72.2488C93.3961 72.3186 93.4069 72.3986 93.41 72.4888C93.4147 72.5761 93.417 72.6619 93.417 72.7463V77.7519C93.417 77.8566 93.4202 77.9628 93.4263 78.0704C93.4326 78.1752 93.4356 78.2872 93.4356 78.4065C93.4356 78.5199 93.431 78.6145 93.4217 78.6901C93.4123 78.7629 93.3968 78.8225 93.3751 78.8691C93.3549 78.9156 93.3277 78.9476 93.2936 78.9651C93.261 78.9854 93.2214 78.9956 93.1748 78.9956C93.0879 78.9956 93.0181 78.9549 92.9653 78.8734C92.914 78.792 92.8775 78.6931 92.8558 78.5767C92.7083 78.1985 92.5585 77.826 92.4063 77.4595C92.2557 77.09 92.1036 76.722 91.9499 76.3554C91.7961 75.9859 91.6417 75.6149 91.4864 75.2425C91.3312 74.8672 91.1768 74.4861 91.023 74.0991L90.8833 73.6889C90.8849 74.134 90.8864 74.5312 90.8879 74.8803C90.8895 75.2265 90.891 75.5364 90.8926 75.8099C90.8942 76.0804 90.8957 76.3205 90.8973 76.5299C90.8989 76.7365 90.8996 76.9227 90.8996 77.0885C90.9012 77.2515 90.9019 77.4013 90.9019 77.538C90.9034 77.6719 90.9043 77.8028 90.9043 77.9308C90.9057 78.0064 90.9081 78.0879 90.9113 78.1752C90.9159 78.2596 90.9183 78.3425 90.9183 78.4239C90.9183 78.4996 90.9143 78.5723 90.9066 78.6421C90.9003 78.712 90.8872 78.7731 90.867 78.8254C90.8468 78.8778 90.8181 78.9185 90.7808 78.9476C90.7451 78.9796 90.6978 78.9956 90.6388 78.9956C90.5596 78.9956 90.4928 78.9593 90.4385 78.8865C90.3842 78.8138 90.3569 78.7149 90.3569 78.5898ZM95.7701 73.1085C95.6614 73.1085 95.5488 73.1099 95.4323 73.1128C95.3159 73.1157 95.1887 73.1172 95.0504 73.1172C95.0131 73.1172 94.9806 73.1012 94.9526 73.0692C94.9246 73.0372 94.9014 72.9965 94.8828 72.947C94.8641 72.8946 94.8501 72.8364 94.8408 72.7724C94.8316 72.7084 94.8269 72.6444 94.8269 72.5804C94.8269 72.4088 94.8525 72.2909 94.9038 72.2269C94.955 72.16 95.038 72.1266 95.1529 72.1266H97.0113C97.0424 72.1266 97.0741 72.1338 97.1068 72.1484C97.1409 72.1629 97.1712 72.1891 97.1976 72.2269C97.2255 72.2648 97.2481 72.3142 97.2651 72.3753C97.2838 72.4364 97.2931 72.515 97.2931 72.611C97.2931 72.6808 97.2869 72.7477 97.2745 72.8117C97.2621 72.8757 97.245 72.931 97.2232 72.9776C97.203 73.0241 97.1782 73.0619 97.1487 73.091C97.1208 73.1201 97.0905 73.1347 97.0578 73.1347C97.033 73.1347 97.009 73.1303 96.9857 73.1216C96.9624 73.1128 96.9375 73.1085 96.9111 73.1085H96.3103L96.3033 78.0312C96.3033 78.101 96.3057 78.1694 96.3103 78.2363C96.3166 78.3032 96.3196 78.3759 96.3196 78.4545C96.3196 78.5185 96.3166 78.5825 96.3103 78.6465C96.3042 78.7105 96.2909 78.7687 96.2708 78.8211C96.2505 78.8734 96.2218 78.9156 96.1846 78.9476C96.1473 78.9825 96.0984 79 96.0378 79C95.9665 79 95.9121 78.9767 95.8748 78.9302C95.8376 78.8865 95.8104 78.8298 95.7933 78.76C95.7778 78.6901 95.7693 78.613 95.7678 78.5287C95.7662 78.4443 95.7654 78.3628 95.7654 78.2843L95.7701 73.1085ZM98.6121 78.4414C98.6121 78.3657 98.6152 78.2712 98.6214 78.1577C98.6292 78.0443 98.6439 77.9352 98.6656 77.8304C98.6874 77.7257 98.7184 77.6355 98.7588 77.5598C98.7992 77.4842 98.8527 77.4464 98.9195 77.4464C98.9863 77.4464 99.0375 77.474 99.0733 77.5293C99.1105 77.5846 99.1376 77.65 99.1548 77.7257C99.1718 77.7984 99.1819 77.8726 99.185 77.9483C99.1896 78.0239 99.192 78.0835 99.192 78.1272V78.1534C99.192 78.2843 99.1873 78.4007 99.178 78.5025C99.1687 78.6043 99.1524 78.6901 99.1291 78.76C99.1074 78.8298 99.0778 78.8836 99.0406 78.9214C99.0033 78.9593 98.9568 78.9782 98.9009 78.9782C98.8482 78.9782 98.8031 78.9622 98.7658 78.9302C98.7301 78.9011 98.7006 78.8618 98.6773 78.8123C98.654 78.7629 98.6369 78.7061 98.6261 78.6421C98.6168 78.5781 98.6121 78.5112 98.6121 78.4414ZM100.676 75.5698C100.676 75.1509 100.7 74.7726 100.749 74.4352C100.798 74.0948 100.866 73.7922 100.951 73.5274C101.037 73.2627 101.137 73.0343 101.252 72.8423C101.366 72.6502 101.491 72.4917 101.624 72.3666C101.758 72.2415 101.897 72.1498 102.041 72.0916C102.187 72.0305 102.332 72 102.476 72C102.608 72 102.738 72.0233 102.865 72.0698C102.993 72.1135 103.118 72.176 103.243 72.2575C103.28 72.2837 103.317 72.3099 103.354 72.336C103.393 72.3593 103.427 72.3899 103.457 72.4277C103.488 72.4655 103.513 72.5135 103.531 72.5717C103.55 72.6299 103.559 72.7041 103.559 72.7943C103.559 72.899 103.55 72.9863 103.531 73.0561C103.514 73.123 103.492 73.1768 103.464 73.2176C103.436 73.2583 103.405 73.2874 103.371 73.3049C103.338 73.3223 103.306 73.331 103.275 73.331C103.254 73.331 103.23 73.3252 103.205 73.3136C103.181 73.299 103.155 73.2816 103.129 73.2612C103.102 73.2409 103.077 73.2176 103.052 73.1914C103.027 73.1623 103.004 73.1347 102.984 73.1085C102.928 73.0648 102.876 73.0328 102.826 73.0125C102.778 72.9892 102.731 72.9732 102.686 72.9645C102.641 72.9528 102.597 72.947 102.553 72.947C102.51 72.9441 102.466 72.9426 102.423 72.9426C102.325 72.9426 102.227 72.9645 102.129 73.0081C102.032 73.0488 101.937 73.1143 101.845 73.2045C101.755 73.2918 101.671 73.4023 101.592 73.5362C101.512 73.67 101.443 73.83 101.384 74.0162C101.327 74.1995 101.281 74.409 101.247 74.6446C101.214 74.8803 101.198 75.1436 101.198 75.4345C101.198 75.9175 101.235 76.3263 101.307 76.6608C101.382 76.9925 101.478 77.2616 101.596 77.4682C101.716 77.6748 101.85 77.8246 101.999 77.9177C102.148 78.0079 102.299 78.053 102.451 78.053C102.521 78.053 102.589 78.0457 102.656 78.0312C102.724 78.0137 102.787 77.9933 102.844 77.9701C102.904 77.9439 102.955 77.9162 103 77.8872C103.046 77.8551 103.08 77.8231 103.103 77.7912C103.149 77.7155 103.191 77.6588 103.226 77.6209C103.262 77.5802 103.303 77.5598 103.35 77.5598C103.386 77.5598 103.419 77.5671 103.45 77.5817C103.483 77.5962 103.51 77.6224 103.534 77.6602C103.557 77.6951 103.576 77.7417 103.59 77.7999C103.604 77.8581 103.611 77.9308 103.611 78.0181C103.611 78.1403 103.588 78.2523 103.543 78.3541C103.5 78.453 103.429 78.5461 103.331 78.6334V78.629C103.299 78.664 103.251 78.7032 103.187 78.7469C103.125 78.7905 103.054 78.8313 102.975 78.8691C102.897 78.904 102.815 78.9331 102.728 78.9564C102.641 78.9825 102.556 78.9956 102.472 78.9956C102.281 78.9956 102.104 78.9534 101.941 78.8691C101.779 78.7818 101.632 78.6625 101.498 78.5112C101.366 78.357 101.249 78.1737 101.147 77.9613C101.044 77.749 100.958 77.5162 100.888 77.2631C100.818 77.01 100.766 76.7409 100.73 76.4557C100.694 76.1677 100.676 75.8724 100.676 75.5698ZM105.076 75.4956C105.076 74.9778 105.115 74.505 105.193 74.0773C105.272 73.6496 105.383 73.2816 105.526 72.9732C105.67 72.6648 105.843 72.4262 106.046 72.2575C106.249 72.0858 106.474 72 106.721 72C106.981 72 107.211 72.0858 107.41 72.2575C107.61 72.4262 107.777 72.6648 107.913 72.9732C108.05 73.2816 108.153 73.6496 108.223 74.0773C108.292 74.505 108.327 74.9778 108.327 75.4956C108.327 75.9873 108.289 76.447 108.213 76.8747C108.138 77.2995 108.029 77.6689 107.888 77.9832C107.746 78.2974 107.575 78.5447 107.375 78.7251C107.174 78.9054 106.951 78.9956 106.702 78.9956C106.537 78.9956 106.383 78.9549 106.238 78.8734C106.094 78.792 105.962 78.6756 105.84 78.5243C105.72 78.373 105.613 78.1926 105.519 77.9832C105.424 77.7708 105.343 77.5351 105.277 77.2762C105.211 77.0173 105.162 76.7379 105.128 76.4383C105.093 76.1386 105.076 75.8244 105.076 75.4956ZM105.608 75.4956C105.608 75.7138 105.618 75.9306 105.64 76.1459C105.662 76.3583 105.694 76.5619 105.735 76.7568C105.778 76.9489 105.831 77.1278 105.894 77.2936C105.958 77.4566 106.03 77.5991 106.11 77.7213C106.193 77.8406 106.283 77.9352 106.383 78.005C106.483 78.0719 106.592 78.1054 106.709 78.1054C106.832 78.1054 106.943 78.0719 107.044 78.005C107.145 77.9352 107.236 77.8406 107.316 77.7213C107.398 77.5991 107.467 77.4566 107.526 77.2936C107.587 77.1278 107.636 76.9489 107.676 76.7568C107.716 76.5619 107.746 76.3583 107.764 76.1459C107.784 75.9306 107.794 75.7138 107.794 75.4956C107.794 75.1465 107.772 74.8163 107.729 74.505C107.685 74.1908 107.618 73.9144 107.528 73.6758C107.44 73.4372 107.328 73.2481 107.191 73.1085C107.056 72.9688 106.896 72.899 106.709 72.899C106.533 72.899 106.377 72.9615 106.241 73.0867C106.104 73.2118 105.988 73.3878 105.894 73.6147C105.801 73.8416 105.73 74.1151 105.68 74.4352C105.631 74.7523 105.608 75.1058 105.608 75.4956ZM109.97 78.5898C109.97 78.4676 109.974 78.3643 109.984 78.2799C109.994 78.1956 109.999 78.1563 110 78.1621C110.003 77.845 110.006 77.5235 110.007 77.1976C110.011 76.8718 110.012 76.527 110.012 76.1633C110.012 75.9335 110.012 75.6847 110.012 75.4171C110.012 75.1465 110.011 74.8745 110.007 74.601C110.006 74.3246 110.003 74.054 109.998 73.7893C109.994 73.5216 109.987 73.2743 109.98 73.0474C109.973 72.9805 109.968 72.9208 109.965 72.8685C109.963 72.8132 109.961 72.755 109.961 72.6939C109.961 72.5513 109.977 72.4393 110.009 72.3579C110.042 72.2735 110.095 72.2153 110.168 72.1833C110.199 72.1338 110.233 72.1004 110.27 72.0829C110.309 72.0626 110.346 72.0524 110.383 72.0524C110.42 72.0524 110.452 72.0727 110.482 72.1135C110.514 72.1542 110.54 72.2022 110.564 72.2575C110.587 72.3128 110.606 72.3709 110.622 72.432C110.638 72.4902 110.649 72.5382 110.655 72.5761C110.703 72.7099 110.76 72.8626 110.827 73.0343C110.896 73.2059 110.97 73.3907 111.048 73.5885C111.129 73.7835 111.215 73.9886 111.305 74.2039C111.395 74.4163 111.486 74.6316 111.577 74.8498C111.67 75.0679 111.762 75.2861 111.854 75.5044C111.946 75.7197 112.033 75.9277 112.115 76.1284C112.197 76.3292 112.274 76.5197 112.345 76.7001C112.416 76.8776 112.478 77.0376 112.53 77.1802C112.53 76.5576 112.528 76.0222 112.525 75.5742C112.523 75.1232 112.521 74.7407 112.518 74.4264C112.515 74.1093 112.511 73.8489 112.506 73.6453C112.501 73.4416 112.498 73.2729 112.495 73.139C112.492 73.0052 112.488 72.8961 112.485 72.8117C112.483 72.7244 112.483 72.6415 112.483 72.563C112.483 72.4466 112.49 72.352 112.501 72.2793C112.516 72.2037 112.534 72.1455 112.557 72.1047C112.582 72.064 112.612 72.0364 112.649 72.0218C112.683 72.0073 112.725 72 112.771 72C112.832 72 112.88 72.0233 112.913 72.0698C112.947 72.1164 112.974 72.176 112.991 72.2488C113.009 72.3186 113.021 72.3986 113.024 72.4888C113.028 72.5761 113.03 72.6619 113.03 72.7463V77.7519C113.03 77.8566 113.033 77.9628 113.04 78.0704C113.046 78.1752 113.049 78.2872 113.049 78.4065C113.049 78.5199 113.044 78.6145 113.034 78.6901C113.026 78.7629 113.01 78.8225 112.989 78.8691C112.969 78.9156 112.941 78.9476 112.907 78.9651C112.874 78.9854 112.835 78.9956 112.788 78.9956C112.702 78.9956 112.632 78.9549 112.579 78.8734C112.527 78.792 112.491 78.6931 112.469 78.5767C112.321 78.1985 112.172 77.826 112.019 77.4595C111.868 77.09 111.717 76.722 111.563 76.3554C111.41 75.9859 111.255 75.6149 111.1 75.2425C110.944 74.8672 110.79 74.4861 110.636 74.0991L110.496 73.6889C110.498 74.134 110.499 74.5312 110.501 74.8803C110.502 75.2265 110.504 75.5364 110.505 75.8099C110.508 76.0804 110.509 76.3205 110.511 76.5299C110.512 76.7365 110.513 76.9227 110.513 77.0885C110.514 77.2515 110.515 77.4013 110.515 77.538C110.517 77.6719 110.517 77.8028 110.517 77.9308C110.519 78.0064 110.521 78.0879 110.525 78.1752C110.529 78.2596 110.531 78.3425 110.531 78.4239C110.531 78.4996 110.528 78.5723 110.519 78.6421C110.514 78.712 110.5 78.7731 110.48 78.8254C110.46 78.8778 110.431 78.9185 110.394 78.9476C110.358 78.9796 110.31 78.9956 110.252 78.9956C110.173 78.9956 110.106 78.9593 110.052 78.8865C109.998 78.8138 109.97 78.7149 109.97 78.5898ZM114.601 75.5698C114.601 75.1509 114.625 74.7726 114.673 74.4352C114.723 74.0948 114.79 73.7922 114.875 73.5274C114.961 73.2627 115.061 73.0343 115.176 72.8423C115.291 72.6502 115.415 72.4917 115.548 72.3666C115.682 72.2415 115.821 72.1498 115.966 72.0916C116.111 72.0305 116.256 72 116.4 72C116.533 72 116.662 72.0233 116.789 72.0698C116.917 72.1135 117.043 72.176 117.167 72.2575C117.204 72.2837 117.242 72.3099 117.279 72.336C117.317 72.3593 117.352 72.3899 117.381 72.4277C117.413 72.4655 117.437 72.5135 117.456 72.5717C117.474 72.6299 117.484 72.7041 117.484 72.7943C117.484 72.899 117.474 72.9863 117.456 73.0561C117.439 73.123 117.416 73.1768 117.388 73.2176C117.361 73.2583 117.329 73.2874 117.295 73.3049C117.262 73.3223 117.23 73.331 117.2 73.331C117.178 73.331 117.155 73.3252 117.13 73.3136C117.105 73.299 117.08 73.2816 117.053 73.2612C117.027 73.2409 117.001 73.2176 116.976 73.1914C116.952 73.1623 116.928 73.1347 116.908 73.1085C116.853 73.0648 116.8 73.0328 116.75 73.0125C116.702 72.9892 116.656 72.9732 116.61 72.9645C116.566 72.9528 116.521 72.947 116.478 72.947C116.434 72.9441 116.391 72.9426 116.347 72.9426C116.25 72.9426 116.151 72.9645 116.054 73.0081C115.956 73.0488 115.861 73.1143 115.77 73.2045C115.68 73.2918 115.595 73.4023 115.515 73.5362C115.437 73.67 115.368 73.83 115.309 74.0162C115.252 74.1995 115.205 74.409 115.171 74.6446C115.139 74.8803 115.122 75.1436 115.122 75.4345C115.122 75.9175 115.159 76.3263 115.231 76.6608C115.307 76.9925 115.403 77.2616 115.521 77.4682C115.641 77.6748 115.774 77.8246 115.923 77.9177C116.073 78.0079 116.223 78.053 116.375 78.053C116.445 78.053 116.514 78.0457 116.581 78.0312C116.648 78.0137 116.711 77.9933 116.769 77.9701C116.828 77.9439 116.879 77.9162 116.925 77.8872C116.97 77.8551 117.005 77.8231 117.027 77.7912C117.073 77.7155 117.115 77.6588 117.151 77.6209C117.187 77.5802 117.227 77.5598 117.274 77.5598C117.31 77.5598 117.344 77.5671 117.374 77.5817C117.407 77.5962 117.435 77.6224 117.458 77.6602C117.481 77.6951 117.501 77.7417 117.514 77.7999C117.528 77.8581 117.534 77.9308 117.534 78.0181C117.534 78.1403 117.512 78.2523 117.468 78.3541C117.424 78.453 117.353 78.5461 117.256 78.6334V78.629C117.223 78.664 117.175 78.7032 117.112 78.7469C117.049 78.7905 116.978 78.8313 116.9 78.8691C116.821 78.904 116.74 78.9331 116.653 78.9564C116.566 78.9825 116.48 78.9956 116.396 78.9956C116.205 78.9956 116.028 78.9534 115.865 78.8691C115.704 78.7818 115.557 78.6625 115.423 78.5112C115.291 78.357 115.173 78.1737 115.071 77.9613C114.969 77.749 114.883 77.5162 114.813 77.2631C114.743 77.01 114.69 76.7409 114.654 76.4557C114.619 76.1677 114.601 75.8724 114.601 75.5698ZM119.126 78.3759C119.126 78.3265 119.13 78.2741 119.136 78.2188C119.143 78.1636 119.152 78.1126 119.159 78.0661L119.18 77.9264L119.126 72.707C119.126 72.5644 119.135 72.4539 119.152 72.3753C119.171 72.2968 119.194 72.2386 119.222 72.2007C119.25 72.1629 119.282 72.1411 119.317 72.1353C119.354 72.1295 119.392 72.1266 119.43 72.1266H120.657C120.684 72.1207 120.715 72.1135 120.75 72.1047C120.785 72.0931 120.811 72.0873 120.824 72.0873C120.884 72.0873 120.93 72.0975 120.966 72.1178C121.003 72.1382 121.032 72.1687 121.052 72.2095C121.074 72.2473 121.088 72.2953 121.095 72.3535C121.102 72.4117 121.106 72.48 121.106 72.5586C121.106 72.6692 121.098 72.7579 121.083 72.8248C121.069 72.8917 121.049 72.9441 121.022 72.9819C120.997 73.0168 120.967 73.0401 120.933 73.0517C120.9 73.0634 120.864 73.0692 120.824 73.0692C120.807 73.0692 120.785 73.0692 120.756 73.0692C120.729 73.0663 120.699 73.0619 120.669 73.0561C120.518 73.0561 120.396 73.0561 120.303 73.0561C120.211 73.0561 120.138 73.0576 120.081 73.0605C120.027 73.0605 119.985 73.0605 119.955 73.0605C119.928 73.0605 119.903 73.0605 119.881 73.0605H119.665V74.4439C119.673 74.4439 119.685 74.4454 119.697 74.4483C119.711 74.4483 119.732 74.4483 119.76 74.4483C119.788 74.4483 119.826 74.4483 119.874 74.4483C119.923 74.4483 119.99 74.4483 120.072 74.4483C120.154 74.4483 120.256 74.4483 120.377 74.4483C120.498 74.4483 120.645 74.4483 120.817 74.4483C120.834 74.4483 120.854 74.4468 120.875 74.4439C120.897 74.441 120.919 74.4366 120.941 74.4308C120.968 74.425 121.001 74.4192 121.038 74.4133C121.075 74.4075 121.116 74.4046 121.159 74.4046C121.202 74.4046 121.239 74.4206 121.272 74.4526C121.304 74.4846 121.331 74.5254 121.353 74.5748C121.376 74.6214 121.393 74.6723 121.404 74.7275C121.417 74.7828 121.423 74.8352 121.423 74.8847C121.423 75.0418 121.395 75.1567 121.339 75.2294C121.284 75.3022 121.214 75.3385 121.127 75.3385L119.665 75.3429V77.957C119.818 77.957 119.972 77.9613 120.128 77.9701C120.283 77.9788 120.445 77.9832 120.614 77.9832C120.661 77.9832 120.703 77.9788 120.743 77.9701C120.782 77.9613 120.819 77.9512 120.854 77.9395C120.887 77.9308 120.92 77.9235 120.953 77.9177C120.986 77.909 121.024 77.9046 121.064 77.9046C121.11 77.9046 121.153 77.9119 121.192 77.9264C121.232 77.9381 121.267 77.9613 121.297 77.9963C121.327 78.0283 121.35 78.0734 121.367 78.1315C121.384 78.1868 121.392 78.2581 121.392 78.3454C121.392 78.4734 121.381 78.5723 121.357 78.6421C121.334 78.712 121.302 78.7643 121.262 78.7992C121.223 78.8313 121.178 78.8516 121.127 78.8604C121.078 78.8662 121.026 78.8691 120.971 78.8691H119.404C119.363 78.8691 119.326 78.8604 119.292 78.8429C119.259 78.8254 119.23 78.7978 119.206 78.76C119.18 78.7192 119.161 78.6683 119.148 78.6072C119.134 78.5432 119.126 78.4661 119.126 78.3759ZM123.061 78.5069C123.061 78.4137 123.064 78.3207 123.07 78.2275C123.078 78.1315 123.083 78.0326 123.084 77.9308L123.074 72.9121C123.066 72.8714 123.057 72.8146 123.049 72.7419C123.043 72.6692 123.039 72.6008 123.039 72.5368C123.039 72.4786 123.046 72.4204 123.056 72.3622C123.067 72.304 123.083 72.2531 123.103 72.2095C123.124 72.1629 123.151 72.1266 123.181 72.1004C123.213 72.0713 123.248 72.0567 123.288 72.0567C123.357 72.0567 123.425 72.064 123.494 72.0786C123.562 72.0902 123.634 72.096 123.708 72.096C123.768 72.096 123.826 72.0902 123.885 72.0786C123.946 72.064 124.009 72.0567 124.076 72.0567C124.295 72.0567 124.499 72.1135 124.689 72.2269C124.878 72.3404 125.041 72.5077 125.18 72.7288C125.318 72.947 125.427 73.2161 125.506 73.5362C125.585 73.8562 125.624 74.2213 125.624 74.6316C125.624 75.0214 125.598 75.3618 125.546 75.6528C125.493 75.9408 125.421 76.1881 125.329 76.3946C125.239 76.6012 125.133 76.7714 125.01 76.9052C124.889 77.0362 124.757 77.1394 124.616 77.2151C124.477 77.2907 124.331 77.3431 124.181 77.3722C124.03 77.4013 123.881 77.4158 123.734 77.4158C123.719 77.4158 123.705 77.4173 123.694 77.4202C123.684 77.4202 123.673 77.4202 123.664 77.4202C123.654 77.4202 123.645 77.4202 123.634 77.4202C123.624 77.4173 123.613 77.4158 123.599 77.4158C123.599 77.5177 123.599 77.5991 123.599 77.6602C123.599 77.7184 123.599 77.7664 123.599 77.8042C123.6 77.8421 123.601 77.8741 123.601 77.9003C123.601 77.9264 123.601 77.957 123.601 77.9919C123.601 78.085 123.605 78.1781 123.615 78.2712C123.626 78.3643 123.631 78.4632 123.631 78.568C123.631 78.6465 123.622 78.7134 123.603 78.7687C123.585 78.8211 123.562 78.8633 123.533 78.8952C123.506 78.9302 123.475 78.9549 123.443 78.9695C123.41 78.9869 123.38 78.9956 123.352 78.9956C123.315 78.9956 123.278 78.984 123.243 78.9607C123.207 78.9404 123.176 78.9098 123.15 78.8691C123.123 78.8254 123.101 78.7745 123.084 78.7163C123.068 78.6552 123.061 78.5854 123.061 78.5069ZM123.601 76.4688C123.632 76.4717 123.664 76.4746 123.697 76.4776C123.73 76.4805 123.762 76.4834 123.792 76.4863C123.822 76.4892 123.848 76.4921 123.871 76.495C123.895 76.495 123.913 76.495 123.924 76.495C124.097 76.495 124.246 76.4688 124.37 76.4165C124.496 76.3641 124.601 76.2928 124.686 76.2026C124.771 76.1124 124.841 76.0077 124.893 75.8884C124.946 75.7662 124.986 75.6353 125.015 75.4956C125.043 75.3531 125.062 75.2061 125.07 75.0549C125.08 74.9007 125.085 74.7479 125.085 74.5966C125.085 74.3551 125.066 74.1471 125.029 73.9726C124.993 73.7951 124.945 73.6467 124.887 73.5274C124.827 73.4081 124.76 73.3121 124.684 73.2394C124.609 73.1667 124.533 73.1114 124.453 73.0736C124.376 73.0328 124.3 73.0066 124.225 72.995C124.15 72.9805 124.085 72.9732 124.029 72.9732C123.958 72.9732 123.886 72.9761 123.813 72.9819C123.742 72.9848 123.665 72.9877 123.582 72.9906C123.585 73.3718 123.587 73.7078 123.589 73.9987C123.591 74.2868 123.592 74.5428 123.592 74.7668C123.594 74.9879 123.594 75.1814 123.594 75.3473C123.596 75.5131 123.597 75.6615 123.597 75.7924C123.598 75.9233 123.599 76.0426 123.599 76.1502C123.6 76.2579 123.601 76.3641 123.601 76.4688ZM127.738 73.1085C127.63 73.1085 127.516 73.1099 127.401 73.1128C127.284 73.1157 127.157 73.1172 127.018 73.1172C126.981 73.1172 126.948 73.1012 126.921 73.0692C126.893 73.0372 126.87 72.9965 126.851 72.947C126.832 72.8946 126.818 72.8364 126.808 72.7724C126.8 72.7084 126.795 72.6444 126.795 72.5804C126.795 72.4088 126.82 72.2909 126.872 72.2269C126.923 72.16 127.005 72.1266 127.121 72.1266H128.979C129.011 72.1266 129.042 72.1338 129.074 72.1484C129.109 72.1629 129.139 72.1891 129.165 72.2269C129.193 72.2648 129.216 72.3142 129.233 72.3753C129.251 72.4364 129.261 72.515 129.261 72.611C129.261 72.6808 129.254 72.7477 129.243 72.8117C129.23 72.8757 129.213 72.931 129.191 72.9776C129.171 73.0241 129.146 73.0619 129.117 73.091C129.089 73.1201 129.058 73.1347 129.026 73.1347C129.001 73.1347 128.977 73.1303 128.953 73.1216C128.93 73.1128 128.906 73.1085 128.879 73.1085H128.278L128.271 78.0312C128.271 78.101 128.274 78.1694 128.278 78.2363C128.285 78.3032 128.288 78.3759 128.288 78.4545C128.288 78.5185 128.285 78.5825 128.278 78.6465C128.272 78.7105 128.259 78.7687 128.239 78.8211C128.219 78.8734 128.189 78.9156 128.152 78.9476C128.115 78.9825 128.066 79 128.006 79C127.934 79 127.88 78.9767 127.843 78.9302C127.806 78.8865 127.778 78.8298 127.761 78.76C127.745 78.6901 127.737 78.613 127.736 78.5287C127.734 78.4443 127.734 78.3628 127.734 78.2843L127.738 73.1085ZM130.545 77.3024C130.553 77.0667 130.578 76.8878 130.622 76.7656C130.667 76.6405 130.746 76.5779 130.857 76.5779C130.927 76.5779 130.986 76.6158 131.036 76.6914C131.086 76.7641 131.111 76.866 131.111 76.9969C131.111 77.0725 131.107 77.1482 131.1 77.2238C131.091 77.2995 131.089 77.378 131.092 77.4595C131.099 77.5584 131.122 77.6486 131.162 77.73C131.202 77.8115 131.253 77.8828 131.316 77.9439C131.378 78.0021 131.448 78.0486 131.528 78.0835C131.607 78.1155 131.688 78.1315 131.769 78.1315C131.854 78.1315 131.937 78.1184 132.02 78.0923C132.103 78.0632 132.179 78.0108 132.245 77.9352C132.313 77.8595 132.368 77.7562 132.411 77.6253C132.452 77.4944 132.473 77.3242 132.473 77.1147C132.473 76.978 132.455 76.85 132.42 76.7307C132.384 76.6085 132.339 76.4979 132.282 76.399C132.226 76.2972 132.165 76.2055 132.096 76.1241C132.029 76.0426 131.965 75.9713 131.903 75.9102C131.814 75.8258 131.724 75.7444 131.631 75.6658C131.538 75.5844 131.448 75.5 131.36 75.4127C131.273 75.3225 131.19 75.2251 131.111 75.1203C131.033 75.0127 130.965 74.8876 130.906 74.745C130.847 74.6025 130.801 74.4381 130.766 74.2519C130.732 74.0628 130.715 73.8445 130.715 73.5972C130.715 73.3209 130.746 73.0823 130.808 72.8815C130.872 72.6808 130.954 72.515 131.057 72.384C131.16 72.2531 131.277 72.1571 131.409 72.096C131.543 72.032 131.679 72 131.819 72C131.943 72 132.063 72.0204 132.18 72.0611C132.296 72.1018 132.4 72.1687 132.492 72.2618C132.583 72.352 132.66 72.4742 132.72 72.6284C132.781 72.7797 132.818 72.9659 132.829 73.187C132.833 73.2685 132.827 73.3412 132.813 73.4052C132.8 73.4663 132.78 73.5187 132.755 73.5623C132.731 73.6031 132.701 73.6351 132.669 73.6583C132.638 73.6787 132.606 73.6889 132.574 73.6889C132.524 73.6889 132.482 73.6744 132.448 73.6453C132.414 73.6162 132.385 73.5798 132.364 73.5362C132.342 73.4925 132.326 73.4431 132.315 73.3878C132.304 73.3325 132.297 73.2787 132.294 73.2263C132.271 73.1565 132.24 73.0997 132.203 73.0561C132.166 73.0095 132.123 72.9732 132.078 72.947C132.032 72.9179 131.985 72.899 131.936 72.8903C131.886 72.8786 131.837 72.8728 131.791 72.8728C131.726 72.8728 131.66 72.8859 131.596 72.9121C131.532 72.9383 131.474 72.9805 131.421 73.0386C131.368 73.0968 131.325 73.171 131.293 73.2612C131.26 73.3514 131.244 73.462 131.244 73.5929C131.244 73.7471 131.263 73.8838 131.302 74.0031C131.34 74.1224 131.39 74.2286 131.448 74.3217C131.508 74.4148 131.572 74.4992 131.644 74.5748C131.718 74.6505 131.788 74.7203 131.856 74.7843C131.938 74.8628 132.024 74.9472 132.112 75.0374C132.201 75.1247 132.287 75.2207 132.37 75.3254C132.456 75.4273 132.537 75.5393 132.613 75.6615C132.689 75.7837 132.756 75.9204 132.813 76.0717C132.871 76.2201 132.916 76.383 132.948 76.5605C132.983 76.7379 133 76.9343 133 77.1496C133 77.3795 132.983 77.5846 132.948 77.765C132.914 77.9453 132.868 78.1039 132.808 78.2406C132.75 78.3774 132.681 78.4938 132.601 78.5898C132.522 78.6858 132.437 78.7643 132.345 78.8254C132.254 78.8865 132.158 78.9302 132.059 78.9564C131.961 78.9854 131.863 79 131.765 79C131.683 79 131.595 78.9869 131.5 78.9607C131.407 78.9345 131.315 78.8938 131.223 78.8385C131.131 78.7803 131.043 78.7076 130.96 78.6203C130.877 78.5301 130.804 78.4225 130.74 78.2974C130.679 78.1694 130.63 78.0239 130.594 77.861C130.558 77.6951 130.542 77.5089 130.545 77.3024Z" fill="white"/>
<defs>
<filter id="filter0_d_651_494" x="54.0001" y="24.5549" width="26.6667" height="43.3333" filterUnits="userSpaceOnUse" color-interpolation-filters="sRGB">
<feFlood flood-opacity="0" result="BackgroundImageFix"/>
<feColorMatrix in="SourceAlpha" type="matrix" values="0 0 0 0 0 0 0 0 0 0 0 0 0 0 0 0 0 0 127 0" result="hardAlpha"/>
<feOffset dx="1.66667" dy="1.66667"/>
<feGaussianBlur stdDeviation="1.66667"/>
<feComposite in2="hardAlpha" operator="out"/>
<feColorMatrix type="matrix" values="0 0 0 0 0 0 0 0 0 0 0 0 0 0 0 0 0 0 0.25 0"/>
<feBlend mode="normal" in2="BackgroundImageFix" result="effect1_dropShadow_651_494"/>
<feBlend mode="normal" in="SourceGraphic" in2="effect1_dropShadow_651_494" result="shape"/>
</filter>
<filter id="filter1_d_651_494" x="78.1667" y="24.5551" width="32.6462" height="43.3329" filterUnits="userSpaceOnUse" color-interpolation-filters="sRGB">
<feFlood flood-opacity="0" result="BackgroundImageFix"/>
<feColorMatrix in="SourceAlpha" type="matrix" values="0 0 0 0 0 0 0 0 0 0 0 0 0 0 0 0 0 0 127 0" result="hardAlpha"/>
<feOffset dx="1.66667" dy="1.66667"/>
<feGaussianBlur stdDeviation="1.66667"/>
<feComposite in2="hardAlpha" operator="out"/>
<feColorMatrix type="matrix" values="0 0 0 0 0 0 0 0 0 0 0 0 0 0 0 0 0 0 0.25 0"/>
<feBlend mode="normal" in2="BackgroundImageFix" result="effect1_dropShadow_651_494"/>
<feBlend mode="normal" in="SourceGraphic" in2="effect1_dropShadow_651_494" result="shape"/>
</filter>
<filter id="filter2_d_651_494" x="21.5" y="24.3333" width="8.33342" height="43.3333" filterUnits="userSpaceOnUse" color-interpolation-filters="sRGB">
<feFlood flood-opacity="0" result="BackgroundImageFix"/>
<feColorMatrix in="SourceAlpha" type="matrix" values="0 0 0 0 0 0 0 0 0 0 0 0 0 0 0 0 0 0 127 0" result="hardAlpha"/>
<feOffset dx="1.66667" dy="1.66667"/>
<feGaussianBlur stdDeviation="1.66667"/>
<feComposite in2="hardAlpha" operator="out"/>
<feColorMatrix type="matrix" values="0 0 0 0 0 0 0 0 0 0 0 0 0 0 0 0 0 0 0.25 0"/>
<feBlend mode="normal" in2="BackgroundImageFix" result="effect1_dropShadow_651_494"/>
<feBlend mode="normal" in="SourceGraphic" in2="effect1_dropShadow_651_494" result="shape"/>
</filter>
<filter id="filter3_d_651_494" x="22.3333" y="41.8333" width="33.3333" height="8.33332" filterUnits="userSpaceOnUse" color-interpolation-filters="sRGB">
<feFlood flood-opacity="0" result="BackgroundImageFix"/>
<feColorMatrix in="SourceAlpha" type="matrix" values="0 0 0 0 0 0 0 0 0 0 0 0 0 0 0 0 0 0 127 0" result="hardAlpha"/>
<feOffset dx="1.66667" dy="1.66667"/>
<feGaussianBlur stdDeviation="1.66667"/>
<feComposite in2="hardAlpha" operator="out"/>
<feColorMatrix type="matrix" values="0 0 0 0 0 0 0 0 0 0 0 0 0 0 0 0 0 0 0.25 0"/>
<feBlend mode="normal" in2="BackgroundImageFix" result="effect1_dropShadow_651_494"/>
<feBlend mode="normal" in="SourceGraphic" in2="effect1_dropShadow_651_494" result="shape"/>
</filter>
<filter id="filter4_d_651_494" x="48.1666" y="24.3333" width="8.33342" height="43.3333" filterUnits="userSpaceOnUse" color-interpolation-filters="sRGB">
<feFlood flood-opacity="0" result="BackgroundImageFix"/>
<feColorMatrix in="SourceAlpha" type="matrix" values="0 0 0 0 0 0 0 0 0 0 0 0 0 0 0 0 0 0 127 0" result="hardAlpha"/>
<feOffset dx="1.66667" dy="1.66667"/>
<feGaussianBlur stdDeviation="1.66667"/>
<feComposite in2="hardAlpha" operator="out"/>
<feColorMatrix type="matrix" values="0 0 0 0 0 0 0 0 0 0 0 0 0 0 0 0 0 0 0.25 0"/>
<feBlend mode="normal" in2="BackgroundImageFix" result="effect1_dropShadow_651_494"/>
<feBlend mode="normal" in="SourceGraphic" in2="effect1_dropShadow_651_494" result="shape"/>
</filter>
</defs>
</svg>
