<svg width="89" height="82" viewBox="0 0 89 82" fill="none" xmlns="http://www.w3.org/2000/svg">
<g filter="url(#filter0_d_198_2476)">
<path d="M34.5151 23.0331H53.9091" stroke="white" stroke-width="1.61616"/>
<path d="M34.5151 40.0027H53.9091" stroke="white" stroke-width="1.61616"/>
<path d="M34.5151 56.9724H53.9091" stroke="white" stroke-width="1.61616"/>
</g>
<g filter="url(#filter1_d_198_2476)">
<path d="M82.9999 23.5629C50.6767 17.8038 50.6767 60.9866 82.9999 56.6683" stroke="white" stroke-width="2"/>
</g>
<g filter="url(#filter2_d_198_2476)">
<path d="M3 22.0101L3 57.5656" stroke="white" stroke-width="2"/>
</g>
<g filter="url(#filter3_d_198_2476)">
<path d="M7.04047 40.0027H24.8182" stroke="white" stroke-width="2"/>
</g>
<g filter="url(#filter4_d_198_2476)">
<path d="M28.8586 22.0101L28.8586 57.5656" stroke="white" stroke-width="2"/>
</g>
<line y1="-1" x2="34.1609" y2="-1" transform="matrix(0.853915 -0.520412 0.853915 0.520412 30.1706 81.7778)" stroke="white" stroke-width="2"/>
<line y1="-1" x2="34.1609" y2="-1" transform="matrix(0.853915 0.520412 -0.853915 0.520412 1 64)" stroke="white" stroke-width="2"/>
<line y1="-1" x2="34.1609" y2="-1" transform="matrix(-0.853915 0.520412 -0.853915 -0.520412 30.1706 0)" stroke="white" stroke-width="2"/>
<line y1="-1" x2="34.1609" y2="-1" transform="matrix(-0.853915 -0.520412 0.853915 -0.520412 59.3412 17.7778)" stroke="white" stroke-width="2"/>
<line y1="-1" x2="34.1609" y2="-1" transform="matrix(0.853915 -0.520412 0.853915 0.520412 41.5 81.7778)" stroke="white" stroke-width="2"/>
<line y1="-1" x2="34.1609" y2="-1" transform="matrix(0.853915 0.520412 -0.853915 0.520412 12.3293 64)" stroke="white" stroke-width="2"/>
<line y1="-1" x2="34.1609" y2="-1" transform="matrix(-0.853915 0.520412 -0.853915 -0.520412 41.4999 0)" stroke="white" stroke-width="2"/>
<line y1="-1" x2="34.1609" y2="-1" transform="matrix(-0.853915 -0.520412 0.853915 -0.520412 70.6705 17.7778)" stroke="white" stroke-width="2"/>
<line y1="-1" x2="34.1609" y2="-1" transform="matrix(0.853915 -0.520412 0.853915 0.520412 52.8294 81.7778)" stroke="white" stroke-width="2"/>
<line y1="-1" x2="34.1609" y2="-1" transform="matrix(0.853915 0.520412 -0.853915 0.520412 23.6588 64)" stroke="white" stroke-width="2"/>
<line y1="-1" x2="34.1609" y2="-1" transform="matrix(-0.853915 0.520412 -0.853915 -0.520412 52.8294 0)" stroke="white" stroke-width="2"/>
<line y1="-1" x2="34.1609" y2="-1" transform="matrix(-0.853915 -0.520412 0.853915 -0.520412 82 17.7778)" stroke="white" stroke-width="2"/>
<defs>
<filter id="filter0_d_198_2476" x="32.899" y="20.6088" width="25.8586" height="42.0202" filterUnits="userSpaceOnUse" color-interpolation-filters="sRGB">
<feFlood flood-opacity="0" result="BackgroundImageFix"/>
<feColorMatrix in="SourceAlpha" type="matrix" values="0 0 0 0 0 0 0 0 0 0 0 0 0 0 0 0 0 0 127 0" result="hardAlpha"/>
<feOffset dx="1.61616" dy="1.61616"/>
<feGaussianBlur stdDeviation="1.61616"/>
<feComposite in2="hardAlpha" operator="out"/>
<feColorMatrix type="matrix" values="0 0 0 0 0 0 0 0 0 0 0 0 0 0 0 0 0 0 0.25 0"/>
<feBlend mode="normal" in2="BackgroundImageFix" result="effect1_dropShadow_198_2476"/>
<feBlend mode="normal" in="SourceGraphic" in2="effect1_dropShadow_198_2476" result="shape"/>
</filter>
<filter id="filter1_d_198_2476" x="56.1413" y="20.4172" width="31.8825" height="42.4035" filterUnits="userSpaceOnUse" color-interpolation-filters="sRGB">
<feFlood flood-opacity="0" result="BackgroundImageFix"/>
<feColorMatrix in="SourceAlpha" type="matrix" values="0 0 0 0 0 0 0 0 0 0 0 0 0 0 0 0 0 0 127 0" result="hardAlpha"/>
<feOffset dx="1.61616" dy="1.61616"/>
<feGaussianBlur stdDeviation="1.61616"/>
<feComposite in2="hardAlpha" operator="out"/>
<feColorMatrix type="matrix" values="0 0 0 0 0 0 0 0 0 0 0 0 0 0 0 0 0 0 0.25 0"/>
<feBlend mode="normal" in2="BackgroundImageFix" result="effect1_dropShadow_198_2476"/>
<feBlend mode="normal" in="SourceGraphic" in2="effect1_dropShadow_198_2476" result="shape"/>
</filter>
<filter id="filter2_d_198_2476" x="0.383838" y="20.3939" width="8.46465" height="42.0202" filterUnits="userSpaceOnUse" color-interpolation-filters="sRGB">
<feFlood flood-opacity="0" result="BackgroundImageFix"/>
<feColorMatrix in="SourceAlpha" type="matrix" values="0 0 0 0 0 0 0 0 0 0 0 0 0 0 0 0 0 0 127 0" result="hardAlpha"/>
<feOffset dx="1.61616" dy="1.61616"/>
<feGaussianBlur stdDeviation="1.61616"/>
<feComposite in2="hardAlpha" operator="out"/>
<feColorMatrix type="matrix" values="0 0 0 0 0 0 0 0 0 0 0 0 0 0 0 0 0 0 0.25 0"/>
<feBlend mode="normal" in2="BackgroundImageFix" result="effect1_dropShadow_198_2476"/>
<feBlend mode="normal" in="SourceGraphic" in2="effect1_dropShadow_198_2476" result="shape"/>
</filter>
<filter id="filter3_d_198_2476" x="5.4243" y="37.3866" width="24.2424" height="8.46465" filterUnits="userSpaceOnUse" color-interpolation-filters="sRGB">
<feFlood flood-opacity="0" result="BackgroundImageFix"/>
<feColorMatrix in="SourceAlpha" type="matrix" values="0 0 0 0 0 0 0 0 0 0 0 0 0 0 0 0 0 0 127 0" result="hardAlpha"/>
<feOffset dx="1.61616" dy="1.61616"/>
<feGaussianBlur stdDeviation="1.61616"/>
<feComposite in2="hardAlpha" operator="out"/>
<feColorMatrix type="matrix" values="0 0 0 0 0 0 0 0 0 0 0 0 0 0 0 0 0 0 0.25 0"/>
<feBlend mode="normal" in2="BackgroundImageFix" result="effect1_dropShadow_198_2476"/>
<feBlend mode="normal" in="SourceGraphic" in2="effect1_dropShadow_198_2476" result="shape"/>
</filter>
<filter id="filter4_d_198_2476" x="26.2425" y="20.3939" width="8.46465" height="42.0202" filterUnits="userSpaceOnUse" color-interpolation-filters="sRGB">
<feFlood flood-opacity="0" result="BackgroundImageFix"/>
<feColorMatrix in="SourceAlpha" type="matrix" values="0 0 0 0 0 0 0 0 0 0 0 0 0 0 0 0 0 0 127 0" result="hardAlpha"/>
<feOffset dx="1.61616" dy="1.61616"/>
<feGaussianBlur stdDeviation="1.61616"/>
<feComposite in2="hardAlpha" operator="out"/>
<feColorMatrix type="matrix" values="0 0 0 0 0 0 0 0 0 0 0 0 0 0 0 0 0 0 0.25 0"/>
<feBlend mode="normal" in2="BackgroundImageFix" result="effect1_dropShadow_198_2476"/>
<feBlend mode="normal" in="SourceGraphic" in2="effect1_dropShadow_198_2476" result="shape"/>
</filter>
</defs>
</svg>
