<svg width="133" height="84" viewBox="0 0 133 84" fill="none" xmlns="http://www.w3.org/2000/svg">
<g filter="url(#filter0_d_651_494)">
<path d="M58.2041 30.5306H74.1225" stroke="white" stroke-width="1.32653"/>
<path d="M58.2041 44.4592H74.1225" stroke="white" stroke-width="1.32653"/>
<path d="M58.2041 58.3878H74.1225" stroke="white" stroke-width="1.32653"/>
</g>
<g filter="url(#filter1_d_651_494)">
<path d="M98 30.9655C71.4694 26.2385 71.4694 61.6825 98 58.1381" stroke="white" stroke-width="1.32653"/>
</g>
<g filter="url(#filter2_d_651_494)">
<path d="M33 29.691L33 58.8747" stroke="white" stroke-width="1.32653"/>
</g>
<g filter="url(#filter3_d_651_494)">
<path d="M33 44.2828L54.2245 44.2828" stroke="white" stroke-width="1.32653"/>
</g>
<g filter="url(#filter4_d_651_494)">
<path d="M54.2245 29.691L54.2245 58.8747" stroke="white" stroke-width="1.32653"/>
</g>
<line x1="65.0713" y1="4.2345" x2="46.4999" y2="22.8059" stroke="white" stroke-width="0.663265"/>
<line x1="83.1737" y1="22.8059" x2="64.6023" y2="4.2345" stroke="white" stroke-width="0.663265"/>
<line x1="59.7651" y1="4.2345" x2="41.1937" y2="22.8059" stroke="white" stroke-width="0.663265"/>
<line x1="77.8676" y1="22.8059" x2="59.2961" y2="4.2345" stroke="white" stroke-width="0.663265"/>
<line x1="70.3773" y1="4.2345" x2="51.8059" y2="22.8059" stroke="white" stroke-width="0.663265"/>
<line x1="88.4797" y1="22.8059" x2="69.9083" y2="4.2345" stroke="white" stroke-width="0.663265"/>
<path d="M3.04633 77.4813C3.04633 77.3117 3.04854 77.1438 3.05295 76.9776C3.05883 76.8113 3.06177 76.6334 3.06177 76.4439C3.06177 76.3907 3.06177 76.3308 3.06177 76.2643C3.06177 76.1945 3.06104 76.0931 3.05957 75.9601C3.05957 75.8238 3.05883 75.6425 3.05736 75.4164C3.05589 75.187 3.05368 74.8845 3.05074 74.5087C3.04927 74.133 3.04707 73.6708 3.04412 73.1222C3.04118 72.5702 3.03751 71.9052 3.03309 71.1272C3.03309 71.0341 3.02721 70.941 3.01544 70.8479C3.00515 70.7515 3 70.65 3 70.5436C3 70.4572 3.00441 70.3807 3.01324 70.3142C3.02353 70.2477 3.04118 70.1912 3.06619 70.1446C3.09266 70.0981 3.12723 70.0632 3.16988 70.0399C3.21253 70.0133 3.26695 70 3.33314 70C3.36697 70 3.39639 70.0166 3.42139 70.0499C3.44639 70.0798 3.46698 70.1214 3.48316 70.1746C3.50081 70.2244 3.51332 70.281 3.52067 70.3441C3.52949 70.4073 3.53391 70.4705 3.53391 70.5337C3.53391 70.6833 3.5317 70.8362 3.52729 70.9925C3.52288 71.1455 3.52067 71.32 3.52067 71.5162V72.6185C3.67364 72.6284 3.82072 72.6384 3.96192 72.6484C4.10311 72.6584 4.2502 72.6633 4.40316 72.6633C4.50906 72.6633 4.61496 72.655 4.72086 72.6384C4.82676 72.6185 4.93781 72.6052 5.054 72.5985C5.054 72.5353 5.054 72.4655 5.054 72.389C5.05547 72.3092 5.05621 72.2128 5.05621 72.0997C5.05621 71.9867 5.05621 71.852 5.05621 71.6957C5.05621 71.5395 5.05621 71.35 5.05621 71.1272C5.05621 71.0308 5.0518 70.9343 5.04297 70.8379C5.03415 70.7415 5.02973 70.6434 5.02973 70.5436C5.02973 70.4572 5.03415 70.3807 5.04297 70.3142C5.05327 70.2477 5.07092 70.1912 5.09592 70.1446C5.1224 70.0981 5.15696 70.0632 5.19961 70.0399C5.24374 70.0133 5.29889 70 5.36508 70C5.40038 70 5.43053 70.0183 5.45554 70.0549C5.48054 70.0914 5.50039 70.138 5.5151 70.1945C5.53128 70.2477 5.54231 70.3059 5.5482 70.3691C5.55555 70.4289 5.55923 70.4838 5.55923 70.5337C5.55923 70.7864 5.55555 71.0407 5.5482 71.2968C5.54231 71.5495 5.53791 71.8171 5.53496 72.0997C5.53496 72.3292 5.53496 72.5586 5.53496 72.788C5.53496 73.0175 5.53496 73.2535 5.53496 73.4963C5.53643 73.739 5.53716 73.9917 5.53716 74.2544C5.53716 74.517 5.53716 74.793 5.53716 75.0823C5.53716 75.4181 5.53864 75.7024 5.54158 75.9352C5.54599 76.1646 5.55041 76.3591 5.55481 76.5187C5.5607 76.675 5.56658 76.8013 5.57247 76.8977C5.57835 76.9942 5.5835 77.0756 5.58791 77.1421C5.59233 77.1987 5.596 77.2535 5.59894 77.3067C5.60189 77.3599 5.60335 77.4165 5.60335 77.4763C5.60335 77.5528 5.59894 77.6226 5.59012 77.6858C5.58276 77.749 5.56879 77.8038 5.5482 77.8504C5.52908 77.8936 5.5026 77.9285 5.46877 77.9551C5.43495 77.9817 5.39229 77.995 5.34081 77.995C5.28198 77.995 5.23344 77.9834 5.1952 77.9601C5.15696 77.9401 5.12607 77.9069 5.10254 77.8603C5.08048 77.8171 5.0643 77.7639 5.054 77.7007C5.04517 77.6376 5.04076 77.5628 5.04076 77.4763C5.04076 77.3034 5.04592 77.1322 5.05621 76.9626C5.06798 76.793 5.07386 76.6185 5.07386 76.4389C5.07386 76.0033 5.07018 75.5628 5.06282 75.1172C5.05694 74.6717 5.05327 74.1928 5.0518 73.6808C4.94737 73.6775 4.8275 73.6775 4.69218 73.6808C4.55687 73.6808 4.41861 73.6841 4.27741 73.6908C4.13768 73.6941 4.00163 73.7008 3.86925 73.7107C3.73835 73.7174 3.62363 73.7224 3.52508 73.7257C3.52802 74.261 3.5317 74.7116 3.53611 75.0773C3.54053 75.4397 3.54494 75.7423 3.54935 75.985C3.55376 76.2244 3.55818 76.4173 3.56259 76.5636C3.56847 76.7066 3.57362 76.8246 3.57803 76.9177C3.58245 77.0075 3.58539 77.0939 3.58686 77.1771C3.5898 77.2602 3.59127 77.3616 3.59127 77.4813C3.59127 77.5578 3.58759 77.6276 3.58024 77.6908C3.57289 77.7506 3.55891 77.8038 3.53832 77.8504C3.5192 77.8969 3.49272 77.9318 3.4589 77.9551C3.42654 77.9817 3.38388 77.995 3.33093 77.995C3.2721 77.995 3.2243 77.9834 3.18753 77.9601C3.15076 77.9401 3.12134 77.9085 3.09928 77.8653C3.07869 77.8221 3.06472 77.7689 3.05736 77.7057C3.05001 77.6426 3.04633 77.5677 3.04633 77.4813ZM6.90811 77.4663C6.90811 77.3599 6.91474 77.2535 6.92797 77.1471C6.94121 77.0374 6.96548 76.9277 7.00078 76.818C7.02578 76.7215 7.05961 76.5752 7.10226 76.3791C7.14639 76.1829 7.19566 75.9518 7.25008 75.6858C7.3045 75.4198 7.3626 75.1305 7.42437 74.8179C7.48762 74.5021 7.5516 74.1812 7.61632 73.8554C7.68104 73.5262 7.74501 73.1987 7.80826 72.8728C7.87297 72.5436 7.93401 72.2361 7.99138 71.9501C8.04874 71.6608 8.10095 71.3998 8.14802 71.1671C8.19508 70.9343 8.2348 70.7465 8.26716 70.6035C8.27157 70.5303 8.28039 70.4589 8.29363 70.389C8.30687 70.3159 8.32452 70.251 8.34658 70.1945C8.36864 70.1347 8.39512 70.0881 8.426 70.0549C8.4569 70.0183 8.49292 70 8.53411 70C8.58706 70 8.62971 70.0166 8.66207 70.0499C8.6959 70.0831 8.72311 70.1297 8.7437 70.1895C8.76576 70.2461 8.78341 70.3126 8.79665 70.389C8.80989 70.4655 8.82313 70.547 8.83636 70.6334C8.84813 70.7099 8.85916 70.783 8.86946 70.8529C8.87976 70.9194 8.88932 70.9709 8.89814 71.0075C8.99668 71.453 9.09229 71.9019 9.18495 72.3541C9.27908 72.8063 9.37175 73.2668 9.46294 73.7357C9.55559 74.2012 9.64899 74.6733 9.74313 75.1521C9.83726 75.6309 9.93507 76.118 10.0366 76.6135L10.0785 76.7531C10.0902 76.7897 10.1042 76.8346 10.1204 76.8878C10.1366 76.9377 10.1513 76.9925 10.1645 77.0524C10.1792 77.1122 10.191 77.1754 10.1998 77.2419C10.2101 77.3084 10.2153 77.3749 10.2153 77.4414C10.2153 77.6409 10.1903 77.7822 10.1402 77.8653C10.0902 77.9518 10.0292 77.995 9.95714 77.995C9.91742 77.995 9.88064 77.98 9.84682 77.9501C9.81447 77.9235 9.78578 77.8869 9.76078 77.8404C9.73578 77.7905 9.71591 77.734 9.70121 77.6708C9.6865 77.6043 9.67694 77.5345 9.67253 77.4613C9.63134 77.2585 9.59311 77.069 9.5578 76.8928C9.5225 76.7132 9.48794 76.5403 9.45411 76.3741C9.42175 76.2078 9.39013 76.0465 9.35925 75.8903C9.32836 75.7307 9.29746 75.5711 9.26658 75.4115C9.24304 75.4115 9.20996 75.4115 9.1673 75.4115C9.12464 75.4081 9.07685 75.4032 9.02389 75.3965C8.94006 75.3965 8.85476 75.3948 8.76797 75.3915C8.68267 75.3882 8.59515 75.3865 8.50544 75.3865C8.41571 75.3832 8.32304 75.3832 8.22745 75.3865C8.13184 75.3865 8.03183 75.3915 7.9274 75.4015C7.91122 75.4048 7.89578 75.4081 7.88107 75.4115C7.86636 75.4115 7.85092 75.4115 7.83474 75.4115C7.79355 75.6376 7.75457 75.8537 7.7178 76.0598C7.68104 76.2627 7.64794 76.4505 7.61852 76.6234C7.58911 76.7963 7.56263 76.951 7.5391 77.0873C7.51704 77.2203 7.50012 77.3283 7.48836 77.4115V77.4065C7.47954 77.4796 7.46923 77.5511 7.45747 77.621C7.44717 77.6908 7.43173 77.7539 7.41114 77.8105C7.39054 77.8637 7.36187 77.9069 7.3251 77.9401C7.2898 77.9767 7.24273 77.995 7.18389 77.995C7.10447 77.995 7.03828 77.9501 6.98534 77.8603C6.93386 77.7706 6.90811 77.6392 6.90811 77.4663ZM8.03551 74.3242C8.06639 74.3242 8.1061 74.3242 8.15464 74.3242C8.20464 74.3242 8.26863 74.3259 8.34658 74.3292C8.426 74.3292 8.52308 74.3308 8.6378 74.3342C8.75253 74.3342 8.89152 74.3358 9.05478 74.3391C8.98712 74.0066 8.91064 73.6326 8.82534 73.217C8.74003 72.798 8.63928 72.3109 8.52308 71.7556C8.48925 71.9252 8.45321 72.1114 8.41498 72.3142C8.37673 72.517 8.33629 72.7282 8.29363 72.9476C8.25245 73.1671 8.20979 73.3932 8.16567 73.6259C8.12302 73.8587 8.07962 74.0914 8.03551 74.3242ZM11.5333 77.2967C11.5333 77.2236 11.5347 77.1521 11.5377 77.0823C11.5406 77.0125 11.5436 76.9476 11.5465 76.8878C11.5465 76.4256 11.5465 76 11.5465 75.611C11.5465 75.2219 11.5465 74.8595 11.5465 74.5237C11.5465 74.1845 11.5465 73.867 11.5465 73.5711C11.5465 73.2752 11.5465 72.9892 11.5465 72.7132C11.5465 72.4339 11.5465 72.1613 11.5465 71.8952C11.548 71.6259 11.5487 71.3516 11.5487 71.0723C11.5414 71.0258 11.534 70.9609 11.5266 70.8778C11.5208 70.7947 11.5178 70.7165 11.5178 70.6434C11.5178 70.5736 11.5222 70.5037 11.5311 70.4339C11.5414 70.3641 11.5561 70.3026 11.5752 70.2494C11.5958 70.1929 11.6208 70.148 11.6502 70.1147C11.6796 70.0815 11.7134 70.0648 11.7517 70.0648C11.8135 70.0648 11.876 70.0731 11.9392 70.0898C12.0025 70.1064 12.0738 70.1147 12.1532 70.1147C12.2194 70.1147 12.2856 70.1081 12.3518 70.0948C12.418 70.0781 12.4886 70.0682 12.5636 70.0648C12.7857 70.0648 12.9864 70.1147 13.1659 70.2145C13.3468 70.3142 13.5005 70.4688 13.6269 70.6783C13.7549 70.8878 13.8535 71.1555 13.9226 71.4813C13.9917 71.8038 14.0264 72.1895 14.0264 72.6384C14.0264 73.064 13.9998 73.4431 13.9469 73.7755C13.8954 74.1047 13.8284 74.3923 13.7461 74.6384C13.6652 74.8845 13.574 75.0906 13.4725 75.2569C13.3725 75.4198 13.2747 75.5445 13.1791 75.6309C13.1924 75.8105 13.2129 75.9801 13.2409 76.1397C13.2703 76.2959 13.307 76.4339 13.3512 76.5536C13.3968 76.6733 13.4497 76.7681 13.5101 76.8379C13.5704 76.9077 13.638 76.9426 13.713 76.9426C13.7689 76.9426 13.8196 76.9227 13.8653 76.8828C13.9123 76.8429 13.9528 76.7648 13.9866 76.6484C14.0072 76.5819 14.0322 76.5237 14.0616 76.4738C14.091 76.4206 14.1286 76.394 14.1742 76.394C14.2536 76.394 14.3153 76.4439 14.3594 76.5436C14.4036 76.6434 14.4257 76.7697 14.4257 76.9227C14.4257 77.0657 14.4072 77.202 14.3705 77.3317C14.3352 77.4613 14.2844 77.5761 14.2182 77.6758C14.1536 77.7722 14.0748 77.8487 13.9822 77.9052C13.8895 77.9651 13.7866 77.995 13.6733 77.995C13.5689 77.995 13.474 77.9601 13.3887 77.8903C13.3048 77.8238 13.2291 77.734 13.1614 77.621C13.0953 77.5046 13.0364 77.3732 12.9849 77.2269C12.9335 77.0773 12.8893 76.9227 12.8526 76.7631C12.8158 76.6002 12.7857 76.4389 12.7621 76.2793C12.7386 76.1197 12.7202 75.9701 12.707 75.8304C12.6893 75.8304 12.6658 75.8304 12.6364 75.8304C12.607 75.8304 12.5768 75.8304 12.5459 75.8304C12.515 75.8304 12.4841 75.8304 12.4533 75.8304C12.4239 75.8271 12.3996 75.8254 12.3805 75.8254C12.3378 75.8221 12.2849 75.8204 12.2216 75.8204C12.1598 75.8171 12.1032 75.8155 12.0517 75.8155V76.5436C12.0547 76.6999 12.0635 76.8529 12.0782 77.0025C12.0929 77.1488 12.1003 77.3001 12.1003 77.4564C12.1003 77.5528 12.0914 77.6343 12.0738 77.7007C12.0576 77.7672 12.0363 77.8221 12.0098 77.8653C11.9833 77.9119 11.9547 77.9451 11.9238 77.9651C11.8929 77.985 11.8635 77.995 11.8355 77.995C11.7914 77.995 11.7509 77.9767 11.7142 77.9401C11.6774 77.9069 11.6458 77.8603 11.6193 77.8005C11.5928 77.7373 11.5715 77.6642 11.5553 77.581C11.5406 77.4946 11.5333 77.3998 11.5333 77.2967ZM12.0495 74.7431C12.0878 74.7465 12.1326 74.7498 12.1841 74.7531C12.2356 74.7564 12.2849 74.7598 12.3319 74.7631C12.379 74.7664 12.4209 74.7697 12.4577 74.7731C12.4944 74.7731 12.518 74.7731 12.5283 74.7731C12.7269 74.7731 12.8893 74.7116 13.0158 74.5885C13.1438 74.4655 13.2439 74.3026 13.3159 74.0998C13.388 73.8969 13.4373 73.6642 13.4637 73.4015C13.4917 73.1388 13.5056 72.8695 13.5056 72.5935C13.5056 72.3508 13.4888 72.1463 13.4549 71.9801C13.4211 71.8105 13.3762 71.6708 13.3203 71.5611C13.2645 71.4514 13.2012 71.3649 13.1306 71.3017C13.06 71.2386 12.9879 71.192 12.9143 71.1621C12.8423 71.1322 12.771 71.1139 12.7004 71.1072C12.6312 71.1006 12.5702 71.0973 12.5172 71.0973C12.4422 71.0973 12.3657 71.1006 12.2878 71.1072C12.2113 71.1106 12.1282 71.1139 12.0385 71.1172C12.0356 71.2436 12.0333 71.3583 12.0319 71.4613C12.0319 71.5644 12.0311 71.6658 12.0297 71.7656C12.0297 71.862 12.0297 71.9618 12.0297 72.0648C12.0297 72.1646 12.0297 72.2776 12.0297 72.404C12.0297 72.6301 12.0297 72.8412 12.0297 73.0374C12.0311 73.2303 12.0326 73.4198 12.0341 73.606C12.0356 73.7889 12.037 73.9734 12.0385 74.1596C12.0414 74.3458 12.0451 74.5403 12.0495 74.7431ZM13.0842 75.7007C13.0842 75.7007 13.082 75.7024 13.082 75.7057L13.0842 75.7007ZM15.7877 77.5312C15.7877 77.3915 15.7921 77.2735 15.801 77.1771C15.8098 77.0806 15.8149 77.0357 15.8164 77.0424C15.8193 76.68 15.8215 76.3125 15.8231 75.9402C15.826 75.5677 15.8275 75.1737 15.8275 74.7581C15.8275 74.4954 15.8275 74.2111 15.8275 73.9052C15.8275 73.596 15.826 73.2851 15.8231 72.9726C15.8215 72.6567 15.8186 72.3475 15.8142 72.0449C15.8098 71.739 15.804 71.4564 15.7965 71.197C15.7907 71.1205 15.7863 71.0524 15.7834 70.9925C15.7804 70.9293 15.779 70.8628 15.779 70.793C15.779 70.6301 15.7943 70.5021 15.8253 70.409C15.8562 70.3126 15.9062 70.2461 15.9753 70.2095C16.0047 70.153 16.037 70.1147 16.0724 70.0948C16.1091 70.0715 16.1445 70.0598 16.1783 70.0598C16.2135 70.0598 16.2452 70.0831 16.2731 70.1297C16.3025 70.1762 16.3283 70.2311 16.3504 70.2943C16.3724 70.3574 16.3908 70.4239 16.4055 70.4938C16.4202 70.5603 16.4305 70.6151 16.4363 70.6584C16.482 70.8113 16.5365 70.9859 16.5996 71.1821C16.6644 71.3782 16.7343 71.5894 16.8093 71.8155C16.8858 72.0382 16.9666 72.2726 17.0519 72.5187C17.1372 72.7614 17.2232 73.0075 17.3101 73.2569C17.3984 73.5062 17.4858 73.7556 17.5726 74.005C17.6594 74.251 17.7418 74.4888 17.8197 74.7182C17.8977 74.9476 17.9705 75.1654 18.0382 75.3716C18.1057 75.5744 18.1639 75.7573 18.2124 75.9202C18.2124 75.2086 18.211 74.5968 18.208 74.0848C18.2065 73.5694 18.2043 73.1322 18.2014 72.7731C18.1984 72.4106 18.1948 72.113 18.1904 71.8803C18.186 71.6475 18.1822 71.4547 18.1793 71.3017C18.1764 71.1488 18.1734 71.0241 18.1705 70.9277C18.169 70.8279 18.1683 70.7332 18.1683 70.6434C18.1683 70.5104 18.1742 70.4023 18.186 70.3192C18.1992 70.2328 18.2168 70.1663 18.2389 70.1197C18.2624 70.0731 18.2911 70.0416 18.3249 70.0249C18.3588 70.0083 18.3977 70 18.4419 70C18.4992 70 18.5441 70.0266 18.5764 70.0798C18.6088 70.133 18.6331 70.2012 18.6492 70.2843C18.6669 70.3641 18.6772 70.4555 18.6802 70.5586C18.6846 70.6584 18.6868 70.7564 18.6868 70.8529V76.5736C18.6868 76.6933 18.6897 76.8146 18.6955 76.9377C18.7015 77.0573 18.7044 77.1854 18.7044 77.3217C18.7044 77.4514 18.6999 77.5594 18.6912 77.6459C18.6824 77.729 18.6676 77.7972 18.647 77.8504C18.628 77.9036 18.6021 77.9401 18.5698 77.9601C18.5389 77.9834 18.5014 77.995 18.4573 77.995C18.3749 77.995 18.3088 77.9485 18.2588 77.8554C18.2102 77.7623 18.1756 77.6492 18.155 77.5162C18.0154 77.0839 17.8734 76.6583 17.7292 76.2394C17.5866 75.8171 17.4424 75.3965 17.2968 74.9776C17.1513 74.5553 17.0049 74.1313 16.8578 73.7057C16.7107 73.2768 16.5644 72.8412 16.4188 72.399L16.2863 71.9302C16.2878 72.4389 16.2894 72.8928 16.2908 73.2918C16.2923 73.6875 16.2938 74.0416 16.2952 74.3541C16.2967 74.6633 16.2982 74.9377 16.2996 75.1771C16.3011 75.4131 16.3018 75.6259 16.3018 75.8155C16.3033 76.0017 16.304 76.1729 16.304 76.3292C16.3055 76.4821 16.3062 76.6317 16.3062 76.7781C16.3077 76.8645 16.3099 76.9576 16.3128 77.0573C16.3173 77.1538 16.3195 77.2485 16.3195 77.3416C16.3195 77.4281 16.3158 77.5112 16.3084 77.591C16.3025 77.6708 16.2901 77.7406 16.271 77.8005C16.2518 77.8603 16.2246 77.9069 16.1893 77.9401C16.1555 77.9767 16.1106 77.995 16.0547 77.995C15.9797 77.995 15.9164 77.9534 15.865 77.8703C15.8135 77.7872 15.7877 77.6741 15.7877 77.5312ZM20.3709 77.2868C20.3709 77.2303 20.374 77.1704 20.3798 77.1072C20.3872 77.0441 20.3945 76.9859 20.4019 76.9327L20.4217 76.7731L20.3709 70.808C20.3709 70.6451 20.3791 70.5187 20.3952 70.4289C20.4129 70.3392 20.435 70.2727 20.4614 70.2294C20.4879 70.1862 20.518 70.1613 20.5519 70.1546C20.5872 70.148 20.6225 70.1446 20.6578 70.1446H21.8205C21.8469 70.138 21.8764 70.1297 21.9087 70.1197C21.9425 70.1064 21.9661 70.0997 21.9794 70.0997C22.0352 70.0997 22.0801 70.1114 22.1139 70.1347C22.1492 70.1579 22.1764 70.1929 22.1956 70.2394C22.2161 70.2826 22.2294 70.3375 22.2352 70.404C22.2426 70.4705 22.2463 70.5486 22.2463 70.6384C22.2463 70.7648 22.2389 70.8662 22.2243 70.9426C22.211 71.0191 22.1918 71.079 22.1668 71.1222C22.1433 71.1621 22.1154 71.1887 22.083 71.202C22.0507 71.2153 22.0161 71.2219 21.9794 71.2219C21.9631 71.2219 21.9418 71.2219 21.9153 71.2219C21.8889 71.2186 21.8609 71.2136 21.8315 71.207C21.6888 71.207 21.5734 71.207 21.4852 71.207C21.3983 71.207 21.3285 71.2086 21.2755 71.212C21.2241 71.212 21.1843 71.212 21.1564 71.212C21.1299 71.212 21.1064 71.212 21.0858 71.212H20.8806V72.793C20.8894 72.793 20.8998 72.7947 20.9115 72.798C20.9248 72.798 20.9446 72.798 20.9711 72.798C20.9976 72.798 21.0336 72.798 21.0792 72.798C21.1262 72.798 21.1888 72.798 21.2667 72.798C21.3447 72.798 21.441 72.798 21.5558 72.798C21.6704 72.798 21.8095 72.798 21.9727 72.798C21.9889 72.798 22.0073 72.7963 22.0279 72.793C22.0485 72.7897 22.069 72.7847 22.0896 72.7781C22.1161 72.7714 22.147 72.7647 22.1823 72.7581C22.2176 72.7514 22.2558 72.7481 22.2971 72.7481C22.3367 72.7481 22.3721 72.7664 22.4029 72.803C22.4338 72.8396 22.4595 72.8861 22.4801 72.9426C22.5022 72.9958 22.5184 73.054 22.5287 73.1172C22.5405 73.1804 22.5464 73.2402 22.5464 73.2968C22.5464 73.4763 22.5199 73.6076 22.467 73.6908C22.4154 73.7739 22.3485 73.8155 22.2661 73.8155L20.8806 73.8204V76.808C21.0262 76.808 21.1726 76.813 21.3197 76.8229C21.4668 76.8329 21.6204 76.8379 21.7808 76.8379C21.8248 76.8379 21.8653 76.8329 21.9022 76.8229C21.9389 76.813 21.9742 76.8013 22.008 76.788C22.0389 76.7781 22.0697 76.7697 22.1007 76.7631C22.133 76.7531 22.1683 76.7481 22.2066 76.7481C22.2507 76.7481 22.2911 76.7564 22.3279 76.7731C22.3661 76.7864 22.3993 76.813 22.4272 76.8529C22.4551 76.8894 22.4772 76.941 22.4934 77.0075C22.5095 77.0706 22.5177 77.1521 22.5177 77.2519C22.5177 77.3982 22.5066 77.5112 22.4845 77.591C22.4625 77.6708 22.4323 77.7307 22.3941 77.7706C22.3573 77.8072 22.3146 77.8304 22.2661 77.8404C22.219 77.8471 22.1698 77.8504 22.1183 77.8504H20.6335C20.5952 77.8504 20.56 77.8404 20.5277 77.8205C20.4968 77.8005 20.4695 77.7689 20.446 77.7257C20.4224 77.6791 20.4041 77.621 20.3908 77.5511C20.3776 77.478 20.3709 77.3899 20.3709 77.2868ZM23.9813 76.0598C23.9886 75.7905 24.0128 75.586 24.0541 75.4464C24.0967 75.3034 24.171 75.2319 24.2769 75.2319C24.3431 75.2319 24.3997 75.2751 24.4468 75.3616C24.4939 75.4447 24.5174 75.5611 24.5174 75.7107C24.5174 75.7972 24.5137 75.8836 24.5063 75.9701C24.499 76.0565 24.4968 76.1463 24.4997 76.2394C24.5056 76.3525 24.5276 76.4555 24.5659 76.5486C24.6041 76.6417 24.6527 76.7232 24.7115 76.793C24.7703 76.8595 24.8373 76.9127 24.9123 76.9526C24.9873 76.9892 25.0638 77.0075 25.1417 77.0075C25.2211 77.0075 25.2999 76.9925 25.3778 76.9626C25.4572 76.9293 25.5286 76.8695 25.5919 76.783C25.6565 76.6966 25.7087 76.5786 25.7485 76.4289C25.7882 76.2793 25.808 76.0848 25.808 75.8454C25.808 75.6891 25.7911 75.5428 25.7573 75.4065C25.7235 75.2668 25.68 75.1405 25.6271 75.0274C25.5742 74.9111 25.5153 74.8063 25.4506 74.7132C25.3873 74.6201 25.3264 74.5387 25.2675 74.4688C25.1837 74.3724 25.0976 74.2793 25.0094 74.1895C24.9226 74.0964 24.8373 74 24.7534 73.9003C24.6711 73.7972 24.5924 73.6858 24.5174 73.5661C24.4438 73.4431 24.3791 73.3001 24.3232 73.1371C24.2674 72.9742 24.2232 72.7864 24.1909 72.5736C24.1585 72.3574 24.1424 72.1081 24.1424 71.8254C24.1424 71.5096 24.1718 71.2369 24.2305 71.0075C24.2909 70.7781 24.3696 70.5885 24.4667 70.4389C24.5637 70.2893 24.6747 70.1795 24.7997 70.1097C24.9263 70.0366 25.0557 70 25.1881 70C25.3057 70 25.4198 70.0233 25.53 70.0698C25.6404 70.1164 25.7389 70.1929 25.8257 70.2993C25.9125 70.4023 25.9846 70.542 26.0419 70.7182C26.0992 70.8911 26.1339 71.1039 26.1456 71.3566C26.1485 71.4497 26.1434 71.5328 26.1301 71.606C26.1169 71.6758 26.0985 71.7357 26.075 71.7855C26.0514 71.8321 26.0242 71.8687 25.9934 71.8952C25.964 71.9185 25.9337 71.9302 25.9029 71.9302C25.8558 71.9302 25.8161 71.9135 25.7837 71.8803C25.7514 71.847 25.7249 71.8055 25.7043 71.7556C25.6837 71.7057 25.6683 71.6492 25.658 71.586C25.6477 71.5229 25.6411 71.4613 25.6381 71.4015C25.6161 71.3217 25.5874 71.2568 25.5521 71.207C25.5169 71.1538 25.4771 71.1122 25.433 71.0823C25.3903 71.049 25.3455 71.0274 25.2984 71.0175C25.2513 71.0042 25.2057 70.9975 25.1616 70.9975C25.0999 70.9975 25.038 71.0125 24.9763 71.0424C24.916 71.0723 24.8608 71.1205 24.8108 71.187C24.7608 71.2535 24.7203 71.3383 24.6895 71.4414C24.6586 71.5445 24.6431 71.6708 24.6431 71.8205C24.6431 71.9967 24.6615 72.1529 24.6983 72.2893C24.7351 72.4256 24.7814 72.547 24.8373 72.6534C24.8932 72.7598 24.955 72.8562 25.0226 72.9426C25.0917 73.0291 25.1587 73.1089 25.2234 73.182C25.3014 73.2718 25.3822 73.3682 25.466 73.4713C25.5499 73.5711 25.6315 73.6808 25.7109 73.8005C25.7919 73.9169 25.8683 74.0449 25.9404 74.1845C26.0125 74.3242 26.0757 74.4805 26.1301 74.6534C26.1846 74.8229 26.2272 75.0091 26.2581 75.212C26.2905 75.4148 26.3067 75.6392 26.3067 75.8853C26.3067 76.148 26.2905 76.3824 26.2581 76.5885C26.2257 76.7947 26.1817 76.9759 26.1257 77.1322C26.0698 77.2884 26.0043 77.4215 25.9293 77.5312C25.8543 77.6409 25.7735 77.7307 25.6866 77.8005C25.5999 77.8703 25.5094 77.9202 25.4153 77.9501C25.3227 77.9834 25.23 78 25.1373 78C25.0594 78 24.9756 77.985 24.8858 77.9551C24.7975 77.9252 24.7101 77.8786 24.6233 77.8155C24.5365 77.749 24.4534 77.6658 24.374 77.5661C24.296 77.463 24.2269 77.34 24.1666 77.197C24.1077 77.0507 24.0614 76.8844 24.0276 76.6982C23.9938 76.5087 23.9783 76.2959 23.9813 76.0598ZM27.7593 76.0598C27.7666 75.7905 27.7908 75.586 27.8321 75.4464C27.8746 75.3034 27.9489 75.2319 28.0549 75.2319C28.121 75.2319 28.1777 75.2751 28.2248 75.3616C28.2718 75.4447 28.2953 75.5611 28.2953 75.7107C28.2953 75.7972 28.2916 75.8836 28.2843 75.9701C28.277 76.0565 28.2748 76.1463 28.2777 76.2394C28.2836 76.3525 28.3056 76.4555 28.3438 76.5486C28.3821 76.6417 28.4307 76.7232 28.4894 76.793C28.5483 76.8595 28.6152 76.9127 28.6902 76.9526C28.7653 76.9892 28.8418 77.0075 28.9197 77.0075C28.9991 77.0075 29.0778 76.9925 29.1557 76.9626C29.2352 76.9293 29.3066 76.8695 29.3698 76.783C29.4345 76.6966 29.4867 76.5786 29.5264 76.4289C29.5661 76.2793 29.586 76.0848 29.586 75.8454C29.586 75.6891 29.569 75.5428 29.5353 75.4065C29.5014 75.2668 29.458 75.1405 29.4051 75.0274C29.3521 74.9111 29.2933 74.8063 29.2285 74.7132C29.1653 74.6201 29.1043 74.5387 29.0455 74.4688C28.9617 74.3724 28.8756 74.2793 28.7873 74.1895C28.7006 74.0964 28.6152 74 28.5314 73.9003C28.4491 73.7972 28.3703 73.6858 28.2953 73.5661C28.2217 73.4431 28.1571 73.3001 28.1012 73.1371C28.0453 72.9742 28.0011 72.7864 27.9688 72.5736C27.9365 72.3574 27.9203 72.1081 27.9203 71.8254C27.9203 71.5096 27.9496 71.2369 28.0085 71.0075C28.0688 70.7781 28.1475 70.5885 28.2446 70.4389C28.3416 70.2893 28.4527 70.1795 28.5777 70.1097C28.7042 70.0366 28.8336 70 28.9661 70C29.0836 70 29.1977 70.0233 29.308 70.0698C29.4183 70.1164 29.5168 70.1929 29.6037 70.2993C29.6904 70.4023 29.7625 70.542 29.8198 70.7182C29.8772 70.8911 29.9118 71.1039 29.9236 71.3566C29.9265 71.4497 29.9214 71.5328 29.9081 71.606C29.8948 71.6758 29.8765 71.7357 29.853 71.7855C29.8294 71.8321 29.8022 71.8687 29.7713 71.8952C29.7419 71.9185 29.7117 71.9302 29.6809 71.9302C29.6338 71.9302 29.594 71.9135 29.5617 71.8803C29.5294 71.847 29.5029 71.8055 29.4823 71.7556C29.4617 71.7057 29.4462 71.6492 29.436 71.586C29.4256 71.5229 29.419 71.4613 29.4161 71.4015C29.394 71.3217 29.3654 71.2568 29.33 71.207C29.2947 71.1538 29.255 71.1122 29.211 71.0823C29.1683 71.049 29.1234 71.0274 29.0763 71.0175C29.0292 71.0042 28.9836 70.9975 28.9396 70.9975C28.8778 70.9975 28.816 71.0125 28.7542 71.0424C28.694 71.0723 28.6387 71.1205 28.5887 71.187C28.5387 71.2535 28.4983 71.3383 28.4674 71.4414C28.4365 71.5445 28.4211 71.6708 28.4211 71.8205C28.4211 71.9967 28.4394 72.1529 28.4763 72.2893C28.513 72.4256 28.5593 72.547 28.6152 72.6534C28.6712 72.7598 28.7329 72.8562 28.8006 72.9426C28.8697 73.0291 28.9366 73.1089 29.0013 73.182C29.0792 73.2718 29.1602 73.3682 29.244 73.4713C29.3278 73.5711 29.4095 73.6808 29.4889 73.8005C29.5698 73.9169 29.6462 74.0449 29.7183 74.1845C29.7904 74.3242 29.8537 74.4805 29.9081 74.6534C29.9625 74.8229 30.0052 75.0091 30.036 75.212C30.0684 75.4148 30.0846 75.6392 30.0846 75.8853C30.0846 76.148 30.0684 76.3824 30.036 76.5885C30.0037 76.7947 29.9596 76.9759 29.9037 77.1322C29.8478 77.2884 29.7823 77.4215 29.7073 77.5312C29.6323 77.6409 29.5515 77.7307 29.4646 77.8005C29.3778 77.8703 29.2874 77.9202 29.1933 77.9501C29.1006 77.9834 29.0079 78 28.9153 78C28.8373 78 28.7535 77.985 28.6637 77.9551C28.5755 77.9252 28.488 77.8786 28.4013 77.8155C28.3144 77.749 28.2314 77.6658 28.152 77.5661C28.0739 77.463 28.0049 77.34 27.9445 77.197C27.8857 77.0507 27.8394 76.8844 27.8056 76.6982C27.7717 76.5087 27.7563 76.2959 27.7593 76.0598ZM31.7997 77.4514C31.7997 77.2818 31.8049 77.1155 31.8151 76.9526C31.8269 76.7864 31.8328 76.6101 31.8328 76.4239C31.8328 75.5761 31.8291 74.7232 31.8218 73.8653C31.8159 73.0075 31.8129 72.1263 31.8129 71.2219C31.8129 71.1288 31.8085 71.0357 31.7997 70.9426C31.7909 70.8462 31.7864 70.7431 31.7864 70.6334C31.7864 70.547 31.7917 70.4655 31.8019 70.389C31.8122 70.3126 31.8299 70.2461 31.8549 70.1895C31.8799 70.1297 31.9145 70.0831 31.9585 70.0499C32.0027 70.0166 32.0578 70 32.124 70C32.1902 70 32.2424 70.0565 32.2806 70.1696C32.3189 70.2826 32.3381 70.4339 32.3381 70.6234C32.3381 70.68 32.3359 70.7365 32.3314 70.793C32.327 70.8462 32.3226 70.9027 32.3182 70.9626C32.3153 71.2485 32.3131 71.5561 32.3116 71.8853C32.3101 72.2145 32.3094 72.5919 32.3094 73.0175C32.3094 73.3965 32.3101 73.7839 32.3116 74.1795C32.3131 74.5752 32.3153 74.9559 32.3182 75.3217C32.3211 75.6874 32.3248 76.0299 32.3292 76.3491C32.3351 76.665 32.3417 76.9377 32.349 77.1671V77.1621C32.352 77.212 32.3542 77.2602 32.3556 77.3067C32.3587 77.35 32.3601 77.3949 32.3601 77.4414C32.3601 77.5212 32.3556 77.596 32.3468 77.6658C32.3395 77.7323 32.3262 77.7905 32.3071 77.8404C32.2881 77.8903 32.2616 77.9285 32.2277 77.9551C32.1939 77.9817 32.152 77.995 32.102 77.995C32.0432 77.995 31.9939 77.9834 31.9541 77.9601C31.9159 77.9368 31.885 77.9019 31.8614 77.8554C31.8394 77.8088 31.8233 77.7523 31.8129 77.6858C31.8041 77.616 31.7997 77.5378 31.7997 77.4514ZM34.1877 77.5312C34.1877 77.3915 34.1921 77.2735 34.2009 77.1771C34.2098 77.0806 34.2149 77.0357 34.2164 77.0424C34.2193 76.68 34.2215 76.3125 34.223 75.9402C34.2259 75.5677 34.2275 75.1737 34.2275 74.7581C34.2275 74.4954 34.2275 74.2111 34.2275 73.9052C34.2275 73.596 34.2259 73.2851 34.223 72.9726C34.2215 72.6567 34.2186 72.3475 34.2142 72.0449C34.2098 71.739 34.204 71.4564 34.1965 71.197C34.1907 71.1205 34.1863 71.0524 34.1833 70.9925C34.1804 70.9293 34.179 70.8628 34.179 70.793C34.179 70.6301 34.1943 70.5021 34.2252 70.409C34.2562 70.3126 34.3062 70.2461 34.3753 70.2095C34.4047 70.153 34.437 70.1147 34.4723 70.0948C34.5091 70.0715 34.5444 70.0598 34.5783 70.0598C34.6135 70.0598 34.6451 70.0831 34.6731 70.1297C34.7025 70.1762 34.7283 70.2311 34.7503 70.2943C34.7724 70.3574 34.7907 70.4239 34.8055 70.4938C34.8202 70.5603 34.8305 70.6151 34.8363 70.6584C34.882 70.8113 34.9363 70.9859 34.9996 71.1821C35.0644 71.3782 35.1342 71.5894 35.2092 71.8155C35.2858 72.0382 35.3666 72.2726 35.4519 72.5187C35.5372 72.7614 35.6232 73.0075 35.7101 73.2569C35.7982 73.5062 35.8858 73.7556 35.9725 74.005C36.0594 74.251 36.1417 74.4888 36.2196 74.7182C36.2977 74.9476 36.3705 75.1654 36.4381 75.3716C36.5057 75.5744 36.5638 75.7573 36.6123 75.9202C36.6123 75.2086 36.6109 74.5968 36.6079 74.0848C36.6065 73.5694 36.6043 73.1322 36.6014 72.7731C36.5984 72.4106 36.5948 72.113 36.5904 71.8803C36.5859 71.6475 36.5822 71.4547 36.5793 71.3017C36.5764 71.1488 36.5734 71.0241 36.5705 70.9277C36.569 70.8279 36.5683 70.7332 36.5683 70.6434C36.5683 70.5104 36.5742 70.4023 36.5859 70.3192C36.5992 70.2328 36.6168 70.1663 36.6389 70.1197C36.6623 70.0731 36.6911 70.0416 36.7249 70.0249C36.7587 70.0083 36.7977 70 36.8419 70C36.8992 70 36.9441 70.0266 36.9764 70.0798C37.0088 70.133 37.0331 70.2012 37.0492 70.2843C37.0669 70.3641 37.0771 70.4555 37.0801 70.5586C37.0846 70.6584 37.0868 70.7564 37.0868 70.8529V76.5736C37.0868 76.6933 37.0897 76.8146 37.0955 76.9377C37.1014 77.0573 37.1043 77.1854 37.1043 77.3217C37.1043 77.4514 37.0999 77.5594 37.0911 77.6459C37.0824 77.729 37.0676 77.7972 37.047 77.8504C37.0279 77.9036 37.0021 77.9401 36.9698 77.9601C36.9389 77.9834 36.9014 77.995 36.8572 77.995C36.7749 77.995 36.7087 77.9485 36.6587 77.8554C36.6101 77.7623 36.5756 77.6492 36.555 77.5162C36.4153 77.0839 36.2734 76.6583 36.1292 76.2394C35.9865 75.8171 35.8424 75.3965 35.6968 74.9776C35.5512 74.5553 35.4048 74.1313 35.2577 73.7057C35.1106 73.2768 34.9643 72.8412 34.8188 72.399L34.6863 71.9302C34.6878 72.4389 34.6893 72.8928 34.6907 73.2918C34.6922 73.6875 34.6937 74.0416 34.6952 74.3541C34.6967 74.6633 34.6981 74.9377 34.6996 75.1771C34.7011 75.4131 34.7018 75.6259 34.7018 75.8155C34.7033 76.0017 34.704 76.1729 34.704 76.3292C34.7055 76.4821 34.7062 76.6317 34.7062 76.7781C34.7077 76.8645 34.7099 76.9576 34.7128 77.0573C34.7172 77.1538 34.7195 77.2485 34.7195 77.3416C34.7195 77.4281 34.7157 77.5112 34.7084 77.591C34.7025 77.6708 34.69 77.7406 34.6709 77.8005C34.6518 77.8603 34.6246 77.9069 34.5892 77.9401C34.5555 77.9767 34.5106 77.995 34.4547 77.995C34.3797 77.995 34.3164 77.9534 34.2649 77.8703C34.2135 77.7872 34.1877 77.6741 34.1877 77.5312ZM38.6607 74.0798C38.6607 73.3982 38.704 72.803 38.7908 72.2943C38.8775 71.7855 38.9974 71.3616 39.1505 71.0224C39.3034 70.6833 39.4843 70.4289 39.6932 70.2594C39.902 70.0898 40.1292 70.005 40.3749 70.005C40.4381 70.005 40.5095 70.0083 40.5889 70.015C40.6683 70.0183 40.7493 70.0299 40.8316 70.0499C40.9154 70.0698 40.9978 70.0981 41.0787 70.1347C41.1596 70.1712 41.2346 70.2195 41.3037 70.2793C41.3581 70.3259 41.4037 70.3924 41.4405 70.4788C41.4773 70.5653 41.4957 70.6899 41.4957 70.8529C41.4957 71.0424 41.4743 71.1954 41.4316 71.3117C41.3905 71.4248 41.342 71.4813 41.286 71.4813C41.2743 71.4813 41.2588 71.478 41.2398 71.4713C41.2206 71.4647 41.2044 71.453 41.1912 71.4364C41.1338 71.3666 41.0639 71.3101 40.9816 71.2668C40.9007 71.2236 40.8168 71.1887 40.7301 71.1621C40.6433 71.1355 40.5588 71.1172 40.4763 71.1072C40.394 71.0973 40.3234 71.0923 40.2646 71.0923C40.1837 71.0923 40.1006 71.1155 40.0153 71.1621C39.9299 71.2053 39.8461 71.2751 39.7638 71.3716C39.6828 71.468 39.6056 71.591 39.5321 71.7406C39.46 71.8903 39.3968 72.0682 39.3423 72.2743C39.2879 72.4805 39.2445 72.7182 39.2122 72.9875C39.1799 73.2535 39.1637 73.5528 39.1637 73.8853C39.1637 74.2743 39.1835 74.6184 39.2233 74.9177C39.2644 75.2169 39.3204 75.478 39.3909 75.7007C39.4615 75.9202 39.5447 76.1064 39.6402 76.2593C39.7358 76.409 39.8388 76.5303 39.9491 76.6234C40.0609 76.7165 40.177 76.783 40.2977 76.8229C40.4183 76.8628 40.5389 76.8828 40.6595 76.8828C40.7124 76.8828 40.7721 76.8811 40.8382 76.8778C40.9059 76.8711 40.9728 76.8545 41.0389 76.8279C41.0389 76.5021 41.0382 76.2244 41.0367 75.995C41.0367 75.7656 41.036 75.5611 41.0345 75.3815C41.0331 75.202 41.0309 75.0374 41.0279 74.8878C41.0265 74.7382 41.0243 74.5785 41.0214 74.409C41.0214 74.2893 41.0176 74.1696 41.0103 74.0499C41.0029 73.9268 40.9993 73.7955 40.9993 73.6559C40.9993 73.606 41.0037 73.5528 41.0125 73.4963C41.0228 73.4364 41.0382 73.3815 41.0588 73.3317C41.0809 73.2785 41.1095 73.2353 41.1449 73.202C41.1802 73.1654 41.2243 73.1471 41.2772 73.1471C41.3641 73.1471 41.4309 73.1937 41.478 73.2868C41.5265 73.3766 41.5508 73.4996 41.5508 73.6559C41.5508 73.7224 41.5501 73.7872 41.5486 73.8504C41.5471 73.9102 41.5464 73.975 41.5464 74.0449C41.5449 74.1513 41.5427 74.281 41.5398 74.4339C41.5383 74.5835 41.5369 74.7764 41.5354 75.0125C41.5339 75.2452 41.5324 75.5295 41.5309 75.8653C41.5295 76.1978 41.5287 76.5968 41.5287 77.0623C41.5273 77.2519 41.5163 77.3998 41.4957 77.5062C41.4751 77.6126 41.4471 77.6924 41.4119 77.7456C41.3765 77.7955 41.3353 77.8254 41.2882 77.8354C41.2427 77.8454 41.1949 77.8504 41.1449 77.8504C41.1022 77.8504 41.0573 77.8554 41.0103 77.8653C40.9632 77.8753 40.9154 77.8869 40.8668 77.9002C40.8183 77.9135 40.7705 77.9252 40.7235 77.9352C40.6779 77.9451 40.6345 77.9501 40.5933 77.9501C40.2801 77.9501 40.0028 77.8454 39.7615 77.6359C39.5218 77.4264 39.3204 77.1455 39.1571 76.793C38.9938 76.4372 38.8702 76.0266 38.7864 75.5611C38.7025 75.0923 38.6607 74.5985 38.6607 74.0798ZM43.2086 77.3616C43.2086 77.2751 43.2116 77.1671 43.2174 77.0374C43.2247 76.9077 43.2388 76.783 43.2594 76.6633C43.2799 76.5436 43.3094 76.4406 43.3476 76.3541C43.3858 76.2677 43.4366 76.2244 43.4998 76.2244C43.5631 76.2244 43.6116 76.256 43.6454 76.3192C43.6807 76.3824 43.7065 76.4572 43.7226 76.5436C43.7388 76.6268 43.7483 76.7115 43.7514 76.798C43.7557 76.8844 43.7579 76.9526 43.7579 77.0025V77.0324C43.7579 77.182 43.7535 77.315 43.7447 77.4314C43.7359 77.5478 43.7204 77.6459 43.6983 77.7257C43.6778 77.8055 43.6498 77.867 43.6145 77.9102C43.5793 77.9534 43.5351 77.9751 43.4822 77.9751C43.4322 77.9751 43.3895 77.9568 43.3541 77.9202C43.3204 77.8869 43.2924 77.8421 43.2703 77.7855C43.2483 77.729 43.2321 77.6642 43.2218 77.591C43.213 77.5179 43.2086 77.4414 43.2086 77.3616ZM45.3605 77.2868C45.3605 77.2303 45.3635 77.1704 45.3693 77.1072C45.3767 77.0441 45.3841 76.9859 45.3914 76.9327L45.4113 76.7731L45.3605 70.808C45.3605 70.6451 45.3686 70.5187 45.3848 70.4289C45.4025 70.3392 45.4246 70.2727 45.451 70.2294C45.4775 70.1862 45.5076 70.1613 45.5414 70.1546C45.5768 70.148 45.612 70.1446 45.6474 70.1446H46.81C46.8365 70.138 46.8659 70.1297 46.8982 70.1197C46.9321 70.1064 46.9557 70.0997 46.9688 70.0997C47.0248 70.0997 47.0696 70.1114 47.1035 70.1347C47.1387 70.1579 47.1659 70.1929 47.1851 70.2394C47.2057 70.2826 47.2189 70.3375 47.2248 70.404C47.2321 70.4705 47.2358 70.5486 47.2358 70.6384C47.2358 70.7648 47.2285 70.8662 47.2137 70.9426C47.2006 71.0191 47.1814 71.079 47.1564 71.1222C47.1329 71.1621 47.1049 71.1887 47.0726 71.202C47.0402 71.2153 47.0057 71.2219 46.9688 71.2219C46.9527 71.2219 46.9314 71.2219 46.9049 71.2219C46.8785 71.2186 46.8505 71.2136 46.821 71.207C46.6784 71.207 46.5629 71.207 46.4747 71.207C46.3879 71.207 46.318 71.2086 46.2651 71.212C46.2136 71.212 46.1739 71.212 46.146 71.212C46.1195 71.212 46.096 71.212 46.0754 71.212H45.8702V72.793C45.879 72.793 45.8892 72.7947 45.9011 72.798C45.9142 72.798 45.9341 72.798 45.9606 72.798C45.9871 72.798 46.0231 72.798 46.0688 72.798C46.1158 72.798 46.1783 72.798 46.2562 72.798C46.3343 72.798 46.4305 72.798 46.5453 72.798C46.66 72.798 46.799 72.798 46.9623 72.798C46.9785 72.798 46.9969 72.7963 47.0174 72.793C47.038 72.7897 47.0586 72.7847 47.0792 72.7781C47.1057 72.7714 47.1365 72.7647 47.1719 72.7581C47.2071 72.7514 47.2454 72.7481 47.2865 72.7481C47.3263 72.7481 47.3616 72.7664 47.3925 72.803C47.4234 72.8396 47.4491 72.8861 47.4697 72.9426C47.4918 72.9958 47.5079 73.054 47.5183 73.1172C47.53 73.1804 47.5358 73.2402 47.5358 73.2968C47.5358 73.4763 47.5094 73.6076 47.4564 73.6908C47.405 73.7739 47.338 73.8155 47.2557 73.8155L45.8702 73.8204V76.808C46.0158 76.808 46.1622 76.813 46.3093 76.8229C46.4562 76.8329 46.61 76.8379 46.7703 76.8379C46.8144 76.8379 46.8549 76.8329 46.8916 76.8229C46.9285 76.813 46.9637 76.8013 46.9975 76.788C47.0285 76.7781 47.0593 76.7697 47.0902 76.7631C47.1226 76.7531 47.1579 76.7481 47.1962 76.7481C47.2402 76.7481 47.2807 76.7564 47.3174 76.7731C47.3557 76.7864 47.3888 76.813 47.4168 76.8529C47.4447 76.8894 47.4668 76.941 47.4829 77.0075C47.4991 77.0706 47.5072 77.1521 47.5072 77.2519C47.5072 77.3982 47.4962 77.5112 47.4741 77.591C47.452 77.6708 47.4219 77.7307 47.3836 77.7706C47.3469 77.8072 47.3042 77.8304 47.2557 77.8404C47.2086 77.8471 47.1593 77.8504 47.1079 77.8504H45.6231C45.5848 77.8504 45.5496 77.8404 45.5171 77.8205C45.4863 77.8005 45.4591 77.7689 45.4355 77.7257C45.412 77.6791 45.3936 77.621 45.3804 77.5511C45.3671 77.478 45.3605 77.3899 45.3605 77.2868ZM49.0789 77.5312C49.0789 77.3915 49.0833 77.2735 49.0922 77.1771C49.101 77.0806 49.1061 77.0357 49.1076 77.0424C49.1105 76.68 49.1127 76.3125 49.1143 75.9402C49.1172 75.5677 49.1187 75.1737 49.1187 74.7581C49.1187 74.4954 49.1187 74.2111 49.1187 73.9052C49.1187 73.596 49.1172 73.2851 49.1143 72.9726C49.1127 72.6567 49.1098 72.3475 49.1054 72.0449C49.101 71.739 49.0951 71.4564 49.0877 71.197C49.0818 71.1205 49.0774 71.0524 49.0745 70.9925C49.0716 70.9293 49.0701 70.8628 49.0701 70.793C49.0701 70.6301 49.0855 70.5021 49.1165 70.409C49.1473 70.3126 49.1973 70.2461 49.2665 70.2095C49.2959 70.153 49.3282 70.1147 49.3636 70.0948C49.4003 70.0715 49.4356 70.0598 49.4694 70.0598C49.5047 70.0598 49.5364 70.0831 49.5643 70.1297C49.5937 70.1762 49.6194 70.2311 49.6415 70.2943C49.6636 70.3574 49.682 70.4239 49.6966 70.4938C49.7114 70.5603 49.7216 70.6151 49.7275 70.6584C49.7731 70.8113 49.8276 70.9859 49.8908 71.1821C49.9556 71.3782 50.0254 71.5894 50.1004 71.8155C50.1769 72.0382 50.2578 72.2726 50.343 72.5187C50.4284 72.7614 50.5144 73.0075 50.6012 73.2569C50.6895 73.5062 50.777 73.7556 50.8638 74.005C50.9505 74.251 51.0329 74.4888 51.1109 74.7182C51.1888 74.9476 51.2616 75.1654 51.3293 75.3716C51.3969 75.5744 51.4551 75.7573 51.5036 75.9202C51.5036 75.2086 51.5021 74.5968 51.4991 74.0848C51.4976 73.5694 51.4954 73.1322 51.4925 72.7731C51.4896 72.4106 51.4859 72.113 51.4815 71.8803C51.4771 71.6475 51.4734 71.4547 51.4704 71.3017C51.4675 71.1488 51.4646 71.0241 51.4617 70.9277C51.4602 70.8279 51.4595 70.7332 51.4595 70.6434C51.4595 70.5104 51.4653 70.4023 51.4771 70.3192C51.4903 70.2328 51.508 70.1663 51.5301 70.1197C51.5536 70.0731 51.5823 70.0416 51.6161 70.0249C51.65 70.0083 51.6889 70 51.733 70C51.7903 70 51.8352 70.0266 51.8676 70.0798C51.9 70.133 51.9242 70.2012 51.9404 70.2843C51.958 70.3641 51.9684 70.4555 51.9713 70.5586C51.9757 70.6584 51.9779 70.7564 51.9779 70.8529V76.5736C51.9779 76.6933 51.9808 76.8146 51.9867 76.9377C51.9927 77.0573 51.9956 77.1854 51.9956 77.3217C51.9956 77.4514 51.9911 77.5594 51.9823 77.6459C51.9735 77.729 51.9588 77.7972 51.9382 77.8504C51.9191 77.9036 51.8933 77.9401 51.861 77.9601C51.8301 77.9834 51.7925 77.995 51.7485 77.995C51.6661 77.995 51.6 77.9485 51.5499 77.8554C51.5014 77.7623 51.4668 77.6492 51.4462 77.5162C51.3065 77.0839 51.1646 76.6583 51.0204 76.2394C50.8777 75.8171 50.7336 75.3965 50.5879 74.9776C50.4424 74.5553 50.2961 74.1313 50.149 73.7057C50.0019 73.2768 49.8555 72.8412 49.7099 72.399L49.5775 71.9302C49.579 72.4389 49.5805 72.8928 49.582 73.2918C49.5835 73.6875 49.5849 74.0416 49.5864 74.3541C49.5878 74.6633 49.5893 74.9377 49.5908 75.1771C49.5922 75.4131 49.593 75.6259 49.593 75.8155C49.5944 76.0017 49.5952 76.1729 49.5952 76.3292C49.5966 76.4821 49.5974 76.6317 49.5974 76.7781C49.5988 76.8645 49.601 76.9576 49.604 77.0573C49.6085 77.1538 49.6107 77.2485 49.6107 77.3416C49.6107 77.4281 49.607 77.5112 49.5996 77.591C49.5937 77.6708 49.5812 77.7406 49.5621 77.8005C49.543 77.8603 49.5158 77.9069 49.4804 77.9401C49.4466 77.9767 49.4017 77.995 49.3459 77.995C49.2709 77.995 49.2076 77.9534 49.1561 77.8703C49.1046 77.7872 49.0789 77.6741 49.0789 77.5312ZM54.207 71.2668C54.1041 71.2668 53.9975 71.2685 53.8871 71.2718C53.7769 71.2751 53.6562 71.2768 53.5254 71.2768C53.49 71.2768 53.4592 71.2585 53.4327 71.2219C53.4062 71.1854 53.3842 71.1388 53.3665 71.0823C53.3489 71.0224 53.3356 70.9559 53.3268 70.8828C53.3179 70.8096 53.3135 70.7365 53.3135 70.6633C53.3135 70.4672 53.3378 70.3325 53.3863 70.2594C53.4349 70.1829 53.5136 70.1446 53.6225 70.1446H55.383C55.4125 70.1446 55.4426 70.153 55.4735 70.1696C55.5058 70.1862 55.5345 70.2161 55.5595 70.2594C55.586 70.3026 55.6073 70.3591 55.6235 70.4289C55.6412 70.4988 55.6499 70.5885 55.6499 70.6983C55.6499 70.7781 55.6441 70.8545 55.6323 70.9277C55.6205 71.0008 55.6043 71.064 55.5837 71.1172C55.5647 71.1704 55.5411 71.2136 55.5132 71.2469C55.4866 71.2801 55.458 71.2968 55.4271 71.2968C55.4036 71.2968 55.3808 71.2918 55.3587 71.2818C55.3366 71.2718 55.3131 71.2668 55.2881 71.2668H54.7189L54.7123 76.8928C54.7123 76.9726 54.7145 77.0507 54.7189 77.1272C54.7249 77.2037 54.7278 77.2868 54.7278 77.3766C54.7278 77.4497 54.7249 77.5228 54.7189 77.596C54.713 77.6692 54.7006 77.7357 54.6814 77.7955C54.6623 77.8554 54.6351 77.9036 54.5997 77.9401C54.5645 77.98 54.5181 78 54.4608 78C54.3931 78 54.3417 77.9734 54.3064 77.9202C54.2711 77.8703 54.2453 77.8055 54.2291 77.7257C54.2145 77.6459 54.2064 77.5578 54.2048 77.4613C54.2034 77.3649 54.2026 77.2718 54.2026 77.182L54.207 71.2668ZM56.9636 77.2868C56.9636 77.2303 56.9665 77.1704 56.9724 77.1072C56.9797 77.0441 56.987 76.9859 56.9945 76.9327L57.0143 76.7731L56.9636 70.808C56.9636 70.6451 56.9717 70.5187 56.9878 70.4289C57.0054 70.3392 57.0275 70.2727 57.054 70.2294C57.0805 70.1862 57.1107 70.1613 57.1445 70.1546C57.1797 70.148 57.2151 70.1446 57.2503 70.1446H58.413C58.4396 70.138 58.469 70.1297 58.5013 70.1197C58.5351 70.1064 58.5586 70.0997 58.5719 70.0997C58.6278 70.0997 58.6726 70.1114 58.7064 70.1347C58.7418 70.1579 58.769 70.1929 58.7881 70.2394C58.8086 70.2826 58.8219 70.3375 58.8278 70.404C58.8352 70.4705 58.8389 70.5486 58.8389 70.6384C58.8389 70.7648 58.8314 70.8662 58.8168 70.9426C58.8035 71.0191 58.7845 71.079 58.7595 71.1222C58.7359 71.1621 58.7079 71.1887 58.6756 71.202C58.6432 71.2153 58.6086 71.2219 58.5719 71.2219C58.5557 71.2219 58.5344 71.2219 58.5079 71.2219C58.4814 71.2186 58.4535 71.2136 58.4241 71.207C58.2814 71.207 58.1659 71.207 58.0777 71.207C57.9909 71.207 57.921 71.2086 57.8681 71.212C57.8166 71.212 57.777 71.212 57.7489 71.212C57.7225 71.212 57.6989 71.212 57.6784 71.212H57.4732V72.793C57.4821 72.793 57.4923 72.7947 57.5041 72.798C57.5173 72.798 57.5372 72.798 57.5637 72.798C57.5901 72.798 57.6261 72.798 57.6717 72.798C57.7188 72.798 57.7814 72.798 57.8593 72.798C57.9372 72.798 58.0336 72.798 58.1483 72.798C58.263 72.798 58.402 72.798 58.5653 72.798C58.5814 72.798 58.5998 72.7963 58.6204 72.793C58.6411 72.7897 58.6617 72.7847 58.6822 72.7781C58.7086 72.7714 58.7396 72.7647 58.7749 72.7581C58.8102 72.7514 58.8484 72.7481 58.8896 72.7481C58.9293 72.7481 58.9646 72.7664 58.9955 72.803C59.0263 72.8396 59.0521 72.8861 59.0727 72.9426C59.0948 72.9958 59.111 73.054 59.1212 73.1172C59.133 73.1804 59.1389 73.2402 59.1389 73.2968C59.1389 73.4763 59.1124 73.6076 59.0595 73.6908C59.008 73.7739 58.9411 73.8155 58.8587 73.8155L57.4732 73.8204V76.808C57.6188 76.808 57.7651 76.813 57.9122 76.8229C58.0593 76.8329 58.213 76.8379 58.3734 76.8379C58.4175 76.8379 58.4579 76.8329 58.4947 76.8229C58.5314 76.813 58.5668 76.8013 58.6006 76.788C58.6314 76.7781 58.6624 76.7697 58.6933 76.7631C58.7256 76.7531 58.7609 76.7481 58.7991 76.7481C58.8433 76.7481 58.8838 76.7564 58.9205 76.7731C58.9588 76.7864 58.9918 76.813 59.0197 76.8529C59.0477 76.8894 59.0698 76.941 59.086 77.0075C59.1021 77.0706 59.1102 77.1521 59.1102 77.2519C59.1102 77.3982 59.0992 77.5112 59.0771 77.591C59.0551 77.6708 59.0249 77.7307 58.9867 77.7706C58.9499 77.8072 58.9073 77.8304 58.8587 77.8404C58.8117 77.8471 58.7624 77.8504 58.7109 77.8504H57.2261C57.1879 77.8504 57.1525 77.8404 57.1202 77.8205C57.0893 77.8005 57.0621 77.7689 57.0386 77.7257C57.0151 77.6791 56.9967 77.621 56.9834 77.5511C56.9702 77.478 56.9636 77.3899 56.9636 77.2868ZM60.6864 77.2967C60.6864 77.2236 60.6878 77.1521 60.6908 77.0823C60.6937 77.0125 60.6966 76.9476 60.6995 76.8878C60.6995 76.4256 60.6995 76 60.6995 75.611C60.6995 75.2219 60.6995 74.8595 60.6995 74.5237C60.6995 74.1845 60.6995 73.867 60.6995 73.5711C60.6995 73.2752 60.6995 72.9892 60.6995 72.7132C60.6995 72.4339 60.6995 72.1613 60.6995 71.8952C60.701 71.6259 60.7017 71.3516 60.7017 71.0723C60.6944 71.0258 60.6871 70.9609 60.6798 70.8778C60.6738 70.7947 60.6709 70.7165 60.6709 70.6434C60.6709 70.5736 60.6753 70.5037 60.6842 70.4339C60.6944 70.3641 60.7092 70.3026 60.7283 70.2494C60.7488 70.1929 60.7738 70.148 60.8033 70.1147C60.8327 70.0815 60.8665 70.0648 60.9048 70.0648C60.9665 70.0648 61.0291 70.0731 61.0923 70.0898C61.1555 70.1064 61.2269 70.1147 61.3063 70.1147C61.3725 70.1147 61.4386 70.1081 61.5048 70.0948C61.5711 70.0781 61.6417 70.0682 61.7167 70.0648C61.9388 70.0648 62.1395 70.1147 62.3189 70.2145C62.4999 70.3142 62.6536 70.4688 62.7801 70.6783C62.908 70.8878 63.0066 71.1555 63.0757 71.4813C63.1448 71.8038 63.1794 72.1895 63.1794 72.6384C63.1794 73.064 63.1529 73.4431 63.1 73.7755C63.0485 74.1047 62.9816 74.3923 62.8992 74.6384C62.8183 74.8845 62.7271 75.0906 62.6257 75.2569C62.5257 75.4198 62.4278 75.5445 62.3322 75.6309C62.3454 75.8105 62.366 75.9801 62.3939 76.1397C62.4233 76.2959 62.4602 76.4339 62.5043 76.5536C62.5499 76.6733 62.6029 76.7681 62.6631 76.8379C62.7235 76.9077 62.7911 76.9426 62.8661 76.9426C62.922 76.9426 62.9728 76.9227 63.0184 76.8828C63.0654 76.8429 63.1058 76.7648 63.1397 76.6484C63.1602 76.5819 63.1852 76.5237 63.2147 76.4738C63.2441 76.4206 63.2816 76.394 63.3272 76.394C63.4066 76.394 63.4684 76.4439 63.5126 76.5436C63.5566 76.6434 63.5787 76.7697 63.5787 76.9227C63.5787 77.0657 63.5604 77.202 63.5235 77.3317C63.4883 77.4613 63.4376 77.5761 63.3713 77.6758C63.3066 77.7722 63.2279 77.8487 63.1352 77.9052C63.0426 77.9651 62.9396 77.995 62.8264 77.995C62.722 77.995 62.6271 77.9601 62.5418 77.8903C62.458 77.8238 62.3822 77.734 62.3145 77.621C62.2483 77.5046 62.1895 77.3732 62.1381 77.2269C62.0866 77.0773 62.0424 76.9227 62.0056 76.7631C61.9689 76.6002 61.9388 76.4389 61.9152 76.2793C61.8917 76.1197 61.8733 75.9701 61.8601 75.8304C61.8424 75.8304 61.8189 75.8304 61.7895 75.8304C61.76 75.8304 61.7299 75.8304 61.699 75.8304C61.6681 75.8304 61.6372 75.8304 61.6063 75.8304C61.5769 75.8271 61.5527 75.8254 61.5335 75.8254C61.4909 75.8221 61.4379 75.8204 61.3747 75.8204C61.3129 75.8171 61.2563 75.8155 61.2048 75.8155V76.5436C61.2077 76.6999 61.2165 76.8529 61.2313 77.0025C61.246 77.1488 61.2534 77.3001 61.2534 77.4564C61.2534 77.5528 61.2446 77.6343 61.2269 77.7007C61.2107 77.7672 61.1893 77.8221 61.1629 77.8653C61.1364 77.9119 61.1077 77.9451 61.0769 77.9651C61.0459 77.985 61.0165 77.995 60.9886 77.995C60.9444 77.995 60.9041 77.9767 60.8672 77.9401C60.8305 77.9069 60.7988 77.8603 60.7724 77.8005C60.7459 77.7373 60.7245 77.6642 60.7084 77.581C60.6937 77.4946 60.6864 77.3998 60.6864 77.2967ZM61.2026 74.7431C61.2408 74.7465 61.2857 74.7498 61.3372 74.7531C61.3886 74.7564 61.4379 74.7598 61.485 74.7631C61.532 74.7664 61.574 74.7697 61.6107 74.7731C61.6475 74.7731 61.6711 74.7731 61.6813 74.7731C61.8799 74.7731 62.0424 74.7116 62.1689 74.5885C62.2969 74.4655 62.3969 74.3026 62.469 74.0998C62.541 73.8969 62.5903 73.6642 62.6168 73.4015C62.6447 73.1388 62.6587 72.8695 62.6587 72.5935C62.6587 72.3508 62.6418 72.1463 62.608 71.9801C62.5742 71.8105 62.5293 71.6708 62.4733 71.5611C62.4175 71.4514 62.3543 71.3649 62.2837 71.3017C62.2131 71.2386 62.141 71.192 62.0675 71.1621C61.9954 71.1322 61.924 71.1139 61.8534 71.1072C61.7843 71.1006 61.7233 71.0973 61.6703 71.0973C61.5953 71.0973 61.5189 71.1006 61.4408 71.1072C61.3644 71.1106 61.2813 71.1139 61.1915 71.1172C61.1886 71.2436 61.1864 71.3583 61.1849 71.4613C61.1849 71.5644 61.1842 71.6658 61.1827 71.7656C61.1827 71.862 61.1827 71.9618 61.1827 72.0648C61.1827 72.1646 61.1827 72.2776 61.1827 72.404C61.1827 72.6301 61.1827 72.8412 61.1827 73.0374C61.1842 73.2303 61.1857 73.4198 61.1871 73.606C61.1886 73.7889 61.1901 73.9734 61.1915 74.1596C61.1945 74.3458 61.1982 74.5403 61.2026 74.7431ZM62.2373 75.7007C62.2373 75.7007 62.2351 75.7024 62.2351 75.7057L62.2373 75.7007ZM65.4747 71.2668C65.3718 71.2668 65.2652 71.2685 65.1548 71.2718C65.0445 71.2751 64.9239 71.2768 64.7931 71.2768C64.7577 71.2768 64.7268 71.2585 64.7004 71.2219C64.6739 71.1854 64.6518 71.1388 64.6341 71.0823C64.6166 71.0224 64.6033 70.9559 64.5945 70.8828C64.5856 70.8096 64.5812 70.7365 64.5812 70.6633C64.5812 70.4672 64.6055 70.3325 64.654 70.2594C64.7026 70.1829 64.7812 70.1446 64.8901 70.1446H66.6506C66.68 70.1446 66.7103 70.153 66.7411 70.1696C66.7735 70.1862 66.8021 70.2161 66.8271 70.2594C66.8536 70.3026 66.8749 70.3591 66.8912 70.4289C66.9088 70.4988 66.9176 70.5885 66.9176 70.6983C66.9176 70.7781 66.9118 70.8545 66.8999 70.9277C66.8882 71.0008 66.872 71.064 66.8514 71.1172C66.8324 71.1704 66.8088 71.2136 66.7808 71.2469C66.7543 71.2801 66.7257 71.2968 66.6948 71.2968C66.6713 71.2968 66.6485 71.2918 66.6264 71.2818C66.6043 71.2718 66.5808 71.2668 66.5558 71.2668H65.9866L65.98 76.8928C65.98 76.9726 65.9822 77.0507 65.9866 77.1272C65.9924 77.2037 65.9955 77.2868 65.9955 77.3766C65.9955 77.4497 65.9924 77.5228 65.9866 77.596C65.9807 77.6692 65.9682 77.7357 65.9491 77.7955C65.93 77.8554 65.9028 77.9036 65.8674 77.9401C65.8322 77.98 65.7858 78 65.7285 78C65.6608 78 65.6093 77.9734 65.574 77.9202C65.5387 77.8703 65.513 77.8055 65.4968 77.7257C65.4821 77.6459 65.474 77.5578 65.4725 77.4613C65.471 77.3649 65.4703 77.2718 65.4703 77.182L65.4747 71.2668ZM67.8716 77.4663C67.8716 77.3599 67.8782 77.2535 67.8915 77.1471C67.9047 77.0374 67.9289 76.9277 67.9643 76.818C67.9893 76.7215 68.0231 76.5752 68.0658 76.3791C68.1099 76.1829 68.1591 75.9518 68.2136 75.6858C68.268 75.4198 68.3261 75.1305 68.3879 74.8179C68.4511 74.5021 68.5151 74.1812 68.5798 73.8554C68.6445 73.5262 68.7085 73.1987 68.7717 72.8728C68.8365 72.5436 68.8975 72.2361 68.9549 71.9501C69.0122 71.6608 69.0644 71.3998 69.1115 71.1671C69.1586 70.9343 69.1983 70.7465 69.2306 70.6035C69.235 70.5303 69.2439 70.4589 69.2571 70.389C69.2704 70.3159 69.288 70.251 69.31 70.1945C69.3321 70.1347 69.3586 70.0881 69.3895 70.0549C69.4204 70.0183 69.4564 70 69.4976 70C69.5505 70 69.5932 70.0166 69.6255 70.0499C69.6593 70.0831 69.6866 70.1297 69.7071 70.1895C69.7292 70.2461 69.7469 70.3126 69.7602 70.389C69.7734 70.4655 69.7866 70.547 69.7998 70.6334C69.8116 70.7099 69.8226 70.783 69.833 70.8529C69.8432 70.9194 69.8528 70.9709 69.8616 71.0075C69.9602 71.453 70.0558 71.9019 70.1484 72.3541C70.2425 72.8063 70.3352 73.2668 70.4264 73.7357C70.519 74.2012 70.6125 74.6733 70.7066 75.1521C70.8008 75.6309 70.8986 76.118 71 76.6135L71.042 76.7531C71.0537 76.7897 71.0677 76.8346 71.0838 76.8878C71.1 76.9377 71.1148 76.9925 71.128 77.0524C71.1427 77.1122 71.1544 77.1754 71.1633 77.2419C71.1736 77.3084 71.1787 77.3749 71.1787 77.4414C71.1787 77.6409 71.1537 77.7822 71.1037 77.8653C71.0537 77.9518 70.9927 77.995 70.9206 77.995C70.8809 77.995 70.8442 77.98 70.8103 77.9501C70.7779 77.9235 70.7493 77.8869 70.7243 77.8404C70.6993 77.7905 70.6794 77.734 70.6647 77.6708C70.65 77.6043 70.6404 77.5345 70.636 77.4613C70.5949 77.2585 70.5566 77.069 70.5213 76.8928C70.486 76.7132 70.4515 76.5403 70.4176 76.3741C70.3852 76.2078 70.3536 76.0465 70.3227 75.8903C70.2918 75.7307 70.261 75.5711 70.2301 75.4115C70.2066 75.4115 70.1734 75.4115 70.1308 75.4115C70.0881 75.4081 70.0403 75.4032 69.9874 75.3965C69.9035 75.3965 69.8182 75.3948 69.7314 75.3915C69.6461 75.3882 69.5586 75.3865 69.4689 75.3865C69.3792 75.3832 69.2865 75.3832 69.1909 75.3865C69.0954 75.3865 68.9953 75.3915 68.8909 75.4015C68.8747 75.4048 68.8593 75.4081 68.8445 75.4115C68.8299 75.4115 68.8144 75.4115 68.7982 75.4115C68.7571 75.6376 68.718 75.8537 68.6813 76.0598C68.6445 76.2627 68.6114 76.4505 68.582 76.6234C68.5526 76.7963 68.5261 76.951 68.5025 77.0873C68.4806 77.2203 68.4636 77.3283 68.4518 77.4115V77.4065C68.443 77.4796 68.4328 77.5511 68.4209 77.621C68.4107 77.6908 68.3952 77.7539 68.3746 77.8105C68.354 77.8637 68.3253 77.9069 68.2886 77.9401C68.2532 77.9767 68.2062 77.995 68.1474 77.995C68.068 77.995 68.0018 77.9501 67.9488 77.8603C67.8973 77.7706 67.8716 77.6392 67.8716 77.4663ZM68.999 74.3242C69.0299 74.3242 69.0696 74.3242 69.1181 74.3242C69.1682 74.3242 69.2321 74.3259 69.31 74.3292C69.3895 74.3292 69.4866 74.3308 69.6013 74.3342C69.716 74.3342 69.855 74.3358 70.0183 74.3391C69.9506 74.0066 69.8741 73.6326 69.7888 73.217C69.7035 72.798 69.6027 72.3109 69.4865 71.7556C69.4527 71.9252 69.4167 72.1114 69.3784 72.3142C69.3403 72.517 69.2998 72.7282 69.2571 72.9476C69.2159 73.1671 69.1733 73.3932 69.1292 73.6259C69.0865 73.8587 69.0431 74.0914 68.999 74.3242ZM72.6468 77.4514C72.6468 77.2818 72.6519 77.1155 72.6623 76.9526C72.674 76.7864 72.6798 76.6101 72.6798 76.4239C72.6798 75.5761 72.6762 74.7232 72.6689 73.8653C72.663 73.0075 72.66 72.1263 72.66 71.2219C72.66 71.1288 72.6556 71.0357 72.6468 70.9426C72.638 70.8462 72.6335 70.7431 72.6335 70.6334C72.6335 70.547 72.6387 70.4655 72.649 70.389C72.6592 70.3126 72.6769 70.2461 72.7019 70.1895C72.7269 70.1297 72.7615 70.0831 72.8056 70.0499C72.8497 70.0166 72.9049 70 72.9711 70C73.0373 70 73.0895 70.0565 73.1277 70.1696C73.166 70.2826 73.1851 70.4339 73.1851 70.6234C73.1851 70.68 73.1829 70.7365 73.1785 70.793C73.174 70.8462 73.1696 70.9027 73.1652 70.9626C73.1623 71.2485 73.1601 71.5561 73.1586 71.8853C73.1572 72.2145 73.1565 72.5919 73.1565 73.0175C73.1565 73.3965 73.1572 73.7839 73.1586 74.1795C73.1601 74.5752 73.1623 74.9559 73.1652 75.3217C73.1682 75.6874 73.1718 76.0299 73.1762 76.3491C73.1822 76.665 73.1888 76.9377 73.1961 77.1671V77.1621C73.199 77.212 73.2012 77.2602 73.2028 77.3067C73.2057 77.35 73.2072 77.3949 73.2072 77.4414C73.2072 77.5212 73.2027 77.596 73.1939 77.6658C73.1866 77.7323 73.1733 77.7905 73.1543 77.8404C73.1351 77.8903 73.1086 77.9285 73.0748 77.9551C73.041 77.9817 72.999 77.995 72.949 77.995C72.8902 77.995 72.8409 77.9834 72.8012 77.9601C72.763 77.9368 72.732 77.9019 72.7085 77.8554C72.6865 77.8088 72.6703 77.7523 72.66 77.6858C72.6512 77.616 72.6468 77.5378 72.6468 77.4514ZM75.0348 77.5312C75.0348 77.3915 75.0392 77.2735 75.0481 77.1771C75.0569 77.0806 75.062 77.0357 75.0635 77.0424C75.0664 76.68 75.0686 76.3125 75.0701 75.9402C75.0731 75.5677 75.0746 75.1737 75.0746 74.7581C75.0746 74.4954 75.0746 74.2111 75.0746 73.9052C75.0746 73.596 75.0731 73.2851 75.0701 72.9726C75.0686 72.6567 75.0657 72.3475 75.0613 72.0449C75.0569 71.739 75.051 71.4564 75.0436 71.197C75.0377 71.1205 75.0333 71.0524 75.0304 70.9925C75.0275 70.9293 75.026 70.8628 75.026 70.793C75.026 70.6301 75.0414 70.5021 75.0724 70.409C75.1032 70.3126 75.1532 70.2461 75.2224 70.2095C75.2518 70.153 75.2841 70.1147 75.3194 70.0948C75.3562 70.0715 75.3914 70.0598 75.4253 70.0598C75.4606 70.0598 75.4923 70.0831 75.5202 70.1297C75.5496 70.1762 75.5753 70.2311 75.5974 70.2943C75.6195 70.3574 75.6378 70.4239 75.6525 70.4938C75.6673 70.5603 75.6775 70.6151 75.6834 70.6584C75.729 70.8113 75.7834 70.9859 75.8467 71.1821C75.9114 71.3782 75.9812 71.5894 76.0562 71.8155C76.1328 72.0382 76.2137 72.2726 76.2989 72.5187C76.3843 72.7614 76.4703 73.0075 76.5571 73.2569C76.6453 73.5062 76.7329 73.7556 76.8196 74.005C76.9064 74.251 76.9887 74.4888 77.0668 74.7182C77.1447 74.9476 77.2175 75.1654 77.2851 75.3716C77.3528 75.5744 77.411 75.7573 77.4595 75.9202C77.4595 75.2086 77.4579 74.5968 77.455 74.0848C77.4535 73.5694 77.4513 73.1322 77.4484 72.7731C77.4455 72.4106 77.4418 72.113 77.4374 71.8803C77.4329 71.6475 77.4293 71.4547 77.4263 71.3017C77.4234 71.1488 77.4205 71.0241 77.4175 70.9277C77.4161 70.8279 77.4154 70.7332 77.4154 70.6434C77.4154 70.5104 77.4212 70.4023 77.4329 70.3192C77.4462 70.2328 77.4639 70.1663 77.486 70.1197C77.5095 70.0731 77.5382 70.0416 77.572 70.0249C77.6057 70.0083 77.6448 70 77.6889 70C77.7462 70 77.7911 70.0266 77.8234 70.0798C77.8559 70.133 77.8801 70.2012 77.8963 70.2843C77.9139 70.3641 77.9242 70.4555 77.9271 70.5586C77.9316 70.6584 77.9338 70.7564 77.9338 70.8529V76.5736C77.9338 76.6933 77.9367 76.8146 77.9426 76.9377C77.9485 77.0573 77.9514 77.1854 77.9514 77.3217C77.9514 77.4514 77.947 77.5594 77.9382 77.6459C77.9294 77.729 77.9147 77.7972 77.8941 77.8504C77.8749 77.9036 77.8492 77.9401 77.8169 77.9601C77.786 77.9834 77.7484 77.995 77.7043 77.995C77.622 77.995 77.5557 77.9485 77.5057 77.8554C77.4572 77.7623 77.4227 77.6492 77.4021 77.5162C77.2623 77.0839 77.1204 76.6583 76.9763 76.2394C76.8336 75.8171 76.6895 75.3965 76.5438 74.9776C76.3982 74.5553 76.2519 74.1313 76.1048 73.7057C75.9577 73.2768 75.8113 72.8412 75.6658 72.399L75.5334 71.9302C75.5348 72.4389 75.5363 72.8928 75.5378 73.2918C75.5392 73.6875 75.5408 74.0416 75.5423 74.3541C75.5437 74.6633 75.5452 74.9377 75.5467 75.1771C75.5481 75.4131 75.5489 75.6259 75.5489 75.8155C75.5503 76.0017 75.5511 76.1729 75.5511 76.3292C75.5525 76.4821 75.5533 76.6317 75.5533 76.7781C75.5547 76.8645 75.5569 76.9576 75.5599 77.0573C75.5643 77.1538 75.5665 77.2485 75.5665 77.3416C75.5665 77.4281 75.5628 77.5112 75.5555 77.591C75.5496 77.6708 75.537 77.7406 75.518 77.8005C75.4989 77.8603 75.4717 77.9069 75.4363 77.9401C75.4025 77.9767 75.3576 77.995 75.3018 77.995C75.2268 77.995 75.1635 77.9534 75.112 77.8703C75.0605 77.7872 75.0348 77.6741 75.0348 77.5312ZM79.2959 77.4564C79.2959 77.3965 79.2996 77.345 79.307 77.3017C79.3187 77.2319 79.3386 77.0906 79.3665 76.8778C79.3959 76.665 79.4313 76.4023 79.4724 76.0898C79.5151 75.7739 79.5621 75.4181 79.6136 75.0224C79.6665 74.6268 79.7217 74.2095 79.7791 73.7706C79.8379 73.3283 79.8975 72.8761 79.9578 72.414C80.0196 71.9518 80.0799 71.4963 80.1387 71.0474V71.0524C80.149 70.9593 80.16 70.8662 80.1718 70.7731C80.185 70.6766 80.1975 70.5885 80.2093 70.5087C80.2226 70.4289 80.235 70.3608 80.2468 70.3042C80.26 70.2444 80.2711 70.2045 80.2799 70.1845C80.3034 70.128 80.335 70.0831 80.3748 70.0499C80.4145 70.0166 80.4534 70 80.4917 70C80.5432 70 80.5859 70.0216 80.6197 70.0648C80.6534 70.1047 80.6821 70.1663 80.7057 70.2494C80.7307 70.3292 80.752 70.4289 80.7697 70.5486C80.7888 70.6683 80.8087 70.8047 80.8292 70.9576L81.383 74.9327L81.4139 75.1421C81.4933 74.5902 81.5602 74.0964 81.6146 73.6609C81.6706 73.2253 81.7184 72.8379 81.758 72.4987C81.7993 72.1563 81.8345 71.8554 81.8639 71.596C81.8949 71.3367 81.925 71.1039 81.9544 70.8978C81.9692 70.7947 81.9838 70.6899 81.9985 70.5835C82.0133 70.4771 82.0316 70.3807 82.0537 70.2943C82.0772 70.2078 82.1066 70.138 82.142 70.0848C82.1787 70.0283 82.2272 70 82.2876 70C82.3391 70 82.3839 70.0183 82.4221 70.0549C82.4604 70.0881 82.4905 70.1663 82.5126 70.2893C82.5229 70.3458 82.5332 70.404 82.5435 70.4638C82.5537 70.5237 82.5663 70.6002 82.581 70.6933C82.5971 70.783 82.6163 70.8978 82.6384 71.0374C82.6604 71.1771 82.6876 71.3549 82.72 71.5711C82.7524 71.7872 82.7906 72.0482 82.8347 72.3541C82.8789 72.66 82.9311 73.0274 82.9913 73.4564C83.0531 73.882 83.123 74.3774 83.201 74.9426C83.2804 75.5046 83.3701 76.148 83.4701 76.8728C83.4878 76.9792 83.5017 77.0706 83.512 77.1471C83.5238 77.2236 83.5311 77.2951 83.534 77.3616C83.537 77.448 83.5348 77.5295 83.5275 77.606C83.5216 77.6825 83.5098 77.7506 83.4922 77.8105C83.4745 77.867 83.4502 77.9119 83.4194 77.9451C83.3884 77.9784 83.3502 77.995 83.3046 77.995C83.2458 77.995 83.1973 77.9667 83.159 77.9102C83.1208 77.857 83.0891 77.7905 83.0641 77.7107C83.0406 77.6309 83.0223 77.5445 83.009 77.4514C82.9957 77.3583 82.9855 77.2718 82.9781 77.192C82.9502 76.9593 82.9185 76.7016 82.8833 76.4189C82.8479 76.133 82.8104 75.8337 82.7707 75.5212C82.731 75.2086 82.6898 74.8911 82.6471 74.5686C82.6046 74.2427 82.5619 73.9252 82.5192 73.616C82.4781 73.3034 82.4369 73.0075 82.3957 72.7282C82.356 72.4489 82.3185 72.1962 82.2832 71.9701C82.2272 72.3225 82.1765 72.68 82.1309 73.0424C82.0854 73.4015 82.0398 73.7639 81.9942 74.1297C81.95 74.4921 81.9037 74.8562 81.8551 75.2219C81.8081 75.5844 81.7551 75.9451 81.6963 76.3042C81.6845 76.3707 81.6757 76.4439 81.6699 76.5237C81.6654 76.6035 81.6632 76.67 81.6632 76.7232C81.6632 76.8163 81.6551 76.8928 81.6389 76.9526C81.6228 77.0125 81.6014 77.0607 81.575 77.0972C81.55 77.1305 81.5213 77.1554 81.4889 77.1721C81.4566 77.1854 81.4242 77.192 81.3918 77.192C81.3374 77.192 81.2933 77.1754 81.2595 77.1421C81.2271 77.1056 81.2007 77.0573 81.1801 76.9975C81.1609 76.9377 81.1462 76.8711 81.1359 76.798C81.1271 76.7215 81.1197 76.6434 81.1138 76.5636C81.1109 76.517 81.1073 76.4721 81.1029 76.4289C81.0998 76.3824 81.0954 76.3358 81.0896 76.2893C81.0646 76.0898 81.0366 75.8703 81.0058 75.6309C80.9763 75.3882 80.9447 75.1372 80.9109 74.8778C80.877 74.6151 80.8417 74.3508 80.8049 74.0848C80.7697 73.8155 80.7337 73.5544 80.6969 73.3017C80.6616 73.0457 80.6262 72.803 80.591 72.5736C80.5571 72.3441 80.5255 72.138 80.4961 71.9551C80.4593 72.1812 80.4211 72.4472 80.3814 72.7531C80.3432 73.0557 80.3034 73.3782 80.2622 73.7207C80.2226 74.0599 80.1821 74.409 80.1409 74.7681C80.1012 75.1272 80.0614 75.478 80.0218 75.8204C79.9835 76.1596 79.9461 76.4805 79.9092 76.783C79.8725 77.0856 79.8379 77.3483 79.8056 77.5711C79.7717 77.7007 79.7379 77.8038 79.7041 77.8803C79.6717 77.9568 79.6231 77.995 79.5585 77.995C79.5202 77.995 79.4849 77.98 79.4525 77.9501C79.4216 77.9235 79.3944 77.8853 79.3709 77.8354C79.3474 77.7855 79.329 77.729 79.3158 77.6658C79.3025 77.5993 79.2959 77.5295 79.2959 77.4564ZM84.883 77.2868C84.883 77.2303 84.8859 77.1704 84.8918 77.1072C84.8992 77.0441 84.9065 76.9859 84.9138 76.9327L84.9337 76.7731L84.883 70.808C84.883 70.6451 84.8911 70.5187 84.9072 70.4289C84.9249 70.3392 84.947 70.2727 84.9734 70.2294C84.9999 70.1862 85.03 70.1613 85.0639 70.1546C85.0992 70.148 85.1344 70.1446 85.1698 70.1446H86.3325C86.3589 70.138 86.3883 70.1297 86.4207 70.1197C86.4545 70.1064 86.4781 70.0997 86.4914 70.0997C86.5472 70.0997 86.5921 70.1114 86.6259 70.1347C86.6611 70.1579 86.6884 70.1929 86.7075 70.2394C86.7281 70.2826 86.7414 70.3375 86.7472 70.404C86.7546 70.4705 86.7582 70.5486 86.7582 70.6384C86.7582 70.7648 86.7509 70.8662 86.7363 70.9426C86.723 71.0191 86.7038 71.079 86.6788 71.1222C86.6553 71.1621 86.6274 71.1887 86.595 71.202C86.5626 71.2153 86.5281 71.2219 86.4914 71.2219C86.4751 71.2219 86.4538 71.2219 86.4273 71.2219C86.4009 71.2186 86.3729 71.2136 86.3435 71.207C86.2009 71.207 86.0854 71.207 85.9971 71.207C85.9103 71.207 85.8405 71.2086 85.7875 71.212C85.7361 71.212 85.6963 71.212 85.6684 71.212C85.6419 71.212 85.6184 71.212 85.5978 71.212H85.3926V72.793C85.4014 72.793 85.4118 72.7947 85.4235 72.798C85.4368 72.798 85.4565 72.798 85.4831 72.798C85.5096 72.798 85.5456 72.798 85.5912 72.798C85.6382 72.798 85.7007 72.798 85.7787 72.798C85.8567 72.798 85.953 72.798 86.0677 72.798C86.1824 72.798 86.3215 72.798 86.4847 72.798C86.5009 72.798 86.5193 72.7963 86.5399 72.793C86.5604 72.7897 86.581 72.7847 86.6016 72.7781C86.6281 72.7714 86.659 72.7647 86.6943 72.7581C86.7296 72.7514 86.7678 72.7481 86.8091 72.7481C86.8487 72.7481 86.8841 72.7664 86.9149 72.803C86.9458 72.8396 86.9715 72.8861 86.9921 72.9426C87.0142 72.9958 87.0303 73.054 87.0407 73.1172C87.0524 73.1804 87.0584 73.2402 87.0584 73.2968C87.0584 73.4763 87.0319 73.6076 86.9789 73.6908C86.9274 73.7739 86.8605 73.8155 86.7781 73.8155L85.3926 73.8204V76.808C85.5382 76.808 85.6846 76.813 85.8317 76.8229C85.9788 76.8329 86.1324 76.8379 86.2927 76.8379C86.3369 76.8379 86.3773 76.8329 86.4141 76.8229C86.4509 76.813 86.4861 76.8013 86.52 76.788C86.5509 76.7781 86.5817 76.7697 86.6127 76.7631C86.645 76.7531 86.6803 76.7481 86.7186 76.7481C86.7627 76.7481 86.8031 76.7564 86.8399 76.7731C86.8781 76.7864 86.9113 76.813 86.9392 76.8529C86.9671 76.8894 86.9892 76.941 87.0053 77.0075C87.0215 77.0706 87.0296 77.1521 87.0296 77.2519C87.0296 77.3982 87.0186 77.5112 86.9965 77.591C86.9745 77.6708 86.9443 77.7307 86.906 77.7706C86.8693 77.8072 86.8266 77.8304 86.7781 77.8404C86.731 77.8471 86.6818 77.8504 86.6303 77.8504H85.1455C85.1072 77.8504 85.072 77.8404 85.0397 77.8205C85.0087 77.8005 84.9815 77.7689 84.958 77.7257C84.9344 77.6791 84.916 77.621 84.9028 77.5511C84.8895 77.478 84.883 77.3899 84.883 77.2868ZM88.6013 77.5312C88.6013 77.3915 88.6057 77.2735 88.6146 77.1771C88.6234 77.0806 88.6285 77.0357 88.6301 77.0424C88.633 76.68 88.6352 76.3125 88.6367 75.9402C88.6396 75.5677 88.6411 75.1737 88.6411 74.7581C88.6411 74.4954 88.6411 74.2111 88.6411 73.9052C88.6411 73.596 88.6396 73.2851 88.6367 72.9726C88.6352 72.6567 88.6323 72.3475 88.6278 72.0449C88.6234 71.739 88.6175 71.4564 88.6102 71.197C88.6043 71.1205 88.5999 71.0524 88.5969 70.9925C88.594 70.9293 88.5925 70.8628 88.5925 70.793C88.5925 70.6301 88.608 70.5021 88.6389 70.409C88.6697 70.3126 88.7197 70.2461 88.7889 70.2095C88.8183 70.153 88.8506 70.1147 88.886 70.0948C88.9227 70.0715 88.958 70.0598 88.9918 70.0598C89.0272 70.0598 89.0588 70.0831 89.0867 70.1297C89.1161 70.1762 89.1419 70.2311 89.1639 70.2943C89.186 70.3574 89.2044 70.4239 89.2191 70.4938C89.2338 70.5603 89.2441 70.6151 89.25 70.6584C89.2956 70.8113 89.35 70.9859 89.4132 71.1821C89.478 71.3782 89.5478 71.5894 89.6229 71.8155C89.6993 72.0382 89.7802 72.2726 89.8656 72.5187C89.9508 72.7614 90.0369 73.0075 90.1236 73.2569C90.2119 73.5062 90.2994 73.7556 90.3862 74.005C90.4729 74.251 90.5554 74.4888 90.6333 74.7182C90.7112 74.9476 90.7841 75.1654 90.8517 75.3716C90.9194 75.5744 90.9775 75.7573 91.026 75.9202C91.026 75.2086 91.0246 74.5968 91.0216 74.0848C91.0202 73.5694 91.018 73.1322 91.0149 72.7731C91.012 72.4106 91.0083 72.113 91.0039 71.8803C90.9996 71.6475 90.9959 71.4547 90.9929 71.3017C90.9899 71.1488 90.987 71.0241 90.9841 70.9277C90.9826 70.8279 90.9819 70.7332 90.9819 70.6434C90.9819 70.5104 90.9877 70.4023 90.9996 70.3192C91.0127 70.2328 91.0304 70.1663 91.0525 70.1197C91.076 70.0731 91.1047 70.0416 91.1385 70.0249C91.1724 70.0083 91.2113 70 91.2554 70C91.3129 70 91.3576 70.0266 91.3901 70.0798C91.4224 70.133 91.4467 70.2012 91.4629 70.2843C91.4805 70.3641 91.4908 70.4555 91.4937 70.5586C91.4981 70.6584 91.5003 70.7564 91.5003 70.8529V76.5736C91.5003 76.6933 91.5033 76.8146 91.5092 76.9377C91.5151 77.0573 91.518 77.1854 91.518 77.3217C91.518 77.4514 91.5136 77.5594 91.5047 77.6459C91.4959 77.729 91.4812 77.7972 91.4607 77.8504C91.4415 77.9036 91.4158 77.9401 91.3834 77.9601C91.3525 77.9834 91.3151 77.995 91.2709 77.995C91.1885 77.995 91.1224 77.9485 91.0724 77.8554C91.0238 77.7623 90.9892 77.6492 90.9687 77.5162C90.8289 77.0839 90.687 76.6583 90.5428 76.2394C90.4001 75.8171 90.2561 75.3965 90.1105 74.9776C89.9648 74.5553 89.8185 74.1313 89.6714 73.7057C89.5243 73.2768 89.378 72.8412 89.2323 72.399L89.1 71.9302C89.1015 72.4389 89.1029 72.8928 89.1044 73.2918C89.1059 73.6875 89.1073 74.0416 89.1088 74.3541C89.1103 74.6633 89.1117 74.9377 89.1132 75.1771C89.1147 75.4131 89.1154 75.6259 89.1154 75.8155C89.1169 76.0017 89.1176 76.1729 89.1176 76.3292C89.119 76.4821 89.1198 76.6317 89.1198 76.7781C89.1212 76.8645 89.1235 76.9576 89.1265 77.0573C89.1309 77.1538 89.1331 77.2485 89.1331 77.3416C89.1331 77.4281 89.1294 77.5112 89.1221 77.591C89.1161 77.6708 89.1037 77.7406 89.0845 77.8005C89.0654 77.8603 89.0382 77.9069 89.0029 77.9401C88.969 77.9767 88.9242 77.995 88.8683 77.995C88.7933 77.995 88.7301 77.9534 88.6785 77.8703C88.6271 77.7872 88.6013 77.6741 88.6013 77.5312ZM93.7296 71.2668C93.6266 71.2668 93.5199 71.2685 93.4096 71.2718C93.2993 71.2751 93.1787 71.2768 93.0478 71.2768C93.0125 71.2768 92.9816 71.2585 92.9551 71.2219C92.9286 71.1854 92.9066 71.1388 92.889 71.0823C92.8713 71.0224 92.858 70.9559 92.8492 70.8828C92.8405 70.8096 92.836 70.7365 92.836 70.6633C92.836 70.4672 92.8602 70.3325 92.9088 70.2594C92.9573 70.1829 93.0361 70.1446 93.1449 70.1446H94.9055C94.9349 70.1446 94.965 70.153 94.9959 70.1696C95.0282 70.1862 95.057 70.2161 95.082 70.2594C95.1084 70.3026 95.1298 70.3591 95.1459 70.4289C95.1636 70.4988 95.1724 70.5885 95.1724 70.6983C95.1724 70.7781 95.1665 70.8545 95.1548 70.9277C95.143 71.0008 95.1269 71.064 95.1062 71.1172C95.0871 71.1704 95.0636 71.2136 95.0356 71.2469C95.0092 71.2801 94.9805 71.2968 94.9495 71.2968C94.926 71.2968 94.9032 71.2918 94.8812 71.2818C94.8592 71.2718 94.8356 71.2668 94.8106 71.2668H94.2414L94.2347 76.8928C94.2347 76.9726 94.2369 77.0507 94.2414 77.1272C94.2473 77.2037 94.2502 77.2868 94.2502 77.3766C94.2502 77.4497 94.2473 77.5228 94.2414 77.596C94.2355 77.6692 94.223 77.7357 94.2039 77.7955C94.1847 77.8554 94.1575 77.9036 94.1223 77.9401C94.0869 77.98 94.0406 78 93.9832 78C93.9156 78 93.8641 77.9734 93.8288 77.9202C93.7935 77.8703 93.7677 77.8055 93.7516 77.7257C93.7369 77.6459 93.7288 77.5578 93.7274 77.4613C93.7259 77.3649 93.7252 77.2718 93.7252 77.182L93.7296 71.2668ZM96.422 77.3616C96.422 77.2751 96.4249 77.1671 96.4309 77.0374C96.4382 76.9077 96.4521 76.783 96.4727 76.6633C96.4933 76.5436 96.5227 76.4406 96.561 76.3541C96.5992 76.2677 96.6499 76.2244 96.7132 76.2244C96.7765 76.2244 96.8251 76.256 96.8589 76.3192C96.8941 76.3824 96.9198 76.4572 96.9361 76.5436C96.9523 76.6268 96.9618 76.7115 96.9647 76.798C96.9691 76.8844 96.9713 76.9526 96.9713 77.0025V77.0324C96.9713 77.182 96.9669 77.315 96.9581 77.4314C96.9493 77.5478 96.9339 77.6459 96.9118 77.7257C96.8912 77.8055 96.8632 77.867 96.828 77.9102C96.7926 77.9534 96.7485 77.9751 96.6956 77.9751C96.6456 77.9751 96.603 77.9568 96.5676 77.9202C96.5338 77.8869 96.5059 77.8421 96.4838 77.7855C96.4617 77.729 96.4455 77.6642 96.4353 77.591C96.4264 77.5179 96.422 77.4414 96.422 77.3616ZM98.3776 74.0798C98.3776 73.601 98.4005 73.1687 98.446 72.783C98.493 72.394 98.5571 72.0482 98.6379 71.7456C98.7188 71.4431 98.8137 71.1821 98.9226 70.9626C99.0314 70.7431 99.1491 70.5619 99.2755 70.419C99.402 70.276 99.5337 70.1712 99.6704 70.1047C99.8087 70.0349 99.9462 70 100.083 70C100.208 70 100.331 70.0266 100.451 70.0798C100.572 70.1297 100.691 70.2012 100.809 70.2943C100.844 70.3242 100.879 70.3541 100.915 70.384C100.952 70.4106 100.984 70.4456 101.012 70.4888C101.041 70.532 101.065 70.5869 101.082 70.6534C101.1 70.7199 101.109 70.8047 101.109 70.9077C101.109 71.0274 101.1 71.1272 101.082 71.207C101.066 71.2834 101.045 71.345 101.018 71.3915C100.992 71.4381 100.963 71.4713 100.93 71.4913C100.899 71.5112 100.869 71.5212 100.84 71.5212C100.819 71.5212 100.797 71.5145 100.774 71.5012C100.75 71.4846 100.726 71.4647 100.701 71.4414C100.676 71.4181 100.652 71.3915 100.628 71.3616C100.604 71.3283 100.583 71.2968 100.564 71.2668C100.511 71.217 100.461 71.1804 100.414 71.1571C100.368 71.1305 100.324 71.1122 100.282 71.1022C100.239 71.0889 100.197 71.0823 100.156 71.0823C100.115 71.079 100.073 71.0773 100.032 71.0773C99.9396 71.0773 99.8469 71.1022 99.7543 71.1521C99.6617 71.1987 99.5719 71.2735 99.4852 71.3766C99.3998 71.4763 99.3197 71.6027 99.2447 71.7556C99.1697 71.9086 99.1042 72.0914 99.0483 72.3042C98.9939 72.5137 98.9505 72.7531 98.9182 73.0224C98.8872 73.2918 98.8718 73.5927 98.8718 73.9252C98.8718 74.4771 98.9064 74.9443 98.9755 75.3267C99.0461 75.7057 99.1372 76.0133 99.2491 76.2494C99.3624 76.4854 99.4896 76.6567 99.6308 76.7631C99.7719 76.8662 99.9146 76.9177 100.059 76.9177C100.125 76.9177 100.19 76.9094 100.253 76.8928C100.318 76.8728 100.377 76.8495 100.432 76.8229C100.488 76.793 100.537 76.7614 100.579 76.7282C100.622 76.6916 100.654 76.655 100.677 76.6185C100.721 76.532 100.76 76.4671 100.793 76.4239C100.827 76.3774 100.866 76.3541 100.91 76.3541C100.944 76.3541 100.976 76.3624 101.005 76.3791C101.036 76.3957 101.063 76.4256 101.085 76.4688C101.107 76.5087 101.124 76.5619 101.138 76.6284C101.151 76.6949 101.157 76.7781 101.157 76.8778C101.157 77.0175 101.136 77.1455 101.093 77.2618C101.052 77.3749 100.985 77.4813 100.893 77.581V77.5761C100.862 77.616 100.816 77.6608 100.756 77.7107C100.697 77.7606 100.63 77.8072 100.555 77.8504C100.482 77.8903 100.404 77.9235 100.321 77.9501C100.239 77.98 100.158 77.995 100.079 77.995C99.8977 77.995 99.7301 77.9468 99.5756 77.8504C99.4226 77.7506 99.2829 77.6143 99.1564 77.4414C99.0314 77.2652 98.9204 77.0557 98.8233 76.813C98.7262 76.5702 98.6445 76.3042 98.5784 76.015C98.5122 75.7257 98.4622 75.4181 98.4284 75.0923C98.3945 74.7631 98.3776 74.4256 98.3776 74.0798ZM102.546 73.995C102.546 73.4032 102.583 72.8628 102.656 72.3741C102.731 71.8853 102.837 71.4647 102.972 71.1122C103.109 70.7598 103.272 70.4871 103.464 70.2943C103.657 70.0981 103.87 70 104.104 70C104.351 70 104.569 70.0981 104.756 70.2943C104.946 70.4871 105.105 70.7598 105.233 71.1122C105.363 71.4647 105.46 71.8853 105.527 72.3741C105.593 72.8628 105.626 73.4032 105.626 73.995C105.626 74.5569 105.59 75.0823 105.518 75.5711C105.446 76.0565 105.343 76.4788 105.209 76.8379C105.075 77.197 104.913 77.4796 104.723 77.6858C104.534 77.8919 104.322 77.995 104.086 77.995C103.93 77.995 103.784 77.9485 103.647 77.8554C103.51 77.7623 103.385 77.6293 103.269 77.4564C103.156 77.2834 103.055 77.0773 102.965 76.8379C102.876 76.5952 102.799 76.3259 102.736 76.0299C102.674 75.734 102.627 75.4148 102.595 75.0723C102.562 74.7298 102.546 74.3707 102.546 73.995ZM103.05 73.995C103.05 74.2444 103.06 74.4921 103.08 74.7382C103.101 74.9809 103.131 75.2136 103.17 75.4364C103.211 75.6559 103.261 75.8603 103.321 76.0499C103.381 76.2361 103.449 76.399 103.525 76.5387C103.604 76.675 103.689 76.783 103.784 76.8628C103.879 76.9393 103.982 76.9776 104.093 76.9776C104.209 76.9776 104.315 76.9393 104.41 76.8628C104.505 76.783 104.592 76.675 104.668 76.5387C104.745 76.399 104.811 76.2361 104.867 76.0499C104.924 75.8603 104.971 75.6559 105.009 75.4364C105.047 75.2136 105.075 74.9809 105.092 74.7382C105.111 74.4921 105.121 74.2444 105.121 73.995C105.121 73.596 105.1 73.2186 105.059 72.8628C105.018 72.5037 104.954 72.1879 104.869 71.9152C104.786 71.6426 104.679 71.4264 104.55 71.2668C104.421 71.1072 104.27 71.0274 104.093 71.0274C103.926 71.0274 103.779 71.0989 103.649 71.2419C103.519 71.3849 103.41 71.586 103.321 71.8454C103.232 72.1047 103.165 72.4173 103.118 72.783C103.072 73.1455 103.05 73.5494 103.05 73.995ZM107.182 77.5312C107.182 77.3915 107.186 77.2735 107.195 77.1771C107.204 77.0806 107.209 77.0357 107.21 77.0424C107.213 76.68 107.216 76.3125 107.217 75.9402C107.221 75.5677 107.222 75.1737 107.222 74.7581C107.222 74.4954 107.222 74.2111 107.222 73.9052C107.222 73.596 107.221 73.2851 107.217 72.9726C107.216 72.6567 107.213 72.3475 107.208 72.0449C107.204 71.739 107.198 71.4564 107.191 71.197C107.185 71.1205 107.18 71.0524 107.177 70.9925C107.175 70.9293 107.173 70.8628 107.173 70.793C107.173 70.6301 107.188 70.5021 107.22 70.409C107.251 70.3126 107.301 70.2461 107.37 70.2095C107.399 70.153 107.431 70.1147 107.466 70.0948C107.504 70.0715 107.539 70.0598 107.573 70.0598C107.608 70.0598 107.639 70.0831 107.667 70.1297C107.697 70.1762 107.723 70.2311 107.745 70.2943C107.767 70.3574 107.785 70.4239 107.8 70.4938C107.815 70.5603 107.825 70.6151 107.831 70.6584C107.876 70.8113 107.93 70.9859 107.994 71.1821C108.059 71.3782 108.129 71.5894 108.203 71.8155C108.28 72.0382 108.361 72.2726 108.446 72.5187C108.532 72.7614 108.618 73.0075 108.705 73.2569C108.793 73.5062 108.88 73.7556 108.967 74.005C109.054 74.251 109.136 74.4888 109.215 74.7182C109.292 74.9476 109.365 75.1654 109.432 75.3716C109.5 75.5744 109.558 75.7573 109.607 75.9202C109.607 75.2086 109.605 74.5968 109.602 74.0848C109.601 73.5694 109.599 73.1322 109.596 72.7731C109.593 72.4106 109.589 72.113 109.585 71.8803C109.58 71.6475 109.577 71.4547 109.574 71.3017C109.571 71.1488 109.568 71.0241 109.565 70.9277C109.563 70.8279 109.563 70.7332 109.563 70.6434C109.563 70.5104 109.569 70.4023 109.58 70.3192C109.594 70.2328 109.611 70.1663 109.633 70.1197C109.656 70.0731 109.686 70.0416 109.72 70.0249C109.753 70.0083 109.792 70 109.836 70C109.893 70 109.939 70.0266 109.971 70.0798C110.003 70.133 110.028 70.2012 110.044 70.2843C110.061 70.3641 110.072 70.4555 110.075 70.5586C110.079 70.6584 110.081 70.7564 110.081 70.8529V76.5736C110.081 76.6933 110.084 76.8146 110.09 76.9377C110.096 77.0573 110.099 77.1854 110.099 77.3217C110.099 77.4514 110.094 77.5594 110.085 77.6459C110.077 77.729 110.062 77.7972 110.042 77.8504C110.023 77.9036 109.997 77.9401 109.965 77.9601C109.934 77.9834 109.896 77.995 109.852 77.995C109.77 77.995 109.704 77.9485 109.653 77.8554C109.604 77.7623 109.57 77.6492 109.55 77.5162C109.409 77.0839 109.268 76.6583 109.123 76.2394C108.981 75.8171 108.837 75.3965 108.691 74.9776C108.546 74.5553 108.399 74.1313 108.253 73.7057C108.105 73.2768 107.959 72.8412 107.813 72.399L107.68 71.9302C107.682 72.4389 107.683 72.8928 107.685 73.2918C107.686 73.6875 107.688 74.0416 107.689 74.3541C107.691 74.6633 107.692 74.9377 107.694 75.1771C107.695 75.4131 107.696 75.6259 107.696 75.8155C107.697 76.0017 107.698 76.1729 107.698 76.3292C107.7 76.4821 107.7 76.6317 107.7 76.7781C107.702 76.8645 107.704 76.9576 107.707 77.0573C107.712 77.1538 107.714 77.2485 107.714 77.3416C107.714 77.4281 107.71 77.5112 107.702 77.591C107.697 77.6708 107.684 77.7406 107.665 77.8005C107.646 77.8603 107.619 77.9069 107.584 77.9401C107.55 77.9767 107.505 77.995 107.449 77.995C107.374 77.995 107.311 77.9534 107.26 77.8703C107.208 77.7872 107.182 77.6741 107.182 77.5312ZM111.569 74.0798C111.569 73.601 111.592 73.1687 111.637 72.783C111.685 72.394 111.749 72.0482 111.829 71.7456C111.911 71.4431 112.005 71.1821 112.114 70.9626C112.223 70.7431 112.34 70.5619 112.467 70.419C112.593 70.276 112.725 70.1712 112.862 70.1047C113 70.0349 113.138 70 113.274 70C113.4 70 113.522 70.0266 113.643 70.0798C113.763 70.1297 113.883 70.2012 114 70.2943C114.035 70.3242 114.071 70.3541 114.106 70.384C114.143 70.4106 114.176 70.4456 114.203 70.4888C114.233 70.532 114.256 70.5869 114.274 70.6534C114.291 70.7199 114.3 70.8047 114.3 70.9077C114.3 71.0274 114.291 71.1272 114.274 71.207C114.258 71.2834 114.236 71.345 114.21 71.3915C114.184 71.4381 114.154 71.4713 114.122 71.4913C114.09 71.5112 114.06 71.5212 114.031 71.5212C114.011 71.5212 113.989 71.5145 113.965 71.5012C113.942 71.4846 113.918 71.4647 113.893 71.4414C113.868 71.4181 113.843 71.3915 113.819 71.3616C113.796 71.3283 113.774 71.2968 113.755 71.2668C113.703 71.217 113.653 71.1804 113.605 71.1571C113.56 71.1305 113.516 71.1122 113.473 71.1022C113.431 71.0889 113.389 71.0823 113.347 71.0823C113.306 71.079 113.265 71.0773 113.224 71.0773C113.132 71.0773 113.038 71.1022 112.946 71.1521C112.853 71.1987 112.763 71.2735 112.677 71.3766C112.591 71.4763 112.511 71.6027 112.436 71.7556C112.361 71.9086 112.296 72.0914 112.24 72.3042C112.186 72.5137 112.141 72.7531 112.109 73.0224C112.079 73.2918 112.063 73.5927 112.063 73.9252C112.063 74.4771 112.098 74.9443 112.167 75.3267C112.238 75.7057 112.329 76.0133 112.441 76.2494C112.554 76.4854 112.681 76.6567 112.822 76.7631C112.964 76.8662 113.106 76.9177 113.25 76.9177C113.316 76.9177 113.382 76.9094 113.445 76.8928C113.509 76.8728 113.568 76.8495 113.624 76.8229C113.679 76.793 113.728 76.7614 113.771 76.7282C113.813 76.6916 113.846 76.655 113.868 76.6185C113.912 76.532 113.951 76.4671 113.985 76.4239C114.019 76.3774 114.057 76.3541 114.101 76.3541C114.136 76.3541 114.168 76.3624 114.197 76.3791C114.228 76.3957 114.254 76.4256 114.276 76.4688C114.298 76.5087 114.316 76.5619 114.329 76.6284C114.342 76.6949 114.348 76.7781 114.348 76.8778C114.348 77.0175 114.327 77.1455 114.285 77.2618C114.244 77.3749 114.177 77.4813 114.084 77.581V77.5761C114.053 77.616 114.008 77.6608 113.948 77.7107C113.889 77.7606 113.821 77.8072 113.747 77.8504C113.673 77.8903 113.595 77.9235 113.513 77.9501C113.431 77.98 113.349 77.995 113.27 77.995C113.089 77.995 112.922 77.9468 112.767 77.8504C112.614 77.7506 112.475 77.6143 112.348 77.4414C112.223 77.2652 112.111 77.0557 112.015 76.813C111.918 76.5702 111.836 76.3042 111.77 76.015C111.704 75.7257 111.654 75.4181 111.619 75.0923C111.586 74.7631 111.569 74.4256 111.569 74.0798ZM115.857 77.2868C115.857 77.2303 115.86 77.1704 115.866 77.1072C115.873 77.0441 115.881 76.9859 115.888 76.9327L115.908 76.7731L115.857 70.808C115.857 70.6451 115.865 70.5187 115.881 70.4289C115.899 70.3392 115.921 70.2727 115.947 70.2294C115.974 70.1862 116.004 70.1613 116.037 70.1546C116.072 70.148 116.109 70.1446 116.144 70.1446H117.306C117.333 70.138 117.362 70.1297 117.395 70.1197C117.428 70.1064 117.452 70.0997 117.465 70.0997C117.521 70.0997 117.566 70.1114 117.6 70.1347C117.635 70.1579 117.662 70.1929 117.681 70.2394C117.702 70.2826 117.715 70.3375 117.721 70.404C117.728 70.4705 117.732 70.5486 117.732 70.6384C117.732 70.7648 117.724 70.8662 117.71 70.9426C117.697 71.0191 117.678 71.079 117.653 71.1222C117.629 71.1621 117.601 71.1887 117.569 71.202C117.536 71.2153 117.502 71.2219 117.465 71.2219C117.449 71.2219 117.428 71.2219 117.401 71.2219C117.375 71.2186 117.347 71.2136 117.318 71.207C117.175 71.207 117.059 71.207 116.971 71.207C116.884 71.207 116.814 71.2086 116.761 71.212C116.71 71.212 116.67 71.212 116.642 71.212C116.616 71.212 116.593 71.212 116.572 71.212H116.367V72.793C116.375 72.793 116.386 72.7947 116.397 72.798C116.411 72.798 116.43 72.798 116.457 72.798C116.483 72.798 116.519 72.798 116.564 72.798C116.612 72.798 116.675 72.798 116.752 72.798C116.831 72.798 116.927 72.798 117.041 72.798C117.156 72.798 117.295 72.798 117.458 72.798C117.474 72.798 117.493 72.7963 117.513 72.793C117.534 72.7897 117.554 72.7847 117.576 72.7781C117.602 72.7714 117.633 72.7647 117.668 72.7581C117.703 72.7514 117.741 72.7481 117.782 72.7481C117.823 72.7481 117.858 72.7664 117.889 72.803C117.92 72.8396 117.945 72.8861 117.966 72.9426C117.988 72.9958 118.004 73.054 118.014 73.1172C118.026 73.1804 118.032 73.2402 118.032 73.2968C118.032 73.4763 118.005 73.6076 117.953 73.6908C117.901 73.7739 117.835 73.8155 117.752 73.8155L116.367 73.8204V76.808C116.512 76.808 116.658 76.813 116.805 76.8229C116.952 76.8329 117.106 76.8379 117.266 76.8379C117.311 76.8379 117.351 76.8329 117.388 76.8229C117.425 76.813 117.46 76.8013 117.493 76.788C117.524 76.7781 117.556 76.7697 117.587 76.7631C117.619 76.7531 117.654 76.7481 117.692 76.7481C117.736 76.7481 117.776 76.7564 117.814 76.7731C117.852 76.7864 117.885 76.813 117.913 76.8529C117.941 76.8894 117.963 76.941 117.979 77.0075C117.995 77.0706 118.003 77.1521 118.003 77.2519C118.003 77.3982 117.992 77.5112 117.97 77.591C117.948 77.6708 117.918 77.7307 117.88 77.7706C117.843 77.8072 117.8 77.8304 117.752 77.8404C117.705 77.8471 117.656 77.8504 117.604 77.8504H116.12C116.081 77.8504 116.045 77.8404 116.013 77.8205C115.982 77.8005 115.955 77.7689 115.932 77.7257C115.908 77.6791 115.89 77.621 115.877 77.5511C115.864 77.478 115.857 77.3899 115.857 77.2868ZM119.584 77.4364C119.584 77.33 119.587 77.2236 119.593 77.1172C119.6 77.0075 119.605 76.8944 119.606 76.7781L119.597 71.0424C119.589 70.9958 119.581 70.931 119.573 70.8479C119.567 70.7648 119.564 70.6866 119.564 70.6135C119.564 70.547 119.57 70.4805 119.58 70.414C119.59 70.3475 119.605 70.2893 119.624 70.2394C119.644 70.1862 119.669 70.1446 119.698 70.1147C119.728 70.0815 119.761 70.0648 119.8 70.0648C119.865 70.0648 119.929 70.0731 119.994 70.0898C120.059 70.1031 120.127 70.1097 120.197 70.1097C120.253 70.1097 120.309 70.1031 120.365 70.0898C120.422 70.0731 120.482 70.0648 120.546 70.0648C120.753 70.0648 120.946 70.1297 121.126 70.2594C121.306 70.389 121.46 70.5802 121.592 70.8329C121.722 71.0823 121.826 71.3899 121.9 71.7556C121.975 72.1214 122.013 72.5386 122.013 73.0075C122.013 73.453 121.988 73.8421 121.938 74.1746C121.888 74.5037 121.82 74.7864 121.732 75.0224C121.647 75.2585 121.547 75.453 121.43 75.606C121.316 75.7556 121.191 75.8736 121.058 75.9601C120.925 76.0465 120.788 76.1064 120.645 76.1397C120.502 76.1729 120.361 76.1895 120.221 76.1895C120.207 76.1895 120.194 76.1912 120.184 76.1945C120.174 76.1945 120.164 76.1945 120.155 76.1945C120.146 76.1945 120.137 76.1945 120.127 76.1945C120.118 76.1912 120.107 76.1895 120.094 76.1895C120.094 76.3059 120.094 76.399 120.094 76.4688C120.094 76.5353 120.094 76.5902 120.094 76.6334C120.095 76.6766 120.096 76.7132 120.096 76.7431C120.096 76.7731 120.096 76.808 120.096 76.8479C120.096 76.9543 120.1 77.0607 120.109 77.1671C120.119 77.2735 120.124 77.3865 120.124 77.5062C120.124 77.596 120.116 77.6725 120.098 77.7356C120.081 77.7955 120.059 77.8437 120.032 77.8803C120.005 77.9202 119.976 77.9485 119.946 77.9651C119.915 77.985 119.886 77.995 119.86 77.995C119.825 77.995 119.79 77.9817 119.756 77.9551C119.722 77.9318 119.693 77.8969 119.668 77.8504C119.643 77.8005 119.622 77.7423 119.606 77.6758C119.591 77.606 119.584 77.5262 119.584 77.4364ZM120.096 75.1072C120.125 75.1106 120.155 75.1139 120.186 75.1172C120.218 75.1205 120.248 75.1239 120.277 75.1272C120.305 75.1305 120.33 75.1338 120.352 75.1372C120.374 75.1372 120.391 75.1372 120.402 75.1372C120.566 75.1372 120.706 75.1072 120.824 75.0474C120.943 74.9875 121.043 74.9061 121.124 74.803C121.204 74.6999 121.271 74.5802 121.32 74.4439C121.37 74.3042 121.408 74.1546 121.435 73.995C121.461 73.8321 121.479 73.6642 121.487 73.4913C121.497 73.315 121.502 73.1405 121.502 72.9676C121.502 72.6916 121.483 72.4539 121.448 72.2544C121.414 72.0515 121.369 71.882 121.314 71.7456C121.258 71.6093 121.193 71.4996 121.122 71.4165C121.051 71.3333 120.978 71.2701 120.903 71.2269C120.83 71.1804 120.758 71.1505 120.687 71.1372C120.616 71.1205 120.555 71.1122 120.501 71.1122C120.434 71.1122 120.366 71.1155 120.297 71.1222C120.229 71.1255 120.156 71.1288 120.078 71.1322C120.081 71.5678 120.083 71.9518 120.085 72.2843C120.086 72.6135 120.087 72.9061 120.087 73.1621C120.089 73.4148 120.089 73.6359 120.089 73.8254C120.091 74.015 120.092 74.1845 120.092 74.3342C120.093 74.4838 120.094 74.6201 120.094 74.7431C120.095 74.8662 120.096 74.9875 120.096 75.1072ZM124.015 71.2668C123.912 71.2668 123.805 71.2685 123.695 71.2718C123.585 71.2751 123.465 71.2768 123.333 71.2768C123.298 71.2768 123.267 71.2585 123.241 71.2219C123.215 71.1854 123.192 71.1388 123.174 71.0823C123.156 71.0224 123.143 70.9559 123.134 70.8828C123.126 70.8096 123.121 70.7365 123.121 70.6633C123.121 70.4672 123.145 70.3325 123.194 70.2594C123.243 70.1829 123.321 70.1446 123.43 70.1446H125.191C125.221 70.1446 125.251 70.153 125.281 70.1696C125.314 70.1862 125.342 70.2161 125.367 70.2594C125.393 70.3026 125.415 70.3591 125.432 70.4289C125.449 70.4988 125.458 70.5885 125.458 70.6983C125.458 70.7781 125.452 70.8545 125.441 70.9277C125.428 71.0008 125.412 71.064 125.391 71.1172C125.372 71.1704 125.349 71.2136 125.321 71.2469C125.295 71.2801 125.266 71.2968 125.235 71.2968C125.212 71.2968 125.189 71.2918 125.166 71.2818C125.144 71.2718 125.121 71.2668 125.096 71.2668H124.527L124.52 76.8928C124.52 76.9726 124.523 77.0507 124.527 77.1272C124.533 77.2037 124.536 77.2868 124.536 77.3766C124.536 77.4497 124.533 77.5228 124.527 77.596C124.521 77.6692 124.509 77.7357 124.49 77.7955C124.471 77.8554 124.442 77.9036 124.407 77.9401C124.372 77.98 124.326 78 124.269 78C124.201 78 124.149 77.9734 124.114 77.9202C124.079 77.8703 124.053 77.8055 124.037 77.7257C124.022 77.6459 124.014 77.5578 124.013 77.4613C124.011 77.3649 124.011 77.2718 124.011 77.182L124.015 71.2668ZM126.675 76.0598C126.682 75.7905 126.706 75.586 126.747 75.4464C126.79 75.3034 126.864 75.2319 126.97 75.2319C127.036 75.2319 127.092 75.2751 127.139 75.3616C127.187 75.4447 127.211 75.5611 127.211 75.7107C127.211 75.7972 127.207 75.8836 127.2 75.9701C127.192 76.0565 127.19 76.1463 127.193 76.2394C127.199 76.3525 127.221 76.4555 127.259 76.5486C127.297 76.6417 127.345 76.7232 127.405 76.793C127.464 76.8595 127.53 76.9127 127.605 76.9526C127.681 76.9892 127.757 77.0075 127.834 77.0075C127.915 77.0075 127.993 76.9925 128.071 76.9626C128.151 76.9293 128.222 76.8695 128.285 76.783C128.349 76.6966 128.402 76.5786 128.442 76.4289C128.481 76.2793 128.501 76.0848 128.501 75.8454C128.501 75.6891 128.484 75.5428 128.451 75.4065C128.417 75.2668 128.373 75.1405 128.32 75.0274C128.267 74.9111 128.209 74.8063 128.144 74.7132C128.08 74.6201 128.019 74.5387 127.961 74.4688C127.876 74.3724 127.791 74.2793 127.703 74.1895C127.615 74.0964 127.53 74 127.447 73.9003C127.364 73.7972 127.285 73.6858 127.211 73.5661C127.136 73.4431 127.072 73.3001 127.016 73.1371C126.961 72.9742 126.917 72.7864 126.883 72.5736C126.851 72.3574 126.835 72.1081 126.835 71.8254C126.835 71.5096 126.864 71.2369 126.924 71.0075C126.984 70.7781 127.062 70.5885 127.16 70.4389C127.257 70.2893 127.367 70.1795 127.493 70.1097C127.619 70.0366 127.749 70 127.881 70C127.999 70 128.112 70.0233 128.223 70.0698C128.333 70.1164 128.432 70.1929 128.519 70.2993C128.605 70.4023 128.678 70.542 128.735 70.7182C128.792 70.8911 128.827 71.1039 128.838 71.3566C128.841 71.4497 128.836 71.5328 128.823 71.606C128.81 71.6758 128.791 71.7357 128.768 71.7855C128.745 71.8321 128.717 71.8687 128.687 71.8952C128.657 71.9185 128.626 71.9302 128.596 71.9302C128.549 71.9302 128.509 71.9135 128.477 71.8803C128.445 71.847 128.418 71.8055 128.398 71.7556C128.376 71.7057 128.361 71.6492 128.351 71.586C128.34 71.5229 128.334 71.4613 128.331 71.4015C128.309 71.3217 128.28 71.2568 128.245 71.207C128.21 71.1538 128.17 71.1122 128.126 71.0823C128.083 71.049 128.038 71.0274 127.992 71.0175C127.945 71.0042 127.899 70.9975 127.854 70.9975C127.793 70.9975 127.731 71.0125 127.67 71.0424C127.609 71.0723 127.554 71.1205 127.504 71.187C127.454 71.2535 127.414 71.3383 127.382 71.4414C127.351 71.5445 127.336 71.6708 127.336 71.8205C127.336 71.9967 127.354 72.1529 127.391 72.2893C127.428 72.4256 127.475 72.547 127.53 72.6534C127.586 72.7598 127.648 72.8562 127.716 72.9426C127.785 73.0291 127.851 73.1089 127.917 73.182C127.994 73.2718 128.075 73.3682 128.159 73.4713C128.243 73.5711 128.324 73.6808 128.404 73.8005C128.485 73.9169 128.561 74.0449 128.634 74.1845C128.706 74.3242 128.769 74.4805 128.823 74.6534C128.878 74.8229 128.921 75.0091 128.951 75.212C128.984 75.4148 129 75.6392 129 75.8853C129 76.148 128.984 76.3824 128.951 76.5885C128.919 76.7947 128.875 76.9759 128.818 77.1322C128.763 77.2884 128.698 77.4215 128.622 77.5312C128.547 77.6409 128.467 77.7307 128.379 77.8005C128.293 77.8703 128.203 77.9202 128.108 77.9501C128.016 77.9834 127.923 78 127.83 78C127.752 78 127.669 77.985 127.579 77.9551C127.491 77.9252 127.404 77.8786 127.316 77.8155C127.23 77.749 127.146 77.6658 127.067 77.5661C126.989 77.463 126.92 77.34 126.859 77.197C126.801 77.0507 126.755 76.8844 126.721 76.6982C126.687 76.5087 126.672 76.2959 126.675 76.0598Z" fill="white"/>
<defs>
<filter id="filter0_d_651_494" x="56.8776" y="28.5408" width="21.2245" height="34.4898" filterUnits="userSpaceOnUse" color-interpolation-filters="sRGB">
<feFlood flood-opacity="0" result="BackgroundImageFix"/>
<feColorMatrix in="SourceAlpha" type="matrix" values="0 0 0 0 0 0 0 0 0 0 0 0 0 0 0 0 0 0 127 0" result="hardAlpha"/>
<feOffset dx="1.32653" dy="1.32653"/>
<feGaussianBlur stdDeviation="1.32653"/>
<feComposite in2="hardAlpha" operator="out"/>
<feColorMatrix type="matrix" values="0 0 0 0 0 0 0 0 0 0 0 0 0 0 0 0 0 0 0.25 0"/>
<feBlend mode="normal" in2="BackgroundImageFix" result="effect1_dropShadow_651_494"/>
<feBlend mode="normal" in="SourceGraphic" in2="effect1_dropShadow_651_494" result="shape"/>
</filter>
<filter id="filter1_d_651_494" x="76.1123" y="28.541" width="25.9836" height="34.4895" filterUnits="userSpaceOnUse" color-interpolation-filters="sRGB">
<feFlood flood-opacity="0" result="BackgroundImageFix"/>
<feColorMatrix in="SourceAlpha" type="matrix" values="0 0 0 0 0 0 0 0 0 0 0 0 0 0 0 0 0 0 127 0" result="hardAlpha"/>
<feOffset dx="1.32653" dy="1.32653"/>
<feGaussianBlur stdDeviation="1.32653"/>
<feComposite in2="hardAlpha" operator="out"/>
<feColorMatrix type="matrix" values="0 0 0 0 0 0 0 0 0 0 0 0 0 0 0 0 0 0 0.25 0"/>
<feBlend mode="normal" in2="BackgroundImageFix" result="effect1_dropShadow_651_494"/>
<feBlend mode="normal" in="SourceGraphic" in2="effect1_dropShadow_651_494" result="shape"/>
</filter>
<filter id="filter2_d_651_494" x="31.0103" y="28.3645" width="6.63254" height="34.4898" filterUnits="userSpaceOnUse" color-interpolation-filters="sRGB">
<feFlood flood-opacity="0" result="BackgroundImageFix"/>
<feColorMatrix in="SourceAlpha" type="matrix" values="0 0 0 0 0 0 0 0 0 0 0 0 0 0 0 0 0 0 127 0" result="hardAlpha"/>
<feOffset dx="1.32653" dy="1.32653"/>
<feGaussianBlur stdDeviation="1.32653"/>
<feComposite in2="hardAlpha" operator="out"/>
<feColorMatrix type="matrix" values="0 0 0 0 0 0 0 0 0 0 0 0 0 0 0 0 0 0 0.25 0"/>
<feBlend mode="normal" in2="BackgroundImageFix" result="effect1_dropShadow_651_494"/>
<feBlend mode="normal" in="SourceGraphic" in2="effect1_dropShadow_651_494" result="shape"/>
</filter>
<filter id="filter3_d_651_494" x="31.6735" y="42.293" width="26.5306" height="6.63266" filterUnits="userSpaceOnUse" color-interpolation-filters="sRGB">
<feFlood flood-opacity="0" result="BackgroundImageFix"/>
<feColorMatrix in="SourceAlpha" type="matrix" values="0 0 0 0 0 0 0 0 0 0 0 0 0 0 0 0 0 0 127 0" result="hardAlpha"/>
<feOffset dx="1.32653" dy="1.32653"/>
<feGaussianBlur stdDeviation="1.32653"/>
<feComposite in2="hardAlpha" operator="out"/>
<feColorMatrix type="matrix" values="0 0 0 0 0 0 0 0 0 0 0 0 0 0 0 0 0 0 0.25 0"/>
<feBlend mode="normal" in2="BackgroundImageFix" result="effect1_dropShadow_651_494"/>
<feBlend mode="normal" in="SourceGraphic" in2="effect1_dropShadow_651_494" result="shape"/>
</filter>
<filter id="filter4_d_651_494" x="52.2347" y="28.3645" width="6.63254" height="34.4898" filterUnits="userSpaceOnUse" color-interpolation-filters="sRGB">
<feFlood flood-opacity="0" result="BackgroundImageFix"/>
<feColorMatrix in="SourceAlpha" type="matrix" values="0 0 0 0 0 0 0 0 0 0 0 0 0 0 0 0 0 0 127 0" result="hardAlpha"/>
<feOffset dx="1.32653" dy="1.32653"/>
<feGaussianBlur stdDeviation="1.32653"/>
<feComposite in2="hardAlpha" operator="out"/>
<feColorMatrix type="matrix" values="0 0 0 0 0 0 0 0 0 0 0 0 0 0 0 0 0 0 0.25 0"/>
<feBlend mode="normal" in2="BackgroundImageFix" result="effect1_dropShadow_651_494"/>
<feBlend mode="normal" in="SourceGraphic" in2="effect1_dropShadow_651_494" result="shape"/>
</filter>
</defs>
</svg>
