<svg width="100" height="64" viewBox="0 0 100 64" fill="none" xmlns="http://www.w3.org/2000/svg">
<g clip-path="url(#clip0_150_533)">
<g filter="url(#filter0_d_150_533)">
<path d="M45 23H57" stroke="white"/>
<path d="M45 33.5H57" stroke="white"/>
<path d="M45 44H57" stroke="white"/>
</g>
<g filter="url(#filter1_d_150_533)">
<path d="M75 23.3278C55 19.7644 55 46.4837 75 43.8118" stroke="white"/>
</g>
<g filter="url(#filter2_d_150_533)">
<path d="M26 22.3671L26 44.3671" stroke="white"/>
</g>
<g filter="url(#filter3_d_150_533)">
<path d="M26 33.3671L42 33.3671" stroke="white"/>
</g>
<g filter="url(#filter4_d_150_533)">
<path d="M42 22.3671L42 44.3671" stroke="white"/>
</g>
<path d="M2.37427 56.8735C2.37427 56.8154 2.37598 56.7579 2.37939 56.7009C2.38395 56.644 2.38623 56.583 2.38623 56.5181C2.38623 56.4998 2.38623 56.4793 2.38623 56.4565C2.38623 56.4326 2.38566 56.3979 2.38452 56.3523C2.38452 56.3056 2.38395 56.2435 2.38281 56.166C2.38167 56.0874 2.37996 55.9837 2.37769 55.855C2.37655 55.7262 2.37484 55.5679 2.37256 55.3799C2.37028 55.1908 2.36743 54.9629 2.36401 54.6963C2.36401 54.6644 2.35946 54.6325 2.35034 54.6006C2.34237 54.5675 2.33838 54.5328 2.33838 54.4963C2.33838 54.4667 2.3418 54.4405 2.34863 54.4177C2.35661 54.3949 2.37028 54.3756 2.38965 54.3596C2.41016 54.3437 2.43693 54.3317 2.46997 54.3237C2.50301 54.3146 2.54517 54.3101 2.59644 54.3101C2.62264 54.3101 2.64543 54.3158 2.66479 54.3271C2.68416 54.3374 2.70011 54.3516 2.71265 54.3699C2.72632 54.387 2.736 54.4063 2.7417 54.428C2.74854 54.4496 2.75195 54.4713 2.75195 54.4929C2.75195 54.5442 2.75024 54.5966 2.74683 54.6501C2.74341 54.7026 2.7417 54.7624 2.7417 54.8296V55.2073C2.86019 55.2107 2.97412 55.2141 3.0835 55.2175C3.19287 55.2209 3.3068 55.2227 3.42529 55.2227C3.50732 55.2227 3.58936 55.2198 3.67139 55.2141C3.75342 55.2073 3.83944 55.2027 3.92944 55.2004C3.92944 55.1788 3.92944 55.1549 3.92944 55.1287C3.93058 55.1013 3.93115 55.0683 3.93115 55.0295C3.93115 54.9908 3.93115 54.9447 3.93115 54.8911C3.93115 54.8376 3.93115 54.7726 3.93115 54.6963C3.93115 54.6632 3.92773 54.6302 3.9209 54.5972C3.91406 54.5641 3.91064 54.5305 3.91064 54.4963C3.91064 54.4667 3.91406 54.4405 3.9209 54.4177C3.92887 54.3949 3.94255 54.3756 3.96191 54.3596C3.98242 54.3437 4.0092 54.3317 4.04224 54.3237C4.07642 54.3146 4.11914 54.3101 4.17041 54.3101C4.19775 54.3101 4.22111 54.3163 4.24048 54.3289C4.25985 54.3414 4.27523 54.3573 4.28662 54.3767C4.29915 54.3949 4.3077 54.4149 4.31226 54.4365C4.31795 54.457 4.3208 54.4758 4.3208 54.4929C4.3208 54.5795 4.31795 54.6667 4.31226 54.7544C4.3077 54.841 4.30428 54.9327 4.302 55.0295C4.302 55.1082 4.302 55.1868 4.302 55.2654C4.302 55.344 4.302 55.4249 4.302 55.5081C4.30314 55.5912 4.30371 55.6778 4.30371 55.7678C4.30371 55.8578 4.30371 55.9524 4.30371 56.0515C4.30371 56.1666 4.30485 56.264 4.30713 56.3438C4.31055 56.4224 4.31396 56.489 4.31738 56.5437C4.32194 56.5972 4.3265 56.6405 4.33105 56.6736C4.33561 56.7066 4.3396 56.7345 4.34302 56.7573C4.34644 56.7767 4.34928 56.7955 4.35156 56.8137C4.35384 56.8319 4.35498 56.8513 4.35498 56.8718C4.35498 56.898 4.35156 56.922 4.34473 56.9436C4.33903 56.9653 4.32821 56.984 4.31226 57C4.29744 57.0148 4.27694 57.0268 4.25073 57.0359C4.22453 57.045 4.19149 57.0496 4.15161 57.0496C4.10604 57.0496 4.06844 57.0456 4.03882 57.0376C4.0092 57.0308 3.98527 57.0194 3.96704 57.0034C3.94995 56.9886 3.93742 56.9704 3.92944 56.9487C3.92261 56.9271 3.91919 56.9014 3.91919 56.8718C3.91919 56.8126 3.92318 56.7539 3.93115 56.6958C3.94027 56.6377 3.94482 56.5779 3.94482 56.5164C3.94482 56.3671 3.94198 56.2161 3.93628 56.0635C3.93172 55.9108 3.92887 55.7467 3.92773 55.5713C3.84684 55.5701 3.75399 55.5701 3.64917 55.5713C3.54435 55.5713 3.43726 55.5724 3.32788 55.5747C3.21965 55.5758 3.11426 55.5781 3.01172 55.5815C2.91032 55.5838 2.82145 55.5855 2.74512 55.5867C2.7474 55.7701 2.75024 55.9245 2.75366 56.0498C2.75708 56.174 2.7605 56.2777 2.76392 56.3608C2.76733 56.4429 2.77075 56.509 2.77417 56.5591C2.77873 56.6081 2.78271 56.6485 2.78613 56.6804C2.78955 56.7112 2.79183 56.7408 2.79297 56.7693C2.79525 56.7978 2.79639 56.8325 2.79639 56.8735C2.79639 56.8997 2.79354 56.9237 2.78784 56.9453C2.78215 56.9658 2.77132 56.984 2.75537 57C2.74056 57.016 2.72005 57.0279 2.69385 57.0359C2.66878 57.045 2.63574 57.0496 2.59473 57.0496C2.54915 57.0496 2.51213 57.0456 2.48364 57.0376C2.45516 57.0308 2.43237 57.0199 2.41528 57.0051C2.39933 56.9903 2.38851 56.9721 2.38281 56.9504C2.37712 56.9288 2.37427 56.9032 2.37427 56.8735ZM5.36567 56.8684C5.36567 56.8319 5.3708 56.7955 5.38105 56.759C5.39131 56.7214 5.41011 56.6838 5.43745 56.6462C5.45682 56.6132 5.48302 56.5631 5.51606 56.4958C5.55024 56.4286 5.58841 56.3494 5.63057 56.2583C5.67272 56.1672 5.71772 56.068 5.76558 55.9609C5.81457 55.8527 5.86413 55.7428 5.91426 55.6311C5.96439 55.5183 6.01395 55.4061 6.06294 55.2944C6.11307 55.1816 6.16035 55.0763 6.20479 54.9783C6.24922 54.8792 6.28966 54.7897 6.32612 54.71C6.36258 54.6302 6.39334 54.5658 6.41841 54.5168C6.42183 54.4918 6.42866 54.4673 6.43892 54.4434C6.44917 54.4183 6.46284 54.3961 6.47993 54.3767C6.49702 54.3562 6.51753 54.3403 6.54146 54.3289C6.56538 54.3163 6.59329 54.3101 6.6252 54.3101C6.66621 54.3101 6.69925 54.3158 6.72432 54.3271C6.75052 54.3385 6.7716 54.3545 6.78755 54.375C6.80464 54.3944 6.81831 54.4172 6.82856 54.4434C6.83882 54.4696 6.84907 54.4975 6.85933 54.5271C6.86844 54.5533 6.87699 54.5784 6.88496 54.6023C6.89294 54.6251 6.90034 54.6427 6.90718 54.6553C6.98351 54.8079 7.05757 54.9618 7.12935 55.1167C7.20226 55.2716 7.27404 55.4294 7.34468 55.5901C7.41646 55.7496 7.4888 55.9114 7.56172 56.0754C7.63464 56.2395 7.7104 56.4064 7.78901 56.5762L7.82148 56.624C7.8306 56.6366 7.84142 56.6519 7.85396 56.6702C7.86649 56.6873 7.87788 56.7061 7.88813 56.7266C7.89953 56.7471 7.90864 56.7687 7.91548 56.7915C7.92345 56.8143 7.92744 56.8371 7.92744 56.8599C7.92744 56.9282 7.90807 56.9766 7.86934 57.0051C7.8306 57.0347 7.78332 57.0496 7.72749 57.0496C7.69673 57.0496 7.66825 57.0444 7.64204 57.0342C7.61698 57.0251 7.59476 57.0125 7.57539 56.9966C7.55602 56.9795 7.54064 56.9601 7.52925 56.9385C7.51785 56.9157 7.51045 56.8918 7.50703 56.8667C7.47513 56.7972 7.44551 56.7323 7.41816 56.6719C7.39082 56.6104 7.36405 56.5511 7.33784 56.4941C7.31278 56.4372 7.28828 56.3819 7.26436 56.3284C7.24043 56.2737 7.2165 56.219 7.19258 56.1643C7.17435 56.1643 7.14871 56.1643 7.11567 56.1643C7.08263 56.1632 7.04561 56.1615 7.00459 56.1592C6.93965 56.1592 6.87357 56.1586 6.80635 56.1575C6.74027 56.1563 6.67248 56.1558 6.60298 56.1558C6.53348 56.1546 6.4617 56.1546 6.38765 56.1558C6.31359 56.1558 6.23612 56.1575 6.15522 56.1609C6.14269 56.162 6.13073 56.1632 6.11934 56.1643C6.10794 56.1643 6.09598 56.1643 6.08345 56.1643C6.05155 56.2418 6.02135 56.3158 5.99287 56.3865C5.96439 56.456 5.93875 56.5203 5.91597 56.5796C5.89318 56.6388 5.87267 56.6918 5.85444 56.7385C5.83735 56.7841 5.82425 56.8211 5.81514 56.8496V56.8479C5.8083 56.873 5.80033 56.8975 5.79121 56.9214C5.78324 56.9453 5.77127 56.967 5.75532 56.9863C5.73937 57.0046 5.71715 57.0194 5.68867 57.0308C5.66133 57.0433 5.62487 57.0496 5.5793 57.0496C5.51777 57.0496 5.4665 57.0342 5.42549 57.0034C5.38561 56.9727 5.36567 56.9277 5.36567 56.8684ZM6.23896 55.7917C6.26289 55.7917 6.29365 55.7917 6.33125 55.7917C6.36999 55.7917 6.41955 55.7923 6.47993 55.7935C6.54146 55.7935 6.61665 55.794 6.70552 55.7952C6.79438 55.7952 6.90205 55.7957 7.02852 55.7969C6.97611 55.6829 6.91686 55.5548 6.85078 55.4124C6.7847 55.2688 6.70666 55.1019 6.61665 54.9116C6.59045 54.9697 6.56253 55.0335 6.53291 55.103C6.50329 55.1725 6.47196 55.2449 6.43892 55.3201C6.40701 55.3953 6.37397 55.4727 6.33979 55.5525C6.30675 55.6322 6.27314 55.712 6.23896 55.7917ZM8.94839 56.8103C8.94839 56.7852 8.94953 56.7607 8.95181 56.7368C8.95409 56.7129 8.95636 56.6907 8.95864 56.6702C8.95864 56.5118 8.95864 56.366 8.95864 56.2327C8.95864 56.0994 8.95864 55.9752 8.95864 55.8601C8.95864 55.7439 8.95864 55.6351 8.95864 55.5337C8.95864 55.4323 8.95864 55.3343 8.95864 55.2397C8.95864 55.144 8.95864 55.0506 8.95864 54.9595C8.95978 54.8672 8.96035 54.7732 8.96035 54.6775C8.95465 54.6615 8.94896 54.6393 8.94326 54.6108C8.9387 54.5824 8.93643 54.5556 8.93643 54.5305C8.93643 54.5066 8.93984 54.4827 8.94668 54.4587C8.95465 54.4348 8.96605 54.4137 8.98086 54.3955C8.99681 54.3761 9.01618 54.3608 9.03896 54.3494C9.06175 54.338 9.08796 54.3323 9.11758 54.3323C9.16543 54.3323 9.21385 54.3351 9.26284 54.3408C9.31183 54.3465 9.36709 54.3494 9.42861 54.3494C9.47988 54.3494 9.53115 54.3471 9.58242 54.3425C9.63369 54.3368 9.68838 54.3334 9.74648 54.3323C9.91852 54.3323 10.074 54.3494 10.213 54.3835C10.3532 54.4177 10.4722 54.4707 10.5702 54.5425C10.6693 54.6143 10.7457 54.706 10.7992 54.8176C10.8528 54.9281 10.8795 55.0603 10.8795 55.2141C10.8795 55.3599 10.859 55.4898 10.818 55.6038C10.7781 55.7166 10.7263 55.8151 10.6625 55.8994C10.5998 55.9837 10.5292 56.0544 10.4506 56.1113C10.3731 56.1672 10.2973 56.2099 10.2233 56.2395C10.2335 56.301 10.2495 56.3591 10.2711 56.4138C10.2939 56.4674 10.3224 56.5146 10.3566 56.5557C10.3919 56.5967 10.4329 56.6292 10.4796 56.6531C10.5264 56.677 10.5788 56.689 10.6369 56.689C10.6802 56.689 10.7195 56.6821 10.7548 56.6685C10.7912 56.6548 10.8226 56.628 10.8488 56.5881C10.8647 56.5653 10.8841 56.5454 10.9069 56.5283C10.9297 56.5101 10.9587 56.501 10.994 56.501C11.0556 56.501 11.1034 56.5181 11.1376 56.5522C11.1718 56.5864 11.1889 56.6297 11.1889 56.6821C11.1889 56.7311 11.1746 56.7778 11.1461 56.8223C11.1188 56.8667 11.0795 56.906 11.0282 56.9402C10.9781 56.9732 10.9171 56.9994 10.8454 57.0188C10.7736 57.0393 10.6938 57.0496 10.6061 57.0496C10.5252 57.0496 10.4517 57.0376 10.3856 57.0137C10.3207 56.9909 10.262 56.9601 10.2096 56.9214C10.1583 56.8815 10.1128 56.8365 10.0729 56.7864C10.033 56.7351 9.99884 56.6821 9.97036 56.6274C9.94188 56.5716 9.91852 56.5164 9.90029 56.4617C9.88206 56.407 9.86782 56.3557 9.85757 56.3079C9.8439 56.3079 9.82567 56.3079 9.80288 56.3079C9.78009 56.3079 9.75674 56.3079 9.73281 56.3079C9.70889 56.3079 9.68496 56.3079 9.66104 56.3079C9.63825 56.3067 9.61945 56.3062 9.60464 56.3062C9.5716 56.305 9.53058 56.3044 9.48159 56.3044C9.43374 56.3033 9.38988 56.3027 9.35 56.3027V56.5522C9.35228 56.6058 9.35911 56.6582 9.37051 56.7095C9.3819 56.7596 9.3876 56.8114 9.3876 56.865C9.3876 56.898 9.38076 56.9259 9.36709 56.9487C9.35456 56.9715 9.33804 56.9903 9.31753 57.0051C9.29702 57.0211 9.2748 57.0325 9.25088 57.0393C9.22695 57.0461 9.20417 57.0496 9.18252 57.0496C9.14834 57.0496 9.11701 57.0433 9.08853 57.0308C9.06004 57.0194 9.03555 57.0034 9.01504 56.9829C8.99453 56.9613 8.97801 56.9362 8.96548 56.9077C8.95409 56.8781 8.94839 56.8456 8.94839 56.8103ZM9.34829 55.9353C9.37791 55.9364 9.41266 55.9376 9.45254 55.9387C9.49242 55.9399 9.53058 55.941 9.56704 55.9421C9.6035 55.9433 9.63597 55.9444 9.66445 55.9456C9.69294 55.9456 9.71117 55.9456 9.71914 55.9456C9.87295 55.9456 9.99884 55.9245 10.0968 55.8823C10.1959 55.8402 10.2734 55.7843 10.3292 55.7148C10.3851 55.6453 10.4232 55.5656 10.4437 55.4756C10.4654 55.3856 10.4762 55.2933 10.4762 55.1987C10.4762 55.1156 10.4631 55.0455 10.4369 54.9885C10.4107 54.9304 10.376 54.8826 10.3327 54.845C10.2894 54.8074 10.2404 54.7778 10.1857 54.7561C10.131 54.7345 10.0752 54.7185 10.0182 54.7083C9.96239 54.698 9.90713 54.6917 9.85244 54.6895C9.79889 54.6872 9.75161 54.686 9.7106 54.686C9.65249 54.686 9.59325 54.6872 9.53286 54.6895C9.47362 54.6906 9.40924 54.6917 9.33975 54.6929C9.33747 54.7362 9.33576 54.7755 9.33462 54.8108C9.33462 54.8461 9.33405 54.8809 9.33291 54.915C9.33291 54.9481 9.33291 54.9823 9.33291 55.0176C9.33291 55.0518 9.33291 55.0905 9.33291 55.1338C9.33291 55.2113 9.33291 55.2836 9.33291 55.3508C9.33405 55.4169 9.33519 55.4819 9.33633 55.5457C9.33747 55.6083 9.33861 55.6715 9.33975 55.7354C9.34202 55.7992 9.34487 55.8658 9.34829 55.9353ZM10.1498 56.2634C10.1487 56.2634 10.1481 56.264 10.1481 56.2651L10.1498 56.2634ZM10.1464 56.2651H10.1481H10.1464ZM12.244 56.8906C12.244 56.8428 12.2474 56.8023 12.2542 56.7693C12.2611 56.7362 12.2651 56.7209 12.2662 56.7231C12.2685 56.599 12.2702 56.4731 12.2713 56.3455C12.2736 56.2179 12.2748 56.0828 12.2748 55.9404C12.2748 55.8504 12.2748 55.753 12.2748 55.6482C12.2748 55.5422 12.2736 55.4357 12.2713 55.3286C12.2702 55.2204 12.2679 55.1144 12.2645 55.0107C12.2611 54.9059 12.2565 54.8091 12.2508 54.7202C12.2463 54.694 12.2429 54.6707 12.2406 54.6501C12.2383 54.6285 12.2372 54.6057 12.2372 54.5818C12.2372 54.526 12.2491 54.4821 12.273 54.4502C12.297 54.4172 12.3357 54.3944 12.3893 54.3818C12.412 54.3625 12.4371 54.3494 12.4645 54.3425C12.4929 54.3346 12.5203 54.3306 12.5465 54.3306C12.5738 54.3306 12.5983 54.3385 12.62 54.3545C12.6428 54.3704 12.6627 54.3892 12.6798 54.4109C12.6969 54.4325 12.7111 54.4553 12.7225 54.4792C12.7339 54.502 12.7419 54.5208 12.7464 54.5356C12.7818 54.5881 12.8239 54.6479 12.8729 54.7151C12.923 54.7823 12.9771 54.8547 13.0353 54.9321C13.0945 55.0085 13.1572 55.0888 13.2232 55.1731C13.2893 55.2563 13.356 55.3406 13.4232 55.426C13.4916 55.5115 13.5593 55.5969 13.6266 55.6824C13.6938 55.7667 13.7576 55.8481 13.818 55.9268C13.8784 56.0054 13.9347 56.08 13.9872 56.1506C14.0396 56.2201 14.0846 56.2828 14.1222 56.3386C14.1222 56.0948 14.121 55.8852 14.1187 55.7097C14.1176 55.5331 14.1159 55.3833 14.1136 55.2603C14.1113 55.1361 14.1085 55.0341 14.1051 54.9543C14.1017 54.8746 14.0988 54.8085 14.0965 54.7561C14.0943 54.7037 14.092 54.661 14.0897 54.6279C14.0886 54.5938 14.088 54.5613 14.088 54.5305C14.088 54.4849 14.0925 54.4479 14.1017 54.4194C14.1119 54.3898 14.1256 54.367 14.1427 54.3511C14.1609 54.3351 14.1831 54.3243 14.2093 54.3186C14.2355 54.3129 14.2657 54.3101 14.2999 54.3101C14.3443 54.3101 14.3791 54.3192 14.4042 54.3374C14.4292 54.3556 14.448 54.379 14.4605 54.4075C14.4742 54.4348 14.4822 54.4661 14.4845 54.5015C14.4879 54.5356 14.4896 54.5693 14.4896 54.6023V56.5625C14.4896 56.6035 14.4919 56.6451 14.4964 56.6873C14.501 56.7283 14.5033 56.7721 14.5033 56.8188C14.5033 56.8633 14.4999 56.9003 14.493 56.9299C14.4862 56.9584 14.4748 56.9818 14.4588 57C14.444 57.0182 14.4241 57.0308 14.399 57.0376C14.3751 57.0456 14.346 57.0496 14.3119 57.0496C14.2481 57.0496 14.1968 57.0336 14.1581 57.0017C14.1205 56.9698 14.0937 56.9311 14.0777 56.8855C13.9695 56.7374 13.8596 56.5916 13.7479 56.448C13.6374 56.3033 13.5257 56.1592 13.4129 56.0156C13.3001 55.8709 13.1868 55.7257 13.0729 55.5798C12.9589 55.4329 12.8456 55.2836 12.7328 55.1321L12.6302 54.9714C12.6314 55.1458 12.6325 55.3013 12.6336 55.438C12.6348 55.5736 12.6359 55.6949 12.6371 55.802C12.6382 55.908 12.6393 56.002 12.6405 56.084C12.6416 56.1649 12.6422 56.2378 12.6422 56.3027C12.6433 56.3665 12.6439 56.4252 12.6439 56.4788C12.645 56.5312 12.6456 56.5824 12.6456 56.6326C12.6467 56.6622 12.6485 56.6941 12.6507 56.7283C12.6542 56.7613 12.6559 56.7938 12.6559 56.8257C12.6559 56.8553 12.653 56.8838 12.6473 56.9111C12.6428 56.9385 12.6331 56.9624 12.6183 56.9829C12.6035 57.0034 12.5824 57.0194 12.555 57.0308C12.5288 57.0433 12.4941 57.0496 12.4508 57.0496C12.3927 57.0496 12.3437 57.0353 12.3038 57.0068C12.2639 56.9784 12.244 56.9396 12.244 56.8906ZM15.7942 56.8069C15.7942 56.7875 15.7965 56.767 15.8011 56.7454C15.8068 56.7237 15.8125 56.7038 15.8182 56.6855L15.8335 56.6309L15.7942 54.5869C15.7942 54.5311 15.8005 54.4878 15.813 54.457C15.8267 54.4263 15.8438 54.4035 15.8643 54.3887C15.8848 54.3739 15.9082 54.3653 15.9344 54.363C15.9617 54.3608 15.9891 54.3596 16.0164 54.3596H16.917C16.9375 54.3573 16.9603 54.3545 16.9854 54.3511C17.0116 54.3465 17.0298 54.3442 17.0401 54.3442C17.0834 54.3442 17.1181 54.3482 17.1443 54.3562C17.1717 54.3642 17.1928 54.3761 17.2076 54.3921C17.2235 54.4069 17.2338 54.4257 17.2383 54.4485C17.244 54.4713 17.2469 54.498 17.2469 54.5288C17.2469 54.5721 17.2412 54.6069 17.2298 54.6331C17.2195 54.6593 17.2047 54.6798 17.1854 54.6946C17.1671 54.7083 17.1455 54.7174 17.1204 54.7219C17.0953 54.7265 17.0686 54.7288 17.0401 54.7288C17.0276 54.7288 17.011 54.7288 16.9905 54.7288C16.97 54.7276 16.9484 54.7259 16.9256 54.7236C16.8151 54.7236 16.7256 54.7236 16.6573 54.7236C16.5901 54.7236 16.5359 54.7242 16.4949 54.7253C16.455 54.7253 16.4243 54.7253 16.4026 54.7253C16.3821 54.7253 16.3639 54.7253 16.3479 54.7253H16.189V55.2671C16.1958 55.2671 16.2038 55.2677 16.2129 55.2688C16.2232 55.2688 16.2386 55.2688 16.2591 55.2688C16.2796 55.2688 16.3075 55.2688 16.3428 55.2688C16.3793 55.2688 16.4277 55.2688 16.4881 55.2688C16.5485 55.2688 16.6231 55.2688 16.712 55.2688C16.8008 55.2688 16.9085 55.2688 17.035 55.2688C17.0475 55.2688 17.0617 55.2682 17.0777 55.2671C17.0936 55.266 17.1096 55.2642 17.1255 55.262C17.146 55.2597 17.17 55.2574 17.1973 55.2551C17.2247 55.2528 17.2543 55.2517 17.2862 55.2517C17.3169 55.2517 17.3443 55.258 17.3682 55.2705C17.3921 55.283 17.4121 55.299 17.428 55.3184C17.4451 55.3366 17.4576 55.3565 17.4656 55.3782C17.4747 55.3998 17.4793 55.4203 17.4793 55.4397C17.4793 55.5012 17.4588 55.5462 17.4178 55.5747C17.3779 55.6032 17.3261 55.6174 17.2623 55.6174L16.189 55.6191V56.6428C16.3018 56.6428 16.4152 56.6445 16.5291 56.6479C16.643 56.6514 16.7621 56.6531 16.8863 56.6531C16.9205 56.6531 16.9518 56.6514 16.9803 56.6479C17.0088 56.6445 17.0361 56.6405 17.0623 56.636C17.0862 56.6326 17.1102 56.6297 17.1341 56.6274C17.1591 56.624 17.1865 56.6223 17.2161 56.6223C17.2503 56.6223 17.2816 56.6252 17.3101 56.6309C17.3397 56.6354 17.3654 56.6445 17.387 56.6582C17.4087 56.6707 17.4257 56.6884 17.4383 56.7112C17.4508 56.7328 17.4571 56.7607 17.4571 56.7949C17.4571 56.8451 17.4485 56.8838 17.4314 56.9111C17.4144 56.9385 17.391 56.959 17.3614 56.9727C17.3329 56.9852 17.2999 56.9932 17.2623 56.9966C17.2258 56.9989 17.1876 57 17.1478 57H15.9976C15.968 57 15.9406 56.9966 15.9156 56.9897C15.8917 56.9829 15.8706 56.9721 15.8523 56.9573C15.8341 56.9413 15.8199 56.9214 15.8096 56.8975C15.7994 56.8724 15.7942 56.8422 15.7942 56.8069ZM18.5908 56.3865C18.5965 56.2942 18.6153 56.2241 18.6472 56.1763C18.6803 56.1273 18.7378 56.1028 18.8198 56.1028C18.8711 56.1028 18.915 56.1176 18.9514 56.1472C18.9879 56.1757 19.0061 56.2156 19.0061 56.2668C19.0061 56.2965 19.0033 56.3261 18.9976 56.3557C18.9919 56.3853 18.9902 56.4161 18.9924 56.448C18.997 56.4867 19.0141 56.5221 19.0437 56.554C19.0733 56.5859 19.1109 56.6138 19.1565 56.6377C19.2021 56.6605 19.2539 56.6787 19.312 56.6924C19.3701 56.7049 19.4294 56.7112 19.4897 56.7112C19.5513 56.7112 19.6122 56.7061 19.6726 56.6958C19.7341 56.6844 19.7894 56.6639 19.8384 56.6343C19.8885 56.6047 19.929 56.5642 19.9597 56.5129C19.9905 56.4617 20.0059 56.395 20.0059 56.313C20.0059 56.2594 19.9928 56.2093 19.9666 56.1626C19.9403 56.1147 19.9067 56.0715 19.8657 56.0327C19.8247 55.9928 19.7791 55.9569 19.729 55.925C19.68 55.8931 19.6327 55.8652 19.5872 55.8413C19.5222 55.8083 19.4556 55.7764 19.3872 55.7456C19.32 55.7137 19.2539 55.6807 19.189 55.6465C19.1252 55.6112 19.0642 55.573 19.0061 55.532C18.9491 55.4898 18.899 55.4408 18.8557 55.385C18.8124 55.3292 18.7782 55.2648 18.7532 55.1919C18.7281 55.1178 18.7156 55.0324 18.7156 54.9355C18.7156 54.8273 18.7384 54.7339 18.7839 54.6553C18.8306 54.5767 18.8916 54.5117 18.9668 54.4604C19.042 54.4092 19.128 54.3716 19.2249 54.3477C19.3228 54.3226 19.4231 54.3101 19.5256 54.3101C19.6168 54.3101 19.7051 54.318 19.7905 54.334C19.876 54.3499 19.9523 54.3761 20.0195 54.4126C20.0868 54.4479 20.1426 54.4958 20.187 54.5562C20.2314 54.6154 20.2582 54.6883 20.2673 54.7749C20.2696 54.8068 20.2656 54.8353 20.2554 54.8604C20.2451 54.8843 20.2309 54.9048 20.2126 54.9219C20.1944 54.9378 20.1733 54.9504 20.1494 54.9595C20.1266 54.9674 20.1033 54.9714 20.0793 54.9714C20.0429 54.9714 20.0121 54.9657 19.9871 54.9543C19.962 54.943 19.9415 54.9287 19.9255 54.9116C19.9096 54.8945 19.8976 54.8752 19.8896 54.8535C19.8817 54.8319 19.8765 54.8108 19.8743 54.7903C19.8572 54.7629 19.835 54.7407 19.8076 54.7236C19.7803 54.7054 19.7495 54.6912 19.7153 54.6809C19.6823 54.6695 19.6475 54.6621 19.6111 54.6587C19.5746 54.6541 19.5393 54.6519 19.5051 54.6519C19.4573 54.6519 19.4094 54.657 19.3616 54.6672C19.3149 54.6775 19.2721 54.694 19.2334 54.7168C19.1947 54.7396 19.1633 54.7686 19.1394 54.804C19.1155 54.8393 19.1035 54.8826 19.1035 54.9338C19.1035 54.9942 19.1178 55.0478 19.1462 55.0945C19.1747 55.1412 19.2106 55.1828 19.2539 55.2192C19.2972 55.2557 19.3451 55.2887 19.3975 55.3184C19.451 55.348 19.5028 55.3753 19.553 55.4004C19.6134 55.4312 19.676 55.4642 19.741 55.4995C19.8059 55.5337 19.8691 55.5713 19.9307 55.6123C19.9933 55.6522 20.0526 55.696 20.1084 55.7439C20.1642 55.7917 20.2132 55.8453 20.2554 55.9045C20.2975 55.9626 20.3306 56.0264 20.3545 56.0959C20.3796 56.1654 20.3921 56.2424 20.3921 56.3267C20.3921 56.4167 20.3796 56.497 20.3545 56.5676C20.3294 56.6383 20.2952 56.7004 20.252 56.7539C20.2087 56.8075 20.158 56.853 20.0999 56.8906C20.0417 56.9282 19.9791 56.959 19.9119 56.9829C19.8446 57.0068 19.7746 57.0239 19.7017 57.0342C19.6299 57.0456 19.5581 57.0513 19.4863 57.0513C19.4259 57.0513 19.361 57.0461 19.2915 57.0359C19.2231 57.0256 19.1554 57.0097 19.0881 56.988C19.0209 56.9653 18.9565 56.9368 18.895 56.9026C18.8346 56.8673 18.7811 56.8251 18.7344 56.7761C18.6888 56.726 18.6529 56.669 18.6267 56.6052C18.6005 56.5403 18.5885 56.4674 18.5908 56.3865ZM21.5173 56.3865C21.523 56.2942 21.5418 56.2241 21.5737 56.1763C21.6067 56.1273 21.6643 56.1028 21.7463 56.1028C21.7976 56.1028 21.8414 56.1176 21.8779 56.1472C21.9143 56.1757 21.9326 56.2156 21.9326 56.2668C21.9326 56.2965 21.9297 56.3261 21.924 56.3557C21.9183 56.3853 21.9166 56.4161 21.9189 56.448C21.9235 56.4867 21.9405 56.5221 21.9702 56.554C21.9998 56.5859 22.0374 56.6138 22.083 56.6377C22.1285 56.6605 22.1804 56.6787 22.2385 56.6924C22.2966 56.7049 22.3558 56.7112 22.4162 56.7112C22.4777 56.7112 22.5387 56.7061 22.5991 56.6958C22.6606 56.6844 22.7159 56.6639 22.7648 56.6343C22.815 56.6047 22.8554 56.5642 22.8862 56.5129C22.9169 56.4617 22.9323 56.395 22.9323 56.313C22.9323 56.2594 22.9192 56.2093 22.893 56.1626C22.8668 56.1147 22.8332 56.0715 22.7922 56.0327C22.7512 55.9928 22.7056 55.9569 22.6555 55.925C22.6065 55.8931 22.5592 55.8652 22.5136 55.8413C22.4487 55.8083 22.382 55.7764 22.3137 55.7456C22.2465 55.7137 22.1804 55.6807 22.1154 55.6465C22.0516 55.6112 21.9907 55.573 21.9326 55.532C21.8756 55.4898 21.8255 55.4408 21.7822 55.385C21.7389 55.3292 21.7047 55.2648 21.6796 55.1919C21.6546 55.1178 21.642 55.0324 21.642 54.9355C21.642 54.8273 21.6648 54.7339 21.7104 54.6553C21.7571 54.5767 21.8181 54.5117 21.8933 54.4604C21.9685 54.4092 22.0545 54.3716 22.1513 54.3477C22.2493 54.3226 22.3496 54.3101 22.4521 54.3101C22.5432 54.3101 22.6315 54.318 22.717 54.334C22.8024 54.3499 22.8788 54.3761 22.946 54.4126C23.0132 54.4479 23.069 54.4958 23.1135 54.5562C23.1579 54.6154 23.1847 54.6883 23.1938 54.7749C23.1961 54.8068 23.1921 54.8353 23.1818 54.8604C23.1716 54.8843 23.1573 54.9048 23.1391 54.9219C23.1209 54.9378 23.0998 54.9504 23.0759 54.9595C23.0531 54.9674 23.0297 54.9714 23.0058 54.9714C22.9694 54.9714 22.9386 54.9657 22.9135 54.9543C22.8885 54.943 22.868 54.9287 22.852 54.9116C22.8361 54.8945 22.8241 54.8752 22.8161 54.8535C22.8081 54.8319 22.803 54.8108 22.8007 54.7903C22.7836 54.7629 22.7614 54.7407 22.7341 54.7236C22.7067 54.7054 22.676 54.6912 22.6418 54.6809C22.6088 54.6695 22.574 54.6621 22.5375 54.6587C22.5011 54.6541 22.4658 54.6519 22.4316 54.6519C22.3837 54.6519 22.3359 54.657 22.288 54.6672C22.2413 54.6775 22.1986 54.694 22.1599 54.7168C22.1211 54.7396 22.0898 54.7686 22.0659 54.804C22.0419 54.8393 22.03 54.8826 22.03 54.9338C22.03 54.9942 22.0442 55.0478 22.0727 55.0945C22.1012 55.1412 22.1371 55.1828 22.1804 55.2192C22.2237 55.2557 22.2715 55.2887 22.3239 55.3184C22.3775 55.348 22.4293 55.3753 22.4794 55.4004C22.5398 55.4312 22.6025 55.4642 22.6674 55.4995C22.7324 55.5337 22.7956 55.5713 22.8571 55.6123C22.9198 55.6522 22.979 55.696 23.0349 55.7439C23.0907 55.7917 23.1397 55.8453 23.1818 55.9045C23.224 55.9626 23.257 56.0264 23.281 56.0959C23.306 56.1654 23.3186 56.2424 23.3186 56.3267C23.3186 56.4167 23.306 56.497 23.281 56.5676C23.2559 56.6383 23.2217 56.7004 23.1784 56.7539C23.1351 56.8075 23.0844 56.853 23.0263 56.8906C22.9682 56.9282 22.9055 56.959 22.8383 56.9829C22.7711 57.0068 22.701 57.0239 22.6281 57.0342C22.5563 57.0456 22.4846 57.0513 22.4128 57.0513C22.3524 57.0513 22.2875 57.0461 22.218 57.0359C22.1496 57.0256 22.0818 57.0097 22.0146 56.988C21.9474 56.9653 21.883 56.9368 21.8215 56.9026C21.7611 56.8673 21.7076 56.8251 21.6608 56.7761C21.6153 56.726 21.5794 56.669 21.5532 56.6052C21.527 56.5403 21.515 56.4674 21.5173 56.3865ZM24.6471 56.8633C24.6471 56.8052 24.6511 56.7482 24.6591 56.6924C24.6682 56.6354 24.6728 56.575 24.6728 56.5112C24.6728 56.2207 24.6699 55.9285 24.6642 55.6345C24.6597 55.3406 24.6574 55.0387 24.6574 54.7288C24.6574 54.6969 24.654 54.665 24.6471 54.6331C24.6403 54.6 24.6369 54.5647 24.6369 54.5271C24.6369 54.4975 24.6409 54.4696 24.6488 54.4434C24.6568 54.4172 24.6705 54.3944 24.6898 54.375C24.7092 54.3545 24.736 54.3385 24.7702 54.3271C24.8043 54.3158 24.8471 54.3101 24.8983 54.3101C24.9496 54.3101 24.9901 54.3294 25.0197 54.3682C25.0493 54.4069 25.0641 54.4587 25.0641 54.5237C25.0641 54.5431 25.0624 54.5624 25.059 54.5818C25.0556 54.6 25.0521 54.6194 25.0487 54.6399C25.0465 54.7379 25.0447 54.8433 25.0436 54.9561C25.0425 55.0688 25.0419 55.1982 25.0419 55.344C25.0419 55.4739 25.0425 55.6066 25.0436 55.7422C25.0447 55.8778 25.0465 56.0082 25.0487 56.1335C25.051 56.2589 25.0539 56.3762 25.0573 56.4856C25.0618 56.5938 25.067 56.6873 25.0727 56.7659V56.7642C25.0749 56.7812 25.0766 56.7978 25.0778 56.8137C25.0801 56.8285 25.0812 56.8439 25.0812 56.8599C25.0812 56.8872 25.0778 56.9128 25.0709 56.9368C25.0653 56.9596 25.055 56.9795 25.0402 56.9966C25.0254 57.0137 25.0049 57.0268 24.9787 57.0359C24.9525 57.045 24.92 57.0496 24.8813 57.0496C24.8357 57.0496 24.7975 57.0456 24.7667 57.0376C24.7371 57.0296 24.7132 57.0177 24.695 57.0017C24.6779 56.9858 24.6653 56.9664 24.6574 56.9436C24.6505 56.9197 24.6471 56.8929 24.6471 56.8633ZM26.4969 56.8906C26.4969 56.8428 26.5003 56.8023 26.5072 56.7693C26.514 56.7362 26.518 56.7209 26.5191 56.7231C26.5214 56.599 26.5231 56.4731 26.5243 56.3455C26.5265 56.2179 26.5277 56.0828 26.5277 55.9404C26.5277 55.8504 26.5277 55.753 26.5277 55.6482C26.5277 55.5422 26.5265 55.4357 26.5243 55.3286C26.5231 55.2204 26.5208 55.1144 26.5174 55.0107C26.514 54.9059 26.5095 54.8091 26.5038 54.7202C26.4992 54.694 26.4958 54.6707 26.4935 54.6501C26.4912 54.6285 26.4901 54.6057 26.4901 54.5818C26.4901 54.526 26.5021 54.4821 26.526 54.4502C26.5499 54.4172 26.5886 54.3944 26.6422 54.3818C26.665 54.3625 26.69 54.3494 26.7174 54.3425C26.7459 54.3346 26.7732 54.3306 26.7994 54.3306C26.8268 54.3306 26.8513 54.3385 26.8729 54.3545C26.8957 54.3704 26.9156 54.3892 26.9327 54.4109C26.9498 54.4325 26.964 54.4553 26.9754 54.4792C26.9868 54.502 26.9948 54.5208 26.9994 54.5356C27.0347 54.5881 27.0768 54.6479 27.1258 54.7151C27.176 54.7823 27.2301 54.8547 27.2882 54.9321C27.3474 55.0085 27.4101 55.0888 27.4762 55.1731C27.5423 55.2563 27.6089 55.3406 27.6761 55.426C27.7445 55.5115 27.8123 55.5969 27.8795 55.6824C27.9467 55.7667 28.0105 55.8481 28.0709 55.9268C28.1313 56.0054 28.1877 56.08 28.2401 56.1506C28.2925 56.2201 28.3375 56.2828 28.3751 56.3386C28.3751 56.0948 28.374 55.8852 28.3717 55.7097C28.3705 55.5331 28.3688 55.3833 28.3666 55.2603C28.3643 55.1361 28.3614 55.0341 28.358 54.9543C28.3546 54.8746 28.3517 54.8085 28.3495 54.7561C28.3472 54.7037 28.3449 54.661 28.3426 54.6279C28.3415 54.5938 28.3409 54.5613 28.3409 54.5305C28.3409 54.4849 28.3455 54.4479 28.3546 54.4194C28.3648 54.3898 28.3785 54.367 28.3956 54.3511C28.4138 54.3351 28.4361 54.3243 28.4623 54.3186C28.4885 54.3129 28.5187 54.3101 28.5528 54.3101C28.5973 54.3101 28.632 54.3192 28.6571 54.3374C28.6821 54.3556 28.7009 54.379 28.7135 54.4075C28.7271 54.4348 28.7351 54.4661 28.7374 54.5015C28.7408 54.5356 28.7425 54.5693 28.7425 54.6023V56.5625C28.7425 56.6035 28.7448 56.6451 28.7494 56.6873C28.7539 56.7283 28.7562 56.7721 28.7562 56.8188C28.7562 56.8633 28.7528 56.9003 28.7459 56.9299C28.7391 56.9584 28.7277 56.9818 28.7118 57C28.697 57.0182 28.677 57.0308 28.652 57.0376C28.628 57.0456 28.599 57.0496 28.5648 57.0496C28.501 57.0496 28.4497 57.0336 28.411 57.0017C28.3734 56.9698 28.3466 56.9311 28.3307 56.8855C28.2224 56.7374 28.1125 56.5916 28.0008 56.448C27.8903 56.3033 27.7787 56.1592 27.6659 56.0156C27.5531 55.8709 27.4397 55.7257 27.3258 55.5798C27.2118 55.4329 27.0985 55.2836 26.9857 55.1321L26.8832 54.9714C26.8843 55.1458 26.8854 55.3013 26.8866 55.438C26.8877 55.5736 26.8889 55.6949 26.89 55.802C26.8911 55.908 26.8923 56.002 26.8934 56.084C26.8945 56.1649 26.8951 56.2378 26.8951 56.3027C26.8963 56.3665 26.8968 56.4252 26.8968 56.4788C26.898 56.5312 26.8985 56.5824 26.8985 56.6326C26.8997 56.6622 26.9014 56.6941 26.9037 56.7283C26.9071 56.7613 26.9088 56.7938 26.9088 56.8257C26.9088 56.8553 26.9059 56.8838 26.9002 56.9111C26.8957 56.9385 26.886 56.9624 26.8712 56.9829C26.8564 57.0034 26.8353 57.0194 26.808 57.0308C26.7818 57.0433 26.747 57.0496 26.7037 57.0496C26.6456 57.0496 26.5966 57.0353 26.5567 57.0068C26.5169 56.9784 26.4969 56.9396 26.4969 56.8906ZM29.9617 55.708C29.9617 55.4744 29.9953 55.2705 30.0625 55.0962C30.1298 54.9219 30.2226 54.7766 30.3411 54.6604C30.4596 54.5442 30.5997 54.457 30.7615 54.3989C30.9233 54.3408 31.0993 54.3118 31.2896 54.3118C31.3386 54.3118 31.3938 54.3129 31.4554 54.3152C31.5169 54.3163 31.5796 54.3203 31.6434 54.3271C31.7083 54.334 31.7721 54.3437 31.8348 54.3562C31.8974 54.3687 31.9555 54.3853 32.0091 54.4058C32.0512 54.4217 32.0866 54.4445 32.115 54.4741C32.1435 54.5037 32.1578 54.5465 32.1578 54.6023C32.1578 54.6672 32.1412 54.7196 32.1082 54.7595C32.0763 54.7983 32.0387 54.8176 31.9954 54.8176C31.9863 54.8176 31.9743 54.8165 31.9595 54.8142C31.9447 54.8119 31.9322 54.8079 31.9219 54.8022C31.8775 54.7783 31.8234 54.759 31.7596 54.7441C31.6969 54.7293 31.632 54.7174 31.5647 54.7083C31.4975 54.6991 31.432 54.6929 31.3682 54.6895C31.3044 54.686 31.2497 54.6843 31.2042 54.6843C31.1415 54.6843 31.0771 54.6923 31.011 54.7083C30.945 54.7231 30.88 54.747 30.8162 54.78C30.7535 54.8131 30.6937 54.8552 30.6368 54.9065C30.5809 54.9578 30.532 55.0187 30.4898 55.0894C30.4476 55.16 30.414 55.2415 30.389 55.3337C30.3639 55.4249 30.3514 55.5274 30.3514 55.6414C30.3514 55.7747 30.3667 55.8926 30.3975 55.9951C30.4294 56.0977 30.4727 56.1871 30.5274 56.2634C30.5821 56.3386 30.6465 56.4024 30.7205 56.4548C30.7946 56.5061 30.8743 56.5477 30.9598 56.5796C31.0464 56.6115 31.1364 56.6343 31.2298 56.6479C31.3232 56.6616 31.4166 56.6685 31.5101 56.6685C31.5511 56.6685 31.5972 56.6679 31.6485 56.6667C31.7009 56.6645 31.7527 56.6588 31.804 56.6497C31.804 56.538 31.8034 56.4429 31.8023 56.3643C31.8023 56.2856 31.8017 56.2156 31.8006 56.1541C31.7994 56.0925 31.7977 56.0361 31.7955 55.9849C31.7943 55.9336 31.7926 55.8789 31.7903 55.8208C31.7903 55.7798 31.7875 55.7388 31.7818 55.6978C31.7761 55.6556 31.7732 55.6106 31.7732 55.5627C31.7732 55.5457 31.7767 55.5274 31.7835 55.5081C31.7915 55.4875 31.8034 55.4688 31.8194 55.4517C31.8365 55.4334 31.8587 55.4186 31.886 55.4072C31.9134 55.3947 31.9476 55.3884 31.9886 55.3884C32.0558 55.3884 32.1076 55.4044 32.1441 55.4363C32.1817 55.467 32.2005 55.5092 32.2005 55.5627C32.2005 55.5855 32.1999 55.6077 32.1988 55.6294C32.1976 55.6499 32.1971 55.6721 32.1971 55.696C32.1959 55.7325 32.1942 55.7769 32.1919 55.8293C32.1908 55.8806 32.1897 55.9467 32.1885 56.0276C32.1874 56.1073 32.1862 56.2048 32.1851 56.3198C32.184 56.4338 32.1834 56.5705 32.1834 56.73C32.1823 56.7949 32.1737 56.8456 32.1578 56.8821C32.1418 56.9185 32.1202 56.9459 32.0928 56.9641C32.0655 56.9812 32.0336 56.9915 31.9971 56.9949C31.9618 56.9983 31.9248 57 31.886 57C31.853 57 31.8182 57.0017 31.7818 57.0051C31.7453 57.0085 31.7083 57.0125 31.6707 57.0171C31.6331 57.0216 31.5961 57.0256 31.5596 57.0291C31.5243 57.0325 31.4907 57.0342 31.4588 57.0342C31.2161 57.0342 31.0014 56.9983 30.8145 56.9265C30.6288 56.8547 30.4727 56.7585 30.3462 56.6377C30.2198 56.5158 30.1241 56.3751 30.0591 56.2156C29.9942 56.0549 29.9617 55.8857 29.9617 55.708ZM33.4846 56.8325C33.4846 56.8029 33.4869 56.7659 33.4915 56.7214C33.4972 56.677 33.508 56.6343 33.5239 56.5933C33.5399 56.5522 33.5627 56.5169 33.5923 56.4873C33.6219 56.4577 33.6612 56.4429 33.7102 56.4429C33.7592 56.4429 33.7968 56.4537 33.823 56.4753C33.8503 56.497 33.8703 56.5226 33.8828 56.5522C33.8953 56.5807 33.9028 56.6098 33.905 56.6394C33.9084 56.669 33.9102 56.6924 33.9102 56.7095V56.7197C33.9102 56.771 33.9067 56.8166 33.8999 56.8564C33.8931 56.8963 33.8811 56.9299 33.864 56.9573C33.8481 56.9846 33.8264 57.0057 33.7991 57.0205C33.7717 57.0353 33.7375 57.0427 33.6965 57.0427C33.6578 57.0427 33.6248 57.0365 33.5974 57.0239C33.5712 57.0125 33.5496 56.9972 33.5325 56.9778C33.5154 56.9584 33.5028 56.9362 33.4949 56.9111C33.488 56.8861 33.4846 56.8599 33.4846 56.8325ZM35.1516 56.8069C35.1516 56.7875 35.1538 56.767 35.1584 56.7454C35.1641 56.7237 35.1698 56.7038 35.1755 56.6855L35.1909 56.6309L35.1516 54.5869C35.1516 54.5311 35.1578 54.4878 35.1704 54.457C35.184 54.4263 35.2011 54.4035 35.2216 54.3887C35.2421 54.3739 35.2655 54.3653 35.2917 54.363C35.319 54.3608 35.3464 54.3596 35.3737 54.3596H36.2744C36.2949 54.3573 36.3177 54.3545 36.3427 54.3511C36.3689 54.3465 36.3872 54.3442 36.3974 54.3442C36.4407 54.3442 36.4755 54.3482 36.5017 54.3562C36.529 54.3642 36.5501 54.3761 36.5649 54.3921C36.5808 54.4069 36.5911 54.4257 36.5957 54.4485C36.6014 54.4713 36.6042 54.498 36.6042 54.5288C36.6042 54.5721 36.5985 54.6069 36.5871 54.6331C36.5769 54.6593 36.562 54.6798 36.5427 54.6946C36.5244 54.7083 36.5028 54.7174 36.4777 54.7219C36.4527 54.7265 36.4259 54.7288 36.3974 54.7288C36.3849 54.7288 36.3684 54.7288 36.3479 54.7288C36.3273 54.7276 36.3057 54.7259 36.2829 54.7236C36.1724 54.7236 36.083 54.7236 36.0146 54.7236C35.9474 54.7236 35.8933 54.7242 35.8522 54.7253C35.8124 54.7253 35.7816 54.7253 35.76 54.7253C35.7395 54.7253 35.7212 54.7253 35.7053 54.7253H35.5463V55.2671C35.5532 55.2671 35.5611 55.2677 35.5703 55.2688C35.5805 55.2688 35.5959 55.2688 35.6164 55.2688C35.6369 55.2688 35.6648 55.2688 35.7001 55.2688C35.7366 55.2688 35.785 55.2688 35.8454 55.2688C35.9058 55.2688 35.9804 55.2688 36.0693 55.2688C36.1582 55.2688 36.2658 55.2688 36.3923 55.2688C36.4048 55.2688 36.4191 55.2682 36.435 55.2671C36.451 55.266 36.4669 55.2642 36.4829 55.262C36.5034 55.2597 36.5273 55.2574 36.5546 55.2551C36.582 55.2528 36.6116 55.2517 36.6435 55.2517C36.6743 55.2517 36.7016 55.258 36.7255 55.2705C36.7495 55.283 36.7694 55.299 36.7854 55.3184C36.8024 55.3366 36.815 55.3565 36.8229 55.3782C36.8321 55.3998 36.8366 55.4203 36.8366 55.4397C36.8366 55.5012 36.8161 55.5462 36.7751 55.5747C36.7352 55.6032 36.6834 55.6174 36.6196 55.6174L35.5463 55.6191V56.6428C35.6591 56.6428 35.7725 56.6445 35.8864 56.6479C36.0004 56.6514 36.1194 56.6531 36.2436 56.6531C36.2778 56.6531 36.3091 56.6514 36.3376 56.6479C36.3661 56.6445 36.3934 56.6405 36.4196 56.636C36.4436 56.6326 36.4675 56.6297 36.4914 56.6274C36.5165 56.624 36.5438 56.6223 36.5734 56.6223C36.6076 56.6223 36.6389 56.6252 36.6674 56.6309C36.6971 56.6354 36.7227 56.6445 36.7443 56.6582C36.766 56.6707 36.7831 56.6884 36.7956 56.7112C36.8081 56.7328 36.8144 56.7607 36.8144 56.7949C36.8144 56.8451 36.8059 56.8838 36.7888 56.9111C36.7717 56.9385 36.7483 56.959 36.7187 56.9727C36.6902 56.9852 36.6572 56.9932 36.6196 56.9966C36.5831 56.9989 36.545 57 36.5051 57H35.3549C35.3253 57 35.298 56.9966 35.2729 56.9897C35.249 56.9829 35.2279 56.9721 35.2097 56.9573C35.1914 56.9413 35.1772 56.9214 35.1669 56.8975C35.1567 56.8724 35.1516 56.8422 35.1516 56.8069ZM38.0319 56.8906C38.0319 56.8428 38.0353 56.8023 38.0421 56.7693C38.049 56.7362 38.053 56.7209 38.0541 56.7231C38.0564 56.599 38.0581 56.4731 38.0592 56.3455C38.0615 56.2179 38.0626 56.0828 38.0626 55.9404C38.0626 55.8504 38.0626 55.753 38.0626 55.6482C38.0626 55.5422 38.0615 55.4357 38.0592 55.3286C38.0581 55.2204 38.0558 55.1144 38.0524 55.0107C38.049 54.9059 38.0444 54.8091 38.0387 54.7202C38.0342 54.694 38.0307 54.6707 38.0285 54.6501C38.0262 54.6285 38.025 54.6057 38.025 54.5818C38.025 54.526 38.037 54.4821 38.0609 54.4502C38.0849 54.4172 38.1236 54.3944 38.1771 54.3818C38.1999 54.3625 38.225 54.3494 38.2523 54.3425C38.2808 54.3346 38.3082 54.3306 38.3344 54.3306C38.3617 54.3306 38.3862 54.3385 38.4079 54.3545C38.4306 54.3704 38.4506 54.3892 38.4677 54.4109C38.4848 54.4325 38.499 54.4553 38.5104 54.4792C38.5218 54.502 38.5298 54.5208 38.5343 54.5356C38.5696 54.5881 38.6118 54.6479 38.6608 54.7151C38.7109 54.7823 38.765 54.8547 38.8231 54.9321C38.8824 55.0085 38.9451 55.0888 39.0111 55.1731C39.0772 55.2563 39.1439 55.3406 39.2111 55.426C39.2794 55.5115 39.3472 55.5969 39.4145 55.6824C39.4817 55.7667 39.5455 55.8481 39.6059 55.9268C39.6662 56.0054 39.7226 56.08 39.775 56.1506C39.8275 56.2201 39.8725 56.2828 39.9101 56.3386C39.9101 56.0948 39.9089 55.8852 39.9066 55.7097C39.9055 55.5331 39.9038 55.3833 39.9015 55.2603C39.8992 55.1361 39.8964 55.0341 39.893 54.9543C39.8895 54.8746 39.8867 54.8085 39.8844 54.7561C39.8821 54.7037 39.8799 54.661 39.8776 54.6279C39.8764 54.5938 39.8759 54.5613 39.8759 54.5305C39.8759 54.4849 39.8804 54.4479 39.8895 54.4194C39.8998 54.3898 39.9135 54.367 39.9306 54.3511C39.9488 54.3351 39.971 54.3243 39.9972 54.3186C40.0234 54.3129 40.0536 54.3101 40.0878 54.3101C40.1322 54.3101 40.167 54.3192 40.192 54.3374C40.2171 54.3556 40.2359 54.379 40.2484 54.4075C40.2621 54.4348 40.2701 54.4661 40.2724 54.5015C40.2758 54.5356 40.2775 54.5693 40.2775 54.6023V56.5625C40.2775 56.6035 40.2798 56.6451 40.2843 56.6873C40.2889 56.7283 40.2912 56.7721 40.2912 56.8188C40.2912 56.8633 40.2877 56.9003 40.2809 56.9299C40.2741 56.9584 40.2627 56.9818 40.2467 57C40.2319 57.0182 40.212 57.0308 40.1869 57.0376C40.163 57.0456 40.1339 57.0496 40.0998 57.0496C40.036 57.0496 39.9847 57.0336 39.9459 57.0017C39.9083 56.9698 39.8816 56.9311 39.8656 56.8855C39.7574 56.7374 39.6474 56.5916 39.5358 56.448C39.4253 56.3033 39.3136 56.1592 39.2008 56.0156C39.088 55.8709 38.9747 55.7257 38.8607 55.5798C38.7468 55.4329 38.6334 55.2836 38.5207 55.1321L38.4181 54.9714C38.4193 55.1458 38.4204 55.3013 38.4215 55.438C38.4227 55.5736 38.4238 55.6949 38.4249 55.802C38.4261 55.908 38.4272 56.002 38.4284 56.084C38.4295 56.1649 38.4301 56.2378 38.4301 56.3027C38.4312 56.3665 38.4318 56.4252 38.4318 56.4788C38.4329 56.5312 38.4335 56.5824 38.4335 56.6326C38.4346 56.6622 38.4363 56.6941 38.4386 56.7283C38.442 56.7613 38.4437 56.7938 38.4437 56.8257C38.4437 56.8553 38.4409 56.8838 38.4352 56.9111C38.4306 56.9385 38.421 56.9624 38.4062 56.9829C38.3913 57.0034 38.3703 57.0194 38.3429 57.0308C38.3167 57.0433 38.282 57.0496 38.2387 57.0496C38.1806 57.0496 38.1316 57.0353 38.0917 57.0068C38.0518 56.9784 38.0319 56.9396 38.0319 56.8906ZM42.0042 54.7441C41.9245 54.7441 41.8419 54.7447 41.7564 54.7458C41.671 54.747 41.5776 54.7476 41.4762 54.7476C41.4488 54.7476 41.4249 54.7413 41.4044 54.7288C41.3839 54.7162 41.3668 54.7003 41.3531 54.6809C41.3395 54.6604 41.3292 54.6376 41.3224 54.6125C41.3155 54.5875 41.3121 54.5624 41.3121 54.5374C41.3121 54.4701 41.3309 54.424 41.3685 54.3989C41.4061 54.3727 41.4671 54.3596 41.5514 54.3596H42.9151C42.9379 54.3596 42.9613 54.3625 42.9852 54.3682C43.0103 54.3739 43.0325 54.3841 43.0519 54.3989C43.0724 54.4137 43.0889 54.4331 43.1014 54.457C43.1151 54.481 43.1219 54.5117 43.1219 54.5493C43.1219 54.5767 43.1174 54.6029 43.1083 54.6279C43.0991 54.653 43.0866 54.6746 43.0707 54.6929C43.0558 54.7111 43.0376 54.7259 43.016 54.7373C42.9955 54.7487 42.9732 54.7544 42.9493 54.7544C42.9311 54.7544 42.9134 54.7527 42.8963 54.7493C42.8792 54.7458 42.861 54.7441 42.8417 54.7441H42.4007L42.3956 56.6719C42.3956 56.6992 42.3973 56.726 42.4007 56.7522C42.4053 56.7784 42.4076 56.8069 42.4076 56.8376C42.4076 56.8627 42.4053 56.8878 42.4007 56.9128C42.3962 56.9379 42.3865 56.9607 42.3717 56.9812C42.3569 57.0017 42.3358 57.0182 42.3084 57.0308C42.2811 57.0444 42.2452 57.0513 42.2008 57.0513C42.1484 57.0513 42.1085 57.0422 42.0812 57.0239C42.0538 57.0068 42.0339 56.9846 42.0213 56.9573C42.0099 56.9299 42.0037 56.8997 42.0025 56.8667C42.0014 56.8337 42.0008 56.8018 42.0008 56.771L42.0042 54.7441ZM44.1395 56.8069C44.1395 56.7875 44.1417 56.767 44.1463 56.7454C44.152 56.7237 44.1577 56.7038 44.1634 56.6855L44.1788 56.6309L44.1395 54.5869C44.1395 54.5311 44.1457 54.4878 44.1583 54.457C44.1719 54.4263 44.189 54.4035 44.2095 54.3887C44.23 54.3739 44.2534 54.3653 44.2796 54.363C44.3069 54.3608 44.3343 54.3596 44.3616 54.3596H45.2623C45.2828 54.3573 45.3056 54.3545 45.3306 54.3511C45.3568 54.3465 45.375 54.3442 45.3853 54.3442C45.4286 54.3442 45.4633 54.3482 45.4896 54.3562C45.5169 54.3642 45.538 54.3761 45.5528 54.3921C45.5687 54.4069 45.579 54.4257 45.5835 54.4485C45.5892 54.4713 45.5921 54.498 45.5921 54.5288C45.5921 54.5721 45.5864 54.6069 45.575 54.6331C45.5647 54.6593 45.5499 54.6798 45.5306 54.6946C45.5123 54.7083 45.4907 54.7174 45.4656 54.7219C45.4406 54.7265 45.4138 54.7288 45.3853 54.7288C45.3728 54.7288 45.3563 54.7288 45.3357 54.7288C45.3152 54.7276 45.2936 54.7259 45.2708 54.7236C45.1603 54.7236 45.0709 54.7236 45.0025 54.7236C44.9353 54.7236 44.8812 54.7242 44.8401 54.7253C44.8003 54.7253 44.7695 54.7253 44.7479 54.7253C44.7273 54.7253 44.7091 54.7253 44.6932 54.7253H44.5342V55.2671C44.5411 55.2671 44.549 55.2677 44.5582 55.2688C44.5684 55.2688 44.5838 55.2688 44.6043 55.2688C44.6248 55.2688 44.6527 55.2688 44.688 55.2688C44.7245 55.2688 44.7729 55.2688 44.8333 55.2688C44.8937 55.2688 44.9683 55.2688 45.0572 55.2688C45.146 55.2688 45.2537 55.2688 45.3802 55.2688C45.3927 55.2688 45.407 55.2682 45.4229 55.2671C45.4389 55.266 45.4548 55.2642 45.4708 55.262C45.4913 55.2597 45.5152 55.2574 45.5425 55.2551C45.5699 55.2528 45.5995 55.2517 45.6314 55.2517C45.6622 55.2517 45.6895 55.258 45.7134 55.2705C45.7374 55.283 45.7573 55.299 45.7732 55.3184C45.7903 55.3366 45.8029 55.3565 45.8108 55.3782C45.82 55.3998 45.8245 55.4203 45.8245 55.4397C45.8245 55.5012 45.804 55.5462 45.763 55.5747C45.7231 55.6032 45.6713 55.6174 45.6075 55.6174L44.5342 55.6191V56.6428C44.647 56.6428 44.7604 56.6445 44.8743 56.6479C44.9882 56.6514 45.1073 56.6531 45.2315 56.6531C45.2657 56.6531 45.297 56.6514 45.3255 56.6479C45.354 56.6445 45.3813 56.6405 45.4075 56.636C45.4314 56.6326 45.4554 56.6297 45.4793 56.6274C45.5044 56.624 45.5317 56.6223 45.5613 56.6223C45.5955 56.6223 45.6268 56.6252 45.6553 56.6309C45.6849 56.6354 45.7106 56.6445 45.7322 56.6582C45.7539 56.6707 45.771 56.6884 45.7835 56.7112C45.796 56.7328 45.8023 56.7607 45.8023 56.7949C45.8023 56.8451 45.7938 56.8838 45.7767 56.9111C45.7596 56.9385 45.7362 56.959 45.7066 56.9727C45.6781 56.9852 45.6451 56.9932 45.6075 56.9966C45.571 56.9989 45.5328 57 45.493 57H44.3428C44.3132 57 44.2859 56.9966 44.2608 56.9897C44.2369 56.9829 44.2158 56.9721 44.1976 56.9573C44.1793 56.9413 44.1651 56.9214 44.1548 56.8975C44.1446 56.8724 44.1395 56.8422 44.1395 56.8069ZM47.0232 56.8103C47.0232 56.7852 47.0243 56.7607 47.0266 56.7368C47.0289 56.7129 47.0312 56.6907 47.0334 56.6702C47.0334 56.5118 47.0334 56.366 47.0334 56.2327C47.0334 56.0994 47.0334 55.9752 47.0334 55.8601C47.0334 55.7439 47.0334 55.6351 47.0334 55.5337C47.0334 55.4323 47.0334 55.3343 47.0334 55.2397C47.0334 55.144 47.0334 55.0506 47.0334 54.9595C47.0346 54.8672 47.0352 54.7732 47.0352 54.6775C47.0295 54.6615 47.0238 54.6393 47.0181 54.6108C47.0135 54.5824 47.0112 54.5556 47.0112 54.5305C47.0112 54.5066 47.0146 54.4827 47.0215 54.4587C47.0295 54.4348 47.0409 54.4137 47.0557 54.3955C47.0716 54.3761 47.091 54.3608 47.1138 54.3494C47.1366 54.338 47.1628 54.3323 47.1924 54.3323C47.2402 54.3323 47.2887 54.3351 47.3376 54.3408C47.3866 54.3465 47.4419 54.3494 47.5034 54.3494C47.5547 54.3494 47.606 54.3471 47.6572 54.3425C47.7085 54.3368 47.7632 54.3334 47.8213 54.3323C47.9933 54.3323 48.1488 54.3494 48.2878 54.3835C48.428 54.4177 48.547 54.4707 48.645 54.5425C48.7441 54.6143 48.8205 54.706 48.874 54.8176C48.9276 54.9281 48.9543 55.0603 48.9543 55.2141C48.9543 55.3599 48.9338 55.4898 48.8928 55.6038C48.8529 55.7166 48.8011 55.8151 48.7373 55.8994C48.6746 55.9837 48.604 56.0544 48.5254 56.1113C48.4479 56.1672 48.3722 56.2099 48.2981 56.2395C48.3083 56.301 48.3243 56.3591 48.3459 56.4138C48.3687 56.4674 48.3972 56.5146 48.4314 56.5557C48.4667 56.5967 48.5077 56.6292 48.5544 56.6531C48.6012 56.677 48.6536 56.689 48.7117 56.689C48.755 56.689 48.7943 56.6821 48.8296 56.6685C48.866 56.6548 48.8974 56.628 48.9236 56.5881C48.9395 56.5653 48.9589 56.5454 48.9817 56.5283C49.0045 56.5101 49.0335 56.501 49.0688 56.501C49.1304 56.501 49.1782 56.5181 49.2124 56.5522C49.2466 56.5864 49.2637 56.6297 49.2637 56.6821C49.2637 56.7311 49.2494 56.7778 49.2209 56.8223C49.1936 56.8667 49.1543 56.906 49.103 56.9402C49.0529 56.9732 48.9919 56.9994 48.9202 57.0188C48.8484 57.0393 48.7686 57.0496 48.6809 57.0496C48.6 57.0496 48.5265 57.0376 48.4604 57.0137C48.3955 56.9909 48.3368 56.9601 48.2844 56.9214C48.2332 56.8815 48.1876 56.8365 48.1477 56.7864C48.1078 56.7351 48.0736 56.6821 48.0452 56.6274C48.0167 56.5716 47.9933 56.5164 47.9751 56.4617C47.9569 56.407 47.9426 56.3557 47.9324 56.3079C47.9187 56.3079 47.9005 56.3079 47.8777 56.3079C47.8549 56.3079 47.8315 56.3079 47.8076 56.3079C47.7837 56.3079 47.7598 56.3079 47.7358 56.3079C47.7131 56.3067 47.6943 56.3062 47.6794 56.3062C47.6464 56.305 47.6054 56.3044 47.5564 56.3044C47.5085 56.3033 47.4647 56.3027 47.4248 56.3027V56.5522C47.4271 56.6058 47.4339 56.6582 47.4453 56.7095C47.4567 56.7596 47.4624 56.8114 47.4624 56.865C47.4624 56.898 47.4556 56.9259 47.4419 56.9487C47.4294 56.9715 47.4128 56.9903 47.3923 57.0051C47.3718 57.0211 47.3496 57.0325 47.3257 57.0393C47.3018 57.0461 47.279 57.0496 47.2573 57.0496C47.2231 57.0496 47.1918 57.0433 47.1633 57.0308C47.1348 57.0194 47.1104 57.0034 47.0898 56.9829C47.0693 56.9613 47.0528 56.9362 47.0403 56.9077C47.0289 56.8781 47.0232 56.8456 47.0232 56.8103ZM47.4231 55.9353C47.4527 55.9364 47.4875 55.9376 47.5273 55.9387C47.5672 55.9399 47.6054 55.941 47.6418 55.9421C47.6783 55.9433 47.7108 55.9444 47.7393 55.9456C47.7677 55.9456 47.786 55.9456 47.7939 55.9456C47.9478 55.9456 48.0736 55.9245 48.1716 55.8823C48.2708 55.8402 48.3482 55.7843 48.4041 55.7148C48.4599 55.6453 48.498 55.5656 48.5186 55.4756C48.5402 55.3856 48.551 55.2933 48.551 55.1987C48.551 55.1156 48.5379 55.0455 48.5117 54.9885C48.4855 54.9304 48.4508 54.8826 48.4075 54.845C48.3642 54.8074 48.3152 54.7778 48.2605 54.7561C48.2058 54.7345 48.15 54.7185 48.093 54.7083C48.0372 54.698 47.9819 54.6917 47.9272 54.6895C47.8737 54.6872 47.8264 54.686 47.7854 54.686C47.7273 54.686 47.6681 54.6872 47.6077 54.6895C47.5484 54.6906 47.484 54.6917 47.4146 54.6929C47.4123 54.7362 47.4106 54.7755 47.4094 54.8108C47.4094 54.8461 47.4089 54.8809 47.4077 54.915C47.4077 54.9481 47.4077 54.9823 47.4077 55.0176C47.4077 55.0518 47.4077 55.0905 47.4077 55.1338C47.4077 55.2113 47.4077 55.2836 47.4077 55.3508C47.4089 55.4169 47.41 55.4819 47.4111 55.5457C47.4123 55.6083 47.4134 55.6715 47.4146 55.7354C47.4168 55.7992 47.4197 55.8658 47.4231 55.9353ZM48.2246 56.2634C48.2235 56.2634 48.2229 56.264 48.2229 56.2651L48.2246 56.2634ZM48.2212 56.2651H48.2229H48.2212ZM50.7324 54.7441C50.6526 54.7441 50.57 54.7447 50.4846 54.7458C50.3991 54.747 50.3057 54.7476 50.2043 54.7476C50.177 54.7476 50.153 54.7413 50.1325 54.7288C50.112 54.7162 50.0949 54.7003 50.0812 54.6809C50.0676 54.6604 50.0573 54.6376 50.0505 54.6125C50.0437 54.5875 50.0402 54.5624 50.0402 54.5374C50.0402 54.4701 50.059 54.424 50.0966 54.3989C50.1342 54.3727 50.1952 54.3596 50.2795 54.3596H51.6433C51.666 54.3596 51.6894 54.3625 51.7133 54.3682C51.7384 54.3739 51.7606 54.3841 51.78 54.3989C51.8005 54.4137 51.817 54.4331 51.8295 54.457C51.8432 54.481 51.85 54.5117 51.85 54.5493C51.85 54.5767 51.8455 54.6029 51.8364 54.6279C51.8273 54.653 51.8147 54.6746 51.7988 54.6929C51.784 54.7111 51.7657 54.7259 51.7441 54.7373C51.7236 54.7487 51.7014 54.7544 51.6774 54.7544C51.6592 54.7544 51.6416 54.7527 51.6245 54.7493C51.6074 54.7458 51.5891 54.7441 51.5698 54.7441H51.1289L51.1237 56.6719C51.1237 56.6992 51.1254 56.726 51.1289 56.7522C51.1334 56.7784 51.1357 56.8069 51.1357 56.8376C51.1357 56.8627 51.1334 56.8878 51.1289 56.9128C51.1243 56.9379 51.1146 56.9607 51.0998 56.9812C51.085 57.0017 51.0639 57.0182 51.0366 57.0308C51.0092 57.0444 50.9733 57.0513 50.9289 57.0513C50.8765 57.0513 50.8366 57.0422 50.8093 57.0239C50.7819 57.0068 50.762 56.9846 50.7495 56.9573C50.7381 56.9299 50.7318 56.8997 50.7307 56.8667C50.7295 56.8337 50.729 56.8018 50.729 56.771L50.7324 54.7441ZM52.589 56.8684C52.589 56.8319 52.5941 56.7955 52.6044 56.759C52.6146 56.7214 52.6334 56.6838 52.6608 56.6462C52.6802 56.6132 52.7064 56.5631 52.7394 56.4958C52.7736 56.4286 52.8117 56.3494 52.8539 56.2583C52.8961 56.1672 52.9411 56.068 52.9889 55.9609C53.0379 55.8527 53.0875 55.7428 53.1376 55.6311C53.1877 55.5183 53.2373 55.4061 53.2863 55.2944C53.3364 55.1816 53.3837 55.0763 53.4281 54.9783C53.4726 54.8792 53.513 54.7897 53.5495 54.71C53.5859 54.6302 53.6167 54.5658 53.6417 54.5168C53.6452 54.4918 53.652 54.4673 53.6623 54.4434C53.6725 54.4183 53.6862 54.3961 53.7033 54.3767C53.7204 54.3562 53.7409 54.3403 53.7648 54.3289C53.7887 54.3163 53.8166 54.3101 53.8485 54.3101C53.8895 54.3101 53.9226 54.3158 53.9477 54.3271C53.9739 54.3385 53.9949 54.3545 54.0109 54.375C54.028 54.3944 54.0416 54.4172 54.0519 54.4434C54.0622 54.4696 54.0724 54.4975 54.0827 54.5271C54.0918 54.5533 54.1003 54.5784 54.1083 54.6023C54.1163 54.6251 54.1237 54.6427 54.1305 54.6553C54.2069 54.8079 54.2809 54.9618 54.3527 55.1167C54.4256 55.2716 54.4974 55.4294 54.568 55.5901C54.6398 55.7496 54.7121 55.9114 54.7851 56.0754C54.858 56.2395 54.9337 56.4064 55.0124 56.5762L55.0448 56.624C55.0539 56.6366 55.0648 56.6519 55.0773 56.6702C55.0898 56.6873 55.1012 56.7061 55.1115 56.7266C55.1229 56.7471 55.132 56.7687 55.1388 56.7915C55.1468 56.8143 55.1508 56.8371 55.1508 56.8599C55.1508 56.9282 55.1314 56.9766 55.0927 57.0051C55.0539 57.0347 55.0067 57.0496 54.9508 57.0496C54.9201 57.0496 54.8916 57.0444 54.8654 57.0342C54.8403 57.0251 54.8181 57.0125 54.7987 56.9966C54.7794 56.9795 54.764 56.9601 54.7526 56.9385C54.7412 56.9157 54.7338 56.8918 54.7304 56.8667C54.6985 56.7972 54.6688 56.7323 54.6415 56.6719C54.6142 56.6104 54.5874 56.5511 54.5612 56.4941C54.5361 56.4372 54.5116 56.3819 54.4877 56.3284C54.4638 56.2737 54.4398 56.219 54.4159 56.1643C54.3977 56.1643 54.3721 56.1643 54.339 56.1643C54.306 56.1632 54.2689 56.1615 54.2279 56.1592C54.163 56.1592 54.0969 56.1586 54.0297 56.1575C53.9636 56.1563 53.8958 56.1558 53.8263 56.1558C53.7568 56.1546 53.685 56.1546 53.611 56.1558C53.5369 56.1558 53.4595 56.1575 53.3786 56.1609C53.366 56.162 53.3541 56.1632 53.3427 56.1643C53.3313 56.1643 53.3193 56.1643 53.3068 56.1643C53.2749 56.2418 53.2447 56.3158 53.2162 56.3865C53.1877 56.456 53.1621 56.5203 53.1393 56.5796C53.1165 56.6388 53.096 56.6918 53.0778 56.7385C53.0607 56.7841 53.0476 56.8211 53.0385 56.8496V56.8479C53.0316 56.873 53.0237 56.8975 53.0145 56.9214C53.0066 56.9453 52.9946 56.967 52.9787 56.9863C52.9627 57.0046 52.9405 57.0194 52.912 57.0308C52.8847 57.0433 52.8482 57.0496 52.8026 57.0496C52.7411 57.0496 52.6898 57.0342 52.6488 57.0034C52.609 56.9727 52.589 56.9277 52.589 56.8684ZM53.4623 55.7917C53.4862 55.7917 53.517 55.7917 53.5546 55.7917C53.5933 55.7917 53.6429 55.7923 53.7033 55.7935C53.7648 55.7935 53.84 55.794 53.9289 55.7952C54.0177 55.7952 54.1254 55.7957 54.2519 55.7969C54.1994 55.6829 54.1402 55.5548 54.0741 55.4124C54.008 55.2688 53.93 55.1019 53.84 54.9116C53.8138 54.9697 53.7859 55.0335 53.7562 55.103C53.7266 55.1725 53.6953 55.2449 53.6623 55.3201C53.6304 55.3953 53.5973 55.4727 53.5631 55.5525C53.5301 55.6322 53.4965 55.712 53.4623 55.7917ZM56.2879 56.8633C56.2879 56.8052 56.2919 56.7482 56.2999 56.6924C56.309 56.6354 56.3136 56.575 56.3136 56.5112C56.3136 56.2207 56.3107 55.9285 56.305 55.6345C56.3005 55.3406 56.2982 55.0387 56.2982 54.7288C56.2982 54.6969 56.2948 54.665 56.2879 54.6331C56.2811 54.6 56.2777 54.5647 56.2777 54.5271C56.2777 54.4975 56.2817 54.4696 56.2896 54.4434C56.2976 54.4172 56.3113 54.3944 56.3307 54.375C56.35 54.3545 56.3768 54.3385 56.411 54.3271C56.4452 54.3158 56.4879 54.3101 56.5392 54.3101C56.5904 54.3101 56.6309 54.3294 56.6605 54.3682C56.6901 54.4069 56.7049 54.4587 56.7049 54.5237C56.7049 54.5431 56.7032 54.5624 56.6998 54.5818C56.6964 54.6 56.693 54.6194 56.6896 54.6399C56.6873 54.7379 56.6856 54.8433 56.6844 54.9561C56.6833 55.0688 56.6827 55.1982 56.6827 55.344C56.6827 55.4739 56.6833 55.6066 56.6844 55.7422C56.6856 55.8778 56.6873 56.0082 56.6896 56.1335C56.6918 56.2589 56.6947 56.3762 56.6981 56.4856C56.7027 56.5938 56.7078 56.6873 56.7135 56.7659V56.7642C56.7158 56.7812 56.7175 56.7978 56.7186 56.8137C56.7209 56.8285 56.722 56.8439 56.722 56.8599C56.722 56.8872 56.7186 56.9128 56.7118 56.9368C56.7061 56.9596 56.6958 56.9795 56.681 56.9966C56.6662 57.0137 56.6457 57.0268 56.6195 57.0359C56.5933 57.045 56.5608 57.0496 56.5221 57.0496C56.4765 57.0496 56.4383 57.0456 56.4076 57.0376C56.3779 57.0296 56.354 57.0177 56.3358 57.0017C56.3187 56.9858 56.3062 56.9664 56.2982 56.9436C56.2914 56.9197 56.2879 56.8929 56.2879 56.8633ZM58.1377 56.8906C58.1377 56.8428 58.1412 56.8023 58.148 56.7693C58.1548 56.7362 58.1588 56.7209 58.16 56.7231C58.1622 56.599 58.1639 56.4731 58.1651 56.3455C58.1674 56.2179 58.1685 56.0828 58.1685 55.9404C58.1685 55.8504 58.1685 55.753 58.1685 55.6482C58.1685 55.5422 58.1674 55.4357 58.1651 55.3286C58.1639 55.2204 58.1617 55.1144 58.1583 55.0107C58.1548 54.9059 58.1503 54.8091 58.1446 54.7202C58.14 54.694 58.1366 54.6707 58.1343 54.6501C58.132 54.6285 58.1309 54.6057 58.1309 54.5818C58.1309 54.526 58.1429 54.4821 58.1668 54.4502C58.1907 54.4172 58.2295 54.3944 58.283 54.3818C58.3058 54.3625 58.3309 54.3494 58.3582 54.3425C58.3867 54.3346 58.414 54.3306 58.4402 54.3306C58.4676 54.3306 58.4921 54.3385 58.5137 54.3545C58.5365 54.3704 58.5564 54.3892 58.5735 54.4109C58.5906 54.4325 58.6049 54.4553 58.6163 54.4792C58.6277 54.502 58.6356 54.5208 58.6402 54.5356C58.6755 54.5881 58.7177 54.6479 58.7667 54.7151C58.8168 54.7823 58.8709 54.8547 58.929 54.9321C58.9882 55.0085 59.0509 55.0888 59.117 55.1731C59.1831 55.2563 59.2497 55.3406 59.3169 55.426C59.3853 55.5115 59.4531 55.5969 59.5203 55.6824C59.5875 55.7667 59.6513 55.8481 59.7117 55.9268C59.7721 56.0054 59.8285 56.08 59.8809 56.1506C59.9333 56.2201 59.9783 56.2828 60.0159 56.3386C60.0159 56.0948 60.0148 55.8852 60.0125 55.7097C60.0114 55.5331 60.0097 55.3833 60.0074 55.2603C60.0051 55.1361 60.0022 55.0341 59.9988 54.9543C59.9954 54.8746 59.9926 54.8085 59.9903 54.7561C59.988 54.7037 59.9857 54.661 59.9834 54.6279C59.9823 54.5938 59.9817 54.5613 59.9817 54.5305C59.9817 54.4849 59.9863 54.4479 59.9954 54.4194C60.0057 54.3898 60.0193 54.367 60.0364 54.3511C60.0547 54.3351 60.0769 54.3243 60.1031 54.3186C60.1293 54.3129 60.1595 54.3101 60.1937 54.3101C60.2381 54.3101 60.2728 54.3192 60.2979 54.3374C60.323 54.3556 60.3418 54.379 60.3543 54.4075C60.368 54.4348 60.3759 54.4661 60.3782 54.5015C60.3816 54.5356 60.3834 54.5693 60.3834 54.6023V56.5625C60.3834 56.6035 60.3856 56.6451 60.3902 56.6873C60.3947 56.7283 60.397 56.7721 60.397 56.8188C60.397 56.8633 60.3936 56.9003 60.3868 56.9299C60.3799 56.9584 60.3685 56.9818 60.3526 57C60.3378 57.0182 60.3178 57.0308 60.2928 57.0376C60.2688 57.0456 60.2398 57.0496 60.2056 57.0496C60.1418 57.0496 60.0905 57.0336 60.0518 57.0017C60.0142 56.9698 59.9874 56.9311 59.9715 56.8855C59.8632 56.7374 59.7533 56.5916 59.6417 56.448C59.5311 56.3033 59.4195 56.1592 59.3067 56.0156C59.1939 55.8709 59.0805 55.7257 58.9666 55.5798C58.8527 55.4329 58.7393 55.2836 58.6265 55.1321L58.524 54.9714C58.5251 55.1458 58.5263 55.3013 58.5274 55.438C58.5285 55.5736 58.5297 55.6949 58.5308 55.802C58.532 55.908 58.5331 56.002 58.5342 56.084C58.5354 56.1649 58.5359 56.2378 58.5359 56.3027C58.5371 56.3665 58.5376 56.4252 58.5376 56.4788C58.5388 56.5312 58.5394 56.5824 58.5394 56.6326C58.5405 56.6622 58.5422 56.6941 58.5445 56.7283C58.5479 56.7613 58.5496 56.7938 58.5496 56.8257C58.5496 56.8553 58.5468 56.8838 58.5411 56.9111C58.5365 56.9385 58.5268 56.9624 58.512 56.9829C58.4972 57.0034 58.4761 57.0194 58.4488 57.0308C58.4226 57.0433 58.3878 57.0496 58.3445 57.0496C58.2864 57.0496 58.2374 57.0353 58.1976 57.0068C58.1577 56.9784 58.1377 56.9396 58.1377 56.8906ZM61.4385 56.865C61.4385 56.8445 61.4413 56.8268 61.447 56.812C61.4561 56.7881 61.4715 56.7397 61.4932 56.6667C61.516 56.5938 61.5433 56.5038 61.5752 56.3967C61.6082 56.2885 61.6447 56.1666 61.6846 56.031C61.7256 55.8954 61.7683 55.7524 61.8127 55.6021C61.8583 55.4505 61.9045 55.2956 61.9512 55.1372C61.999 54.9788 62.0457 54.8228 62.0913 54.6689V54.6707C62.0993 54.6388 62.1078 54.6069 62.1169 54.575C62.1272 54.5419 62.1369 54.5117 62.146 54.4844C62.1562 54.457 62.1659 54.4337 62.175 54.4143C62.1853 54.3938 62.1938 54.3801 62.2007 54.3733C62.2189 54.3539 62.2434 54.3385 62.2742 54.3271C62.3049 54.3158 62.3351 54.3101 62.3647 54.3101C62.4046 54.3101 62.4377 54.3175 62.4639 54.3323C62.4901 54.3459 62.5123 54.367 62.5305 54.3955C62.5499 54.4229 62.5664 54.457 62.5801 54.498C62.5949 54.5391 62.6103 54.5858 62.6262 54.6382L63.0552 56.0002L63.0791 56.072C63.1406 55.8829 63.1925 55.7137 63.2346 55.5645C63.2779 55.4152 63.3149 55.2825 63.3457 55.1663C63.3776 55.0489 63.4049 54.9458 63.4277 54.8569C63.4517 54.7681 63.475 54.6883 63.4978 54.6177C63.5092 54.5824 63.5206 54.5465 63.532 54.51C63.5434 54.4736 63.5576 54.4405 63.5747 54.4109C63.5929 54.3813 63.6157 54.3573 63.6431 54.3391C63.6715 54.3197 63.7091 54.3101 63.7559 54.3101C63.7957 54.3101 63.8305 54.3163 63.8601 54.3289C63.8897 54.3403 63.9131 54.367 63.9302 54.4092C63.9382 54.4285 63.9461 54.4485 63.9541 54.469C63.9621 54.4895 63.9718 54.5157 63.9832 54.5476C63.9957 54.5784 64.0105 54.6177 64.0276 54.6655C64.0447 54.7134 64.0658 54.7743 64.0908 54.8484C64.1159 54.9224 64.1455 55.0119 64.1797 55.1167C64.2139 55.2215 64.2543 55.3474 64.301 55.4944C64.3489 55.6402 64.403 55.81 64.4634 56.0037C64.5249 56.1962 64.5944 56.4167 64.6719 56.665C64.6855 56.7015 64.6964 56.7328 64.7043 56.759C64.7135 56.7852 64.7192 56.8097 64.7214 56.8325C64.7237 56.8621 64.722 56.8901 64.7163 56.9163C64.7118 56.9425 64.7026 56.9658 64.689 56.9863C64.6753 57.0057 64.6565 57.0211 64.6326 57.0325C64.6086 57.0439 64.579 57.0496 64.5437 57.0496C64.4981 57.0496 64.4605 57.0399 64.4309 57.0205C64.4013 57.0023 64.3768 56.9795 64.3574 56.9521C64.3392 56.9248 64.325 56.8952 64.3147 56.8633C64.3044 56.8314 64.2965 56.8018 64.2908 56.7744C64.2691 56.6947 64.2446 56.6064 64.2173 56.5095C64.1899 56.4115 64.1609 56.309 64.1301 56.2019C64.0994 56.0948 64.0675 55.986 64.0344 55.8755C64.0014 55.7638 63.9683 55.655 63.9353 55.5491C63.9034 55.442 63.8715 55.3406 63.8396 55.2449C63.8088 55.1492 63.7798 55.0626 63.7524 54.9851C63.7091 55.1059 63.6698 55.2284 63.6345 55.3525C63.5992 55.4756 63.5639 55.5998 63.5286 55.7251C63.4944 55.8493 63.4585 55.974 63.4209 56.0994C63.3844 56.2236 63.3434 56.3472 63.2979 56.4702C63.2887 56.493 63.2819 56.5181 63.2773 56.5454C63.2739 56.5728 63.2722 56.5955 63.2722 56.6138C63.2722 56.6457 63.266 56.6719 63.2534 56.6924C63.2409 56.7129 63.2244 56.7294 63.2039 56.7419C63.1845 56.7533 63.1623 56.7619 63.1372 56.7676C63.1121 56.7721 63.0871 56.7744 63.062 56.7744C63.0199 56.7744 62.9857 56.7687 62.9595 56.7573C62.9344 56.7448 62.9139 56.7283 62.8979 56.7078C62.8831 56.6873 62.8717 56.6645 62.8638 56.6394C62.8569 56.6132 62.8512 56.5864 62.8467 56.5591C62.8444 56.5431 62.8416 56.5278 62.8381 56.5129C62.8359 56.497 62.8324 56.481 62.8279 56.4651C62.8085 56.3967 62.7869 56.3215 62.7629 56.2395C62.7402 56.1563 62.7157 56.0703 62.6895 55.9814C62.6632 55.8914 62.6359 55.8009 62.6074 55.7097C62.5801 55.6174 62.5522 55.528 62.5237 55.4414C62.4963 55.3537 62.469 55.2705 62.4417 55.1919C62.4154 55.1133 62.391 55.0426 62.3682 54.98C62.3397 55.0575 62.3101 55.1486 62.2793 55.2534C62.2497 55.3571 62.2189 55.4676 62.187 55.585C62.1562 55.7012 62.1249 55.8208 62.093 55.9438C62.0623 56.0669 62.0315 56.1871 62.0007 56.3044C61.9711 56.4207 61.9421 56.5306 61.9136 56.6343C61.8851 56.738 61.8583 56.828 61.8333 56.9043C61.807 56.9487 61.7808 56.984 61.7546 57.0103C61.7296 57.0365 61.692 57.0496 61.6418 57.0496C61.6122 57.0496 61.5849 57.0444 61.5598 57.0342C61.5359 57.0251 61.5148 57.012 61.4966 56.9949C61.4784 56.9778 61.4641 56.9584 61.4539 56.9368C61.4436 56.914 61.4385 56.8901 61.4385 56.865ZM65.7663 56.8069C65.7663 56.7875 65.7686 56.767 65.7731 56.7454C65.7788 56.7237 65.7845 56.7038 65.7902 56.6855L65.8056 56.6309L65.7663 54.5869C65.7663 54.5311 65.7726 54.4878 65.7851 54.457C65.7988 54.4263 65.8159 54.4035 65.8364 54.3887C65.8569 54.3739 65.8802 54.3653 65.9064 54.363C65.9338 54.3608 65.9611 54.3596 65.9885 54.3596H66.8891C66.9096 54.3573 66.9324 54.3545 66.9575 54.3511C66.9837 54.3465 67.0019 54.3442 67.0122 54.3442C67.0555 54.3442 67.0902 54.3482 67.1164 54.3562C67.1437 54.3642 67.1648 54.3761 67.1796 54.3921C67.1956 54.4069 67.2058 54.4257 67.2104 54.4485C67.2161 54.4713 67.2189 54.498 67.2189 54.5288C67.2189 54.5721 67.2132 54.6069 67.2019 54.6331C67.1916 54.6593 67.1768 54.6798 67.1574 54.6946C67.1392 54.7083 67.1175 54.7174 67.0925 54.7219C67.0674 54.7265 67.0406 54.7288 67.0122 54.7288C66.9996 54.7288 66.9831 54.7288 66.9626 54.7288C66.9421 54.7276 66.9204 54.7259 66.8977 54.7236C66.7871 54.7236 66.6977 54.7236 66.6293 54.7236C66.5621 54.7236 66.508 54.7242 66.467 54.7253C66.4271 54.7253 66.3964 54.7253 66.3747 54.7253C66.3542 54.7253 66.336 54.7253 66.32 54.7253H66.1611V55.2671C66.1679 55.2671 66.1759 55.2677 66.185 55.2688C66.1953 55.2688 66.2106 55.2688 66.2312 55.2688C66.2517 55.2688 66.2796 55.2688 66.3149 55.2688C66.3514 55.2688 66.3998 55.2688 66.4602 55.2688C66.5205 55.2688 66.5952 55.2688 66.684 55.2688C66.7729 55.2688 66.8806 55.2688 67.007 55.2688C67.0196 55.2688 67.0338 55.2682 67.0498 55.2671C67.0657 55.266 67.0817 55.2642 67.0976 55.262C67.1181 55.2597 67.142 55.2574 67.1694 55.2551C67.1967 55.2528 67.2264 55.2517 67.2583 55.2517C67.289 55.2517 67.3164 55.258 67.3403 55.2705C67.3642 55.283 67.3841 55.299 67.4001 55.3184C67.4172 55.3366 67.4297 55.3565 67.4377 55.3782C67.4468 55.3998 67.4514 55.4203 67.4514 55.4397C67.4514 55.5012 67.4309 55.5462 67.3898 55.5747C67.35 55.6032 67.2981 55.6174 67.2343 55.6174L66.1611 55.6191V56.6428C66.2739 56.6428 66.3872 56.6445 66.5012 56.6479C66.6151 56.6514 66.7342 56.6531 66.8583 56.6531C66.8925 56.6531 66.9239 56.6514 66.9523 56.6479C66.9808 56.6445 67.0082 56.6405 67.0344 56.636C67.0583 56.6326 67.0822 56.6297 67.1062 56.6274C67.1312 56.624 67.1586 56.6223 67.1882 56.6223C67.2224 56.6223 67.2537 56.6252 67.2822 56.6309C67.3118 56.6354 67.3374 56.6445 67.3591 56.6582C67.3807 56.6707 67.3978 56.6884 67.4104 56.7112C67.4229 56.7328 67.4291 56.7607 67.4291 56.7949C67.4291 56.8451 67.4206 56.8838 67.4035 56.9111C67.3864 56.9385 67.3631 56.959 67.3334 56.9727C67.305 56.9852 67.2719 56.9932 67.2343 56.9966C67.1979 56.9989 67.1597 57 67.1198 57H65.9697C65.9401 57 65.9127 56.9966 65.8876 56.9897C65.8637 56.9829 65.8426 56.9721 65.8244 56.9573C65.8062 56.9413 65.7919 56.9214 65.7817 56.8975C65.7714 56.8724 65.7663 56.8422 65.7663 56.8069ZM68.6466 56.8906C68.6466 56.8428 68.65 56.8023 68.6569 56.7693C68.6637 56.7362 68.6677 56.7209 68.6688 56.7231C68.6711 56.599 68.6728 56.4731 68.674 56.3455C68.6763 56.2179 68.6774 56.0828 68.6774 55.9404C68.6774 55.8504 68.6774 55.753 68.6774 55.6482C68.6774 55.5422 68.6763 55.4357 68.674 55.3286C68.6728 55.2204 68.6706 55.1144 68.6671 55.0107C68.6637 54.9059 68.6592 54.8091 68.6535 54.7202C68.6489 54.694 68.6455 54.6707 68.6432 54.6501C68.6409 54.6285 68.6398 54.6057 68.6398 54.5818C68.6398 54.526 68.6518 54.4821 68.6757 54.4502C68.6996 54.4172 68.7383 54.3944 68.7919 54.3818C68.8147 54.3625 68.8397 54.3494 68.8671 54.3425C68.8956 54.3346 68.9229 54.3306 68.9491 54.3306C68.9765 54.3306 69.001 54.3385 69.0226 54.3545C69.0454 54.3704 69.0653 54.3892 69.0824 54.4109C69.0995 54.4325 69.1138 54.4553 69.1251 54.4792C69.1365 54.502 69.1445 54.5208 69.1491 54.5356C69.1844 54.5881 69.2265 54.6479 69.2755 54.7151C69.3257 54.7823 69.3798 54.8547 69.4379 54.9321C69.4971 55.0085 69.5598 55.0888 69.6259 55.1731C69.692 55.2563 69.7586 55.3406 69.8258 55.426C69.8942 55.5115 69.962 55.5969 70.0292 55.6824C70.0964 55.7667 70.1602 55.8481 70.2206 55.9268C70.281 56.0054 70.3374 56.08 70.3898 56.1506C70.4422 56.2201 70.4872 56.2828 70.5248 56.3386C70.5248 56.0948 70.5237 55.8852 70.5214 55.7097C70.5202 55.5331 70.5185 55.3833 70.5163 55.2603C70.514 55.1361 70.5111 55.0341 70.5077 54.9543C70.5043 54.8746 70.5014 54.8085 70.4992 54.7561C70.4969 54.7037 70.4946 54.661 70.4923 54.6279C70.4912 54.5938 70.4906 54.5613 70.4906 54.5305C70.4906 54.4849 70.4952 54.4479 70.5043 54.4194C70.5145 54.3898 70.5282 54.367 70.5453 54.3511C70.5635 54.3351 70.5858 54.3243 70.612 54.3186C70.6382 54.3129 70.6684 54.3101 70.7025 54.3101C70.747 54.3101 70.7817 54.3192 70.8068 54.3374C70.8319 54.3556 70.8506 54.379 70.8632 54.4075C70.8769 54.4348 70.8848 54.4661 70.8871 54.5015C70.8905 54.5356 70.8922 54.5693 70.8922 54.6023V56.5625C70.8922 56.6035 70.8945 56.6451 70.8991 56.6873C70.9036 56.7283 70.9059 56.7721 70.9059 56.8188C70.9059 56.8633 70.9025 56.9003 70.8957 56.9299C70.8888 56.9584 70.8774 56.9818 70.8615 57C70.8467 57.0182 70.8267 57.0308 70.8017 57.0376C70.7777 57.0456 70.7487 57.0496 70.7145 57.0496C70.6507 57.0496 70.5994 57.0336 70.5607 57.0017C70.5231 56.9698 70.4963 56.9311 70.4804 56.8855C70.3721 56.7374 70.2622 56.5916 70.1505 56.448C70.04 56.3033 69.9284 56.1592 69.8156 56.0156C69.7028 55.8709 69.5894 55.7257 69.4755 55.5798C69.3616 55.4329 69.2482 55.2836 69.1354 55.1321L69.0329 54.9714C69.034 55.1458 69.0351 55.3013 69.0363 55.438C69.0374 55.5736 69.0386 55.6949 69.0397 55.802C69.0408 55.908 69.042 56.002 69.0431 56.084C69.0443 56.1649 69.0448 56.2378 69.0448 56.3027C69.046 56.3665 69.0465 56.4252 69.0465 56.4788C69.0477 56.5312 69.0482 56.5824 69.0482 56.6326C69.0494 56.6622 69.0511 56.6941 69.0534 56.7283C69.0568 56.7613 69.0585 56.7938 69.0585 56.8257C69.0585 56.8553 69.0556 56.8838 69.0499 56.9111C69.0454 56.9385 69.0357 56.9624 69.0209 56.9829C69.0061 57.0034 68.985 57.0194 68.9577 57.0308C68.9315 57.0433 68.8967 57.0496 68.8534 57.0496C68.7953 57.0496 68.7463 57.0353 68.7064 57.0068C68.6666 56.9784 68.6466 56.9396 68.6466 56.8906ZM72.619 54.7441C72.5392 54.7441 72.4566 54.7447 72.3712 54.7458C72.2857 54.747 72.1923 54.7476 72.0909 54.7476C72.0636 54.7476 72.0396 54.7413 72.0191 54.7288C71.9986 54.7162 71.9815 54.7003 71.9679 54.6809C71.9542 54.6604 71.9439 54.6376 71.9371 54.6125C71.9303 54.5875 71.9269 54.5624 71.9269 54.5374C71.9269 54.4701 71.9457 54.424 71.9833 54.3989C72.0209 54.3727 72.0818 54.3596 72.1661 54.3596H73.5299C73.5527 54.3596 73.576 54.3625 73.6 54.3682C73.625 54.3739 73.6472 54.3841 73.6666 54.3989C73.6871 54.4137 73.7036 54.4331 73.7162 54.457C73.7298 54.481 73.7367 54.5117 73.7367 54.5493C73.7367 54.5767 73.7321 54.6029 73.723 54.6279C73.7139 54.653 73.7014 54.6746 73.6854 54.6929C73.6706 54.7111 73.6524 54.7259 73.6307 54.7373C73.6102 54.7487 73.588 54.7544 73.5641 54.7544C73.5458 54.7544 73.5282 54.7527 73.5111 54.7493C73.494 54.7458 73.4758 54.7441 73.4564 54.7441H73.0155L73.0104 56.6719C73.0104 56.6992 73.0121 56.726 73.0155 56.7522C73.02 56.7784 73.0223 56.8069 73.0223 56.8376C73.0223 56.8627 73.02 56.8878 73.0155 56.9128C73.0109 56.9379 73.0012 56.9607 72.9864 56.9812C72.9716 57.0017 72.9505 57.0182 72.9232 57.0308C72.8959 57.0444 72.86 57.0513 72.8155 57.0513C72.7631 57.0513 72.7232 57.0422 72.6959 57.0239C72.6686 57.0068 72.6486 56.9846 72.6361 56.9573C72.6247 56.9299 72.6184 56.8997 72.6173 56.8667C72.6161 56.8337 72.6156 56.8018 72.6156 56.771L72.619 54.7441ZM74.7046 56.8325C74.7046 56.8029 74.7069 56.7659 74.7115 56.7214C74.7172 56.677 74.728 56.6343 74.7439 56.5933C74.7599 56.5522 74.7827 56.5169 74.8123 56.4873C74.8419 56.4577 74.8812 56.4429 74.9302 56.4429C74.9792 56.4429 75.0168 56.4537 75.043 56.4753C75.0704 56.497 75.0903 56.5226 75.1028 56.5522C75.1154 56.5807 75.1228 56.6098 75.125 56.6394C75.1285 56.669 75.1302 56.6924 75.1302 56.7095V56.7197C75.1302 56.771 75.1268 56.8166 75.1199 56.8564C75.1131 56.8963 75.1011 56.9299 75.084 56.9573C75.0681 56.9846 75.0464 57.0057 75.0191 57.0205C74.9917 57.0353 74.9576 57.0427 74.9165 57.0427C74.8778 57.0427 74.8448 57.0365 74.8174 57.0239C74.7912 57.0125 74.7696 56.9972 74.7525 56.9778C74.7354 56.9584 74.7229 56.9362 74.7149 56.9111C74.7081 56.8861 74.7046 56.8599 74.7046 56.8325ZM76.2195 55.708C76.2195 55.5439 76.2371 55.3958 76.2725 55.2637C76.3089 55.1304 76.3585 55.0119 76.4211 54.9082C76.4838 54.8045 76.5573 54.7151 76.6416 54.6399C76.7259 54.5647 76.8171 54.5026 76.915 54.4536C77.013 54.4046 77.115 54.3687 77.2209 54.3459C77.328 54.322 77.4346 54.3101 77.5405 54.3101C77.6374 54.3101 77.7325 54.3192 77.8259 54.3374C77.9194 54.3545 78.0116 54.379 78.1028 54.4109C78.1301 54.4211 78.1575 54.4314 78.1848 54.4417C78.2133 54.4508 78.2384 54.4627 78.26 54.4775C78.2828 54.4924 78.301 54.5111 78.3147 54.5339C78.3284 54.5567 78.3352 54.5858 78.3352 54.6211C78.3352 54.6621 78.3284 54.6963 78.3147 54.7236C78.3022 54.7498 78.2856 54.7709 78.2651 54.7869C78.2446 54.8028 78.2218 54.8142 78.1968 54.821C78.1729 54.8279 78.1495 54.8313 78.1267 54.8313C78.1108 54.8313 78.0937 54.829 78.0754 54.8245C78.0572 54.8188 78.0384 54.8119 78.019 54.804C77.9997 54.796 77.9809 54.7869 77.9626 54.7766C77.9444 54.7652 77.9279 54.7544 77.9131 54.7441C77.8721 54.7271 77.8333 54.7145 77.7969 54.7065C77.7616 54.6974 77.7274 54.6912 77.6943 54.6877C77.6613 54.6832 77.6288 54.6809 77.5969 54.6809C77.565 54.6798 77.5331 54.6792 77.5012 54.6792C77.4294 54.6792 77.3577 54.6877 77.2859 54.7048C77.2141 54.7208 77.1446 54.7464 77.0774 54.7817C77.0113 54.8159 76.9492 54.8592 76.8911 54.9116C76.833 54.964 76.7823 55.0267 76.739 55.0996C76.6969 55.1714 76.6632 55.2534 76.6382 55.3457C76.6143 55.438 76.6023 55.5411 76.6023 55.655C76.6023 55.8442 76.6291 56.0042 76.6826 56.1353C76.7373 56.2651 76.8079 56.3705 76.8945 56.4514C76.9823 56.5323 77.0808 56.591 77.1902 56.6274C77.2996 56.6628 77.4101 56.6804 77.5217 56.6804C77.573 56.6804 77.6231 56.6776 77.6721 56.6719C77.7222 56.665 77.7684 56.6571 77.8105 56.6479C77.8538 56.6377 77.892 56.6269 77.925 56.6155C77.9581 56.6029 77.9832 56.5904 78.0002 56.5779C78.0344 56.5483 78.0646 56.526 78.0908 56.5112C78.117 56.4953 78.1472 56.4873 78.1814 56.4873C78.2076 56.4873 78.2321 56.4902 78.2549 56.4958C78.2788 56.5015 78.2993 56.5118 78.3164 56.5266C78.3335 56.5403 78.3472 56.5585 78.3574 56.5813C78.3677 56.6041 78.3728 56.6326 78.3728 56.6667C78.3728 56.7146 78.3563 56.7585 78.3232 56.7983C78.2913 56.8371 78.2395 56.8735 78.1677 56.9077V56.906C78.1438 56.9197 78.1085 56.9351 78.0618 56.9521C78.0162 56.9692 77.9644 56.9852 77.9062 57C77.8493 57.0137 77.7889 57.0251 77.7251 57.0342C77.6613 57.0444 77.5986 57.0496 77.5371 57.0496C77.397 57.0496 77.2671 57.033 77.1475 57C77.029 56.9658 76.9207 56.9191 76.8228 56.8599C76.7259 56.7995 76.6399 56.7277 76.5647 56.6445C76.4895 56.5614 76.4263 56.4702 76.375 56.3711C76.3237 56.272 76.285 56.1666 76.2588 56.0549C76.2326 55.9421 76.2195 55.8265 76.2195 55.708ZM79.4484 55.679C79.4484 55.4762 79.4769 55.291 79.5339 55.1235C79.592 54.9561 79.6735 54.8119 79.7783 54.6912C79.8842 54.5704 80.0113 54.477 80.1594 54.4109C80.3086 54.3437 80.4738 54.3101 80.655 54.3101C80.8464 54.3101 81.015 54.3437 81.1608 54.4109C81.3078 54.477 81.4309 54.5704 81.53 54.6912C81.6302 54.8119 81.706 54.9561 81.7573 55.1235C81.8085 55.291 81.8342 55.4762 81.8342 55.679C81.8342 55.8715 81.8063 56.0515 81.7504 56.219C81.6946 56.3853 81.6149 56.53 81.5112 56.6531C81.4075 56.7761 81.2822 56.873 81.1352 56.9436C80.9882 57.0142 80.8236 57.0496 80.6413 57.0496C80.5205 57.0496 80.4072 57.0336 80.3012 57.0017C80.1953 56.9698 80.0979 56.9242 80.009 56.865C79.9213 56.8057 79.8426 56.7351 79.7731 56.6531C79.7036 56.5699 79.6444 56.4776 79.5954 56.3762C79.5476 56.2748 79.5111 56.1654 79.486 56.0481C79.461 55.9307 79.4484 55.8077 79.4484 55.679ZM79.8381 55.679C79.8381 55.7644 79.8461 55.8493 79.862 55.9336C79.878 56.0168 79.9013 56.0965 79.9321 56.1729C79.964 56.248 80.0027 56.3181 80.0483 56.3831C80.095 56.4469 80.148 56.5027 80.2072 56.5505C80.2676 56.5972 80.3343 56.6343 80.4072 56.6616C80.4812 56.6878 80.561 56.7009 80.6464 56.7009C80.7364 56.7009 80.8185 56.6878 80.8925 56.6616C80.9666 56.6343 81.0332 56.5972 81.0925 56.5505C81.1517 56.5027 81.203 56.4469 81.2463 56.3831C81.2907 56.3181 81.3272 56.248 81.3557 56.1729C81.3853 56.0965 81.4069 56.0168 81.4206 55.9336C81.4354 55.8493 81.4428 55.7644 81.4428 55.679C81.4428 55.5422 81.4269 55.4129 81.395 55.291C81.3631 55.168 81.3141 55.0597 81.248 54.9663C81.1831 54.8729 81.1005 54.7988 81.0002 54.7441C80.9011 54.6895 80.7832 54.6621 80.6464 54.6621C80.5177 54.6621 80.4032 54.6866 80.3029 54.7356C80.2027 54.7846 80.1178 54.8535 80.0483 54.9424C79.9799 55.0312 79.9275 55.1383 79.8911 55.2637C79.8557 55.3879 79.8381 55.5263 79.8381 55.679ZM83.0397 56.8906C83.0397 56.8428 83.0431 56.8023 83.0499 56.7693C83.0568 56.7362 83.0608 56.7209 83.0619 56.7231C83.0642 56.599 83.0659 56.4731 83.067 56.3455C83.0693 56.2179 83.0705 56.0828 83.0705 55.9404C83.0705 55.8504 83.0705 55.753 83.0705 55.6482C83.0705 55.5422 83.0693 55.4357 83.067 55.3286C83.0659 55.2204 83.0636 55.1144 83.0602 55.0107C83.0568 54.9059 83.0522 54.8091 83.0465 54.7202C83.042 54.694 83.0386 54.6707 83.0363 54.6501C83.034 54.6285 83.0329 54.6057 83.0329 54.5818C83.0329 54.526 83.0448 54.4821 83.0687 54.4502C83.0927 54.4172 83.1314 54.3944 83.185 54.3818C83.2077 54.3625 83.2328 54.3494 83.2602 54.3425C83.2886 54.3346 83.316 54.3306 83.3422 54.3306C83.3695 54.3306 83.394 54.3385 83.4157 54.3545C83.4385 54.3704 83.4584 54.3892 83.4755 54.4109C83.4926 54.4325 83.5068 54.4553 83.5182 54.4792C83.5296 54.502 83.5376 54.5208 83.5421 54.5356C83.5775 54.5881 83.6196 54.6479 83.6686 54.7151C83.7187 54.7823 83.7729 54.8547 83.831 54.9321C83.8902 55.0085 83.9529 55.0888 84.0189 55.1731C84.085 55.2563 84.1517 55.3406 84.2189 55.426C84.2873 55.5115 84.355 55.5969 84.4223 55.6824C84.4895 55.7667 84.5533 55.8481 84.6137 55.9268C84.6741 56.0054 84.7305 56.08 84.7829 56.1506C84.8353 56.2201 84.8803 56.2828 84.9179 56.3386C84.9179 56.0948 84.9167 55.8852 84.9145 55.7097C84.9133 55.5331 84.9116 55.3833 84.9093 55.2603C84.907 55.1361 84.9042 55.0341 84.9008 54.9543C84.8974 54.8746 84.8945 54.8085 84.8922 54.7561C84.89 54.7037 84.8877 54.661 84.8854 54.6279C84.8843 54.5938 84.8837 54.5613 84.8837 54.5305C84.8837 54.4849 84.8882 54.4479 84.8974 54.4194C84.9076 54.3898 84.9213 54.367 84.9384 54.3511C84.9566 54.3351 84.9788 54.3243 85.005 54.3186C85.0312 54.3129 85.0614 54.3101 85.0956 54.3101C85.14 54.3101 85.1748 54.3192 85.1999 54.3374C85.2249 54.3556 85.2437 54.379 85.2562 54.4075C85.2699 54.4348 85.2779 54.4661 85.2802 54.5015C85.2836 54.5356 85.2853 54.5693 85.2853 54.6023V56.5625C85.2853 56.6035 85.2876 56.6451 85.2921 56.6873C85.2967 56.7283 85.299 56.7721 85.299 56.8188C85.299 56.8633 85.2956 56.9003 85.2887 56.9299C85.2819 56.9584 85.2705 56.9818 85.2545 57C85.2397 57.0182 85.2198 57.0308 85.1947 57.0376C85.1708 57.0456 85.1417 57.0496 85.1076 57.0496C85.0438 57.0496 84.9925 57.0336 84.9538 57.0017C84.9162 56.9698 84.8894 56.9311 84.8734 56.8855C84.7652 56.7374 84.6553 56.5916 84.5436 56.448C84.4331 56.3033 84.3214 56.1592 84.2086 56.0156C84.0958 55.8709 83.9825 55.7257 83.8686 55.5798C83.7546 55.4329 83.6413 55.2836 83.5285 55.1321L83.4259 54.9714C83.4271 55.1458 83.4282 55.3013 83.4293 55.438C83.4305 55.5736 83.4316 55.6949 83.4328 55.802C83.4339 55.908 83.435 56.002 83.4362 56.084C83.4373 56.1649 83.4379 56.2378 83.4379 56.3027C83.439 56.3665 83.4396 56.4252 83.4396 56.4788C83.4407 56.5312 83.4413 56.5824 83.4413 56.6326C83.4424 56.6622 83.4442 56.6941 83.4464 56.7283C83.4499 56.7613 83.4516 56.7938 83.4516 56.8257C83.4516 56.8553 83.4487 56.8838 83.443 56.9111C83.4385 56.9385 83.4288 56.9624 83.414 56.9829C83.3992 57.0034 83.3781 57.0194 83.3507 57.0308C83.3245 57.0433 83.2898 57.0496 83.2465 57.0496C83.1884 57.0496 83.1394 57.0353 83.0995 57.0068C83.0596 56.9784 83.0397 56.9396 83.0397 56.8906ZM86.4378 55.708C86.4378 55.5439 86.4555 55.3958 86.4908 55.2637C86.5273 55.1304 86.5768 55.0119 86.6395 54.9082C86.7022 54.8045 86.7757 54.7151 86.86 54.6399C86.9443 54.5647 87.0354 54.5026 87.1334 54.4536C87.2314 54.4046 87.3334 54.3687 87.4393 54.3459C87.5464 54.322 87.6529 54.3101 87.7589 54.3101C87.8557 54.3101 87.9509 54.3192 88.0443 54.3374C88.1377 54.3545 88.23 54.379 88.3211 54.4109C88.3485 54.4211 88.3758 54.4314 88.4032 54.4417C88.4317 54.4508 88.4567 54.4627 88.4784 54.4775C88.5012 54.4924 88.5194 54.5111 88.5331 54.5339C88.5467 54.5567 88.5536 54.5858 88.5536 54.6211C88.5536 54.6621 88.5467 54.6963 88.5331 54.7236C88.5205 54.7498 88.504 54.7709 88.4835 54.7869C88.463 54.8028 88.4402 54.8142 88.4151 54.821C88.3912 54.8279 88.3679 54.8313 88.3451 54.8313C88.3291 54.8313 88.312 54.829 88.2938 54.8245C88.2756 54.8188 88.2568 54.8119 88.2374 54.804C88.218 54.796 88.1992 54.7869 88.181 54.7766C88.1628 54.7652 88.1463 54.7544 88.1314 54.7441C88.0904 54.7271 88.0517 54.7145 88.0152 54.7065C87.9799 54.6974 87.9457 54.6912 87.9127 54.6877C87.8797 54.6832 87.8472 54.6809 87.8153 54.6809C87.7834 54.6798 87.7515 54.6792 87.7196 54.6792C87.6478 54.6792 87.576 54.6877 87.5042 54.7048C87.4325 54.7208 87.363 54.7464 87.2958 54.7817C87.2297 54.8159 87.1676 54.8592 87.1095 54.9116C87.0514 54.964 87.0007 55.0267 86.9574 55.0996C86.9152 55.1714 86.8816 55.2534 86.8565 55.3457C86.8326 55.438 86.8207 55.5411 86.8207 55.655C86.8207 55.8442 86.8474 56.0042 86.901 56.1353C86.9557 56.2651 87.0263 56.3705 87.1129 56.4514C87.2006 56.5323 87.2992 56.591 87.4085 56.6274C87.5179 56.6628 87.6284 56.6804 87.7401 56.6804C87.7914 56.6804 87.8415 56.6776 87.8905 56.6719C87.9406 56.665 87.9868 56.6571 88.0289 56.6479C88.0722 56.6377 88.1104 56.6269 88.1434 56.6155C88.1765 56.6029 88.2015 56.5904 88.2186 56.5779C88.2528 56.5483 88.283 56.526 88.3092 56.5112C88.3354 56.4953 88.3656 56.4873 88.3998 56.4873C88.426 56.4873 88.4505 56.4902 88.4732 56.4958C88.4972 56.5015 88.5177 56.5118 88.5348 56.5266C88.5519 56.5403 88.5655 56.5585 88.5758 56.5813C88.586 56.6041 88.5912 56.6326 88.5912 56.6667C88.5912 56.7146 88.5746 56.7585 88.5416 56.7983C88.5097 56.8371 88.4579 56.8735 88.3861 56.9077V56.906C88.3622 56.9197 88.3268 56.9351 88.2801 56.9521C88.2346 56.9692 88.1827 56.9852 88.1246 57C88.0676 57.0137 88.0073 57.0251 87.9435 57.0342C87.8797 57.0444 87.817 57.0496 87.7555 57.0496C87.6153 57.0496 87.4855 57.033 87.3658 57C87.2473 56.9658 87.1391 56.9191 87.0411 56.8599C86.9443 56.7995 86.8583 56.7277 86.7831 56.6445C86.7079 56.5614 86.6446 56.4702 86.5934 56.3711C86.5421 56.272 86.5034 56.1666 86.4771 56.0549C86.4509 55.9421 86.4378 55.8265 86.4378 55.708ZM89.7591 56.8069C89.7591 56.7875 89.7614 56.767 89.7659 56.7454C89.7716 56.7237 89.7773 56.7038 89.783 56.6855L89.7984 56.6309L89.7591 54.5869C89.7591 54.5311 89.7653 54.4878 89.7779 54.457C89.7915 54.4263 89.8086 54.4035 89.8291 54.3887C89.8497 54.3739 89.873 54.3653 89.8992 54.363C89.9266 54.3608 89.9539 54.3596 89.9812 54.3596H90.8819C90.9024 54.3573 90.9252 54.3545 90.9502 54.3511C90.9764 54.3465 90.9947 54.3442 91.0049 54.3442C91.0482 54.3442 91.083 54.3482 91.1092 54.3562C91.1365 54.3642 91.1576 54.3761 91.1724 54.3921C91.1884 54.4069 91.1986 54.4257 91.2032 54.4485C91.2089 54.4713 91.2117 54.498 91.2117 54.5288C91.2117 54.5721 91.206 54.6069 91.1946 54.6331C91.1844 54.6593 91.1696 54.6798 91.1502 54.6946C91.132 54.7083 91.1103 54.7174 91.0853 54.7219C91.0602 54.7265 91.0334 54.7288 91.0049 54.7288C90.9924 54.7288 90.9759 54.7288 90.9554 54.7288C90.9349 54.7276 90.9132 54.7259 90.8904 54.7236C90.7799 54.7236 90.6905 54.7236 90.6221 54.7236C90.5549 54.7236 90.5008 54.7242 90.4598 54.7253C90.4199 54.7253 90.3891 54.7253 90.3675 54.7253C90.347 54.7253 90.3287 54.7253 90.3128 54.7253H90.1539V55.2671C90.1607 55.2671 90.1687 55.2677 90.1778 55.2688C90.188 55.2688 90.2034 55.2688 90.2239 55.2688C90.2444 55.2688 90.2723 55.2688 90.3077 55.2688C90.3441 55.2688 90.3925 55.2688 90.4529 55.2688C90.5133 55.2688 90.5879 55.2688 90.6768 55.2688C90.7657 55.2688 90.8733 55.2688 90.9998 55.2688C91.0123 55.2688 91.0266 55.2682 91.0425 55.2671C91.0585 55.266 91.0744 55.2642 91.0904 55.262C91.1109 55.2597 91.1348 55.2574 91.1622 55.2551C91.1895 55.2528 91.2191 55.2517 91.251 55.2517C91.2818 55.2517 91.3091 55.258 91.3331 55.2705C91.357 55.283 91.3769 55.299 91.3929 55.3184C91.41 55.3366 91.4225 55.3565 91.4305 55.3782C91.4396 55.3998 91.4441 55.4203 91.4441 55.4397C91.4441 55.5012 91.4236 55.5462 91.3826 55.5747C91.3427 55.6032 91.2909 55.6174 91.2271 55.6174L90.1539 55.6191V56.6428C90.2666 56.6428 90.38 56.6445 90.4939 56.6479C90.6079 56.6514 90.7269 56.6531 90.8511 56.6531C90.8853 56.6531 90.9166 56.6514 90.9451 56.6479C90.9736 56.6445 91.0009 56.6405 91.0271 56.636C91.0511 56.6326 91.075 56.6297 91.0989 56.6274C91.124 56.624 91.1513 56.6223 91.181 56.6223C91.2151 56.6223 91.2465 56.6252 91.2749 56.6309C91.3046 56.6354 91.3302 56.6445 91.3519 56.6582C91.3735 56.6707 91.3906 56.6884 91.4031 56.7112C91.4157 56.7328 91.4219 56.7607 91.4219 56.7949C91.4219 56.8451 91.4134 56.8838 91.3963 56.9111C91.3792 56.9385 91.3558 56.959 91.3262 56.9727C91.2977 56.9852 91.2647 56.9932 91.2271 56.9966C91.1906 56.9989 91.1525 57 91.1126 57H89.9624C89.9328 57 89.9055 56.9966 89.8804 56.9897C89.8565 56.9829 89.8354 56.9721 89.8172 56.9573C89.799 56.9413 89.7847 56.9214 89.7745 56.8975C89.7642 56.8724 89.7591 56.8422 89.7591 56.8069ZM92.6462 56.8582C92.6462 56.8217 92.6485 56.7852 92.6531 56.7488C92.6588 56.7112 92.6622 56.6724 92.6633 56.6326L92.6565 54.6672C92.6497 54.6513 92.6434 54.6291 92.6377 54.6006C92.6331 54.5721 92.6309 54.5453 92.6309 54.5203C92.6309 54.4975 92.6348 54.4747 92.6428 54.4519C92.6508 54.4291 92.6622 54.4092 92.677 54.3921C92.693 54.3739 92.7123 54.3596 92.7351 54.3494C92.7579 54.338 92.7841 54.3323 92.8137 54.3323C92.8639 54.3323 92.914 54.3351 92.9641 54.3408C93.0142 54.3454 93.0667 54.3477 93.1213 54.3477C93.1646 54.3477 93.2079 54.3454 93.2512 54.3408C93.2957 54.3351 93.3424 54.3323 93.3914 54.3323C93.552 54.3323 93.7018 54.3545 93.8408 54.3989C93.9798 54.4434 94.1 54.5089 94.2014 54.5955C94.3028 54.6809 94.3826 54.7863 94.4407 54.9116C94.4988 55.0369 94.5278 55.1799 94.5278 55.3406C94.5278 55.4932 94.5085 55.6265 94.4697 55.7405C94.431 55.8533 94.378 55.9501 94.3108 56.031C94.2447 56.1119 94.1667 56.1785 94.0767 56.231C93.9878 56.2822 93.8915 56.3227 93.7878 56.3523C93.6853 56.3819 93.5788 56.4024 93.4683 56.4138C93.3577 56.4252 93.2484 56.4309 93.1401 56.4309C93.1287 56.4309 93.1191 56.4315 93.1111 56.4326C93.1031 56.4326 93.0957 56.4326 93.0889 56.4326C93.082 56.4326 93.0746 56.4326 93.0667 56.4326C93.0598 56.4315 93.0513 56.4309 93.041 56.4309C93.041 56.4708 93.041 56.5027 93.041 56.5266C93.041 56.5494 93.041 56.5682 93.041 56.583C93.0422 56.5978 93.0427 56.6104 93.0427 56.6206C93.0427 56.6309 93.0427 56.6428 93.0427 56.6565C93.0427 56.693 93.0461 56.7294 93.053 56.7659C93.061 56.8023 93.0649 56.8411 93.0649 56.8821C93.0649 56.9128 93.0581 56.939 93.0444 56.9607C93.0308 56.9812 93.0137 56.9977 92.9932 57.0103C92.9727 57.0239 92.9504 57.0336 92.9265 57.0393C92.9026 57.0461 92.8804 57.0496 92.8599 57.0496C92.8325 57.0496 92.8057 57.045 92.7795 57.0359C92.7533 57.0279 92.7306 57.016 92.7112 57C92.6918 56.9829 92.6759 56.963 92.6633 56.9402C92.6519 56.9163 92.6462 56.8889 92.6462 56.8582ZM93.0427 56.0601C93.0655 56.0612 93.0889 56.0623 93.1128 56.0635C93.1379 56.0646 93.1612 56.0658 93.1829 56.0669C93.2045 56.068 93.2239 56.0692 93.241 56.0703C93.2581 56.0703 93.2712 56.0703 93.2803 56.0703C93.4067 56.0703 93.5155 56.0601 93.6067 56.0396C93.699 56.019 93.7764 55.9911 93.8391 55.9558C93.9018 55.9205 93.9525 55.8795 93.9912 55.8328C94.0299 55.7849 94.0596 55.7336 94.0801 55.679C94.1006 55.6231 94.1143 55.5656 94.1211 55.5063C94.1279 55.446 94.1313 55.3861 94.1313 55.3269C94.1313 55.2323 94.1177 55.1509 94.0903 55.0825C94.0641 55.013 94.0294 54.9549 93.9861 54.9082C93.9428 54.8615 93.8932 54.8239 93.8374 54.7954C93.7827 54.7669 93.7263 54.7453 93.6682 54.7305C93.6112 54.7145 93.5554 54.7043 93.5007 54.6997C93.446 54.694 93.3982 54.6912 93.3572 54.6912C93.3048 54.6912 93.2518 54.6923 93.1982 54.6946C93.1458 54.6957 93.0894 54.6969 93.0291 54.698C93.0313 54.8472 93.033 54.9788 93.0342 55.0928C93.0353 55.2056 93.0359 55.3058 93.0359 55.3936C93.037 55.4801 93.0376 55.5559 93.0376 55.6208C93.0387 55.6858 93.0393 55.7439 93.0393 55.7952C93.0404 55.8464 93.041 55.8931 93.041 55.9353C93.0422 55.9775 93.0427 56.019 93.0427 56.0601ZM96.0786 54.7441C95.9988 54.7441 95.9162 54.7447 95.8308 54.7458C95.7453 54.747 95.6519 54.7476 95.5505 54.7476C95.5231 54.7476 95.4992 54.7413 95.4787 54.7288C95.4582 54.7162 95.4411 54.7003 95.4274 54.6809C95.4138 54.6604 95.4035 54.6376 95.3967 54.6125C95.3898 54.5875 95.3864 54.5624 95.3864 54.5374C95.3864 54.4701 95.4052 54.424 95.4428 54.3989C95.4804 54.3727 95.5414 54.3596 95.6257 54.3596H96.9895C97.0122 54.3596 97.0356 54.3625 97.0595 54.3682C97.0846 54.3739 97.1068 54.3841 97.1262 54.3989C97.1467 54.4137 97.1632 54.4331 97.1757 54.457C97.1894 54.481 97.1962 54.5117 97.1962 54.5493C97.1962 54.5767 97.1917 54.6029 97.1826 54.6279C97.1735 54.653 97.1609 54.6746 97.145 54.6929C97.1302 54.7111 97.1119 54.7259 97.0903 54.7373C97.0698 54.7487 97.0476 54.7544 97.0236 54.7544C97.0054 54.7544 96.9877 54.7527 96.9707 54.7493C96.9536 54.7458 96.9353 54.7441 96.916 54.7441H96.4751L96.4699 56.6719C96.4699 56.6992 96.4716 56.726 96.4751 56.7522C96.4796 56.7784 96.4819 56.8069 96.4819 56.8376C96.4819 56.8627 96.4796 56.8878 96.4751 56.9128C96.4705 56.9379 96.4608 56.9607 96.446 56.9812C96.4312 57.0017 96.4101 57.0182 96.3828 57.0308C96.3554 57.0444 96.3195 57.0513 96.2751 57.0513C96.2227 57.0513 96.1828 57.0422 96.1555 57.0239C96.1281 57.0068 96.1082 56.9846 96.0957 56.9573C96.0843 56.9299 96.078 56.8997 96.0769 56.8667C96.0757 56.8337 96.0751 56.8018 96.0751 56.771L96.0786 54.7441ZM98.1386 56.3865C98.1443 56.2942 98.1631 56.2241 98.195 56.1763C98.228 56.1273 98.2855 56.1028 98.3676 56.1028C98.4188 56.1028 98.4627 56.1176 98.4992 56.1472C98.5356 56.1757 98.5539 56.2156 98.5539 56.2668C98.5539 56.2965 98.551 56.3261 98.5453 56.3557C98.5396 56.3853 98.5379 56.4161 98.5402 56.448C98.5447 56.4867 98.5618 56.5221 98.5915 56.554C98.6211 56.5859 98.6587 56.6138 98.7042 56.6377C98.7498 56.6605 98.8017 56.6787 98.8598 56.6924C98.9179 56.7049 98.9771 56.7112 99.0375 56.7112C99.099 56.7112 99.16 56.7061 99.2204 56.6958C99.2819 56.6844 99.3371 56.6639 99.3861 56.6343C99.4363 56.6047 99.4767 56.5642 99.5075 56.5129C99.5382 56.4617 99.5536 56.395 99.5536 56.313C99.5536 56.2594 99.5405 56.2093 99.5143 56.1626C99.4881 56.1147 99.4545 56.0715 99.4135 56.0327C99.3725 55.9928 99.3269 55.9569 99.2768 55.925C99.2278 55.8931 99.1805 55.8652 99.1349 55.8413C99.07 55.8083 99.0033 55.7764 98.935 55.7456C98.8677 55.7137 98.8017 55.6807 98.7367 55.6465C98.6729 55.6112 98.612 55.573 98.5539 55.532C98.4969 55.4898 98.4468 55.4408 98.4035 55.385C98.3602 55.3292 98.326 55.2648 98.3009 55.1919C98.2759 55.1178 98.2633 55.0324 98.2633 54.9355C98.2633 54.8273 98.2861 54.7339 98.3317 54.6553C98.3784 54.5767 98.4394 54.5117 98.5145 54.4604C98.5897 54.4092 98.6758 54.3716 98.7726 54.3477C98.8706 54.3226 98.9708 54.3101 99.0734 54.3101C99.1645 54.3101 99.2528 54.318 99.3383 54.334C99.4237 54.3499 99.5001 54.3761 99.5673 54.4126C99.6345 54.4479 99.6903 54.4958 99.7348 54.5562C99.7792 54.6154 99.806 54.6883 99.8151 54.7749C99.8174 54.8068 99.8134 54.8353 99.8031 54.8604C99.7929 54.8843 99.7786 54.9048 99.7604 54.9219C99.7422 54.9378 99.7211 54.9504 99.6972 54.9595C99.6744 54.9674 99.651 54.9714 99.6271 54.9714C99.5906 54.9714 99.5599 54.9657 99.5348 54.9543C99.5097 54.943 99.4892 54.9287 99.4733 54.9116C99.4573 54.8945 99.4454 54.8752 99.4374 54.8535C99.4294 54.8319 99.4243 54.8108 99.422 54.7903C99.4049 54.7629 99.3827 54.7407 99.3554 54.7236C99.328 54.7054 99.2973 54.6912 99.2631 54.6809C99.23 54.6695 99.1953 54.6621 99.1588 54.6587C99.1224 54.6541 99.0871 54.6519 99.0529 54.6519C99.005 54.6519 98.9572 54.657 98.9093 54.6672C98.8626 54.6775 98.8199 54.694 98.7812 54.7168C98.7424 54.7396 98.7111 54.7686 98.6872 54.804C98.6632 54.8393 98.6513 54.8826 98.6513 54.9338C98.6513 54.9942 98.6655 55.0478 98.694 55.0945C98.7225 55.1412 98.7584 55.1828 98.8017 55.2192C98.845 55.2557 98.8928 55.2887 98.9452 55.3184C98.9988 55.348 99.0506 55.3753 99.1007 55.4004C99.1611 55.4312 99.2238 55.4642 99.2887 55.4995C99.3537 55.5337 99.4169 55.5713 99.4784 55.6123C99.5411 55.6522 99.6003 55.696 99.6562 55.7439C99.712 55.7917 99.761 55.8453 99.8031 55.9045C99.8453 55.9626 99.8783 56.0264 99.9022 56.0959C99.9273 56.1654 99.9398 56.2424 99.9398 56.3267C99.9398 56.4167 99.9273 56.497 99.9022 56.5676C99.8772 56.6383 99.843 56.7004 99.7997 56.7539C99.7564 56.8075 99.7057 56.853 99.6476 56.8906C99.5895 56.9282 99.5268 56.959 99.4596 56.9829C99.3924 57.0068 99.3223 57.0239 99.2494 57.0342C99.1776 57.0456 99.1059 57.0513 99.0341 57.0513C98.9737 57.0513 98.9088 57.0461 98.8393 57.0359C98.7709 57.0256 98.7031 57.0097 98.6359 56.988C98.5687 56.9653 98.5043 56.9368 98.4428 56.9026C98.3824 56.8673 98.3288 56.8251 98.2821 56.7761C98.2366 56.726 98.2007 56.669 98.1745 56.6052C98.1483 56.5403 98.1363 56.4674 98.1386 56.3865Z" fill="white"/>
<line x1="50.1768" y1="3.17678" x2="36.1768" y2="17.1768" stroke="white" stroke-width="0.5"/>
<line x1="63.8232" y1="17.1768" x2="49.8232" y2="3.17678" stroke="white" stroke-width="0.5"/>
<line x1="46.1768" y1="3.17678" x2="32.1768" y2="17.1768" stroke="white" stroke-width="0.5"/>
<line x1="59.8232" y1="17.1768" x2="45.8232" y2="3.17678" stroke="white" stroke-width="0.5"/>
<line x1="54.1768" y1="3.17678" x2="40.1768" y2="17.1768" stroke="white" stroke-width="0.5"/>
<line x1="67.8232" y1="17.1768" x2="53.8232" y2="3.17678" stroke="white" stroke-width="0.5"/>
</g>
<defs>
<filter id="filter0_d_150_533" x="44" y="21.5" width="16" height="26" filterUnits="userSpaceOnUse" color-interpolation-filters="sRGB">
<feFlood flood-opacity="0" result="BackgroundImageFix"/>
<feColorMatrix in="SourceAlpha" type="matrix" values="0 0 0 0 0 0 0 0 0 0 0 0 0 0 0 0 0 0 127 0" result="hardAlpha"/>
<feOffset dx="1" dy="1"/>
<feGaussianBlur stdDeviation="1"/>
<feComposite in2="hardAlpha" operator="out"/>
<feColorMatrix type="matrix" values="0 0 0 0 0 0 0 0 0 0 0 0 0 0 0 0 0 0 0.25 0"/>
<feBlend mode="normal" in2="BackgroundImageFix" result="effect1_dropShadow_150_533"/>
<feBlend mode="normal" in="SourceGraphic" in2="effect1_dropShadow_150_533" result="shape"/>
</filter>
<filter id="filter1_d_150_533" x="58.5" y="21.5001" width="19.5876" height="25.9998" filterUnits="userSpaceOnUse" color-interpolation-filters="sRGB">
<feFlood flood-opacity="0" result="BackgroundImageFix"/>
<feColorMatrix in="SourceAlpha" type="matrix" values="0 0 0 0 0 0 0 0 0 0 0 0 0 0 0 0 0 0 127 0" result="hardAlpha"/>
<feOffset dx="1" dy="1"/>
<feGaussianBlur stdDeviation="1"/>
<feComposite in2="hardAlpha" operator="out"/>
<feColorMatrix type="matrix" values="0 0 0 0 0 0 0 0 0 0 0 0 0 0 0 0 0 0 0.25 0"/>
<feBlend mode="normal" in2="BackgroundImageFix" result="effect1_dropShadow_150_533"/>
<feBlend mode="normal" in="SourceGraphic" in2="effect1_dropShadow_150_533" result="shape"/>
</filter>
<filter id="filter2_d_150_533" x="24.5" y="21.3671" width="5" height="26" filterUnits="userSpaceOnUse" color-interpolation-filters="sRGB">
<feFlood flood-opacity="0" result="BackgroundImageFix"/>
<feColorMatrix in="SourceAlpha" type="matrix" values="0 0 0 0 0 0 0 0 0 0 0 0 0 0 0 0 0 0 127 0" result="hardAlpha"/>
<feOffset dx="1" dy="1"/>
<feGaussianBlur stdDeviation="1"/>
<feComposite in2="hardAlpha" operator="out"/>
<feColorMatrix type="matrix" values="0 0 0 0 0 0 0 0 0 0 0 0 0 0 0 0 0 0 0.25 0"/>
<feBlend mode="normal" in2="BackgroundImageFix" result="effect1_dropShadow_150_533"/>
<feBlend mode="normal" in="SourceGraphic" in2="effect1_dropShadow_150_533" result="shape"/>
</filter>
<filter id="filter3_d_150_533" x="25" y="31.8671" width="20" height="5" filterUnits="userSpaceOnUse" color-interpolation-filters="sRGB">
<feFlood flood-opacity="0" result="BackgroundImageFix"/>
<feColorMatrix in="SourceAlpha" type="matrix" values="0 0 0 0 0 0 0 0 0 0 0 0 0 0 0 0 0 0 127 0" result="hardAlpha"/>
<feOffset dx="1" dy="1"/>
<feGaussianBlur stdDeviation="1"/>
<feComposite in2="hardAlpha" operator="out"/>
<feColorMatrix type="matrix" values="0 0 0 0 0 0 0 0 0 0 0 0 0 0 0 0 0 0 0.25 0"/>
<feBlend mode="normal" in2="BackgroundImageFix" result="effect1_dropShadow_150_533"/>
<feBlend mode="normal" in="SourceGraphic" in2="effect1_dropShadow_150_533" result="shape"/>
</filter>
<filter id="filter4_d_150_533" x="40.5" y="21.3671" width="5" height="26" filterUnits="userSpaceOnUse" color-interpolation-filters="sRGB">
<feFlood flood-opacity="0" result="BackgroundImageFix"/>
<feColorMatrix in="SourceAlpha" type="matrix" values="0 0 0 0 0 0 0 0 0 0 0 0 0 0 0 0 0 0 127 0" result="hardAlpha"/>
<feOffset dx="1" dy="1"/>
<feGaussianBlur stdDeviation="1"/>
<feComposite in2="hardAlpha" operator="out"/>
<feColorMatrix type="matrix" values="0 0 0 0 0 0 0 0 0 0 0 0 0 0 0 0 0 0 0.25 0"/>
<feBlend mode="normal" in2="BackgroundImageFix" result="effect1_dropShadow_150_533"/>
<feBlend mode="normal" in="SourceGraphic" in2="effect1_dropShadow_150_533" result="shape"/>
</filter>
<clipPath id="clip0_150_533">
<rect width="100" height="64" fill="white"/>
</clipPath>
</defs>
</svg>
