<svg width="24" height="21" viewBox="0 0 24 21" fill="none" xmlns="http://www.w3.org/2000/svg">
<path d="M22.0625 9.16666H1.9375C1.28166 9.16666 0.75 9.69832 0.75 10.3542V10.4792C0.75 11.135 1.28166 11.6667 1.9375 11.6667H22.0625C22.7183 11.6667 23.25 11.135 23.25 10.4792V10.3542C23.25 9.69832 22.7183 9.16666 22.0625 9.16666Z" fill="white"/>
<path d="M22.0625 18.3333H1.9375C1.28166 18.3333 0.75 18.865 0.75 19.5208V19.6458C0.75 20.3017 1.28166 20.8333 1.9375 20.8333H22.0625C22.7183 20.8333 23.25 20.3017 23.25 19.6458V19.5208C23.25 18.865 22.7183 18.3333 22.0625 18.3333Z" fill="white"/>
<path d="M22.0625 0H1.9375C1.28166 0 0.75 0.531662 0.75 1.1875V1.3125C0.75 1.96834 1.28166 2.5 1.9375 2.5H22.0625C22.7183 2.5 23.25 1.96834 23.25 1.3125V1.1875C23.25 0.531662 22.7183 0 22.0625 0Z" fill="white"/>
</svg>
