<svg width="25" height="25" viewBox="0 0 25 25" fill="none" xmlns="http://www.w3.org/2000/svg">
<path d="M12.1198 0C9.76466 0.00447468 7.46165 0.693735 5.49128 1.98383C3.52092 3.27392 1.96824 5.10916 1.02236 7.26601C0.0764908 9.42285 -0.22175 11.8082 0.163968 14.1316C0.549686 16.4549 1.60272 18.6159 3.19479 20.3514C4.33188 21.584 5.71194 22.5677 7.248 23.2405C8.78407 23.9133 10.4428 24.2606 12.1198 24.2606C13.7967 24.2606 15.4555 23.9133 16.9916 23.2405C18.5276 22.5677 19.9077 21.584 21.0448 20.3514C22.6369 18.6159 23.6899 16.4549 24.0756 14.1316C24.4613 11.8082 24.1631 9.42285 23.2172 7.26601C22.2713 5.10916 20.7187 3.27392 18.7483 1.98383C16.7779 0.693735 14.4749 0.00447468 12.1198 0ZM12.1198 21.8571C9.60436 21.8533 7.18848 20.8739 5.38051 19.125C5.92942 17.7887 6.86319 16.6458 8.06317 15.8414C9.26315 15.0371 10.6752 14.6076 12.1198 14.6076C13.5644 14.6076 14.9764 15.0371 16.1764 15.8414C17.3764 16.6458 18.3102 17.7887 18.8591 19.125C17.0511 20.8739 14.6352 21.8533 12.1198 21.8571ZM9.69122 9.71429C9.69122 9.23396 9.83365 8.76442 10.1005 8.36504C10.3674 7.96567 10.7467 7.65439 11.1904 7.47058C11.6342 7.28677 12.1225 7.23867 12.5936 7.33238C13.0647 7.42609 13.4974 7.65739 13.8371 7.99703C14.1767 8.33667 14.408 8.7694 14.5017 9.24049C14.5954 9.71159 14.5473 10.1999 14.3635 10.6437C14.1797 11.0874 13.8684 11.4667 13.469 11.7336C13.0697 12.0004 12.6001 12.1429 12.1198 12.1429C11.4757 12.1429 10.858 11.887 10.4025 11.4315C9.94709 10.9761 9.69122 10.3584 9.69122 9.71429ZM20.5105 17C19.4256 15.1443 17.7558 13.7008 15.7626 12.8957C16.3809 12.1947 16.7838 11.3301 16.9229 10.4057C17.062 9.48141 16.9314 8.53657 16.5468 7.6846C16.1622 6.83264 15.5399 6.10975 14.7547 5.60267C13.9694 5.09559 13.0545 4.82587 12.1198 4.82587C11.185 4.82587 10.2702 5.09559 9.4849 5.60267C8.69965 6.10975 8.0774 6.83264 7.69281 7.6846C7.30822 8.53657 7.17763 9.48141 7.31672 10.4057C7.45581 11.3301 7.85866 12.1947 8.47694 12.8957C6.4838 13.7008 4.814 15.1443 3.72908 17C2.86444 15.5272 2.4076 13.8507 2.40551 12.1429C2.40551 9.56647 3.42897 7.0956 5.25076 5.27382C7.07254 3.45204 9.5434 2.42857 12.1198 2.42857C14.6962 2.42857 17.167 3.45204 18.9888 5.27382C20.8106 7.0956 21.8341 9.56647 21.8341 12.1429C21.832 13.8507 21.3751 15.5272 20.5105 17Z" fill="#F2F2F0"/>
</svg>
