<svg width="30" height="30" viewBox="0 0 30 30" fill="none" xmlns="http://www.w3.org/2000/svg">
<path d="M14.5714 2.42856C12.2163 2.43303 9.91325 3.12229 7.94288 4.41238C5.97252 5.70247 4.41984 7.53771 3.47396 9.69456C2.52809 11.8514 2.22985 14.2368 2.61557 16.5601C3.00128 18.8835 4.05431 21.0445 5.64639 22.78C6.78348 24.0125 8.16354 24.9962 9.6996 25.669C11.2357 26.3418 12.8944 26.6892 14.5714 26.6892C16.2483 26.6892 17.9071 26.3418 19.4432 25.669C20.9792 24.9962 22.3593 24.0125 23.4964 22.78C25.0885 21.0445 26.1415 18.8835 26.5272 16.5601C26.9129 14.2368 26.6147 11.8514 25.6688 9.69456C24.7229 7.53771 23.1703 5.70247 21.1999 4.41238C19.2295 3.12229 16.9265 2.43303 14.5714 2.42856ZM14.5714 24.2857C12.056 24.2819 9.64007 23.3025 7.83211 21.5536C8.38102 20.2173 9.31479 19.0743 10.5148 18.27C11.7148 17.4656 13.1268 17.0362 14.5714 17.0362C16.016 17.0362 17.428 17.4656 18.628 18.27C19.828 19.0743 20.7618 20.2173 21.3107 21.5536C19.5027 23.3025 17.0868 24.2819 14.5714 24.2857ZM12.1428 12.1428C12.1428 11.6625 12.2853 11.193 12.5521 10.7936C12.819 10.3942 13.1983 10.0829 13.642 9.89914C14.0858 9.71532 14.5741 9.66723 15.0452 9.76094C15.5163 9.85464 15.949 10.0859 16.2886 10.4256C16.6283 10.7652 16.8596 11.198 16.9533 11.6691C17.047 12.1402 16.9989 12.6285 16.8151 13.0722C16.6313 13.516 16.32 13.8953 15.9206 14.1621C15.5213 14.429 15.0517 14.5714 14.5714 14.5714C13.9273 14.5714 13.3096 14.3155 12.8541 13.8601C12.3987 13.4047 12.1428 12.7869 12.1428 12.1428ZM22.9621 19.4286C21.8772 17.5728 20.2074 16.1294 18.2142 15.3243C18.8325 14.6232 19.2354 13.7586 19.3745 12.8343C19.5135 11.91 19.383 10.9651 18.9984 10.1132C18.6138 9.2612 17.9915 8.53831 17.2063 8.03123C16.421 7.52415 15.5061 7.25443 14.5714 7.25443C13.6366 7.25443 12.7218 7.52415 11.9365 8.03123C11.1513 8.53831 10.529 9.2612 10.1444 10.1132C9.75982 10.9651 9.62923 11.91 9.76832 12.8343C9.90741 13.7586 10.3103 14.6232 10.9285 15.3243C8.9354 16.1294 7.2656 17.5728 6.18068 19.4286C5.31604 17.9558 4.85919 16.2793 4.85711 14.5714C4.85711 11.995 5.88057 9.52416 7.70235 7.70238C9.52414 5.8806 11.995 4.85713 14.5714 4.85713C17.1478 4.85713 19.6186 5.8806 21.4404 7.70238C23.2622 9.52416 24.2857 11.995 24.2857 14.5714C24.2836 16.2793 23.8267 17.9558 22.9621 19.4286Z" fill="#F2F2F0"/>
</svg>
