<svg width="304" height="372" viewBox="0 0 304 372" fill="none" xmlns="http://www.w3.org/2000/svg">
<rect x="26.849" y="23.2551" width="277.151" height="348.171" rx="5" fill="#D9D9D9"/>
<rect y="0.736572" width="277.151" height="348.171" rx="5" fill="#F7F7F7"/>
<g filter="url(#filter0_d_331_272)">
<path d="M124.616 120.549H161.42" stroke="black" stroke-width="3.06697"/>
<path d="M124.616 152.751H161.42" stroke="black" stroke-width="3.06697"/>
<path d="M124.616 184.955H161.42" stroke="black" stroke-width="3.06697"/>
</g>
<g filter="url(#filter1_d_331_272)">
<path d="M216.625 121.554C155.286 110.625 155.286 192.572 216.625 184.378" stroke="black" stroke-width="3.06697"/>
</g>
<g filter="url(#filter2_d_331_272)">
<path d="M64.8105 118.608L64.8105 186.081" stroke="black" stroke-width="3.06697"/>
</g>
<g filter="url(#filter3_d_331_272)">
<path d="M72.4779 152.752H106.215" stroke="black" stroke-width="3.06697"/>
</g>
<g filter="url(#filter4_d_331_272)">
<path d="M113.882 118.608L113.882 186.081" stroke="black" stroke-width="3.06697"/>
</g>
<line y1="-0.766742" x2="54.6058" y2="-0.766742" transform="matrix(-0.786318 0.617822 -0.786318 -0.617822 139.951 78.7369)" stroke="black" stroke-width="1.53348"/>
<line y1="-0.766742" x2="54.6058" y2="-0.766742" transform="matrix(-0.786318 -0.617822 0.786318 -0.617822 182.889 112.473)" stroke="black" stroke-width="1.53348"/>
<line y1="-0.766742" x2="54.6058" y2="-0.766742" transform="matrix(0.786318 -0.617822 0.786318 0.617822 139.951 232.085)" stroke="black" stroke-width="1.53348"/>
<line y1="-0.766742" x2="54.6058" y2="-0.766742" transform="matrix(0.786318 0.617822 -0.786318 0.617822 97.0136 198.349)" stroke="black" stroke-width="1.53348"/>
<line y1="-0.766742" x2="54.6058" y2="-0.766742" transform="matrix(-0.786318 0.617822 -0.786318 -0.617822 127.683 78.7369)" stroke="black" stroke-width="1.53348"/>
<line y1="-0.766742" x2="54.6058" y2="-0.766742" transform="matrix(-0.786318 -0.617822 0.786318 -0.617822 170.621 112.473)" stroke="black" stroke-width="1.53348"/>
<line y1="-0.766742" x2="54.6058" y2="-0.766742" transform="matrix(0.786318 -0.617822 0.786318 0.617822 127.683 232.085)" stroke="black" stroke-width="1.53348"/>
<line y1="-0.766742" x2="54.6058" y2="-0.766742" transform="matrix(0.786318 0.617822 -0.786318 0.617822 84.7457 198.349)" stroke="black" stroke-width="1.53348"/>
<line y1="-0.766742" x2="54.6058" y2="-0.766742" transform="matrix(-0.786318 0.617822 -0.786318 -0.617822 152.219 78.7369)" stroke="black" stroke-width="1.53348"/>
<line y1="-0.766742" x2="54.6058" y2="-0.766742" transform="matrix(-0.786318 -0.617822 0.786318 -0.617822 195.157 112.473)" stroke="black" stroke-width="1.53348"/>
<line y1="-0.766742" x2="54.6058" y2="-0.766742" transform="matrix(0.786318 -0.617822 0.786318 0.617822 152.219 232.085)" stroke="black" stroke-width="1.53348"/>
<line y1="-0.766742" x2="54.6058" y2="-0.766742" transform="matrix(0.786318 0.617822 -0.786318 0.617822 109.281 198.349)" stroke="black" stroke-width="1.53348"/>
<path d="M24.8728 256.213C24.8728 256.078 24.8768 255.944 24.8848 255.811C24.8954 255.678 24.9007 255.536 24.9007 255.384C24.9007 255.342 24.9007 255.294 24.9007 255.241C24.9007 255.185 24.8994 255.104 24.8967 254.998C24.8967 254.889 24.8954 254.744 24.8927 254.563C24.8901 254.38 24.8861 254.138 24.8808 253.838C24.8781 253.538 24.8741 253.169 24.8688 252.73C24.8635 252.289 24.8569 251.758 24.8489 251.136C24.8489 251.062 24.8383 250.987 24.817 250.913C24.7984 250.836 24.7891 250.755 24.7891 250.67C24.7891 250.601 24.7971 250.54 24.813 250.486C24.8316 250.433 24.8635 250.388 24.9087 250.351C24.9565 250.314 25.0189 250.286 25.096 250.267C25.173 250.246 25.2713 250.235 25.3909 250.235C25.452 250.235 25.5052 250.249 25.5503 250.275C25.5955 250.299 25.6327 250.332 25.6619 250.375C25.6938 250.415 25.7164 250.46 25.7297 250.51C25.7456 250.561 25.7536 250.611 25.7536 250.662C25.7536 250.781 25.7496 250.904 25.7416 251.028C25.7336 251.151 25.7297 251.29 25.7297 251.447V252.328C26.006 252.336 26.2717 252.344 26.5267 252.352C26.7818 252.36 27.0475 252.363 27.3238 252.363C27.5151 252.363 27.7064 252.357 27.8977 252.344C28.089 252.328 28.2896 252.317 28.4995 252.312C28.4995 252.261 28.4995 252.205 28.4995 252.144C28.5022 252.081 28.5035 252.003 28.5035 251.913C28.5035 251.823 28.5035 251.715 28.5035 251.59C28.5035 251.465 28.5035 251.314 28.5035 251.136C28.5035 251.059 28.4955 250.982 28.4796 250.905C28.4636 250.828 28.4557 250.749 28.4557 250.67C28.4557 250.601 28.4636 250.54 28.4796 250.486C28.4982 250.433 28.5301 250.388 28.5752 250.351C28.6231 250.314 28.6855 250.286 28.7625 250.267C28.8423 250.246 28.9419 250.235 29.0615 250.235C29.1252 250.235 29.1797 250.25 29.2249 250.279C29.27 250.308 29.3059 250.346 29.3325 250.391C29.3617 250.433 29.3816 250.48 29.3922 250.53C29.4055 250.578 29.4122 250.622 29.4122 250.662C29.4122 250.864 29.4055 251.067 29.3922 251.271C29.3816 251.473 29.3736 251.687 29.3683 251.913C29.3683 252.096 29.3683 252.28 29.3683 252.463C29.3683 252.646 29.3683 252.835 29.3683 253.029C29.371 253.223 29.3723 253.425 29.3723 253.635C29.3723 253.845 29.3723 254.065 29.3723 254.296C29.3723 254.565 29.375 254.792 29.3803 254.978C29.3883 255.161 29.3962 255.317 29.4042 255.444C29.4148 255.569 29.4255 255.67 29.4361 255.747C29.4467 255.824 29.456 255.889 29.464 255.942C29.4719 255.988 29.4786 256.031 29.4839 256.074C29.4892 256.116 29.4919 256.162 29.4919 256.209C29.4919 256.271 29.4839 256.326 29.468 256.377C29.4547 256.427 29.4294 256.471 29.3922 256.508C29.3577 256.543 29.3099 256.571 29.2488 256.592C29.1877 256.613 29.1106 256.624 29.0176 256.624C28.9113 256.624 28.8237 256.615 28.7546 256.596C28.6855 256.58 28.6297 256.553 28.5872 256.516C28.5473 256.482 28.5181 256.439 28.4995 256.389C28.4836 256.338 28.4756 256.278 28.4756 256.209C28.4756 256.071 28.4849 255.934 28.5035 255.799C28.5248 255.663 28.5354 255.524 28.5354 255.38C28.5354 255.032 28.5287 254.68 28.5155 254.324C28.5048 253.968 28.4982 253.586 28.4955 253.177C28.3069 253.174 28.0903 253.174 27.8459 253.177C27.6015 253.177 27.3517 253.179 27.0967 253.184C26.8442 253.187 26.5985 253.192 26.3594 253.2C26.1229 253.206 25.9156 253.21 25.7376 253.212C25.7429 253.64 25.7496 254 25.7576 254.292C25.7655 254.582 25.7735 254.824 25.7815 255.018C25.7894 255.209 25.7974 255.363 25.8054 255.48C25.816 255.594 25.8253 255.689 25.8333 255.763C25.8413 255.835 25.8466 255.904 25.8492 255.97C25.8545 256.037 25.8572 256.118 25.8572 256.213C25.8572 256.274 25.8506 256.33 25.8373 256.381C25.824 256.429 25.7987 256.471 25.7615 256.508C25.727 256.545 25.6792 256.573 25.6181 256.592C25.5596 256.613 25.4826 256.624 25.3869 256.624C25.2806 256.624 25.1943 256.615 25.1279 256.596C25.0614 256.58 25.0083 256.555 24.9685 256.52C24.9313 256.486 24.906 256.443 24.8927 256.393C24.8794 256.342 24.8728 256.282 24.8728 256.213ZM31.8488 256.201C31.8488 256.116 31.8608 256.031 31.8847 255.946C31.9086 255.859 31.9525 255.771 32.0162 255.683C32.0614 255.606 32.1225 255.489 32.1996 255.333C32.2793 255.176 32.3683 254.991 32.4666 254.779C32.5649 254.566 32.6698 254.335 32.7814 254.085C32.8957 253.833 33.0112 253.576 33.1282 253.316C33.2451 253.053 33.3606 252.791 33.4749 252.531C33.5918 252.268 33.702 252.022 33.8057 251.794C33.9093 251.562 34.0036 251.354 34.0886 251.168C34.1737 250.982 34.2454 250.832 34.3038 250.718C34.3118 250.659 34.3278 250.602 34.3517 250.546C34.3756 250.488 34.4075 250.436 34.4473 250.391C34.4872 250.343 34.535 250.306 34.5908 250.279C34.6466 250.25 34.7117 250.235 34.7861 250.235C34.8817 250.235 34.9588 250.249 35.0172 250.275C35.0783 250.302 35.1275 250.339 35.1647 250.387C35.2045 250.432 35.2364 250.485 35.2603 250.546C35.2843 250.607 35.3082 250.672 35.3321 250.741C35.3533 250.803 35.3733 250.861 35.3919 250.917C35.4105 250.97 35.4277 251.011 35.4437 251.04C35.6217 251.396 35.7944 251.755 35.9618 252.116C36.1318 252.478 36.2992 252.846 36.4639 253.22C36.6313 253.592 36.8 253.97 36.9701 254.352C37.1401 254.735 37.3168 255.124 37.5001 255.52L37.5759 255.632C37.5971 255.661 37.6224 255.697 37.6516 255.739C37.6808 255.779 37.7074 255.823 37.7313 255.871C37.7579 255.918 37.7791 255.969 37.7951 256.022C37.8137 256.075 37.8229 256.128 37.8229 256.181C37.8229 256.341 37.7778 256.454 37.6874 256.52C37.5971 256.589 37.4868 256.624 37.3567 256.624C37.2849 256.624 37.2185 256.612 37.1574 256.588C37.0989 256.567 37.0471 256.538 37.002 256.5C36.9568 256.46 36.9209 256.415 36.8944 256.365C36.8678 256.312 36.8505 256.256 36.8425 256.197C36.7681 256.035 36.6991 255.884 36.6353 255.743C36.5715 255.6 36.5091 255.461 36.448 255.329C36.3895 255.196 36.3324 255.067 36.2766 254.942C36.2208 254.815 36.165 254.687 36.1092 254.559C36.0667 254.559 36.0069 254.559 35.9299 254.559C35.8528 254.557 35.7665 254.553 35.6708 254.547C35.5194 254.547 35.3653 254.546 35.2085 254.544C35.0544 254.541 34.8963 254.54 34.7343 254.54C34.5722 254.537 34.4048 254.537 34.2321 254.54C34.0594 254.54 33.8787 254.544 33.6901 254.551C33.6609 254.554 33.633 254.557 33.6064 254.559C33.5798 254.559 33.5519 254.559 33.5227 254.559C33.4483 254.74 33.3779 254.913 33.3115 255.078C33.2451 255.24 33.1853 255.39 33.1321 255.528C33.079 255.666 33.0312 255.79 32.9887 255.899C32.9488 256.005 32.9183 256.091 32.897 256.158V256.154C32.8811 256.212 32.8625 256.269 32.8412 256.325C32.8226 256.381 32.7947 256.431 32.7575 256.476C32.7203 256.519 32.6685 256.553 32.6021 256.58C32.5383 256.609 32.4533 256.624 32.347 256.624C32.2035 256.624 32.084 256.588 31.9883 256.516C31.8953 256.445 31.8488 256.34 31.8488 256.201ZM33.8854 253.691C33.9412 253.691 34.0129 253.691 34.1006 253.691C34.1909 253.691 34.3065 253.692 34.4473 253.695C34.5908 253.695 34.7662 253.696 34.9734 253.699C35.1806 253.699 35.4317 253.7 35.7266 253.703C35.6044 253.437 35.4663 253.138 35.3121 252.806C35.158 252.471 34.976 252.082 34.7662 251.638C34.705 251.774 34.6399 251.922 34.5709 252.085C34.5018 252.247 34.4287 252.415 34.3517 252.591C34.2773 252.766 34.2002 252.947 34.1205 253.133C34.0435 253.319 33.9651 253.505 33.8854 253.691ZM40.2038 256.066C40.2038 256.007 40.2065 255.95 40.2118 255.895C40.2171 255.839 40.2224 255.787 40.2277 255.739C40.2277 255.37 40.2277 255.03 40.2277 254.719C40.2277 254.408 40.2277 254.118 40.2277 253.85C40.2277 253.579 40.2277 253.325 40.2277 253.089C40.2277 252.852 40.2277 252.624 40.2277 252.403C40.2277 252.18 40.2277 251.962 40.2277 251.75C40.2304 251.535 40.2317 251.315 40.2317 251.092C40.2184 251.055 40.2052 251.003 40.1919 250.937C40.1812 250.87 40.1759 250.808 40.1759 250.749C40.1759 250.694 40.1839 250.638 40.1998 250.582C40.2184 250.526 40.245 250.477 40.2795 250.435C40.3167 250.389 40.3619 250.354 40.4151 250.327C40.4682 250.3 40.5293 250.287 40.5984 250.287C40.71 250.287 40.8229 250.294 40.9371 250.307C41.0514 250.32 41.1802 250.327 41.3237 250.327C41.4433 250.327 41.5628 250.322 41.6824 250.311C41.802 250.298 41.9295 250.29 42.065 250.287C42.4662 250.287 42.8289 250.327 43.153 250.407C43.4798 250.486 43.7575 250.61 43.986 250.777C44.2171 250.945 44.3951 251.159 44.52 251.419C44.6449 251.677 44.7073 251.985 44.7073 252.344C44.7073 252.684 44.6595 252.987 44.5638 253.252C44.4709 253.515 44.35 253.745 44.2012 253.942C44.055 254.138 43.8903 254.303 43.707 254.436C43.5263 254.566 43.3496 254.666 43.1769 254.735C43.2008 254.878 43.238 255.014 43.2885 255.141C43.3417 255.266 43.4081 255.376 43.4878 255.472C43.5702 255.568 43.6658 255.643 43.7747 255.699C43.8837 255.755 44.0059 255.783 44.1414 255.783C44.2424 255.783 44.334 255.767 44.4164 255.735C44.5014 255.703 44.5745 255.641 44.6356 255.548C44.6728 255.495 44.718 255.448 44.7711 255.408C44.8242 255.366 44.892 255.345 44.9743 255.345C45.1178 255.345 45.2294 255.384 45.3091 255.464C45.3888 255.544 45.4287 255.645 45.4287 255.767C45.4287 255.881 45.3955 255.99 45.329 256.094C45.2653 256.197 45.1736 256.289 45.0541 256.369C44.9371 256.446 44.795 256.507 44.6276 256.552C44.4602 256.6 44.2742 256.624 44.0697 256.624C43.881 256.624 43.7096 256.596 43.5555 256.54C43.4041 256.487 43.2673 256.415 43.145 256.325C43.0255 256.232 42.9192 256.127 42.8262 256.01C42.7332 255.891 42.6535 255.767 42.5871 255.639C42.5207 255.509 42.4662 255.38 42.4237 255.253C42.3812 255.125 42.348 255.006 42.3241 254.894C42.2922 254.894 42.2497 254.894 42.1965 254.894C42.1434 254.894 42.0889 254.894 42.0331 254.894C41.9773 254.894 41.9215 254.894 41.8657 254.894C41.8126 254.892 41.7688 254.89 41.7342 254.89C41.6572 254.888 41.5615 254.886 41.4473 254.886C41.3357 254.884 41.2334 254.882 41.1404 254.882V255.464C41.1457 255.589 41.1616 255.711 41.1882 255.831C41.2148 255.948 41.2281 256.069 41.2281 256.193C41.2281 256.271 41.2121 256.336 41.1802 256.389C41.151 256.442 41.1125 256.486 41.0647 256.52C41.0168 256.557 40.965 256.584 40.9092 256.6C40.8534 256.616 40.8003 256.624 40.7498 256.624C40.6701 256.624 40.5971 256.609 40.5306 256.58C40.4642 256.553 40.4071 256.516 40.3593 256.468C40.3114 256.418 40.2729 256.36 40.2437 256.293C40.2171 256.224 40.2038 256.148 40.2038 256.066ZM41.1364 254.025C41.2055 254.028 41.2865 254.031 41.3795 254.033C41.4725 254.036 41.5615 254.039 41.6465 254.041C41.7316 254.044 41.8073 254.047 41.8737 254.049C41.9401 254.049 41.9826 254.049 42.0012 254.049C42.3599 254.049 42.6535 254 42.882 253.902C43.1132 253.804 43.2938 253.673 43.424 253.511C43.5542 253.349 43.6432 253.163 43.691 252.953C43.7415 252.743 43.7668 252.528 43.7668 252.308C43.7668 252.114 43.7362 251.95 43.6751 251.817C43.614 251.682 43.533 251.57 43.432 251.483C43.331 251.395 43.2168 251.326 43.0893 251.275C42.9617 251.225 42.8315 251.188 42.6987 251.164C42.5685 251.14 42.4396 251.125 42.3121 251.12C42.1872 251.115 42.077 251.112 41.9813 251.112C41.8458 251.112 41.7076 251.115 41.5668 251.12C41.4287 251.123 41.2786 251.125 41.1165 251.128C41.1112 251.229 41.1072 251.321 41.1045 251.403C41.1045 251.485 41.1032 251.566 41.1005 251.646C41.1005 251.723 41.1005 251.803 41.1005 251.885C41.1005 251.965 41.1005 252.055 41.1005 252.156C41.1005 252.337 41.1005 252.506 41.1005 252.662C41.1032 252.816 41.1059 252.968 41.1085 253.117C41.1112 253.263 41.1138 253.41 41.1165 253.559C41.1218 253.708 41.1284 253.863 41.1364 254.025ZM43.0056 254.791C43.0029 254.791 43.0016 254.792 43.0016 254.795L43.0056 254.791ZM42.9976 254.795H43.0016H42.9976ZM47.8893 256.253C47.8893 256.142 47.8972 256.047 47.9132 255.97C47.9291 255.893 47.9384 255.857 47.9411 255.863C47.9464 255.573 47.9504 255.279 47.953 254.982C47.9583 254.684 47.961 254.369 47.961 254.037C47.961 253.827 47.961 253.6 47.961 253.356C47.961 253.109 47.9583 252.86 47.953 252.611C47.9504 252.358 47.9451 252.111 47.9371 251.869C47.9291 251.625 47.9185 251.399 47.9052 251.192C47.8946 251.131 47.8866 251.076 47.8813 251.028C47.876 250.978 47.8733 250.925 47.8733 250.869C47.8733 250.739 47.9012 250.636 47.957 250.562C48.0128 250.485 48.1031 250.432 48.228 250.403C48.2812 250.358 48.3396 250.327 48.4034 250.311C48.4698 250.292 48.5336 250.283 48.5947 250.283C48.6584 250.283 48.7156 250.302 48.7661 250.339C48.8192 250.376 48.8657 250.42 48.9055 250.47C48.9454 250.521 48.9786 250.574 49.0052 250.63C49.0317 250.683 49.0503 250.727 49.061 250.761C49.1433 250.884 49.2416 251.023 49.3559 251.18C49.4728 251.337 49.599 251.505 49.7345 251.686C49.8727 251.864 50.0188 252.051 50.1729 252.248C50.327 252.442 50.4824 252.638 50.6392 252.838C50.7986 253.037 50.9567 253.236 51.1135 253.436C51.2702 253.632 51.419 253.822 51.5598 254.005C51.7006 254.189 51.8322 254.363 51.9544 254.528C52.0766 254.69 52.1815 254.836 52.2692 254.966C52.2692 254.397 52.2666 253.908 52.2612 253.499C52.2586 253.088 52.2546 252.738 52.2493 252.451C52.244 252.162 52.2373 251.924 52.2294 251.738C52.2214 251.552 52.2147 251.398 52.2094 251.275C52.2041 251.153 52.1988 251.054 52.1935 250.977C52.1908 250.897 52.1895 250.821 52.1895 250.749C52.1895 250.643 52.2001 250.557 52.2214 250.49C52.2453 250.421 52.2772 250.368 52.317 250.331C52.3596 250.294 52.4114 250.268 52.4725 250.255C52.5336 250.242 52.604 250.235 52.6837 250.235C52.7873 250.235 52.8684 250.257 52.9268 250.299C52.9853 250.342 53.0291 250.396 53.0583 250.462C53.0902 250.526 53.1088 250.599 53.1141 250.682C53.1221 250.761 53.1261 250.84 53.1261 250.917V255.488C53.1261 255.584 53.1314 255.681 53.142 255.779C53.1526 255.875 53.158 255.977 53.158 256.086C53.158 256.189 53.15 256.276 53.134 256.345C53.1181 256.411 53.0915 256.466 53.0543 256.508C53.0198 256.551 52.9733 256.58 52.9148 256.596C52.8591 256.615 52.7913 256.624 52.7116 256.624C52.5628 256.624 52.4432 256.587 52.3529 256.512C52.2652 256.438 52.2028 256.348 52.1656 256.241C51.9132 255.896 51.6568 255.556 51.3964 255.221C51.1387 254.884 50.8783 254.547 50.6153 254.213C50.3522 253.875 50.0879 253.537 49.8222 253.196C49.5565 252.854 49.2921 252.506 49.0291 252.152L48.79 251.778C48.7926 252.184 48.7953 252.547 48.7979 252.866C48.8006 253.182 48.8032 253.465 48.8059 253.715C48.8086 253.962 48.8112 254.181 48.8139 254.372C48.8165 254.561 48.8179 254.731 48.8179 254.882C48.8205 255.031 48.8218 255.168 48.8218 255.293C48.8245 255.415 48.8258 255.535 48.8258 255.651C48.8285 255.721 48.8325 255.795 48.8378 255.875C48.8458 255.952 48.8497 256.027 48.8497 256.102C48.8497 256.171 48.8431 256.237 48.8298 256.301C48.8192 256.365 48.7966 256.421 48.7621 256.468C48.7275 256.516 48.6784 256.553 48.6146 256.58C48.5535 256.609 48.4725 256.624 48.3715 256.624C48.236 256.624 48.1217 256.591 48.0288 256.524C47.9358 256.458 47.8893 256.367 47.8893 256.253ZM56.1685 256.058C56.1685 256.013 56.1738 255.965 56.1845 255.914C56.1978 255.864 56.211 255.817 56.2243 255.775L56.2602 255.647L56.1685 250.881C56.1685 250.751 56.1831 250.65 56.2124 250.578C56.2442 250.506 56.2841 250.453 56.3319 250.419C56.3798 250.384 56.4342 250.364 56.4953 250.359C56.5591 250.354 56.6229 250.351 56.6866 250.351H58.7869C58.8348 250.346 58.8879 250.339 58.9463 250.331C59.0075 250.32 59.05 250.315 59.0739 250.315C59.1748 250.315 59.2559 250.324 59.317 250.343C59.3808 250.361 59.4299 250.389 59.4644 250.427C59.5016 250.461 59.5256 250.505 59.5362 250.558C59.5495 250.611 59.5561 250.674 59.5561 250.745C59.5561 250.846 59.5428 250.927 59.5163 250.989C59.4923 251.05 59.4578 251.097 59.4126 251.132C59.3701 251.164 59.3196 251.185 59.2612 251.196C59.2027 251.206 59.1403 251.212 59.0739 251.212C59.0447 251.212 59.0061 251.212 58.9583 251.212C58.9105 251.209 58.86 251.205 58.8069 251.2C58.5491 251.2 58.3406 251.2 58.1812 251.2C58.0244 251.2 57.8982 251.201 57.8025 251.204C57.7095 251.204 57.6378 251.204 57.5873 251.204C57.5395 251.204 57.497 251.204 57.4598 251.204H57.0892V252.467C57.1051 252.467 57.1237 252.468 57.1449 252.471C57.1689 252.471 57.2047 252.471 57.2526 252.471C57.3004 252.471 57.3655 252.471 57.4478 252.471C57.5329 252.471 57.6458 252.471 57.7866 252.471C57.9274 252.471 58.1014 252.471 58.3087 252.471C58.5159 252.471 58.767 252.471 59.0619 252.471C59.0912 252.471 59.1244 252.47 59.1616 252.467C59.1988 252.464 59.236 252.46 59.2731 252.455C59.321 252.45 59.3768 252.445 59.4405 252.439C59.5043 252.434 59.5734 252.431 59.6478 252.431C59.7195 252.431 59.7833 252.446 59.8391 252.475C59.8949 252.504 59.9414 252.542 59.9786 252.587C60.0184 252.629 60.0476 252.676 60.0662 252.726C60.0875 252.777 60.0981 252.824 60.0981 252.87C60.0981 253.013 60.0503 253.118 59.9547 253.184C59.8617 253.251 59.7408 253.284 59.592 253.284L57.0892 253.288V255.675C57.3522 255.675 57.6166 255.679 57.8822 255.687C58.1479 255.695 58.4256 255.699 58.7152 255.699C58.7949 255.699 58.868 255.695 58.9344 255.687C59.0008 255.679 59.0646 255.67 59.1257 255.659C59.1815 255.651 59.2373 255.645 59.2931 255.639C59.3515 255.632 59.4153 255.628 59.4844 255.628C59.5641 255.628 59.6371 255.634 59.7036 255.647C59.7727 255.658 59.8324 255.679 59.8829 255.711C59.9334 255.74 59.9733 255.782 60.0025 255.835C60.0317 255.885 60.0463 255.95 60.0463 256.03C60.0463 256.147 60.0264 256.237 59.9865 256.301C59.9467 256.365 59.8922 256.413 59.8231 256.445C59.7567 256.474 59.6797 256.492 59.592 256.5C59.507 256.506 59.418 256.508 59.325 256.508H56.6428C56.5737 256.508 56.5099 256.5 56.4515 256.484C56.3957 256.468 56.3465 256.443 56.304 256.409C56.2615 256.371 56.2283 256.325 56.2044 256.269C56.1805 256.211 56.1685 256.14 56.1685 256.058ZM62.6902 255.078C62.7035 254.862 62.7474 254.699 62.8217 254.587C62.8988 254.473 63.033 254.416 63.2243 254.416C63.3438 254.416 63.4461 254.451 63.5311 254.52C63.6162 254.586 63.6587 254.679 63.6587 254.799C63.6587 254.868 63.652 254.937 63.6388 255.006C63.6255 255.075 63.6215 255.147 63.6268 255.221C63.6374 255.311 63.6773 255.394 63.7464 255.468C63.8154 255.543 63.9031 255.608 64.0094 255.663C64.1157 255.717 64.2366 255.759 64.3721 255.791C64.5076 255.82 64.6457 255.835 64.7865 255.835C64.93 255.835 65.0722 255.823 65.213 255.799C65.3565 255.772 65.4853 255.725 65.5996 255.655C65.7165 255.586 65.8108 255.492 65.8825 255.372C65.9543 255.253 65.9901 255.097 65.9901 254.906C65.9901 254.781 65.9596 254.664 65.8985 254.555C65.8374 254.444 65.759 254.343 65.6633 254.253C65.5677 254.16 65.4614 254.076 65.3445 254.001C65.2303 253.927 65.12 253.862 65.0137 253.806C64.8623 253.729 64.7068 253.655 64.5474 253.583C64.3907 253.509 64.2366 253.432 64.0851 253.352C63.9363 253.27 63.7942 253.18 63.6587 253.085C63.5258 252.987 63.4089 252.872 63.308 252.742C63.207 252.612 63.1273 252.462 63.0688 252.292C63.0104 252.119 62.9812 251.92 62.9812 251.694C62.9812 251.442 63.0343 251.224 63.1406 251.04C63.2495 250.857 63.3917 250.706 63.567 250.586C63.7424 250.466 63.943 250.379 64.1688 250.323C64.3973 250.265 64.6311 250.235 64.8702 250.235C65.0828 250.235 65.2887 250.254 65.488 250.291C65.6872 250.328 65.8653 250.389 66.022 250.474C66.1788 250.557 66.309 250.668 66.4126 250.809C66.5162 250.947 66.5786 251.117 66.5999 251.319C66.6052 251.394 66.5959 251.46 66.572 251.519C66.5481 251.574 66.5149 251.622 66.4724 251.662C66.4299 251.699 66.3807 251.728 66.3249 251.75C66.2718 251.768 66.2173 251.778 66.1615 251.778C66.0765 251.778 66.0047 251.764 65.9463 251.738C65.8878 251.711 65.84 251.678 65.8028 251.638C65.7656 251.598 65.7377 251.553 65.7191 251.503C65.7005 251.452 65.6886 251.403 65.6833 251.355C65.6434 251.291 65.5916 251.24 65.5278 251.2C65.4641 251.157 65.3923 251.124 65.3126 251.1C65.2356 251.074 65.1545 251.056 65.0695 251.048C64.9845 251.038 64.9021 251.032 64.8224 251.032C64.7108 251.032 64.5992 251.044 64.4876 251.068C64.3787 251.092 64.2791 251.131 64.1887 251.184C64.0984 251.237 64.0253 251.305 63.9695 251.387C63.9137 251.469 63.8858 251.57 63.8858 251.69C63.8858 251.831 63.9191 251.956 63.9855 252.065C64.0519 252.174 64.1356 252.27 64.2366 252.356C64.3375 252.441 64.4491 252.518 64.5713 252.587C64.6962 252.656 64.8171 252.72 64.934 252.778C65.0748 252.85 65.221 252.927 65.3724 253.009C65.5238 253.089 65.6713 253.177 65.8148 253.272C65.9609 253.365 66.0991 253.467 66.2293 253.579C66.3594 253.691 66.4737 253.816 66.572 253.954C66.6703 254.089 66.7474 254.238 66.8032 254.4C66.8616 254.562 66.8908 254.741 66.8908 254.938C66.8908 255.148 66.8616 255.335 66.8032 255.5C66.7447 255.665 66.665 255.81 66.564 255.934C66.4631 256.059 66.3448 256.166 66.2093 256.253C66.0738 256.341 65.9277 256.413 65.7709 256.468C65.6142 256.524 65.4508 256.564 65.2807 256.588C65.1133 256.615 64.946 256.628 64.7786 256.628C64.6378 256.628 64.4863 256.616 64.3242 256.592C64.1648 256.568 64.0067 256.531 63.85 256.48C63.6932 256.427 63.5431 256.361 63.3996 256.281C63.2588 256.199 63.1339 256.1 63.025 255.986C62.9187 255.869 62.835 255.736 62.7739 255.588C62.7128 255.436 62.6849 255.266 62.6902 255.078ZM69.5148 255.078C69.5281 254.862 69.5719 254.699 69.6463 254.587C69.7234 254.473 69.8576 254.416 70.0489 254.416C70.1684 254.416 70.2707 254.451 70.3557 254.52C70.4408 254.586 70.4833 254.679 70.4833 254.799C70.4833 254.868 70.4766 254.937 70.4633 255.006C70.4501 255.075 70.4461 255.147 70.4514 255.221C70.462 255.311 70.5019 255.394 70.571 255.468C70.64 255.543 70.7277 255.608 70.834 255.663C70.9403 255.717 71.0612 255.759 71.1967 255.791C71.3322 255.82 71.4703 255.835 71.6111 255.835C71.7546 255.835 71.8968 255.823 72.0376 255.799C72.1811 255.772 72.3099 255.725 72.4242 255.655C72.5411 255.586 72.6354 255.492 72.7071 255.372C72.7789 255.253 72.8147 255.097 72.8147 254.906C72.8147 254.781 72.7842 254.664 72.7231 254.555C72.662 254.444 72.5836 254.343 72.4879 254.253C72.3923 254.16 72.286 254.076 72.1691 254.001C72.0549 253.927 71.9446 253.862 71.8383 253.806C71.6869 253.729 71.5314 253.655 71.372 253.583C71.2153 253.509 71.0612 253.432 70.9097 253.352C70.7609 253.27 70.6188 253.18 70.4833 253.085C70.3504 252.987 70.2335 252.872 70.1326 252.742C70.0316 252.612 69.9519 252.462 69.8934 252.292C69.835 252.119 69.8058 251.92 69.8058 251.694C69.8058 251.442 69.8589 251.224 69.9652 251.04C70.0741 250.857 70.2163 250.706 70.3916 250.586C70.567 250.466 70.7676 250.379 70.9934 250.323C71.2219 250.265 71.4557 250.235 71.6948 250.235C71.9074 250.235 72.1133 250.254 72.3126 250.291C72.5118 250.328 72.6899 250.389 72.8466 250.474C73.0034 250.557 73.1336 250.668 73.2372 250.809C73.3408 250.947 73.4032 251.117 73.4245 251.319C73.4298 251.394 73.4205 251.46 73.3966 251.519C73.3727 251.574 73.3395 251.622 73.297 251.662C73.2545 251.699 73.2053 251.728 73.1495 251.75C73.0964 251.768 73.0419 251.778 72.9861 251.778C72.9011 251.778 72.8293 251.764 72.7709 251.738C72.7124 251.711 72.6646 251.678 72.6274 251.638C72.5902 251.598 72.5623 251.553 72.5437 251.503C72.5251 251.452 72.5132 251.403 72.5079 251.355C72.468 251.291 72.4162 251.24 72.3524 251.2C72.2887 251.157 72.2169 251.124 72.1372 251.1C72.0602 251.074 71.9791 251.056 71.8941 251.048C71.8091 251.038 71.7267 251.032 71.647 251.032C71.5354 251.032 71.4238 251.044 71.3122 251.068C71.2033 251.092 71.1037 251.131 71.0133 251.184C70.923 251.237 70.8499 251.305 70.7941 251.387C70.7383 251.469 70.7104 251.57 70.7104 251.69C70.7104 251.831 70.7437 251.956 70.8101 252.065C70.8765 252.174 70.9602 252.27 71.0612 252.356C71.1621 252.441 71.2737 252.518 71.3959 252.587C71.5208 252.656 71.6417 252.72 71.7586 252.778C71.8994 252.85 72.0456 252.927 72.197 253.009C72.3484 253.089 72.4959 253.177 72.6394 253.272C72.7855 253.365 72.9237 253.467 73.0539 253.579C73.184 253.691 73.2983 253.816 73.3966 253.954C73.4949 254.089 73.572 254.238 73.6278 254.4C73.6862 254.562 73.7154 254.741 73.7154 254.938C73.7154 255.148 73.6862 255.335 73.6278 255.5C73.5693 255.665 73.4896 255.81 73.3886 255.934C73.2877 256.059 73.1694 256.166 73.0339 256.253C72.8984 256.341 72.7523 256.413 72.5955 256.468C72.4388 256.524 72.2754 256.564 72.1053 256.588C71.9379 256.615 71.7706 256.628 71.6032 256.628C71.4624 256.628 71.3109 256.616 71.1488 256.592C70.9894 256.568 70.8313 256.531 70.6746 256.48C70.5178 256.427 70.3677 256.361 70.2242 256.281C70.0834 256.199 69.9585 256.1 69.8496 255.986C69.7433 255.869 69.6596 255.736 69.5985 255.588C69.5374 255.436 69.5095 255.266 69.5148 255.078ZM76.8137 256.189C76.8137 256.054 76.823 255.921 76.8416 255.791C76.8628 255.658 76.8735 255.517 76.8735 255.368C76.8735 254.691 76.8668 254.009 76.8535 253.324C76.8429 252.638 76.8376 251.934 76.8376 251.212C76.8376 251.137 76.8296 251.063 76.8137 250.989C76.7977 250.911 76.7898 250.829 76.7898 250.741C76.7898 250.672 76.7991 250.607 76.8177 250.546C76.8363 250.485 76.8681 250.432 76.9133 250.387C76.9585 250.339 77.0209 250.302 77.1006 250.275C77.1803 250.249 77.28 250.235 77.3995 250.235C77.5191 250.235 77.6134 250.28 77.6825 250.371C77.7516 250.461 77.7861 250.582 77.7861 250.733C77.7861 250.779 77.7821 250.824 77.7742 250.869C77.7662 250.911 77.7582 250.957 77.7502 251.004C77.7449 251.233 77.7409 251.479 77.7383 251.742C77.7356 252.005 77.7343 252.306 77.7343 252.646C77.7343 252.949 77.7356 253.259 77.7383 253.575C77.7409 253.891 77.7449 254.195 77.7502 254.488C77.7556 254.78 77.7622 255.054 77.7702 255.309C77.7808 255.561 77.7928 255.779 77.806 255.962V255.958C77.8114 255.998 77.8153 256.037 77.818 256.074C77.8233 256.108 77.826 256.144 77.826 256.181C77.826 256.245 77.818 256.305 77.8021 256.361C77.7888 256.414 77.7649 256.46 77.7303 256.5C77.6958 256.54 77.648 256.571 77.5868 256.592C77.5257 256.613 77.45 256.624 77.3597 256.624C77.2534 256.624 77.1644 256.615 77.0927 256.596C77.0236 256.577 76.9678 256.549 76.9253 256.512C76.8854 256.475 76.8562 256.43 76.8376 256.377C76.8217 256.321 76.8137 256.259 76.8137 256.189ZM81.1275 256.253C81.1275 256.142 81.1354 256.047 81.1514 255.97C81.1673 255.893 81.1766 255.857 81.1793 255.863C81.1846 255.573 81.1886 255.279 81.1912 254.982C81.1966 254.684 81.1992 254.369 81.1992 254.037C81.1992 253.827 81.1992 253.6 81.1992 253.356C81.1992 253.109 81.1966 252.86 81.1912 252.611C81.1886 252.358 81.1833 252.111 81.1753 251.869C81.1673 251.625 81.1567 251.399 81.1434 251.192C81.1328 251.131 81.1248 251.076 81.1195 251.028C81.1142 250.978 81.1115 250.925 81.1115 250.869C81.1115 250.739 81.1394 250.636 81.1952 250.562C81.251 250.485 81.3414 250.432 81.4662 250.403C81.5194 250.358 81.5778 250.327 81.6416 250.311C81.708 250.292 81.7718 250.283 81.8329 250.283C81.8967 250.283 81.9538 250.302 82.0043 250.339C82.0574 250.376 82.1039 250.42 82.1437 250.47C82.1836 250.521 82.2168 250.574 82.2434 250.63C82.27 250.683 82.2886 250.727 82.2992 250.761C82.3815 250.884 82.4798 251.023 82.5941 251.18C82.711 251.337 82.8372 251.505 82.9727 251.686C83.1109 251.864 83.257 252.051 83.4111 252.248C83.5652 252.442 83.7206 252.638 83.8774 252.838C84.0368 253.037 84.1949 253.236 84.3517 253.436C84.5084 253.632 84.6572 253.822 84.798 254.005C84.9388 254.189 85.0704 254.363 85.1926 254.528C85.3148 254.69 85.4197 254.836 85.5074 254.966C85.5074 254.397 85.5048 253.908 85.4995 253.499C85.4968 253.088 85.4928 252.738 85.4875 252.451C85.4822 252.162 85.4755 251.924 85.4676 251.738C85.4596 251.552 85.453 251.398 85.4476 251.275C85.4423 251.153 85.437 251.054 85.4317 250.977C85.429 250.897 85.4277 250.821 85.4277 250.749C85.4277 250.643 85.4383 250.557 85.4596 250.49C85.4835 250.421 85.5154 250.368 85.5552 250.331C85.5978 250.294 85.6496 250.268 85.7107 250.255C85.7718 250.242 85.8422 250.235 85.9219 250.235C86.0255 250.235 86.1066 250.257 86.165 250.299C86.2235 250.342 86.2673 250.396 86.2965 250.462C86.3284 250.526 86.347 250.599 86.3523 250.682C86.3603 250.761 86.3643 250.84 86.3643 250.917V255.488C86.3643 255.584 86.3696 255.681 86.3802 255.779C86.3909 255.875 86.3962 255.977 86.3962 256.086C86.3962 256.189 86.3882 256.276 86.3723 256.345C86.3563 256.411 86.3297 256.466 86.2925 256.508C86.258 256.551 86.2115 256.58 86.1531 256.596C86.0973 256.615 86.0295 256.624 85.9498 256.624C85.801 256.624 85.6815 256.587 85.5911 256.512C85.5034 256.438 85.441 256.348 85.4038 256.241C85.1514 255.896 84.895 255.556 84.6346 255.221C84.3769 254.884 84.1165 254.547 83.8535 254.213C83.5904 253.875 83.3261 253.537 83.0604 253.196C82.7947 252.854 82.5303 252.506 82.2673 252.152L82.0282 251.778C82.0308 252.184 82.0335 252.547 82.0361 252.866C82.0388 253.182 82.0415 253.465 82.0441 253.715C82.0468 253.962 82.0494 254.181 82.0521 254.372C82.0547 254.561 82.0561 254.731 82.0561 254.882C82.0587 255.031 82.0601 255.168 82.0601 255.293C82.0627 255.415 82.064 255.535 82.064 255.651C82.0667 255.721 82.0707 255.795 82.076 255.875C82.084 255.952 82.088 256.027 82.088 256.102C82.088 256.171 82.0813 256.237 82.068 256.301C82.0574 256.365 82.0348 256.421 82.0003 256.468C81.9657 256.516 81.9166 256.553 81.8528 256.58C81.7917 256.609 81.7107 256.624 81.6097 256.624C81.4742 256.624 81.36 256.591 81.267 256.524C81.174 256.458 81.1275 256.367 81.1275 256.253ZM89.2075 253.495C89.2075 252.951 89.2858 252.475 89.4426 252.069C89.5994 251.662 89.8159 251.323 90.0922 251.052C90.3685 250.781 90.6954 250.578 91.0726 250.443C91.4499 250.307 91.8604 250.239 92.3041 250.239C92.4184 250.239 92.5472 250.242 92.6907 250.247C92.8342 250.25 92.9803 250.259 93.1291 250.275C93.2805 250.291 93.4293 250.314 93.5755 250.343C93.7216 250.372 93.8571 250.411 93.982 250.458C94.0803 250.496 94.1626 250.549 94.2291 250.618C94.2955 250.687 94.3287 250.787 94.3287 250.917C94.3287 251.068 94.2902 251.19 94.2131 251.283C94.1387 251.374 94.0511 251.419 93.9501 251.419C93.9288 251.419 93.9009 251.416 93.8664 251.411C93.8319 251.406 93.8026 251.396 93.7787 251.383C93.6751 251.327 93.5489 251.282 93.4001 251.248C93.254 251.213 93.1025 251.185 92.9458 251.164C92.789 251.143 92.6362 251.128 92.4875 251.12C92.3387 251.112 92.2111 251.108 92.1049 251.108C91.9587 251.108 91.8086 251.127 91.6545 251.164C91.5004 251.198 91.349 251.254 91.2002 251.331C91.054 251.408 90.9145 251.507 90.7817 251.626C90.6515 251.746 90.5373 251.888 90.439 252.053C90.3406 252.217 90.2623 252.407 90.2038 252.623C90.1454 252.835 90.1161 253.074 90.1161 253.34C90.1161 253.651 90.152 253.926 90.2237 254.165C90.2981 254.404 90.3991 254.613 90.5266 254.791C90.6542 254.966 90.8043 255.115 90.977 255.237C91.1497 255.357 91.3357 255.453 91.5349 255.528C91.7369 255.602 91.9468 255.655 92.1646 255.687C92.3825 255.719 92.6004 255.735 92.8182 255.735C92.9139 255.735 93.0215 255.734 93.1411 255.731C93.2633 255.726 93.3842 255.713 93.5037 255.691C93.5037 255.431 93.5024 255.209 93.4997 255.026C93.4997 254.842 93.4984 254.679 93.4958 254.536C93.4931 254.392 93.4891 254.261 93.4838 254.141C93.4811 254.021 93.4772 253.894 93.4718 253.758C93.4718 253.663 93.4652 253.567 93.4519 253.471C93.4386 253.373 93.432 253.268 93.432 253.157C93.432 253.117 93.44 253.074 93.4559 253.029C93.4745 252.981 93.5024 252.937 93.5396 252.898C93.5794 252.855 93.6313 252.82 93.695 252.794C93.7588 252.765 93.8385 252.75 93.9341 252.75C94.0909 252.75 94.2118 252.787 94.2968 252.862C94.3845 252.933 94.4283 253.032 94.4283 253.157C94.4283 253.21 94.427 253.262 94.4244 253.312C94.4217 253.36 94.4204 253.412 94.4204 253.467C94.4177 253.552 94.4137 253.656 94.4084 253.778C94.4058 253.898 94.4031 254.052 94.4004 254.241C94.3978 254.427 94.3951 254.654 94.3925 254.922C94.3898 255.188 94.3885 255.507 94.3885 255.879C94.3858 256.03 94.3659 256.148 94.3287 256.233C94.2915 256.318 94.241 256.382 94.1773 256.425C94.1135 256.464 94.0391 256.488 93.9541 256.496C93.8717 256.504 93.7854 256.508 93.695 256.508C93.618 256.508 93.5369 256.512 93.4519 256.52C93.3669 256.528 93.2805 256.538 93.1929 256.548C93.1052 256.559 93.0188 256.568 92.9338 256.576C92.8514 256.584 92.7731 256.588 92.6987 256.588C92.1327 256.588 91.6319 256.504 91.1962 256.337C90.7631 256.17 90.3991 255.945 90.1042 255.663C89.8093 255.379 89.5861 255.051 89.4346 254.679C89.2832 254.304 89.2075 253.91 89.2075 253.495ZM97.423 256.118C97.423 256.049 97.4283 255.962 97.4389 255.859C97.4522 255.755 97.4774 255.655 97.5146 255.56C97.5518 255.464 97.605 255.382 97.674 255.313C97.7431 255.244 97.8348 255.209 97.949 255.209C98.0633 255.209 98.151 255.234 98.2121 255.285C98.2758 255.335 98.3223 255.395 98.3516 255.464C98.3808 255.531 98.3981 255.598 98.4034 255.667C98.4113 255.736 98.4153 255.791 98.4153 255.831V255.855C98.4153 255.974 98.4074 256.081 98.3914 256.174C98.3755 256.267 98.3476 256.345 98.3077 256.409C98.2705 256.472 98.22 256.522 98.1563 256.556C98.0925 256.591 98.0128 256.608 97.9171 256.608C97.8268 256.608 97.7498 256.593 97.686 256.564C97.6249 256.538 97.5744 256.502 97.5346 256.456C97.4947 256.411 97.4655 256.36 97.4469 256.301C97.4309 256.243 97.423 256.181 97.423 256.118ZM101.31 256.058C101.31 256.013 101.316 255.965 101.326 255.914C101.34 255.864 101.353 255.817 101.366 255.775L101.402 255.647L101.31 250.881C101.31 250.751 101.325 250.65 101.354 250.578C101.386 250.506 101.426 250.453 101.474 250.419C101.522 250.384 101.576 250.364 101.637 250.359C101.701 250.354 101.765 250.351 101.828 250.351H103.929C103.977 250.346 104.03 250.339 104.088 250.331C104.149 250.32 104.192 250.315 104.216 250.315C104.317 250.315 104.398 250.324 104.459 250.343C104.523 250.361 104.572 250.389 104.606 250.427C104.643 250.461 104.667 250.505 104.678 250.558C104.691 250.611 104.698 250.674 104.698 250.745C104.698 250.846 104.685 250.927 104.658 250.989C104.634 251.05 104.6 251.097 104.554 251.132C104.512 251.164 104.461 251.185 104.403 251.196C104.345 251.206 104.282 251.212 104.216 251.212C104.186 251.212 104.148 251.212 104.1 251.212C104.052 251.209 104.002 251.205 103.949 251.2C103.691 251.2 103.482 251.2 103.323 251.2C103.166 251.2 103.04 251.201 102.944 251.204C102.851 251.204 102.78 251.204 102.729 251.204C102.681 251.204 102.639 251.204 102.602 251.204H102.231V252.467C102.247 252.467 102.265 252.468 102.287 252.471C102.311 252.471 102.347 252.471 102.394 252.471C102.442 252.471 102.507 252.471 102.59 252.471C102.675 252.471 102.788 252.471 102.928 252.471C103.069 252.471 103.243 252.471 103.45 252.471C103.658 252.471 103.909 252.471 104.204 252.471C104.233 252.471 104.266 252.47 104.303 252.467C104.341 252.464 104.378 252.46 104.415 252.455C104.463 252.45 104.519 252.445 104.582 252.439C104.646 252.434 104.715 252.431 104.79 252.431C104.861 252.431 104.925 252.446 104.981 252.475C105.037 252.504 105.083 252.542 105.12 252.587C105.16 252.629 105.189 252.676 105.208 252.726C105.229 252.777 105.24 252.824 105.24 252.87C105.24 253.013 105.192 253.118 105.096 253.184C105.003 253.251 104.883 253.284 104.734 253.284L102.231 253.288V255.675C102.494 255.675 102.758 255.679 103.024 255.687C103.29 255.695 103.567 255.699 103.857 255.699C103.937 255.699 104.01 255.695 104.076 255.687C104.143 255.679 104.206 255.67 104.267 255.659C104.323 255.651 104.379 255.645 104.435 255.639C104.493 255.632 104.557 255.628 104.626 255.628C104.706 255.628 104.779 255.634 104.845 255.647C104.914 255.658 104.974 255.679 105.025 255.711C105.075 255.74 105.115 255.782 105.144 255.835C105.173 255.885 105.188 255.95 105.188 256.03C105.188 256.147 105.168 256.237 105.128 256.301C105.088 256.365 105.034 256.413 104.965 256.445C104.899 256.474 104.821 256.492 104.734 256.5C104.649 256.506 104.56 256.508 104.467 256.508H101.785C101.716 256.508 101.652 256.5 101.593 256.484C101.537 256.468 101.488 256.443 101.446 256.409C101.403 256.371 101.37 256.325 101.346 256.269C101.322 256.211 101.31 256.14 101.31 256.058ZM108.027 256.253C108.027 256.142 108.035 256.047 108.051 255.97C108.067 255.893 108.076 255.857 108.079 255.863C108.084 255.573 108.088 255.279 108.091 254.982C108.096 254.684 108.099 254.369 108.099 254.037C108.099 253.827 108.099 253.6 108.099 253.356C108.099 253.109 108.096 252.86 108.091 252.611C108.088 252.358 108.083 252.111 108.075 251.869C108.067 251.625 108.057 251.399 108.043 251.192C108.033 251.131 108.025 251.076 108.019 251.028C108.014 250.978 108.011 250.925 108.011 250.869C108.011 250.739 108.039 250.636 108.095 250.562C108.151 250.485 108.241 250.432 108.366 250.403C108.419 250.358 108.478 250.327 108.541 250.311C108.608 250.292 108.672 250.283 108.733 250.283C108.796 250.283 108.854 250.302 108.904 250.339C108.957 250.376 109.004 250.42 109.044 250.47C109.083 250.521 109.117 250.574 109.143 250.63C109.17 250.683 109.188 250.727 109.199 250.761C109.281 250.884 109.38 251.023 109.494 251.18C109.611 251.337 109.737 251.505 109.873 251.686C110.011 251.864 110.157 252.051 110.311 252.248C110.465 252.442 110.62 252.638 110.777 252.838C110.937 253.037 111.095 253.236 111.251 253.436C111.408 253.632 111.557 253.822 111.698 254.005C111.839 254.189 111.97 254.363 112.092 254.528C112.215 254.69 112.32 254.836 112.407 254.966C112.407 254.397 112.405 253.908 112.399 253.499C112.397 253.088 112.393 252.738 112.387 252.451C112.382 252.162 112.375 251.924 112.367 251.738C112.359 251.552 112.353 251.398 112.347 251.275C112.342 251.153 112.337 251.054 112.332 250.977C112.329 250.897 112.328 250.821 112.328 250.749C112.328 250.643 112.338 250.557 112.359 250.49C112.383 250.421 112.415 250.368 112.455 250.331C112.498 250.294 112.549 250.268 112.611 250.255C112.672 250.242 112.742 250.235 112.822 250.235C112.925 250.235 113.006 250.257 113.065 250.299C113.123 250.342 113.167 250.396 113.196 250.462C113.228 250.526 113.247 250.599 113.252 250.682C113.26 250.761 113.264 250.84 113.264 250.917V255.488C113.264 255.584 113.269 255.681 113.28 255.779C113.291 255.875 113.296 255.977 113.296 256.086C113.296 256.189 113.288 256.276 113.272 256.345C113.256 256.411 113.23 256.466 113.192 256.508C113.158 256.551 113.111 256.58 113.053 256.596C112.997 256.615 112.929 256.624 112.85 256.624C112.701 256.624 112.581 256.587 112.491 256.512C112.403 256.438 112.341 256.348 112.304 256.241C112.051 255.896 111.795 255.556 111.534 255.221C111.277 254.884 111.016 254.547 110.753 254.213C110.49 253.875 110.226 253.537 109.96 253.196C109.695 252.854 109.43 252.506 109.167 252.152L108.928 251.778C108.931 252.184 108.933 252.547 108.936 252.866C108.939 253.182 108.941 253.465 108.944 253.715C108.947 253.962 108.949 254.181 108.952 254.372C108.955 254.561 108.956 254.731 108.956 254.882C108.959 255.031 108.96 255.168 108.96 255.293C108.963 255.415 108.964 255.535 108.964 255.651C108.967 255.721 108.971 255.795 108.976 255.875C108.984 255.952 108.988 256.027 108.988 256.102C108.988 256.171 108.981 256.237 108.968 256.301C108.957 256.365 108.935 256.421 108.9 256.468C108.866 256.516 108.816 256.553 108.753 256.58C108.692 256.609 108.611 256.624 108.51 256.624C108.374 256.624 108.26 256.591 108.167 256.524C108.074 256.458 108.027 256.367 108.027 256.253ZM117.291 251.248C117.105 251.248 116.912 251.249 116.713 251.252C116.514 251.254 116.296 251.256 116.059 251.256C115.996 251.256 115.94 251.241 115.892 251.212C115.844 251.182 115.804 251.145 115.773 251.1C115.741 251.052 115.717 250.999 115.701 250.941C115.685 250.882 115.677 250.824 115.677 250.765C115.677 250.609 115.721 250.501 115.808 250.443C115.896 250.381 116.038 250.351 116.235 250.351H119.415C119.468 250.351 119.523 250.358 119.579 250.371C119.637 250.384 119.689 250.408 119.734 250.443C119.782 250.477 119.82 250.522 119.85 250.578C119.881 250.634 119.897 250.706 119.897 250.793C119.897 250.857 119.887 250.918 119.866 250.977C119.844 251.035 119.815 251.086 119.778 251.128C119.743 251.171 119.701 251.205 119.65 251.232C119.602 251.258 119.551 251.271 119.495 251.271C119.452 251.271 119.411 251.268 119.371 251.26C119.331 251.252 119.289 251.248 119.244 251.248H118.216L118.204 255.743C118.204 255.807 118.208 255.869 118.216 255.93C118.226 255.992 118.232 256.058 118.232 256.13C118.232 256.188 118.226 256.247 118.216 256.305C118.205 256.363 118.182 256.417 118.148 256.464C118.113 256.512 118.064 256.551 118 256.58C117.937 256.612 117.853 256.628 117.749 256.628C117.627 256.628 117.534 256.607 117.47 256.564C117.407 256.524 117.36 256.472 117.331 256.409C117.304 256.345 117.29 256.274 117.287 256.197C117.284 256.12 117.283 256.046 117.283 255.974L117.291 251.248ZM122.27 256.058C122.27 256.013 122.276 255.965 122.286 255.914C122.3 255.864 122.313 255.817 122.326 255.775L122.362 255.647L122.27 250.881C122.27 250.751 122.285 250.65 122.314 250.578C122.346 250.506 122.386 250.453 122.434 250.419C122.482 250.384 122.536 250.364 122.597 250.359C122.661 250.354 122.725 250.351 122.788 250.351H124.889C124.937 250.346 124.99 250.339 125.048 250.331C125.109 250.32 125.152 250.315 125.176 250.315C125.277 250.315 125.358 250.324 125.419 250.343C125.483 250.361 125.532 250.389 125.566 250.427C125.603 250.461 125.627 250.505 125.638 250.558C125.651 250.611 125.658 250.674 125.658 250.745C125.658 250.846 125.645 250.927 125.618 250.989C125.594 251.05 125.56 251.097 125.514 251.132C125.472 251.164 125.421 251.185 125.363 251.196C125.305 251.206 125.242 251.212 125.176 251.212C125.146 251.212 125.108 251.212 125.06 251.212C125.012 251.209 124.962 251.205 124.909 251.2C124.651 251.2 124.442 251.2 124.283 251.2C124.126 251.2 124 251.201 123.904 251.204C123.811 251.204 123.74 251.204 123.689 251.204C123.641 251.204 123.599 251.204 123.562 251.204H123.191V252.467C123.207 252.467 123.225 252.468 123.247 252.471C123.271 252.471 123.307 252.471 123.354 252.471C123.402 252.471 123.467 252.471 123.55 252.471C123.635 252.471 123.748 252.471 123.888 252.471C124.029 252.471 124.203 252.471 124.41 252.471C124.618 252.471 124.869 252.471 125.164 252.471C125.193 252.471 125.226 252.47 125.263 252.467C125.301 252.464 125.338 252.46 125.375 252.455C125.423 252.45 125.479 252.445 125.542 252.439C125.606 252.434 125.675 252.431 125.75 252.431C125.821 252.431 125.885 252.446 125.941 252.475C125.997 252.504 126.043 252.542 126.08 252.587C126.12 252.629 126.149 252.676 126.168 252.726C126.189 252.777 126.2 252.824 126.2 252.87C126.2 253.013 126.152 253.118 126.056 253.184C125.963 253.251 125.843 253.284 125.694 253.284L123.191 253.288V255.675C123.454 255.675 123.718 255.679 123.984 255.687C124.25 255.695 124.527 255.699 124.817 255.699C124.897 255.699 124.97 255.695 125.036 255.687C125.103 255.679 125.166 255.67 125.227 255.659C125.283 255.651 125.339 255.645 125.395 255.639C125.453 255.632 125.517 255.628 125.586 255.628C125.666 255.628 125.739 255.634 125.805 255.647C125.874 255.658 125.934 255.679 125.985 255.711C126.035 255.74 126.075 255.782 126.104 255.835C126.133 255.885 126.148 255.95 126.148 256.03C126.148 256.147 126.128 256.237 126.088 256.301C126.048 256.365 125.994 256.413 125.925 256.445C125.859 256.474 125.781 256.492 125.694 256.5C125.609 256.506 125.52 256.508 125.427 256.508H122.745C122.675 256.508 122.612 256.5 122.553 256.484C122.497 256.468 122.448 256.443 122.406 256.409C122.363 256.371 122.33 256.325 122.306 256.269C122.282 256.211 122.27 256.14 122.27 256.058ZM128.995 256.066C128.995 256.007 128.998 255.95 129.003 255.895C129.009 255.839 129.014 255.787 129.019 255.739C129.019 255.37 129.019 255.03 129.019 254.719C129.019 254.408 129.019 254.118 129.019 253.85C129.019 253.579 129.019 253.325 129.019 253.089C129.019 252.852 129.019 252.624 129.019 252.403C129.019 252.18 129.019 251.962 129.019 251.75C129.022 251.535 129.023 251.315 129.023 251.092C129.01 251.055 128.997 251.003 128.983 250.937C128.973 250.87 128.967 250.808 128.967 250.749C128.967 250.694 128.975 250.638 128.991 250.582C129.01 250.526 129.036 250.477 129.071 250.435C129.108 250.389 129.153 250.354 129.207 250.327C129.26 250.3 129.321 250.287 129.39 250.287C129.501 250.287 129.614 250.294 129.729 250.307C129.843 250.32 129.972 250.327 130.115 250.327C130.235 250.327 130.354 250.322 130.474 250.311C130.593 250.298 130.721 250.29 130.856 250.287C131.258 250.287 131.62 250.327 131.944 250.407C132.271 250.486 132.549 250.61 132.777 250.777C133.009 250.945 133.187 251.159 133.311 251.419C133.436 251.677 133.499 251.985 133.499 252.344C133.499 252.684 133.451 252.987 133.355 253.252C133.262 253.515 133.141 253.745 132.993 253.942C132.846 254.138 132.682 254.303 132.498 254.436C132.318 254.566 132.141 254.666 131.968 254.735C131.992 254.878 132.029 255.014 132.08 255.141C132.133 255.266 132.2 255.376 132.279 255.472C132.362 255.568 132.457 255.643 132.566 255.699C132.675 255.755 132.797 255.783 132.933 255.783C133.034 255.783 133.125 255.767 133.208 255.735C133.293 255.703 133.366 255.641 133.427 255.548C133.464 255.495 133.509 255.448 133.563 255.408C133.616 255.366 133.683 255.345 133.766 255.345C133.909 255.345 134.021 255.384 134.101 255.464C134.18 255.544 134.22 255.645 134.22 255.767C134.22 255.881 134.187 255.99 134.12 256.094C134.057 256.197 133.965 256.289 133.846 256.369C133.729 256.446 133.586 256.507 133.419 256.552C133.252 256.6 133.066 256.624 132.861 256.624C132.672 256.624 132.501 256.596 132.347 256.54C132.196 256.487 132.059 256.415 131.936 256.325C131.817 256.232 131.711 256.127 131.618 256.01C131.525 255.891 131.445 255.767 131.379 255.639C131.312 255.509 131.258 255.38 131.215 255.253C131.173 255.125 131.139 255.006 131.116 254.894C131.084 254.894 131.041 254.894 130.988 254.894C130.935 254.894 130.88 254.894 130.825 254.894C130.769 254.894 130.713 254.894 130.657 254.894C130.604 254.892 130.56 254.89 130.526 254.89C130.449 254.888 130.353 254.886 130.239 254.886C130.127 254.884 130.025 254.882 129.932 254.882V255.464C129.937 255.589 129.953 255.711 129.98 255.831C130.006 255.948 130.02 256.069 130.02 256.193C130.02 256.271 130.004 256.336 129.972 256.389C129.942 256.442 129.904 256.486 129.856 256.52C129.808 256.557 129.756 256.584 129.701 256.6C129.645 256.616 129.592 256.624 129.541 256.624C129.462 256.624 129.389 256.609 129.322 256.58C129.256 256.553 129.199 256.516 129.151 256.468C129.103 256.418 129.064 256.36 129.035 256.293C129.009 256.224 128.995 256.148 128.995 256.066ZM129.928 254.025C129.997 254.028 130.078 254.031 130.171 254.033C130.264 254.036 130.353 254.039 130.438 254.041C130.523 254.044 130.599 254.047 130.665 254.049C130.732 254.049 130.774 254.049 130.793 254.049C131.151 254.049 131.445 254 131.673 253.902C131.905 253.804 132.085 253.673 132.215 253.511C132.346 253.349 132.435 253.163 132.482 252.953C132.533 252.743 132.558 252.528 132.558 252.308C132.558 252.114 132.528 251.95 132.467 251.817C132.405 251.682 132.324 251.57 132.223 251.483C132.122 251.395 132.008 251.326 131.881 251.275C131.753 251.225 131.623 251.188 131.49 251.164C131.36 251.14 131.231 251.125 131.104 251.12C130.979 251.115 130.868 251.112 130.773 251.112C130.637 251.112 130.499 251.115 130.358 251.12C130.22 251.123 130.07 251.125 129.908 251.128C129.903 251.229 129.899 251.321 129.896 251.403C129.896 251.485 129.895 251.566 129.892 251.646C129.892 251.723 129.892 251.803 129.892 251.885C129.892 251.965 129.892 252.055 129.892 252.156C129.892 252.337 129.892 252.506 129.892 252.662C129.895 252.816 129.897 252.968 129.9 253.117C129.903 253.263 129.905 253.41 129.908 253.559C129.913 253.708 129.92 253.863 129.928 254.025ZM131.797 254.791C131.794 254.791 131.793 254.792 131.793 254.795L131.797 254.791ZM131.789 254.795H131.793H131.789ZM137.645 251.248C137.459 251.248 137.267 251.249 137.067 251.252C136.868 251.254 136.65 251.256 136.414 251.256C136.35 251.256 136.294 251.241 136.246 251.212C136.198 251.182 136.159 251.145 136.127 251.1C136.095 251.052 136.071 250.999 136.055 250.941C136.039 250.882 136.031 250.824 136.031 250.765C136.031 250.609 136.075 250.501 136.163 250.443C136.25 250.381 136.392 250.351 136.589 250.351H139.769C139.823 250.351 139.877 250.358 139.933 250.371C139.991 250.384 140.043 250.408 140.088 250.443C140.136 250.477 140.175 250.522 140.204 250.578C140.236 250.634 140.252 250.706 140.252 250.793C140.252 250.857 140.241 250.918 140.22 250.977C140.198 251.035 140.169 251.086 140.132 251.128C140.098 251.171 140.055 251.205 140.005 251.232C139.957 251.258 139.905 251.271 139.849 251.271C139.807 251.271 139.765 251.268 139.726 251.26C139.686 251.252 139.643 251.248 139.598 251.248H138.57L138.558 255.743C138.558 255.807 138.562 255.869 138.57 255.93C138.58 255.992 138.586 256.058 138.586 256.13C138.586 256.188 138.58 256.247 138.57 256.305C138.559 256.363 138.537 256.417 138.502 256.464C138.467 256.512 138.418 256.551 138.355 256.58C138.291 256.612 138.207 256.628 138.103 256.628C137.981 256.628 137.888 256.607 137.825 256.564C137.761 256.524 137.714 256.472 137.685 256.409C137.658 256.345 137.644 256.274 137.641 256.197C137.639 256.12 137.637 256.046 137.637 255.974L137.645 251.248ZM141.975 256.201C141.975 256.116 141.987 256.031 142.011 255.946C142.035 255.859 142.079 255.771 142.142 255.683C142.187 255.606 142.249 255.489 142.326 255.333C142.405 255.176 142.494 254.991 142.593 254.779C142.691 254.566 142.796 254.335 142.907 254.085C143.022 253.833 143.137 253.576 143.254 253.316C143.371 253.053 143.487 252.791 143.601 252.531C143.718 252.268 143.828 252.022 143.932 251.794C144.035 251.562 144.13 251.354 144.215 251.168C144.3 250.982 144.371 250.832 144.43 250.718C144.438 250.659 144.454 250.602 144.478 250.546C144.502 250.488 144.534 250.436 144.573 250.391C144.613 250.343 144.661 250.306 144.717 250.279C144.773 250.25 144.838 250.235 144.912 250.235C145.008 250.235 145.085 250.249 145.143 250.275C145.204 250.302 145.254 250.339 145.291 250.387C145.331 250.432 145.363 250.485 145.386 250.546C145.41 250.607 145.434 250.672 145.458 250.741C145.479 250.803 145.499 250.861 145.518 250.917C145.537 250.97 145.554 251.011 145.57 251.04C145.748 251.396 145.92 251.755 146.088 252.116C146.258 252.478 146.425 252.846 146.59 253.22C146.757 253.592 146.926 253.97 147.096 254.352C147.266 254.735 147.443 255.124 147.626 255.52L147.702 255.632C147.723 255.661 147.748 255.697 147.778 255.739C147.807 255.779 147.833 255.823 147.857 255.871C147.884 255.918 147.905 255.969 147.921 256.022C147.94 256.075 147.949 256.128 147.949 256.181C147.949 256.341 147.904 256.454 147.814 256.52C147.723 256.589 147.613 256.624 147.483 256.624C147.411 256.624 147.345 256.612 147.283 256.588C147.225 256.567 147.173 256.538 147.128 256.5C147.083 256.46 147.047 256.415 147.02 256.365C146.994 256.312 146.977 256.256 146.969 256.197C146.894 256.035 146.825 255.884 146.761 255.743C146.698 255.6 146.635 255.461 146.574 255.329C146.516 255.196 146.458 255.067 146.403 254.942C146.347 254.815 146.291 254.687 146.235 254.559C146.193 254.559 146.133 254.559 146.056 254.559C145.979 254.557 145.893 254.553 145.797 254.547C145.645 254.547 145.491 254.546 145.335 254.544C145.181 254.541 145.022 254.54 144.86 254.54C144.698 254.537 144.531 254.537 144.358 254.54C144.185 254.54 144.005 254.544 143.816 254.551C143.787 254.554 143.759 254.557 143.732 254.559C143.706 254.559 143.678 254.559 143.649 254.559C143.574 254.74 143.504 254.913 143.438 255.078C143.371 255.24 143.311 255.39 143.258 255.528C143.205 255.666 143.157 255.79 143.115 255.899C143.075 256.005 143.044 256.091 143.023 256.158V256.154C143.007 256.212 142.989 256.269 142.967 256.325C142.949 256.381 142.921 256.431 142.884 256.476C142.846 256.519 142.795 256.553 142.728 256.58C142.664 256.609 142.579 256.624 142.473 256.624C142.33 256.624 142.21 256.588 142.114 256.516C142.021 256.445 141.975 256.34 141.975 256.201ZM144.011 253.691C144.067 253.691 144.139 253.691 144.227 253.691C144.317 253.691 144.433 253.692 144.573 253.695C144.717 253.695 144.892 253.696 145.099 253.699C145.307 253.699 145.558 253.7 145.853 253.703C145.73 253.437 145.592 253.138 145.438 252.806C145.284 252.471 145.102 252.082 144.892 251.638C144.831 251.774 144.766 251.922 144.697 252.085C144.628 252.247 144.555 252.415 144.478 252.591C144.403 252.766 144.326 252.947 144.247 253.133C144.17 253.319 144.091 253.505 144.011 253.691ZM150.601 256.189C150.601 256.054 150.61 255.921 150.629 255.791C150.65 255.658 150.661 255.517 150.661 255.368C150.661 254.691 150.654 254.009 150.641 253.324C150.63 252.638 150.625 251.934 150.625 251.212C150.625 251.137 150.617 251.063 150.601 250.989C150.585 250.911 150.577 250.829 150.577 250.741C150.577 250.672 150.586 250.607 150.605 250.546C150.623 250.485 150.655 250.432 150.701 250.387C150.746 250.339 150.808 250.302 150.888 250.275C150.968 250.249 151.067 250.235 151.187 250.235C151.306 250.235 151.401 250.28 151.47 250.371C151.539 250.461 151.573 250.582 151.573 250.733C151.573 250.779 151.569 250.824 151.561 250.869C151.553 250.911 151.545 250.957 151.537 251.004C151.532 251.233 151.528 251.479 151.526 251.742C151.523 252.005 151.522 252.306 151.522 252.646C151.522 252.949 151.523 253.259 151.526 253.575C151.528 253.891 151.532 254.195 151.537 254.488C151.543 254.78 151.549 255.054 151.557 255.309C151.568 255.561 151.58 255.779 151.593 255.962V255.958C151.599 255.998 151.603 256.037 151.605 256.074C151.611 256.108 151.613 256.144 151.613 256.181C151.613 256.245 151.605 256.305 151.589 256.361C151.576 256.414 151.552 256.46 151.518 256.5C151.483 256.54 151.435 256.571 151.374 256.592C151.313 256.613 151.237 256.624 151.147 256.624C151.041 256.624 150.952 256.615 150.88 256.596C150.811 256.577 150.755 256.549 150.712 256.512C150.673 256.475 150.643 256.43 150.625 256.377C150.609 256.321 150.601 256.259 150.601 256.189ZM154.915 256.253C154.915 256.142 154.923 256.047 154.939 255.97C154.955 255.893 154.964 255.857 154.967 255.863C154.972 255.573 154.976 255.279 154.978 254.982C154.984 254.684 154.986 254.369 154.986 254.037C154.986 253.827 154.986 253.6 154.986 253.356C154.986 253.109 154.984 252.86 154.978 252.611C154.976 252.358 154.97 252.111 154.963 251.869C154.955 251.625 154.944 251.399 154.931 251.192C154.92 251.131 154.912 251.076 154.907 251.028C154.901 250.978 154.899 250.925 154.899 250.869C154.899 250.739 154.927 250.636 154.982 250.562C155.038 250.485 155.129 250.432 155.253 250.403C155.307 250.358 155.365 250.327 155.429 250.311C155.495 250.292 155.559 250.283 155.62 250.283C155.684 250.283 155.741 250.302 155.791 250.339C155.845 250.376 155.891 250.42 155.931 250.47C155.971 250.521 156.004 250.574 156.031 250.63C156.057 250.683 156.076 250.727 156.086 250.761C156.169 250.884 156.267 251.023 156.381 251.18C156.498 251.337 156.624 251.505 156.76 251.686C156.898 251.864 157.044 252.051 157.198 252.248C157.352 252.442 157.508 252.638 157.665 252.838C157.824 253.037 157.982 253.236 158.139 253.436C158.296 253.632 158.444 253.822 158.585 254.005C158.726 254.189 158.858 254.363 158.98 254.528C159.102 254.69 159.207 254.836 159.295 254.966C159.295 254.397 159.292 253.908 159.287 253.499C159.284 253.088 159.28 252.738 159.275 252.451C159.269 252.162 159.263 251.924 159.255 251.738C159.247 251.552 159.24 251.398 159.235 251.275C159.23 251.153 159.224 251.054 159.219 250.977C159.216 250.897 159.215 250.821 159.215 250.749C159.215 250.643 159.226 250.557 159.247 250.49C159.271 250.421 159.303 250.368 159.342 250.331C159.385 250.294 159.437 250.268 159.498 250.255C159.559 250.242 159.629 250.235 159.709 250.235C159.813 250.235 159.894 250.257 159.952 250.299C160.011 250.342 160.055 250.396 160.084 250.462C160.116 250.526 160.134 250.599 160.14 250.682C160.148 250.761 160.152 250.84 160.152 250.917V255.488C160.152 255.584 160.157 255.681 160.167 255.779C160.178 255.875 160.183 255.977 160.183 256.086C160.183 256.189 160.175 256.276 160.159 256.345C160.144 256.411 160.117 256.466 160.08 256.508C160.045 256.551 159.999 256.58 159.94 256.596C159.884 256.615 159.817 256.624 159.737 256.624C159.588 256.624 159.469 256.587 159.378 256.512C159.291 256.438 159.228 256.348 159.191 256.241C158.939 255.896 158.682 255.556 158.422 255.221C158.164 254.884 157.904 254.547 157.641 254.213C157.378 253.875 157.113 253.537 156.848 253.196C156.582 252.854 156.318 252.506 156.055 252.152L155.815 251.778C155.818 252.184 155.821 252.547 155.823 252.866C155.826 253.182 155.829 253.465 155.831 253.715C155.834 253.962 155.837 254.181 155.839 254.372C155.842 254.561 155.843 254.731 155.843 254.882C155.846 255.031 155.847 255.168 155.847 255.293C155.85 255.415 155.851 255.535 155.851 255.651C155.854 255.721 155.858 255.795 155.863 255.875C155.871 255.952 155.875 256.027 155.875 256.102C155.875 256.171 155.869 256.237 155.855 256.301C155.845 256.365 155.822 256.421 155.788 256.468C155.753 256.516 155.704 256.553 155.64 256.58C155.579 256.609 155.498 256.624 155.397 256.624C155.261 256.624 155.147 256.591 155.054 256.524C154.961 256.458 154.915 256.367 154.915 256.253ZM162.612 256.193C162.612 256.146 162.619 256.104 162.632 256.07C162.653 256.014 162.689 255.901 162.74 255.731C162.793 255.561 162.857 255.351 162.931 255.101C163.008 254.849 163.093 254.565 163.186 254.249C163.282 253.932 163.381 253.599 163.485 253.248C163.591 252.895 163.699 252.534 163.808 252.164C163.919 251.795 164.028 251.431 164.135 251.072V251.076C164.153 251.002 164.173 250.927 164.194 250.853C164.218 250.776 164.241 250.706 164.262 250.642C164.286 250.578 164.309 250.524 164.33 250.478C164.354 250.431 164.374 250.399 164.39 250.383C164.432 250.338 164.489 250.302 164.561 250.275C164.633 250.249 164.703 250.235 164.772 250.235C164.865 250.235 164.942 250.253 165.003 250.287C165.064 250.319 165.116 250.368 165.159 250.435C165.204 250.498 165.242 250.578 165.274 250.674C165.309 250.769 165.345 250.878 165.382 251L166.382 254.177L166.438 254.344C166.582 253.903 166.702 253.509 166.801 253.161C166.902 252.813 166.988 252.503 167.06 252.232C167.134 251.958 167.198 251.718 167.251 251.511C167.307 251.303 167.361 251.117 167.414 250.953C167.441 250.87 167.468 250.787 167.494 250.702C167.521 250.617 167.554 250.54 167.594 250.47C167.636 250.401 167.689 250.346 167.753 250.303C167.82 250.258 167.907 250.235 168.016 250.235C168.109 250.235 168.19 250.25 168.259 250.279C168.328 250.306 168.383 250.368 168.423 250.466C168.441 250.512 168.46 250.558 168.479 250.606C168.497 250.654 168.52 250.715 168.546 250.789C168.576 250.861 168.61 250.953 168.65 251.064C168.69 251.176 168.739 251.318 168.797 251.491C168.856 251.663 168.925 251.872 169.005 252.116C169.084 252.361 169.179 252.654 169.288 252.997C169.399 253.337 169.525 253.733 169.666 254.185C169.81 254.634 169.972 255.148 170.152 255.727C170.184 255.812 170.21 255.885 170.228 255.946C170.249 256.007 170.263 256.065 170.268 256.118C170.273 256.187 170.269 256.252 170.256 256.313C170.245 256.374 170.224 256.429 170.192 256.476C170.16 256.522 170.117 256.557 170.061 256.584C170.005 256.611 169.936 256.624 169.854 256.624C169.747 256.624 169.66 256.601 169.591 256.556C169.521 256.514 169.464 256.46 169.419 256.397C169.377 256.333 169.343 256.264 169.32 256.189C169.296 256.115 169.277 256.046 169.264 255.982C169.213 255.796 169.156 255.59 169.092 255.364C169.029 255.136 168.961 254.897 168.889 254.647C168.817 254.397 168.743 254.144 168.666 253.886C168.589 253.626 168.512 253.372 168.435 253.125C168.36 252.875 168.286 252.638 168.212 252.415C168.14 252.192 168.072 251.99 168.008 251.81C167.907 252.091 167.816 252.377 167.733 252.666C167.651 252.953 167.569 253.243 167.486 253.535C167.407 253.825 167.323 254.116 167.235 254.408C167.15 254.698 167.054 254.986 166.948 255.273C166.927 255.326 166.911 255.384 166.9 255.448C166.892 255.512 166.888 255.565 166.888 255.608C166.888 255.682 166.874 255.743 166.845 255.791C166.815 255.839 166.777 255.877 166.729 255.907C166.684 255.933 166.632 255.953 166.574 255.966C166.515 255.977 166.457 255.982 166.398 255.982C166.3 255.982 166.22 255.969 166.159 255.942C166.101 255.913 166.053 255.875 166.016 255.827C165.981 255.779 165.955 255.726 165.936 255.667C165.92 255.606 165.907 255.544 165.896 255.48C165.891 255.443 165.884 255.407 165.876 255.372C165.871 255.335 165.863 255.298 165.852 255.261C165.807 255.101 165.757 254.926 165.701 254.735C165.648 254.541 165.591 254.34 165.529 254.133C165.468 253.923 165.405 253.712 165.338 253.499C165.274 253.284 165.209 253.076 165.143 252.874C165.079 252.669 165.015 252.475 164.952 252.292C164.89 252.108 164.833 251.944 164.78 251.798C164.714 251.978 164.645 252.191 164.573 252.435C164.504 252.677 164.432 252.935 164.358 253.208C164.286 253.479 164.213 253.758 164.138 254.045C164.067 254.332 163.995 254.613 163.923 254.886C163.854 255.157 163.786 255.414 163.72 255.655C163.654 255.897 163.591 256.107 163.533 256.285C163.472 256.389 163.41 256.471 163.349 256.532C163.291 256.593 163.203 256.624 163.086 256.624C163.017 256.624 162.954 256.612 162.895 256.588C162.839 256.567 162.79 256.536 162.748 256.496C162.705 256.456 162.672 256.411 162.648 256.361C162.624 256.308 162.612 256.252 162.612 256.193ZM172.705 256.058C172.705 256.013 172.71 255.965 172.721 255.914C172.734 255.864 172.747 255.817 172.761 255.775L172.796 255.647L172.705 250.881C172.705 250.751 172.719 250.65 172.749 250.578C172.78 250.506 172.82 250.453 172.868 250.419C172.916 250.384 172.97 250.364 173.032 250.359C173.095 250.354 173.159 250.351 173.223 250.351H175.323C175.371 250.346 175.424 250.339 175.483 250.331C175.544 250.32 175.586 250.315 175.61 250.315C175.711 250.315 175.792 250.324 175.853 250.343C175.917 250.361 175.966 250.389 176.001 250.427C176.038 250.461 176.062 250.505 176.072 250.558C176.086 250.611 176.092 250.674 176.092 250.745C176.092 250.846 176.079 250.927 176.052 250.989C176.029 251.05 175.994 251.097 175.949 251.132C175.906 251.164 175.856 251.185 175.797 251.196C175.739 251.206 175.676 251.212 175.61 251.212C175.581 251.212 175.542 251.212 175.494 251.212C175.447 251.209 175.396 251.205 175.343 251.2C175.085 251.2 174.877 251.2 174.717 251.2C174.561 251.2 174.434 251.201 174.339 251.204C174.246 251.204 174.174 251.204 174.124 251.204C174.076 251.204 174.033 251.204 173.996 251.204H173.625V252.467C173.641 252.467 173.66 252.468 173.681 252.471C173.705 252.471 173.741 252.471 173.789 252.471C173.837 252.471 173.902 252.471 173.984 252.471C174.069 252.471 174.182 252.471 174.323 252.471C174.464 252.471 174.638 252.471 174.845 252.471C175.052 252.471 175.303 252.471 175.598 252.471C175.627 252.471 175.661 252.47 175.698 252.467C175.735 252.464 175.772 252.46 175.809 252.455C175.857 252.45 175.913 252.445 175.977 252.439C176.04 252.434 176.11 252.431 176.184 252.431C176.256 252.431 176.319 252.446 176.375 252.475C176.431 252.504 176.478 252.542 176.515 252.587C176.555 252.629 176.584 252.676 176.602 252.726C176.624 252.777 176.634 252.824 176.634 252.87C176.634 253.013 176.586 253.118 176.491 253.184C176.398 253.251 176.277 253.284 176.128 253.284L173.625 253.288V255.675C173.888 255.675 174.153 255.679 174.418 255.687C174.684 255.695 174.962 255.699 175.251 255.699C175.331 255.699 175.404 255.695 175.471 255.687C175.537 255.679 175.601 255.67 175.662 255.659C175.718 255.651 175.773 255.645 175.829 255.639C175.888 255.632 175.951 255.628 176.021 255.628C176.1 255.628 176.173 255.634 176.24 255.647C176.309 255.658 176.369 255.679 176.419 255.711C176.47 255.74 176.509 255.782 176.539 255.835C176.568 255.885 176.583 255.95 176.583 256.03C176.583 256.147 176.563 256.237 176.523 256.301C176.483 256.365 176.428 256.413 176.359 256.445C176.293 256.474 176.216 256.492 176.128 256.5C176.043 256.506 175.954 256.508 175.861 256.508H173.179C173.11 256.508 173.046 256.5 172.988 256.484C172.932 256.468 172.883 256.443 172.84 256.409C172.798 256.371 172.764 256.325 172.741 256.269C172.717 256.211 172.705 256.14 172.705 256.058ZM179.422 256.253C179.422 256.142 179.43 256.047 179.446 255.97C179.462 255.893 179.471 255.857 179.474 255.863C179.479 255.573 179.483 255.279 179.485 254.982C179.491 254.684 179.493 254.369 179.493 254.037C179.493 253.827 179.493 253.6 179.493 253.356C179.493 253.109 179.491 252.86 179.485 252.611C179.483 252.358 179.478 252.111 179.47 251.869C179.462 251.625 179.451 251.399 179.438 251.192C179.427 251.131 179.419 251.076 179.414 251.028C179.408 250.978 179.406 250.925 179.406 250.869C179.406 250.739 179.434 250.636 179.489 250.562C179.545 250.485 179.636 250.432 179.76 250.403C179.814 250.358 179.872 250.327 179.936 250.311C180.002 250.292 180.066 250.283 180.127 250.283C180.191 250.283 180.248 250.302 180.298 250.339C180.352 250.376 180.398 250.42 180.438 250.47C180.478 250.521 180.511 250.574 180.538 250.63C180.564 250.683 180.583 250.727 180.593 250.761C180.676 250.884 180.774 251.023 180.888 251.18C181.005 251.337 181.131 251.505 181.267 251.686C181.405 251.864 181.551 252.051 181.705 252.248C181.859 252.442 182.015 252.638 182.172 252.838C182.331 253.037 182.489 253.236 182.646 253.436C182.803 253.632 182.951 253.822 183.092 254.005C183.233 254.189 183.365 254.363 183.487 254.528C183.609 254.69 183.714 254.836 183.802 254.966C183.802 254.397 183.799 253.908 183.794 253.499C183.791 253.088 183.787 252.738 183.782 252.451C183.776 252.162 183.77 251.924 183.762 251.738C183.754 251.552 183.747 251.398 183.742 251.275C183.737 251.153 183.731 251.054 183.726 250.977C183.723 250.897 183.722 250.821 183.722 250.749C183.722 250.643 183.733 250.557 183.754 250.49C183.778 250.421 183.81 250.368 183.849 250.331C183.892 250.294 183.944 250.268 184.005 250.255C184.066 250.242 184.136 250.235 184.216 250.235C184.32 250.235 184.401 250.257 184.459 250.299C184.518 250.342 184.562 250.396 184.591 250.462C184.623 250.526 184.641 250.599 184.647 250.682C184.655 250.761 184.659 250.84 184.659 250.917V255.488C184.659 255.584 184.664 255.681 184.674 255.779C184.685 255.875 184.69 255.977 184.69 256.086C184.69 256.189 184.682 256.276 184.666 256.345C184.651 256.411 184.624 256.466 184.587 256.508C184.552 256.551 184.506 256.58 184.447 256.596C184.391 256.615 184.324 256.624 184.244 256.624C184.095 256.624 183.976 256.587 183.885 256.512C183.798 256.438 183.735 256.348 183.698 256.241C183.446 255.896 183.189 255.556 182.929 255.221C182.671 254.884 182.411 254.547 182.148 254.213C181.885 253.875 181.62 253.537 181.355 253.196C181.089 252.854 180.825 252.506 180.562 252.152L180.322 251.778C180.325 252.184 180.328 252.547 180.33 252.866C180.333 253.182 180.336 253.465 180.338 253.715C180.341 253.962 180.344 254.181 180.346 254.372C180.349 254.561 180.35 254.731 180.35 254.882C180.353 255.031 180.354 255.168 180.354 255.293C180.357 255.415 180.358 255.535 180.358 255.651C180.361 255.721 180.365 255.795 180.37 255.875C180.378 255.952 180.382 256.027 180.382 256.102C180.382 256.171 180.376 256.237 180.362 256.301C180.352 256.365 180.329 256.421 180.295 256.468C180.26 256.516 180.211 256.553 180.147 256.58C180.086 256.609 180.005 256.624 179.904 256.624C179.768 256.624 179.654 256.591 179.561 256.524C179.468 256.458 179.422 256.367 179.422 256.253ZM188.685 251.248C188.499 251.248 188.307 251.249 188.107 251.252C187.908 251.254 187.69 251.256 187.454 251.256C187.39 251.256 187.334 251.241 187.286 251.212C187.239 251.182 187.199 251.145 187.167 251.1C187.135 251.052 187.111 250.999 187.095 250.941C187.079 250.882 187.071 250.824 187.071 250.765C187.071 250.609 187.115 250.501 187.203 250.443C187.29 250.381 187.433 250.351 187.629 250.351H190.81C190.863 250.351 190.917 250.358 190.973 250.371C191.031 250.384 191.083 250.408 191.128 250.443C191.176 250.477 191.215 250.522 191.244 250.578C191.276 250.634 191.292 250.706 191.292 250.793C191.292 250.857 191.281 250.918 191.26 250.977C191.239 251.035 191.209 251.086 191.172 251.128C191.138 251.171 191.095 251.205 191.045 251.232C190.997 251.258 190.945 251.271 190.889 251.271C190.847 251.271 190.806 251.268 190.766 251.26C190.726 251.252 190.683 251.248 190.638 251.248H189.61L189.598 255.743C189.598 255.807 189.602 255.869 189.61 255.93C189.621 255.992 189.626 256.058 189.626 256.13C189.626 256.188 189.621 256.247 189.61 256.305C189.599 256.363 189.577 256.417 189.542 256.464C189.508 256.512 189.459 256.551 189.395 256.58C189.331 256.612 189.247 256.628 189.144 256.628C189.021 256.628 188.928 256.607 188.865 256.564C188.801 256.524 188.754 256.472 188.725 256.409C188.699 256.345 188.684 256.274 188.681 256.197C188.679 256.12 188.677 256.046 188.677 255.974L188.685 251.248ZM193.549 256.118C193.549 256.049 193.554 255.962 193.565 255.859C193.578 255.755 193.604 255.655 193.641 255.56C193.678 255.464 193.731 255.382 193.8 255.313C193.869 255.244 193.961 255.209 194.075 255.209C194.189 255.209 194.277 255.234 194.338 255.285C194.402 255.335 194.448 255.395 194.478 255.464C194.507 255.531 194.524 255.598 194.53 255.667C194.538 255.736 194.541 255.791 194.541 255.831V255.855C194.541 255.974 194.534 256.081 194.518 256.174C194.502 256.267 194.474 256.345 194.434 256.409C194.397 256.472 194.346 256.522 194.282 256.556C194.219 256.591 194.139 256.608 194.043 256.608C193.953 256.608 193.876 256.593 193.812 256.564C193.751 256.538 193.701 256.502 193.661 256.456C193.621 256.411 193.592 256.36 193.573 256.301C193.557 256.243 193.549 256.181 193.549 256.118ZM197.082 253.495C197.082 253.113 197.123 252.767 197.205 252.459C197.29 252.148 197.406 251.872 197.552 251.63C197.698 251.388 197.87 251.18 198.066 251.004C198.263 250.829 198.475 250.684 198.704 250.57C198.932 250.456 199.17 250.372 199.417 250.319C199.667 250.263 199.915 250.235 200.163 250.235C200.388 250.235 200.61 250.257 200.828 250.299C201.046 250.339 201.261 250.396 201.474 250.47C201.537 250.494 201.601 250.518 201.665 250.542C201.731 250.563 201.79 250.591 201.84 250.626C201.893 250.66 201.936 250.704 201.968 250.757C202 250.811 202.016 250.878 202.016 250.961C202.016 251.056 202 251.136 201.968 251.2C201.939 251.261 201.9 251.31 201.852 251.347C201.804 251.384 201.751 251.411 201.693 251.427C201.637 251.443 201.583 251.451 201.529 251.451C201.492 251.451 201.452 251.446 201.41 251.435C201.367 251.422 201.324 251.406 201.278 251.387C201.233 251.368 201.189 251.347 201.147 251.323C201.104 251.297 201.066 251.271 201.031 251.248C200.936 251.208 200.845 251.178 200.76 251.16C200.678 251.139 200.598 251.124 200.521 251.116C200.444 251.105 200.368 251.1 200.294 251.1C200.22 251.097 200.145 251.096 200.071 251.096C199.903 251.096 199.736 251.116 199.569 251.156C199.401 251.193 199.239 251.253 199.082 251.335C198.928 251.415 198.784 251.516 198.648 251.638C198.513 251.76 198.394 251.906 198.293 252.077C198.195 252.244 198.117 252.435 198.058 252.65C198.002 252.866 197.975 253.106 197.975 253.372C197.975 253.813 198.037 254.186 198.162 254.492C198.289 254.795 198.454 255.04 198.656 255.229C198.861 255.418 199.09 255.554 199.345 255.639C199.601 255.722 199.858 255.763 200.119 255.763C200.238 255.763 200.355 255.756 200.469 255.743C200.586 255.727 200.694 255.709 200.792 255.687C200.893 255.663 200.982 255.638 201.059 255.612C201.136 255.582 201.195 255.553 201.235 255.524C201.314 255.455 201.385 255.403 201.446 255.368C201.507 255.331 201.577 255.313 201.657 255.313C201.718 255.313 201.775 255.319 201.828 255.333C201.884 255.346 201.932 255.37 201.972 255.404C202.012 255.436 202.044 255.479 202.068 255.532C202.091 255.585 202.103 255.651 202.103 255.731C202.103 255.843 202.065 255.945 201.988 256.038C201.913 256.128 201.793 256.213 201.625 256.293V256.289C201.569 256.321 201.487 256.357 201.378 256.397C201.272 256.437 201.151 256.474 201.015 256.508C200.883 256.54 200.742 256.567 200.593 256.588C200.444 256.612 200.298 256.624 200.155 256.624C199.828 256.624 199.525 256.585 199.246 256.508C198.97 256.429 198.717 256.32 198.489 256.181C198.263 256.041 198.062 255.873 197.887 255.679C197.711 255.485 197.564 255.273 197.444 255.042C197.325 254.811 197.235 254.565 197.173 254.304C197.112 254.041 197.082 253.772 197.082 253.495ZM204.612 253.428C204.612 252.955 204.678 252.523 204.811 252.132C204.947 251.742 205.137 251.406 205.381 251.124C205.628 250.842 205.924 250.625 206.27 250.47C206.618 250.314 207.003 250.235 207.425 250.235C207.872 250.235 208.265 250.314 208.605 250.47C208.948 250.625 209.235 250.842 209.466 251.124C209.7 251.406 209.877 251.742 209.996 252.132C210.116 252.523 210.175 252.955 210.175 253.428C210.175 253.877 210.11 254.296 209.98 254.687C209.85 255.075 209.664 255.412 209.422 255.699C209.18 255.986 208.888 256.212 208.545 256.377C208.203 256.542 207.819 256.624 207.394 256.624C207.112 256.624 206.848 256.587 206.601 256.512C206.353 256.438 206.126 256.332 205.919 256.193C205.714 256.055 205.531 255.891 205.369 255.699C205.207 255.505 205.069 255.29 204.955 255.054C204.843 254.817 204.758 254.562 204.699 254.288C204.641 254.015 204.612 253.728 204.612 253.428ZM205.52 253.428C205.52 253.627 205.539 253.825 205.576 254.021C205.613 254.215 205.668 254.401 205.74 254.579C205.814 254.755 205.904 254.918 206.011 255.07C206.12 255.218 206.243 255.349 206.381 255.46C206.522 255.569 206.678 255.655 206.848 255.719C207.02 255.78 207.206 255.811 207.406 255.811C207.615 255.811 207.807 255.78 207.979 255.719C208.152 255.655 208.308 255.569 208.446 255.46C208.584 255.349 208.703 255.218 208.804 255.07C208.908 254.918 208.993 254.755 209.06 254.579C209.129 254.401 209.179 254.215 209.211 254.021C209.245 253.825 209.263 253.627 209.263 253.428C209.263 253.109 209.226 252.807 209.151 252.523C209.077 252.236 208.963 251.984 208.808 251.766C208.657 251.548 208.464 251.375 208.231 251.248C207.999 251.12 207.724 251.056 207.406 251.056C207.105 251.056 206.838 251.113 206.604 251.228C206.371 251.342 206.173 251.503 206.011 251.71C205.851 251.917 205.729 252.167 205.644 252.459C205.562 252.749 205.52 253.072 205.52 253.428ZM212.987 256.253C212.987 256.142 212.995 256.047 213.011 255.97C213.027 255.893 213.036 255.857 213.039 255.863C213.044 255.573 213.048 255.279 213.05 254.982C213.056 254.684 213.058 254.369 213.058 254.037C213.058 253.827 213.058 253.6 213.058 253.356C213.058 253.109 213.056 252.86 213.05 252.611C213.048 252.358 213.043 252.111 213.035 251.869C213.027 251.625 213.016 251.399 213.003 251.192C212.992 251.131 212.984 251.076 212.979 251.028C212.973 250.978 212.971 250.925 212.971 250.869C212.971 250.739 212.999 250.636 213.054 250.562C213.11 250.485 213.201 250.432 213.325 250.403C213.379 250.358 213.437 250.327 213.501 250.311C213.567 250.292 213.631 250.283 213.692 250.283C213.756 250.283 213.813 250.302 213.863 250.339C213.917 250.376 213.963 250.42 214.003 250.47C214.043 250.521 214.076 250.574 214.103 250.63C214.129 250.683 214.148 250.727 214.158 250.761C214.241 250.884 214.339 251.023 214.453 251.18C214.57 251.337 214.696 251.505 214.832 251.686C214.97 251.864 215.116 252.051 215.27 252.248C215.424 252.442 215.58 252.638 215.737 252.838C215.896 253.037 216.054 253.236 216.211 253.436C216.368 253.632 216.516 253.822 216.657 254.005C216.798 254.189 216.93 254.363 217.052 254.528C217.174 254.69 217.279 254.836 217.367 254.966C217.367 254.397 217.364 253.908 217.359 253.499C217.356 253.088 217.352 252.738 217.347 252.451C217.341 252.162 217.335 251.924 217.327 251.738C217.319 251.552 217.312 251.398 217.307 251.275C217.302 251.153 217.296 251.054 217.291 250.977C217.288 250.897 217.287 250.821 217.287 250.749C217.287 250.643 217.298 250.557 217.319 250.49C217.343 250.421 217.375 250.368 217.414 250.331C217.457 250.294 217.509 250.268 217.57 250.255C217.631 250.242 217.701 250.235 217.781 250.235C217.885 250.235 217.966 250.257 218.024 250.299C218.083 250.342 218.127 250.396 218.156 250.462C218.188 250.526 218.206 250.599 218.212 250.682C218.22 250.761 218.224 250.84 218.224 250.917V255.488C218.224 255.584 218.229 255.681 218.239 255.779C218.25 255.875 218.255 255.977 218.255 256.086C218.255 256.189 218.247 256.276 218.231 256.345C218.216 256.411 218.189 256.466 218.152 256.508C218.117 256.551 218.071 256.58 218.012 256.596C217.956 256.615 217.889 256.624 217.809 256.624C217.66 256.624 217.541 256.587 217.45 256.512C217.363 256.438 217.3 256.348 217.263 256.241C217.011 255.896 216.754 255.556 216.494 255.221C216.236 254.884 215.976 254.547 215.713 254.213C215.45 253.875 215.185 253.537 214.92 253.196C214.654 252.854 214.39 252.506 214.127 252.152L213.887 251.778C213.89 252.184 213.893 252.547 213.895 252.866C213.898 253.182 213.901 253.465 213.903 253.715C213.906 253.962 213.909 254.181 213.911 254.372C213.914 254.561 213.915 254.731 213.915 254.882C213.918 255.031 213.919 255.168 213.919 255.293C213.922 255.415 213.923 255.535 213.923 255.651C213.926 255.721 213.93 255.795 213.935 255.875C213.943 255.952 213.947 256.027 213.947 256.102C213.947 256.171 213.941 256.237 213.927 256.301C213.917 256.365 213.894 256.421 213.86 256.468C213.825 256.516 213.776 256.553 213.712 256.58C213.651 256.609 213.57 256.624 213.469 256.624C213.333 256.624 213.219 256.591 213.126 256.524C213.033 256.458 212.987 256.367 212.987 256.253ZM220.911 253.495C220.911 253.113 220.952 252.767 221.035 252.459C221.12 252.148 221.235 251.872 221.382 251.63C221.528 251.388 221.699 251.18 221.896 251.004C222.092 250.829 222.305 250.684 222.533 250.57C222.762 250.456 223 250.372 223.247 250.319C223.496 250.263 223.745 250.235 223.992 250.235C224.218 250.235 224.44 250.257 224.658 250.299C224.875 250.339 225.091 250.396 225.303 250.47C225.367 250.494 225.431 250.518 225.494 250.542C225.561 250.563 225.619 250.591 225.67 250.626C225.723 250.66 225.765 250.704 225.797 250.757C225.829 250.811 225.845 250.878 225.845 250.961C225.845 251.056 225.829 251.136 225.797 251.2C225.768 251.261 225.73 251.31 225.682 251.347C225.634 251.384 225.581 251.411 225.522 251.427C225.467 251.443 225.412 251.451 225.359 251.451C225.322 251.451 225.282 251.446 225.239 251.435C225.197 251.422 225.153 251.406 225.108 251.387C225.063 251.368 225.019 251.347 224.976 251.323C224.934 251.297 224.895 251.271 224.861 251.248C224.765 251.208 224.675 251.178 224.59 251.16C224.507 251.139 224.428 251.124 224.351 251.116C224.274 251.105 224.198 251.1 224.124 251.1C224.049 251.097 223.975 251.096 223.9 251.096C223.733 251.096 223.566 251.116 223.398 251.156C223.231 251.193 223.069 251.253 222.912 251.335C222.758 251.415 222.613 251.516 222.478 251.638C222.342 251.76 222.224 251.906 222.123 252.077C222.025 252.244 221.946 252.435 221.888 252.65C221.832 252.866 221.804 253.106 221.804 253.372C221.804 253.813 221.866 254.186 221.991 254.492C222.119 254.795 222.284 255.04 222.486 255.229C222.69 255.418 222.92 255.554 223.175 255.639C223.43 255.722 223.688 255.763 223.948 255.763C224.068 255.763 224.185 255.756 224.299 255.743C224.416 255.727 224.523 255.709 224.622 255.687C224.723 255.663 224.812 255.638 224.889 255.612C224.966 255.582 225.024 255.553 225.064 255.524C225.144 255.455 225.214 255.403 225.275 255.368C225.336 255.331 225.407 255.313 225.487 255.313C225.548 255.313 225.605 255.319 225.658 255.333C225.714 255.346 225.762 255.37 225.801 255.404C225.841 255.436 225.873 255.479 225.897 255.532C225.921 255.585 225.933 255.651 225.933 255.731C225.933 255.843 225.894 255.945 225.817 256.038C225.743 256.128 225.622 256.213 225.455 256.293V256.289C225.399 256.321 225.316 256.357 225.208 256.397C225.101 256.437 224.98 256.474 224.845 256.508C224.712 256.54 224.571 256.567 224.422 256.588C224.274 256.612 224.127 256.624 223.984 256.624C223.657 256.624 223.354 256.585 223.075 256.508C222.799 256.429 222.547 256.32 222.318 256.181C222.092 256.041 221.892 255.873 221.716 255.679C221.541 255.485 221.394 255.273 221.274 255.042C221.154 254.811 221.064 254.565 221.003 254.304C220.942 254.041 220.911 253.772 220.911 253.495ZM228.656 256.058C228.656 256.013 228.662 255.965 228.672 255.914C228.686 255.864 228.699 255.817 228.712 255.775L228.748 255.647L228.656 250.881C228.656 250.751 228.671 250.65 228.7 250.578C228.732 250.506 228.772 250.453 228.82 250.419C228.868 250.384 228.922 250.364 228.983 250.359C229.047 250.354 229.111 250.351 229.175 250.351H231.275C231.323 250.346 231.376 250.339 231.434 250.331C231.495 250.32 231.538 250.315 231.562 250.315C231.663 250.315 231.744 250.324 231.805 250.343C231.869 250.361 231.918 250.389 231.952 250.427C231.99 250.461 232.014 250.505 232.024 250.558C232.037 250.611 232.044 250.674 232.044 250.745C232.044 250.846 232.031 250.927 232.004 250.989C231.98 251.05 231.946 251.097 231.901 251.132C231.858 251.164 231.808 251.185 231.749 251.196C231.691 251.206 231.628 251.212 231.562 251.212C231.533 251.212 231.494 251.212 231.446 251.212C231.398 251.209 231.348 251.205 231.295 251.2C231.037 251.2 230.829 251.2 230.669 251.2C230.512 251.2 230.386 251.201 230.291 251.204C230.198 251.204 230.126 251.204 230.075 251.204C230.027 251.204 229.985 251.204 229.948 251.204H229.577V252.467C229.593 252.467 229.612 252.468 229.633 252.471C229.657 252.471 229.693 252.471 229.741 252.471C229.788 252.471 229.853 252.471 229.936 252.471C230.021 252.471 230.134 252.471 230.275 252.471C230.415 252.471 230.589 252.471 230.797 252.471C231.004 252.471 231.255 252.471 231.55 252.471C231.579 252.471 231.612 252.47 231.65 252.467C231.687 252.464 231.724 252.46 231.761 252.455C231.809 252.45 231.865 252.445 231.929 252.439C231.992 252.434 232.061 252.431 232.136 252.431C232.207 252.431 232.271 252.446 232.327 252.475C232.383 252.504 232.429 252.542 232.467 252.587C232.506 252.629 232.536 252.676 232.554 252.726C232.575 252.777 232.586 252.824 232.586 252.87C232.586 253.013 232.538 253.118 232.443 253.184C232.35 253.251 232.229 253.284 232.08 253.284L229.577 253.288V255.675C229.84 255.675 230.105 255.679 230.37 255.687C230.636 255.695 230.914 255.699 231.203 255.699C231.283 255.699 231.356 255.695 231.422 255.687C231.489 255.679 231.553 255.67 231.614 255.659C231.669 255.651 231.725 255.645 231.781 255.639C231.839 255.632 231.903 255.628 231.972 255.628C232.052 255.628 232.125 255.634 232.192 255.647C232.261 255.658 232.32 255.679 232.371 255.711C232.421 255.74 232.461 255.782 232.49 255.835C232.52 255.885 232.534 255.95 232.534 256.03C232.534 256.147 232.514 256.237 232.475 256.301C232.435 256.365 232.38 256.413 232.311 256.445C232.245 256.474 232.168 256.492 232.08 256.5C231.995 256.506 231.906 256.508 231.813 256.508H229.131C229.062 256.508 228.998 256.5 228.939 256.484C228.884 256.468 228.835 256.443 228.792 256.409C228.749 256.371 228.716 256.325 228.692 256.269C228.668 256.211 228.656 256.14 228.656 256.058ZM235.389 256.178C235.389 256.092 235.395 256.007 235.405 255.922C235.419 255.835 235.427 255.744 235.429 255.651L235.413 251.068C235.397 251.031 235.383 250.979 235.369 250.913C235.359 250.846 235.354 250.784 235.354 250.725C235.354 250.672 235.363 250.619 235.381 250.566C235.4 250.513 235.427 250.466 235.461 250.427C235.498 250.384 235.544 250.351 235.597 250.327C235.65 250.3 235.711 250.287 235.78 250.287C235.897 250.287 236.014 250.294 236.131 250.307C236.248 250.318 236.37 250.323 236.497 250.323C236.598 250.323 236.699 250.318 236.8 250.307C236.904 250.294 237.013 250.287 237.127 250.287C237.502 250.287 237.851 250.339 238.175 250.443C238.499 250.546 238.78 250.699 239.016 250.901C239.253 251.1 239.439 251.346 239.574 251.638C239.71 251.93 239.777 252.264 239.777 252.638C239.777 252.995 239.732 253.305 239.642 253.571C239.551 253.834 239.428 254.06 239.271 254.249C239.117 254.437 238.935 254.593 238.725 254.715C238.518 254.834 238.293 254.929 238.052 254.998C237.813 255.067 237.564 255.115 237.306 255.141C237.049 255.168 236.794 255.181 236.541 255.181C236.515 255.181 236.492 255.182 236.473 255.185C236.455 255.185 236.438 255.185 236.422 255.185C236.406 255.185 236.388 255.185 236.37 255.185C236.354 255.182 236.334 255.181 236.31 255.181C236.31 255.274 236.31 255.349 236.31 255.404C236.31 255.457 236.31 255.501 236.31 255.536C236.313 255.57 236.314 255.6 236.314 255.624C236.314 255.647 236.314 255.675 236.314 255.707C236.314 255.792 236.322 255.877 236.338 255.962C236.357 256.047 236.366 256.138 236.366 256.233C236.366 256.305 236.35 256.366 236.318 256.417C236.286 256.464 236.246 256.503 236.198 256.532C236.151 256.564 236.099 256.587 236.043 256.6C235.987 256.616 235.935 256.624 235.888 256.624C235.824 256.624 235.761 256.613 235.7 256.592C235.639 256.573 235.586 256.545 235.541 256.508C235.496 256.468 235.458 256.422 235.429 256.369C235.403 256.313 235.389 256.249 235.389 256.178ZM236.314 254.316C236.367 254.319 236.422 254.322 236.477 254.324C236.536 254.327 236.59 254.33 236.641 254.332C236.691 254.335 236.736 254.338 236.776 254.34C236.816 254.34 236.847 254.34 236.868 254.34C237.163 254.34 237.417 254.316 237.629 254.269C237.844 254.221 238.025 254.156 238.171 254.073C238.317 253.991 238.436 253.895 238.526 253.786C238.616 253.675 238.685 253.555 238.733 253.428C238.781 253.297 238.813 253.163 238.829 253.025C238.845 252.884 238.853 252.745 238.853 252.607C238.853 252.386 238.821 252.196 238.757 252.037C238.696 251.875 238.615 251.739 238.514 251.63C238.413 251.521 238.297 251.434 238.167 251.367C238.04 251.301 237.908 251.25 237.773 251.216C237.64 251.178 237.51 251.155 237.382 251.144C237.255 251.131 237.143 251.124 237.047 251.124C236.925 251.124 236.802 251.127 236.677 251.132C236.554 251.135 236.423 251.137 236.282 251.14C236.287 251.488 236.291 251.795 236.294 252.061C236.297 252.324 236.298 252.557 236.298 252.762C236.301 252.964 236.302 253.141 236.302 253.292C236.305 253.444 236.306 253.579 236.306 253.699C236.309 253.818 236.31 253.927 236.31 254.025C236.313 254.124 236.314 254.221 236.314 254.316ZM243.394 251.248C243.208 251.248 243.015 251.249 242.816 251.252C242.617 251.254 242.399 251.256 242.162 251.256C242.098 251.256 242.043 251.241 241.995 251.212C241.947 251.182 241.907 251.145 241.875 251.1C241.843 251.052 241.819 250.999 241.804 250.941C241.788 250.882 241.78 250.824 241.78 250.765C241.78 250.609 241.823 250.501 241.911 250.443C241.999 250.381 242.141 250.351 242.338 250.351H245.518C245.571 250.351 245.626 250.358 245.681 250.371C245.74 250.384 245.792 250.408 245.837 250.443C245.885 250.477 245.923 250.522 245.952 250.578C245.984 250.634 246 250.706 246 250.793C246 250.857 245.99 250.918 245.968 250.977C245.947 251.035 245.918 251.086 245.881 251.128C245.846 251.171 245.804 251.205 245.753 251.232C245.705 251.258 245.653 251.271 245.598 251.271C245.555 251.271 245.514 251.268 245.474 251.26C245.434 251.252 245.392 251.248 245.347 251.248H244.318L244.306 255.743C244.306 255.807 244.31 255.869 244.318 255.93C244.329 255.992 244.334 256.058 244.334 256.13C244.334 256.188 244.329 256.247 244.318 256.305C244.308 256.363 244.285 256.417 244.251 256.464C244.216 256.512 244.167 256.551 244.103 256.58C244.039 256.612 243.956 256.628 243.852 256.628C243.73 256.628 243.637 256.607 243.573 256.564C243.509 256.524 243.463 256.472 243.434 256.409C243.407 256.345 243.392 256.274 243.39 256.197C243.387 256.12 243.386 256.046 243.386 255.974L243.394 251.248ZM248.198 255.078C248.211 254.862 248.255 254.699 248.329 254.587C248.406 254.473 248.54 254.416 248.732 254.416C248.851 254.416 248.954 254.451 249.039 254.52C249.124 254.586 249.166 254.679 249.166 254.799C249.166 254.868 249.159 254.937 249.146 255.006C249.133 255.075 249.129 255.147 249.134 255.221C249.145 255.311 249.185 255.394 249.254 255.468C249.323 255.543 249.411 255.608 249.517 255.663C249.623 255.717 249.744 255.759 249.88 255.791C250.015 255.82 250.153 255.835 250.294 255.835C250.437 255.835 250.58 255.823 250.72 255.799C250.864 255.772 250.993 255.725 251.107 255.655C251.224 255.586 251.318 255.492 251.39 255.372C251.462 255.253 251.498 255.097 251.498 254.906C251.498 254.781 251.467 254.664 251.406 254.555C251.345 254.444 251.266 254.343 251.171 254.253C251.075 254.16 250.969 254.076 250.852 254.001C250.738 253.927 250.627 253.862 250.521 253.806C250.37 253.729 250.214 253.655 250.055 253.583C249.898 253.509 249.744 253.432 249.593 253.352C249.444 253.27 249.302 253.18 249.166 253.085C249.033 252.987 248.916 252.872 248.815 252.742C248.714 252.612 248.635 252.462 248.576 252.292C248.518 252.119 248.489 251.92 248.489 251.694C248.489 251.442 248.542 251.224 248.648 251.04C248.757 250.857 248.899 250.706 249.074 250.586C249.25 250.466 249.45 250.379 249.676 250.323C249.905 250.265 250.139 250.235 250.378 250.235C250.59 250.235 250.796 250.254 250.995 250.291C251.195 250.328 251.373 250.389 251.529 250.474C251.686 250.557 251.816 250.668 251.92 250.809C252.024 250.947 252.086 251.117 252.107 251.319C252.113 251.394 252.103 251.46 252.079 251.519C252.056 251.574 252.022 251.622 251.98 251.662C251.937 251.699 251.888 251.728 251.832 251.75C251.779 251.768 251.725 251.778 251.669 251.778C251.584 251.778 251.512 251.764 251.454 251.738C251.395 251.711 251.347 251.678 251.31 251.638C251.273 251.598 251.245 251.553 251.227 251.503C251.208 251.452 251.196 251.403 251.191 251.355C251.151 251.291 251.099 251.24 251.035 251.2C250.972 251.157 250.9 251.124 250.82 251.1C250.743 251.074 250.662 251.056 250.577 251.048C250.492 251.038 250.41 251.032 250.33 251.032C250.218 251.032 250.107 251.044 249.995 251.068C249.886 251.092 249.787 251.131 249.696 251.184C249.606 251.237 249.533 251.305 249.477 251.387C249.421 251.469 249.393 251.57 249.393 251.69C249.393 251.831 249.427 251.956 249.493 252.065C249.559 252.174 249.643 252.27 249.744 252.356C249.845 252.441 249.957 252.518 250.079 252.587C250.204 252.656 250.325 252.72 250.441 252.778C250.582 252.85 250.728 252.927 250.88 253.009C251.031 253.089 251.179 253.177 251.322 253.272C251.468 253.365 251.607 253.467 251.737 253.579C251.867 253.691 251.981 253.816 252.079 253.954C252.178 254.089 252.255 254.238 252.311 254.4C252.369 254.562 252.398 254.741 252.398 254.938C252.398 255.148 252.369 255.335 252.311 255.5C252.252 255.665 252.172 255.81 252.071 255.934C251.971 256.059 251.852 256.166 251.717 256.253C251.581 256.341 251.435 256.413 251.278 256.468C251.122 256.524 250.958 256.564 250.788 256.588C250.621 256.615 250.453 256.628 250.286 256.628C250.145 256.628 249.994 256.616 249.832 256.592C249.672 256.568 249.514 256.531 249.357 256.48C249.201 256.427 249.051 256.361 248.907 256.281C248.766 256.199 248.641 256.1 248.532 255.986C248.426 255.869 248.342 255.736 248.281 255.588C248.22 255.436 248.192 255.266 248.198 255.078Z" fill="black"/>
<defs>
<filter id="filter0_d_331_272" x="121.549" y="115.948" width="49.0715" height="79.741" filterUnits="userSpaceOnUse" color-interpolation-filters="sRGB">
<feFlood flood-opacity="0" result="BackgroundImageFix"/>
<feColorMatrix in="SourceAlpha" type="matrix" values="0 0 0 0 0 0 0 0 0 0 0 0 0 0 0 0 0 0 127 0" result="hardAlpha"/>
<feOffset dx="3.06697" dy="3.06697"/>
<feGaussianBlur stdDeviation="3.06697"/>
<feComposite in2="hardAlpha" operator="out"/>
<feColorMatrix type="matrix" values="0 0 0 0 0 0 0 0 0 0 0 0 0 0 0 0 0 0 0.25 0"/>
<feBlend mode="normal" in2="BackgroundImageFix" result="effect1_dropShadow_331_272"/>
<feBlend mode="normal" in="SourceGraphic" in2="effect1_dropShadow_331_272" result="shape"/>
</filter>
<filter id="filter1_d_331_272" x="166.02" y="115.949" width="60.0748" height="79.7404" filterUnits="userSpaceOnUse" color-interpolation-filters="sRGB">
<feFlood flood-opacity="0" result="BackgroundImageFix"/>
<feColorMatrix in="SourceAlpha" type="matrix" values="0 0 0 0 0 0 0 0 0 0 0 0 0 0 0 0 0 0 127 0" result="hardAlpha"/>
<feOffset dx="3.06697" dy="3.06697"/>
<feGaussianBlur stdDeviation="3.06697"/>
<feComposite in2="hardAlpha" operator="out"/>
<feColorMatrix type="matrix" values="0 0 0 0 0 0 0 0 0 0 0 0 0 0 0 0 0 0 0.25 0"/>
<feBlend mode="normal" in2="BackgroundImageFix" result="effect1_dropShadow_331_272"/>
<feBlend mode="normal" in="SourceGraphic" in2="effect1_dropShadow_331_272" result="shape"/>
</filter>
<filter id="filter2_d_331_272" x="60.21" y="115.541" width="15.3348" height="79.7413" filterUnits="userSpaceOnUse" color-interpolation-filters="sRGB">
<feFlood flood-opacity="0" result="BackgroundImageFix"/>
<feColorMatrix in="SourceAlpha" type="matrix" values="0 0 0 0 0 0 0 0 0 0 0 0 0 0 0 0 0 0 127 0" result="hardAlpha"/>
<feOffset dx="3.06697" dy="3.06697"/>
<feGaussianBlur stdDeviation="3.06697"/>
<feComposite in2="hardAlpha" operator="out"/>
<feColorMatrix type="matrix" values="0 0 0 0 0 0 0 0 0 0 0 0 0 0 0 0 0 0 0.25 0"/>
<feBlend mode="normal" in2="BackgroundImageFix" result="effect1_dropShadow_331_272"/>
<feBlend mode="normal" in="SourceGraphic" in2="effect1_dropShadow_331_272" result="shape"/>
</filter>
<filter id="filter3_d_331_272" x="69.4109" y="148.152" width="46.0045" height="15.3348" filterUnits="userSpaceOnUse" color-interpolation-filters="sRGB">
<feFlood flood-opacity="0" result="BackgroundImageFix"/>
<feColorMatrix in="SourceAlpha" type="matrix" values="0 0 0 0 0 0 0 0 0 0 0 0 0 0 0 0 0 0 127 0" result="hardAlpha"/>
<feOffset dx="3.06697" dy="3.06697"/>
<feGaussianBlur stdDeviation="3.06697"/>
<feComposite in2="hardAlpha" operator="out"/>
<feColorMatrix type="matrix" values="0 0 0 0 0 0 0 0 0 0 0 0 0 0 0 0 0 0 0.25 0"/>
<feBlend mode="normal" in2="BackgroundImageFix" result="effect1_dropShadow_331_272"/>
<feBlend mode="normal" in="SourceGraphic" in2="effect1_dropShadow_331_272" result="shape"/>
</filter>
<filter id="filter4_d_331_272" x="109.282" y="115.541" width="15.3348" height="79.7413" filterUnits="userSpaceOnUse" color-interpolation-filters="sRGB">
<feFlood flood-opacity="0" result="BackgroundImageFix"/>
<feColorMatrix in="SourceAlpha" type="matrix" values="0 0 0 0 0 0 0 0 0 0 0 0 0 0 0 0 0 0 127 0" result="hardAlpha"/>
<feOffset dx="3.06697" dy="3.06697"/>
<feGaussianBlur stdDeviation="3.06697"/>
<feComposite in2="hardAlpha" operator="out"/>
<feColorMatrix type="matrix" values="0 0 0 0 0 0 0 0 0 0 0 0 0 0 0 0 0 0 0.25 0"/>
<feBlend mode="normal" in2="BackgroundImageFix" result="effect1_dropShadow_331_272"/>
<feBlend mode="normal" in="SourceGraphic" in2="effect1_dropShadow_331_272" result="shape"/>
</filter>
</defs>
</svg>
