<svg width="26" height="26" viewBox="0 0 26 26" fill="blue  " xmlns="http://www.w3.org/2000/svg">
<rect width="25.1429" height="25.1429" fill="none"/>
<path d="M5.46913 17.3909C6.9198 18.8436 8.85165 19.7157 10.9007 19.8429C12.9498 19.97 14.9746 19.3435 16.5938 18.0813L22.165 23.6525C22.3626 23.8433 22.6272 23.9489 22.9019 23.9465C23.1766 23.9442 23.4394 23.834 23.6336 23.6397C23.8278 23.4455 23.938 23.1827 23.9404 22.9081C23.9428 22.6334 23.8372 22.3688 23.6464 22.1712L18.0751 16.5999C19.3933 14.9082 20.0166 12.7773 19.8177 10.6419C19.6189 8.50643 18.6129 6.52728 17.005 5.10803C15.397 3.68879 13.3083 2.93637 11.1647 3.00422C9.02107 3.07207 6.98408 3.95508 5.46913 5.47317C4.68634 6.25555 4.06538 7.1845 3.64172 8.20694C3.21806 9.22939 3 10.3253 3 11.432C3 12.5388 3.21806 13.6347 3.64172 14.6571C4.06538 15.6795 4.68634 16.6085 5.46913 17.3909ZM6.95046 6.9566C7.98611 5.92097 9.3488 5.27647 10.8064 5.1329C12.2639 4.98933 13.7262 5.35557 14.944 6.16923C16.1618 6.98289 17.0598 8.19362 17.485 9.59515C17.9102 10.9967 17.8364 12.5023 17.276 13.8554C16.7156 15.2086 15.7033 16.3256 14.4117 17.0161C13.1201 17.7067 11.6291 17.928 10.1926 17.6424C8.75605 17.3568 7.463 16.582 6.53371 15.45C5.60443 14.318 5.0964 12.8987 5.09618 11.4341C5.0933 10.6019 5.25573 9.77732 5.57404 9.00834C5.89236 8.23935 6.36021 7.54124 6.95046 6.9545V6.9566Z" fill="#2B2B2B"/>
</svg>
