<svg width="21" height="21" viewBox="0 0 21 21" fill="none" xmlns="http://www.w3.org/2000/svg">
<g clip-path="url(#clip0_257_18)">
<path d="M0.303606 13.7133L1.9848 15.3942C2.10279 15.5121 2.26279 15.5784 2.42963 15.5784C2.59647 15.5784 2.75648 15.5121 2.87447 15.3942C3.04931 15.2183 3.25728 15.079 3.48635 14.9841C3.71542 14.8892 3.96104 14.8407 4.20898 14.8414C5.24997 14.8414 6.09654 15.688 6.09654 16.729C6.09715 16.977 6.04859 17.2226 5.95366 17.4518C5.85873 17.6809 5.71932 17.8889 5.54349 18.0638C5.42553 18.1818 5.35927 18.3418 5.35927 18.5086C5.35927 18.6755 5.42553 18.8355 5.54349 18.9535L7.22468 20.6343C7.34768 20.7574 7.50844 20.8187 7.66951 20.8187C7.83058 20.8187 7.99166 20.7574 8.11435 20.6343L20.0689 8.67977C20.1275 8.62143 20.1739 8.55211 20.2056 8.47577C20.2373 8.39944 20.2537 8.31759 20.2537 8.23494C20.2537 8.15228 20.2373 8.07044 20.2056 7.9941C20.1739 7.91777 20.1275 7.84844 20.0689 7.7901L18.3877 6.10923C18.2697 5.99127 18.1097 5.92501 17.9429 5.92501C17.7761 5.92501 17.6161 5.99127 17.4981 6.10923C17.3232 6.28503 17.1152 6.42441 16.8862 6.51929C16.6571 6.61417 16.4115 6.66266 16.1636 6.66197C15.1226 6.66197 14.276 5.81539 14.276 4.7744C14.276 4.27011 14.4726 3.79633 14.829 3.43958C14.947 3.32159 15.0133 3.16158 15.0133 2.99474C15.0133 2.82791 14.947 2.6679 14.829 2.54991L13.1479 0.869032C13.0299 0.751078 12.8699 0.684814 12.703 0.684814C12.5362 0.684814 12.3762 0.751078 12.2582 0.869032L0.303606 12.8236C0.245051 12.8819 0.19859 12.9513 0.166887 13.0276C0.135185 13.1039 0.118866 13.1858 0.118866 13.2684C0.118866 13.3511 0.135185 13.4329 0.166887 13.5093C0.19859 13.5856 0.245051 13.6549 0.303606 13.7133ZM8.2987 6.60786L8.79765 7.1068C8.92034 7.22981 9.08141 7.29116 9.24248 7.29116C9.40355 7.29116 9.56463 7.22981 9.68732 7.1068C9.80527 6.98881 9.87154 6.82881 9.87154 6.66197C9.87154 6.49513 9.80527 6.33512 9.68732 6.21713L9.18837 5.71818L12.703 2.20354L13.5386 3.03879C13.1973 3.55319 13.0161 4.15711 13.0176 4.7744C13.0176 6.50907 14.4289 7.92034 16.1636 7.92034C16.7807 7.92205 17.3846 7.74088 17.8989 7.39969L18.7341 8.23494L15.2198 11.7496L14.7208 11.2506C14.6628 11.1905 14.5934 11.1426 14.5166 11.1096C14.4398 11.0767 14.3573 11.0593 14.2737 11.0586C14.1902 11.0578 14.1073 11.0738 14.03 11.1054C13.9527 11.137 13.8824 11.1838 13.8234 11.2428C13.7643 11.3019 13.7176 11.3722 13.6859 11.4495C13.6543 11.5268 13.6384 11.6097 13.6391 11.6932C13.6398 11.7768 13.6572 11.8593 13.6902 11.9361C13.7231 12.0128 13.7711 12.0823 13.8312 12.1403L14.3301 12.6393L7.66951 19.2998L6.83395 18.4646C7.17519 17.9502 7.35647 17.3463 7.35492 16.729C7.35492 14.9943 5.94365 13.583 4.20898 13.583C3.59181 13.5813 2.98796 13.7625 2.47368 14.1037L1.63843 13.2684L8.2987 6.60786Z" fill="#F28080"/>
<path d="M10.6856 8.99439C10.8083 9.1174 10.9693 9.17874 11.1304 9.17874C11.2915 9.17874 11.4525 9.1174 11.5752 8.99439C11.6932 8.8764 11.7595 8.71639 11.7595 8.54956C11.7595 8.38272 11.6932 8.22271 11.5752 8.10472L10.946 7.47553C10.888 7.41544 10.8186 7.3675 10.7418 7.33453C10.665 7.30155 10.5825 7.2842 10.4989 7.28347C10.4154 7.28275 10.3326 7.29867 10.2552 7.3303C10.1779 7.36194 10.1076 7.40866 10.0486 7.46773C9.9895 7.52681 9.94278 7.59706 9.91114 7.67438C9.87951 7.75171 9.86359 7.83456 9.86431 7.9181C9.86504 8.00165 9.8824 8.08421 9.91537 8.16097C9.94835 8.23774 9.99628 8.30716 10.0564 8.3652L10.6856 8.99439ZM11.9439 10.2528L12.5731 10.882C12.6958 11.005 12.8569 11.0663 13.018 11.0663C13.179 11.0663 13.3401 11.005 13.4628 10.882C13.5808 10.764 13.647 10.604 13.647 10.4371C13.647 10.2703 13.5808 10.1103 13.4628 9.99228L12.8336 9.3631C12.7756 9.303 12.7061 9.25507 12.6294 9.22209C12.5526 9.18912 12.4701 9.17176 12.3865 9.17104C12.303 9.17031 12.2201 9.18623 12.1428 9.21787C12.0655 9.2495 11.9952 9.29622 11.9361 9.3553C11.8771 9.41437 11.8303 9.48462 11.7987 9.56195C11.7671 9.63927 11.7512 9.72212 11.7519 9.80567C11.7526 9.88921 11.77 9.97177 11.8029 10.0485C11.8359 10.1253 11.8838 10.1947 11.9439 10.2528Z" fill="#F28080"/>
</g>
<defs>
<clipPath id="clip0_257_18">
<rect width="20.134" height="20.134" fill="white" transform="translate(0.119598 0.68457)"/>
</clipPath>
</defs>
</svg>
