<svg width="26" height="26" viewBox="0 0 26 26" fill="none" xmlns="http://www.w3.org/2000/svg">
<path d="M18.0043 15.1274C17.7882 15.0193 16.3835 14.371 16.1674 14.263C15.9513 14.1549 15.7352 14.1549 15.5191 14.371C15.303 14.5871 14.8708 15.2354 14.6547 15.4515C14.5467 15.6676 14.3306 15.6676 14.1145 15.5596C13.3581 15.2354 12.6018 14.8032 11.9535 14.263C11.4132 13.7227 10.8729 13.0744 10.4407 12.4261C10.3327 12.21 10.4407 11.9939 10.5488 11.8859C10.6568 11.7778 10.7649 11.5617 10.981 11.4537C11.0891 11.3456 11.1971 11.1295 11.1971 11.0215C11.3052 10.9134 11.3052 10.6973 11.1971 10.5893C11.0891 10.4812 10.5488 9.18459 10.3327 8.64434C10.2246 7.88798 10.0085 7.88798 9.79244 7.88798H9.25219C9.03609 7.88798 8.71193 8.10409 8.60388 8.21214C7.95558 8.86044 7.63142 9.6168 7.63142 10.4812C7.73948 11.4537 8.06363 12.4261 8.71193 13.2905C9.90049 15.0193 11.4132 16.424 13.2501 17.2884C13.7903 17.5045 14.2225 17.7206 14.7628 17.8287C15.303 18.0448 15.8433 18.0448 16.4916 17.9367C17.2479 17.8287 17.8963 17.2884 18.3285 16.6401C18.5446 16.2079 18.5446 15.7757 18.4365 15.3435L18.0043 15.1274ZM20.7056 5.29476C16.4916 1.08078 9.68439 1.08078 5.47041 5.29476C2.01278 8.75239 1.36448 14.0469 3.74159 18.2609L2.22888 23.7715L7.95558 22.2587C9.57634 23.1232 11.3052 23.5554 13.034 23.5554C18.9768 23.5554 23.731 18.8011 23.731 12.8583C23.8391 10.049 22.6505 7.34773 20.7056 5.29476ZM17.7882 20.4219C16.3835 21.2863 14.7628 21.8265 13.034 21.8265C11.4132 21.8265 9.90049 21.3943 8.49583 20.638L8.17168 20.4219L4.8221 21.2863L5.68651 18.0448L5.47041 17.7206C2.87719 13.3986 4.1738 7.99604 8.38778 5.29476C12.6018 2.59349 18.0043 3.99815 20.5975 8.10409C23.1907 12.3181 22.0022 17.8287 17.7882 20.4219Z" fill="white"/>
</svg>
