<svg width="27" height="26" viewBox="0 0 27 26" fill="none" xmlns="http://www.w3.org/2000/svg">
<path d="M18.8433 15.1274C18.6272 15.0194 17.2225 14.371 17.0064 14.263C16.7903 14.1549 16.5742 14.1549 16.3581 14.371C16.142 14.5872 15.7098 15.2355 15.4937 15.4516C15.3857 15.6677 15.1696 15.6677 14.9535 15.5596C14.1971 15.2355 13.4408 14.8033 12.7924 14.263C12.2522 13.7227 11.7119 13.0744 11.2797 12.4261C11.1717 12.21 11.2797 11.9939 11.3878 11.8859C11.4958 11.7778 11.6039 11.5617 11.82 11.4537C11.928 11.3456 12.0361 11.1295 12.0361 11.0215C12.1441 10.9134 12.1441 10.6973 12.0361 10.5893C11.928 10.4812 11.3878 9.18461 11.1717 8.64436C11.0636 7.888 10.8475 7.888 10.6314 7.888H10.0912C9.87507 7.888 9.55092 8.1041 9.44287 8.21215C8.79457 8.86046 8.47041 9.61681 8.47041 10.4812C8.57846 11.4537 8.90262 12.4261 9.55092 13.2905C10.7395 15.0194 12.2522 16.424 14.0891 17.2884C14.6293 17.5045 15.0615 17.7206 15.6018 17.8287C16.142 18.0448 16.6823 18.0448 17.3306 17.9367C18.0869 17.8287 18.7352 17.2884 19.1674 16.6401C19.3835 16.2079 19.3835 15.7757 19.2755 15.3435L18.8433 15.1274ZM21.5446 5.29478C17.3306 1.0808 10.5234 1.0808 6.3094 5.29478C2.85177 8.75241 2.20346 14.0469 4.58058 18.2609L3.06787 23.7715L8.79457 22.2588C10.4153 23.1232 12.1441 23.5554 13.873 23.5554C19.8158 23.5554 24.57 18.8011 24.57 12.8583C24.678 10.049 23.4895 7.34775 21.5446 5.29478ZM18.6272 20.4219C17.2225 21.2863 15.6018 21.8266 13.873 21.8266C12.2522 21.8266 10.7395 21.3944 9.33482 20.638L9.01067 20.4219L5.66109 21.2863L6.5255 18.0448L6.3094 17.7206C3.71618 13.3986 5.01279 7.99605 9.22677 5.29478C13.4408 2.59351 18.8433 3.99817 21.4365 8.1041C24.0297 12.3181 22.8412 17.8287 18.6272 20.4219Z" fill="#2B2B2B"/>
</svg>
